<svg viewBox="0 0 83.4139 65.8047" xmlns="http://www.w3.org/2000/svg" xmlns:xlink="http://www.w3.org/1999/xlink" width="83.413940" height="65.804688" fill="none" customFrame="#000000">
	<defs>
		<linearGradient id="paint_linear_0" x1="60.2433968" x2="0.360176086" y1="-7.41455841" y2="76.2218628" gradientUnits="userSpaceOnUse">
			<stop stop-color="rgb(20,118,255)" offset="0" stop-opacity="1" />
			<stop stop-color="rgb(20,255,150)" offset="1" stop-opacity="1" />
		</linearGradient>
		<g id="pixso_custom_effect_0">
			<effect visibility="visible" effectType="gaussianBlur" stdDeviation="13.902317" />
		</g>
		<filter id="filter_0" width="83.413940" height="38.926758" x="0.000000" y="26.877930" filterUnits="userSpaceOnUse" customEffect="url(#pixso_custom_effect_0)" color-interpolation-filters="sRGB">
			<feFlood flood-opacity="0" result="BackgroundImageFix" />
			<feBlend result="shape" in="SourceGraphic" in2="BackgroundImageFix" mode="normal" />
			<feGaussianBlur stdDeviation="4.63410568" result="effect_layerBlur_1" />
		</filter>
		<linearGradient id="paint_linear_1" x1="47.9630127" x2="43.6992836" y1="-0.555276394" y2="24.491209" gradientUnits="userSpaceOnUse">
			<stop stop-color="rgb(20,118,255)" offset="0" stop-opacity="1" />
			<stop stop-color="rgb(20,255,150)" offset="1" stop-opacity="1" />
		</linearGradient>
		<linearGradient id="paint_linear_2" x1="52.7078934" x2="44.2916107" y1="18.120924" y2="23.0649147" gradientUnits="userSpaceOnUse">
			<stop stop-color="rgb(20,118,255)" offset="0" stop-opacity="1" />
			<stop stop-color="rgb(20,255,150)" offset="1" stop-opacity="1" />
		</linearGradient>
		<linearGradient id="paint_linear_3" x1="34.977375" x2="25.4655266" y1="18.120924" y2="29.2960434" gradientUnits="userSpaceOnUse">
			<stop stop-color="rgb(20,118,255)" offset="0" stop-opacity="1" />
			<stop stop-color="rgb(20,255,150)" offset="1" stop-opacity="1" />
		</linearGradient>
	</defs>
	<g id="组合 1564">
		<rect id="矩形 761" width="55.609264" height="44.535069" x="12.975525" y="0.000000" rx="22.267534" fill="url(#paint_linear_0)" />
		<g filter="url(#filter_0)">
			<rect id="矩形 841" width="55.609264" height="11.121852" x="0.000000" y="0.000000" rx="5.560926" opacity="0.469999999" fill="url(#paint_linear_1)" transform="matrix(1,0,0,-1,13.9023,51.9023)" />
		</g>
		<rect id="矩形 762" width="40.889164" height="20.444582" x="20.390076" y="12.048828" rx="10.222291" fill="rgb(255,255,255)" />
		<rect id="矩形 840" width="4.158184" height="8.316367" x="49.121460" y="18.536133" rx="2.079092" fill="url(#paint_linear_2)" />
		<path id="合并(边框)" d="M30.3859 19.4967C30.4577 19.3481 30.5469 19.215 30.6533 19.0975L30.6533 19.0975C30.766 18.9731 30.8981 18.8661 31.0497 18.7766C31.1971 18.6895 31.3505 18.626 31.5098 18.5863C31.6572 18.5495 31.8097 18.5329 31.9673 18.5366C32.1238 18.5337 32.2752 18.5507 32.4214 18.5877L32.4215 18.5877C32.5803 18.6279 32.7332 18.6916 32.8801 18.7788C33.0299 18.8679 33.1608 18.974 33.2726 19.0972C33.3793 19.2149 33.4687 19.3482 33.5408 19.4971L35.9567 24.5022C36.0139 24.6207 36.0561 24.7425 36.0834 24.8674L36.0834 24.8675C36.1031 24.9576 36.1151 25.0494 36.1192 25.1429C36.124 25.2497 36.1185 25.355 36.1027 25.4587L36.1027 25.4587C36.0866 25.5647 36.0597 25.6691 36.0222 25.7718C35.9845 25.8749 35.9376 25.9722 35.8813 26.064L35.8813 26.064L35.8813 26.064C35.8265 26.1533 35.7629 26.2373 35.6905 26.3158C35.627 26.3848 35.5586 26.4474 35.4854 26.5039C35.3837 26.5822 35.2726 26.6485 35.1522 26.7028C35.0489 26.7493 34.943 26.785 34.8346 26.8099L34.8346 26.8099C34.7266 26.8346 34.6161 26.8486 34.5031 26.8518C34.4034 26.8546 34.305 26.849 34.2079 26.8349C34.0926 26.8182 33.979 26.7896 33.8672 26.7491C33.7551 26.7085 33.6494 26.6576 33.55 26.5965L33.55 26.5965C33.4668 26.5452 33.388 26.4867 33.3137 26.421C33.2287 26.3459 33.1527 26.264 33.0857 26.1754L33.0857 26.1754C33.0192 26.0874 32.9615 25.9929 32.9127 25.8917L31.9627 23.9238L31.0126 25.8914C30.9632 25.9935 30.9049 26.0889 30.8376 26.1774C30.771 26.2651 30.6956 26.3461 30.6114 26.4205C30.5367 26.4865 30.4575 26.5452 30.3738 26.5966C30.2748 26.6574 30.1696 26.708 30.0579 26.7485C29.9461 26.789 29.8324 26.8176 29.7171 26.8343C29.62 26.8483 29.5217 26.854 29.4222 26.8511C29.3097 26.848 29.1997 26.8341 29.0922 26.8096C28.9833 26.7847 28.877 26.7489 28.7732 26.7022C28.6527 26.6479 28.5417 26.5816 28.44 26.5033L28.44 26.5032C28.3667 26.4468 28.2984 26.3841 28.2349 26.3152C28.1624 26.2366 28.0988 26.1527 28.044 26.0633C27.9878 25.9716 27.9408 25.8742 27.9032 25.7712C27.8656 25.6684 27.8388 25.564 27.8227 25.458C27.8069 25.3543 27.8014 25.2491 27.8062 25.1423C27.8103 25.0495 27.8221 24.9584 27.8415 24.8689L27.8415 24.8688C27.8688 24.7431 27.9112 24.6207 27.9687 24.5015L30.3859 19.4967L30.3859 19.4967Z" fill="url(#paint_linear_3)" fill-rule="evenodd" />
	</g>
</svg>
