<svg viewBox="0 0 14 14" xmlns="http://www.w3.org/2000/svg" xmlns:xlink="http://www.w3.org/1999/xlink" width="14.000000" height="14.000000" fill="none">
	<rect id="svg 31" width="14.000000" height="14.000000" x="0.000000" y="0.000000" />
	<path id="矢量 402" d="M5.66667 4.66667L5.66667 12.6C5.66667 12.8577 5.45773 13.0667 5.2 13.0667C4.94227 13.0667 4.73333 12.8577 4.73333 12.6L4.73333 4.66667L1.4 4.66667C1.14227 4.66667 0.933333 4.45773 0.933333 4.2C0.933333 3.94227 1.14227 3.73333 1.4 3.73333L12.6 3.73333C12.8577 3.73333 13.0667 3.94227 13.0667 4.2C13.0667 4.45773 12.8577 4.66666 12.6 4.66666C11.3151 4.66663 7.70807 4.66656 5.99935 4.66656C3.89935 4.66656 5.66667 4.66667 5.66667 4.66667ZM2 0L12 0C13.1046 0 14 0.89543 14 2L14 12C14 13.1046 13.1046 14 12 14L2 14C0.89543 14 0 13.1046 0 12L0 2C0 0.89543 0.89543 0 2 0ZM0.933333 2.93333L0.933333 11.0667C0.933333 12.1712 1.82876 13.0667 2.93333 13.0667L11.0667 13.0667C12.1712 13.0667 13.0667 12.1712 13.0667 11.0667L13.0667 2.93333C13.0667 1.82876 12.1712 0.933333 11.0667 0.933333L2.93333 0.933333C1.82876 0.933333 0.933333 1.82876 0.933333 2.93333Z" fill="rgb(20,118,255)" fill-rule="nonzero" />
</svg>
