<svg viewBox="0 0 14 14" xmlns="http://www.w3.org/2000/svg" xmlns:xlink="http://www.w3.org/1999/xlink" width="14.000000" height="14.000000" fill="none">
	<rect id="svg 34" width="14.000000" height="14.000000" x="0.000000" y="0.000000" />
	<path id="矢量 405" d="M8.75301 14C7.30853 14 6.04496 13.3899 4.82232 12.7993L4.50104 12.6475C3.37266 12.1082 2.25651 11.5434 1.1526 10.9532L1.09588 10.9226C0.144617 10.4668 -0.266042 9.29232 0.180513 8.30347C0.218983 8.2189 0.263067 8.13754 0.312765 8.05937C0.362463 7.98121 0.41728 7.90703 0.477215 7.83684C0.537149 7.76664 0.601604 7.70113 0.670579 7.64031C0.739554 7.57948 0.812361 7.52395 0.889 7.47371C0.965638 7.42346 1.04534 7.37902 1.12812 7.34036C1.21089 7.30171 1.2959 7.26923 1.38316 7.24293C1.47041 7.21663 1.55903 7.19678 1.64903 7.18336C1.73902 7.16995 1.82949 7.16311 1.92043 7.16284C2.20114 7.16284 2.47539 7.22547 2.73528 7.34926L3.75798 7.86653C3.34409 6.74763 2.82467 5.446 2.38673 4.66311C1.93622 3.85516 1.50726 3.56447 1.12926 3.30768L1.09624 3.28484C0.831321 3.10063 0.557429 2.91016 0.343843 2.58853C0.0494901 2.13611 -0.0269699 1.59453 0.133488 1.10011C0.171055 0.98371 0.220849 0.873112 0.282868 0.768313C0.344888 0.663514 0.417557 0.567177 0.500877 0.479303C0.584196 0.391428 0.676047 0.314249 0.77643 0.247766C0.876813 0.181283 0.983177 0.127185 1.09552 0.0854738C1.25128 0.028363 1.41186 -0.000128112 1.57726 3.95273e-07C2.4718 3.95273e-07 3.42917 0.789895 4.07459 1.45268C4.3151 1.69879 4.58145 2.03958 4.8837 2.48795C5.11021 2.12321 5.46523 1.83216 5.88953 1.67374C6.4847 1.45747 7.09745 1.58753 7.53862 1.96258C7.72989 1.73725 7.96263 1.57428 8.23682 1.47368C8.32391 1.44128 8.41299 1.4164 8.50408 1.39905C8.59516 1.38171 8.68701 1.37212 8.77963 1.37031C8.87225 1.36849 8.96439 1.37446 9.05606 1.38822C9.14772 1.40198 9.23767 1.42334 9.3259 1.45231C9.41414 1.48127 9.49947 1.51745 9.58189 1.56085C9.66432 1.60424 9.74273 1.65426 9.81713 1.71091C9.89153 1.76756 9.96091 1.83007 10.0253 1.89845C10.0896 1.96683 10.1481 2.04015 10.2007 2.11842C10.2801 2.07053 10.3633 2.03 10.4495 1.99647C10.6168 1.93384 10.7934 1.90142 10.9711 1.90105C11.6115 1.90105 12.1808 2.29563 12.3883 2.88289C12.4055 2.93079 14.1598 7.84921 13.9882 9.40358C13.8152 10.9325 13.4153 12.6427 10.8429 13.5995C10.1221 13.8692 9.43828 14 8.75301 14L8.75301 14ZM1.91827 8.28505C1.59305 8.28505 1.30803 8.47295 1.17413 8.77505C1.12608 8.87909 1.09953 8.98861 1.09449 9.10363C1.08945 9.21864 1.1063 9.33017 1.14506 9.43821C1.18239 9.54358 1.23808 9.63746 1.31215 9.71986C1.38621 9.80227 1.47291 9.86681 1.57223 9.91348L1.58408 9.919C1.83535 10.0564 3.15563 10.7697 4.95909 11.6311L5.28144 11.7836C6.50444 12.3712 7.55944 12.8782 8.74906 12.8782C9.30797 12.8782 9.87083 12.7695 10.4689 12.5455C12.4662 11.8013 12.744 10.6724 12.8998 9.2739C13.0061 8.34179 12.0103 5.09232 11.3577 3.26274C11.3081 3.12384 11.1445 3.02326 10.9686 3.02326C10.9203 3.02173 10.8734 3.0291 10.8278 3.04537C10.7733 3.06674 10.695 3.12053 10.6283 3.17653L10.8461 3.79068C10.8953 3.92995 10.8892 4.08358 10.8289 4.21805C10.806 4.26831 10.7764 4.31409 10.7402 4.35537C10.7041 4.39666 10.6629 4.43169 10.6166 4.46046C10.5703 4.48923 10.521 4.51051 10.4686 4.52431C10.4162 4.53811 10.363 4.54382 10.309 4.54146C10.2549 4.5391 10.2024 4.52876 10.1513 4.51044C10.1003 4.49212 10.0529 4.46661 10.0092 4.4339C9.96547 4.4012 9.92731 4.3627 9.8947 4.31841C9.86209 4.27411 9.83643 4.22593 9.81771 4.17384L9.35967 2.88805C9.25341 2.58632 8.91957 2.41132 8.60943 2.52921C8.46261 2.583 8.34271 2.695 8.27666 2.83979C8.2435 2.91196 8.22536 2.9879 8.22224 3.06763C8.21913 3.14736 8.23129 3.22455 8.25871 3.29921L8.43461 3.79658C8.4469 3.83123 8.45577 3.86678 8.46122 3.90322C8.46668 3.93967 8.46861 3.97631 8.46703 4.01315C8.46544 4.04999 8.46036 4.08631 8.45179 4.12212C8.44322 4.15793 8.43132 4.19254 8.4161 4.22594C8.40088 4.25934 8.38263 4.29089 8.36134 4.3206C8.34005 4.3503 8.31614 4.37759 8.28961 4.40245C8.26308 4.42732 8.23444 4.44928 8.20368 4.46834C8.17293 4.48741 8.14066 4.50321 8.10687 4.51574C8.0731 4.52823 8.03847 4.53724 8.00297 4.54275C7.96748 4.54827 7.9318 4.55019 7.89594 4.54852C7.86008 4.54684 7.82472 4.54161 7.78986 4.53281C7.755 4.52401 7.72131 4.51181 7.68878 4.49622C7.65625 4.48063 7.62551 4.46195 7.59656 4.44016C7.56761 4.41838 7.541 4.39392 7.51673 4.36677C7.49246 4.33962 7.47099 4.31031 7.45232 4.27884C7.43366 4.24737 7.41815 4.21433 7.40581 4.17974L7.01705 3.08995C6.909 2.79042 6.57444 2.61468 6.26537 2.73295C6.00619 2.82984 5.56754 3.15111 5.7542 3.67611L6.03671 4.47116C6.0485 4.50432 6.05716 4.53832 6.0627 4.57316C6.06823 4.608 6.07054 4.64306 6.06962 4.67835C6.06871 4.71363 6.06458 4.74852 6.05724 4.78301C6.04991 4.81749 6.03949 4.85097 6.026 4.88344C6.0125 4.91591 5.99616 4.94679 5.97698 4.97609C5.9578 5.00539 5.93612 5.03259 5.91194 5.05769C5.88775 5.08279 5.86149 5.10535 5.83316 5.12535C5.80482 5.14536 5.77491 5.16247 5.74343 5.17668C5.71198 5.19132 5.67947 5.20276 5.64589 5.21101C5.61231 5.21926 5.57828 5.22416 5.54378 5.22573C5.50929 5.22729 5.47496 5.22549 5.44081 5.22031C5.40665 5.21513 5.37328 5.20668 5.3407 5.19495C5.30812 5.18322 5.27692 5.16843 5.24709 5.15057C5.21727 5.13271 5.18937 5.11211 5.16339 5.08878C5.1374 5.06544 5.11381 5.03978 5.09261 5.01181C5.07141 4.98384 5.05299 4.95406 5.03734 4.92247L5.03016 4.90847C4.54017 3.98079 3.8287 2.79705 3.30102 2.25658C2.42083 1.35542 1.73592 1.05074 1.47172 1.14874C1.3267 1.204 1.21972 1.31453 1.17234 1.46042C1.12101 1.62253 1.1508 1.80895 1.25526 1.97105C1.35111 2.11511 1.51372 2.23079 1.73269 2.37816L1.73987 2.38295C2.17135 2.68063 2.76257 3.08847 3.33548 4.11084C3.83265 5.00021 4.50356 6.63563 5.22508 8.71684L5.25523 8.80416C5.27395 8.85744 5.28447 8.91238 5.28681 8.96897C5.28916 9.02556 5.2832 9.08121 5.26896 9.13593C5.25472 9.19065 5.23283 9.24194 5.20331 9.28979C5.17378 9.33764 5.13796 9.37987 5.09585 9.41647C4.93719 9.56016 4.69417 9.59332 4.49638 9.49347L2.26217 8.36537C2.15372 8.31068 2.03909 8.28391 1.91827 8.28505L1.91827 8.28505Z" fill="rgb(0,0,0)" fill-rule="nonzero" />
</svg>
