<svg viewBox="0 0 14 14" xmlns="http://www.w3.org/2000/svg" xmlns:xlink="http://www.w3.org/1999/xlink" width="14.000000" height="14.000000" fill="none">
	<rect id="svg 30" width="14.000000" height="14.000000" x="0.000000" y="0.000000" />
	<path id="矢量 400" d="M11.974 13.9899L2.02679 13.9899C1.15239 13.9899 0.442383 13.2422 0.442383 12.3233L0.442383 6.58457C0.442383 5.66558 1.15327 4.91797 2.02679 4.91797L11.9731 4.91797C12.8466 4.91797 13.5575 5.66558 13.5575 6.58457L13.5575 12.3224C13.5584 13.2422 12.8475 13.9899 11.974 13.9899ZM2.02679 5.79237C1.63506 5.79237 1.31678 6.14825 1.31678 6.58457L1.31678 12.3224C1.31678 12.7605 1.63506 13.1155 2.02679 13.1155L11.9731 13.1155C12.3648 13.1155 12.6831 12.7605 12.6831 12.3233L12.6831 6.58457C12.6831 6.14737 12.3648 5.79237 11.9731 5.79237L2.02679 5.79237Z" fill="rgb(20,118,255)" fill-rule="nonzero" />
	<path id="矢量 401" d="M10.2453 5.32159C10.2166 5.32159 10.1882 5.31879 10.1601 5.31319C10.1319 5.30759 10.1046 5.2993 10.078 5.28831C10.0515 5.27732 10.0263 5.26386 10.0025 5.24791C9.97858 5.23196 9.9565 5.21384 9.9362 5.19354C9.9159 5.17324 9.89778 5.15115 9.88183 5.12729C9.86588 5.10342 9.85241 5.07822 9.84143 5.0517C9.83044 5.02518 9.82215 4.99784 9.81655 4.96968C9.81095 4.94153 9.80815 4.9131 9.80815 4.88439L9.80815 3.61826C9.78979 2.32328 8.63208 0.874399 7.00045 0.874399C5.45189 0.874399 4.19276 2.26906 4.19276 3.98376L4.19276 4.82143C4.19276 4.85014 4.18996 4.87857 4.18436 4.90673C4.17876 4.93488 4.17046 4.96222 4.15948 4.98874C4.14849 5.01527 4.13503 5.04046 4.11908 5.06433C4.10313 5.0882 4.085 5.11028 4.06471 5.13058C4.04441 5.15088 4.02232 5.169 3.99845 5.18495C3.97458 5.2009 3.94939 5.21437 3.92287 5.22535C3.89635 5.23634 3.86901 5.24463 3.84085 5.25023C3.8127 5.25583 3.78427 5.25863 3.75556 5.25863C3.72685 5.25863 3.69842 5.25583 3.67027 5.25023C3.64211 5.24463 3.61477 5.23634 3.58825 5.22535C3.56173 5.21437 3.53653 5.2009 3.51266 5.18495C3.4888 5.169 3.46671 5.15088 3.44641 5.13058C3.42611 5.11028 3.40799 5.0882 3.39204 5.06433C3.37609 5.04046 3.36262 5.01526 3.35164 4.98874C3.34065 4.96222 3.33236 4.93488 3.32676 4.90673C3.32116 4.87857 3.31836 4.85014 3.31836 4.82143L3.31836 3.98376C3.31836 1.7864 4.9701 0 7.00045 0C8.9355 0 10.6563 1.68759 10.6825 3.61214L10.6825 4.88439C10.6825 4.9131 10.6797 4.94153 10.6741 4.96968C10.6685 4.99784 10.6603 5.02518 10.6493 5.0517C10.6383 5.07822 10.6248 5.10342 10.6089 5.12729C10.5929 5.15115 10.5748 5.17324 10.5545 5.19354C10.5342 5.21384 10.5121 5.23196 10.4882 5.24791C10.4644 5.26386 10.4392 5.27733 10.4127 5.28831C10.3861 5.2993 10.3588 5.30759 10.3306 5.31319C10.3025 5.31879 10.2741 5.32159 10.2453 5.32159L10.2453 5.32159ZM7.00045 11.4328C5.91532 11.4328 5.03306 10.5496 5.03306 9.46537C5.03306 8.38111 5.91532 7.49797 7.00045 7.49797C8.08471 7.49797 8.96785 8.38111 8.96785 9.46537C8.96785 10.5496 8.08471 11.4328 7.00045 11.4328ZM7.00045 8.37237C6.39799 8.37237 5.90745 8.86291 5.90745 9.46537C5.90745 10.0678 6.39799 10.5584 7.00045 10.5584C7.60291 10.5584 8.09345 10.0678 8.09345 9.46537C8.09345 8.86291 7.60291 8.37237 7.00045 8.37237Z" fill="rgb(20,118,255)" fill-rule="nonzero" />
</svg>
