<svg viewBox="0 0 14 14" xmlns="http://www.w3.org/2000/svg" xmlns:xlink="http://www.w3.org/1999/xlink" width="14.000000" height="14.000000" fill="none">
	<rect id="svg 29" width="14.000000" height="14.000000" x="0.000000" y="0.000000" />
	<path id="矢量 397" d="M7 0C8.23636 0 9.38309 0.1372 10.4125 0.366275C10.7749 0.446775 11.0976 0.53375 11.3771 0.6209C11.5356 0.670425 11.6516 0.710675 11.7222 0.737625C12.45 0.977375 13 1.75175 13 2.51492L13 8.8319C13 9.54397 12.5716 10.399 11.9971 10.8188L8.11709 13.654C7.48655 14.1148 6.51473 14.1159 5.88291 13.654L2.00291 10.8188C1.43091 10.4008 1 9.54152 1 8.8319L1 2.51492C1 1.74667 1.54836 0.96915 2.28109 0.7364C2.352 0.70945 2.46691 0.66955 2.62291 0.6209C2.94064 0.522748 3.26216 0.437873 3.58745 0.366275C4.61691 0.137025 5.76364 0 7 0ZM7 1.05C5.85018 1.05 4.78527 1.1774 3.83327 1.38933C3.50218 1.46282 3.20964 1.54157 2.95927 1.6198C2.87309 1.64658 2.79873 1.67143 2.73673 1.6933C2.70164 1.70555 2.67964 1.71378 2.67127 1.7171C2.65736 1.7225 2.64324 1.72734 2.62891 1.73162C2.35491 1.81422 2.09091 2.18488 2.09091 2.51493L2.09091 8.8319C2.09091 9.21743 2.36582 9.7657 2.66255 9.98252L6.54255 12.8177C6.78418 12.9944 7.21636 12.9939 7.45746 12.8177L11.3375 9.98252C11.6364 9.76395 11.9091 9.21987 11.9091 8.8319L11.9091 2.51492C11.9091 2.18942 11.6427 1.81755 11.3636 1.72935L11.3287 1.7171C11.307 1.70887 11.2852 1.70093 11.2633 1.6933C11.2013 1.67142 11.1269 1.64657 11.0407 1.6198C10.7528 1.53096 10.4615 1.45413 10.1667 1.38932C9.21473 1.1774 8.14982 1.05 7 1.05L7 1.05ZM9.34127 4.179C9.36659 4.15464 9.39413 4.13289 9.4239 4.11375C9.45367 4.0946 9.48508 4.07844 9.51816 4.06525C9.55123 4.05206 9.58532 4.0421 9.62043 4.03538C9.65554 4.02865 9.69099 4.02528 9.72679 4.02527C9.76259 4.02526 9.79805 4.02861 9.83316 4.03532C9.86827 4.04203 9.90237 4.05197 9.93545 4.06514C9.96853 4.07831 9.99996 4.09446 10.0297 4.11358C10.0595 4.13271 10.0871 4.15444 10.1124 4.17879C10.1377 4.20314 10.1604 4.22963 10.1803 4.25826C10.2002 4.28689 10.217 4.31712 10.2307 4.34894C10.2445 4.38076 10.2548 4.41357 10.2619 4.44736C10.2689 4.48114 10.2724 4.51526 10.2724 4.54972C10.2725 4.58418 10.269 4.61831 10.2621 4.65211C10.2552 4.68591 10.2449 4.71874 10.2312 4.75059C10.2175 4.78244 10.2008 4.8127 10.181 4.84138C10.1611 4.87006 10.1385 4.8966 10.1133 4.921L6.48236 8.421C6.45708 8.44537 6.42957 8.46714 6.39983 8.48631C6.37009 8.50547 6.3387 8.52166 6.30566 8.53488C6.27261 8.54809 6.23854 8.55808 6.20345 8.56485C6.16836 8.57161 6.13292 8.57501 6.09714 8.57506C6.06135 8.57511 6.0259 8.5718 5.99079 8.56514C5.95568 8.55847 5.92158 8.54857 5.8885 8.53545C5.85541 8.52232 5.82397 8.50622 5.79418 8.48713C5.76439 8.46805 5.73681 8.44636 5.71145 8.42205L3.88782 6.67398C3.86211 6.64972 3.83913 6.62328 3.81886 6.59464C3.7986 6.56601 3.78145 6.53574 3.76741 6.50383C3.75337 6.47193 3.74272 6.43901 3.73545 6.40508C3.72818 6.37115 3.72444 6.33686 3.72423 6.30221C3.72401 6.26756 3.72733 6.23323 3.73417 6.19922C3.74102 6.16521 3.75127 6.13217 3.76491 6.10011C3.77855 6.06804 3.79533 6.03758 3.81524 6.00872C3.83515 5.97985 3.8578 5.95314 3.8832 5.9286C3.90861 5.90405 3.93626 5.88213 3.96617 5.86286C3.99608 5.84358 4.02766 5.82731 4.06092 5.81405C4.09418 5.80079 4.12846 5.7908 4.16377 5.78407C4.19908 5.77734 4.23474 5.77402 4.27073 5.77408C4.30673 5.77415 4.34237 5.77761 4.37766 5.78447C4.41294 5.79133 4.44718 5.80145 4.48039 5.81484C4.51359 5.82822 4.5451 5.84461 4.57494 5.864C4.60477 5.88339 4.63233 5.90541 4.65764 5.93005L6.09527 7.308L9.34127 4.179Z" fill="rgb(20,118,255)" fill-rule="nonzero" />
</svg>
