<svg viewBox="0 0 14 14" xmlns="http://www.w3.org/2000/svg" xmlns:xlink="http://www.w3.org/1999/xlink" width="14.000000" height="14.000000" fill="none">
	<rect id="svg 19" width="14.000000" height="14.000000" x="0.000000" y="0.000000" />
	<path id="矢量 353" d="M10.5635 11.5865L10.5635 8.81761C10.5723 8.55721 10.7982 8.35677 11.0586 8.36447C11.088 8.36576 11.117 8.36974 11.1456 8.37642C11.1742 8.3831 11.202 8.39236 11.2289 8.40421C11.2558 8.41605 11.2814 8.43027 11.3057 8.44687C11.3299 8.46347 11.3525 8.48217 11.3732 8.50295C11.394 8.52374 11.4127 8.54627 11.4293 8.57053C11.4459 8.5948 11.4602 8.62039 11.472 8.64729C11.4838 8.6742 11.4931 8.70197 11.4998 8.7306C11.5065 8.75923 11.5104 8.78823 11.5117 8.81761L11.5117 10.7019L11.5117 11.5863L12.7022 11.5863C12.9626 11.5863 13.0289 11.737 12.8452 11.9223L11.3612 13.3974C11.176 13.5827 10.875 13.5827 10.6988 13.3974L9.2148 11.9132C9.02953 11.7279 9.08833 11.5772 9.35783 11.5772L10.5649 11.5772L10.5649 11.5865L10.5635 11.5865Z" fill="rgb(20,118,255)" fill-rule="nonzero" />
	<path id="矢量 354" d="M13.6424 6.06097C13.7432 6.76564 13.7264 7.47731 13.6093 8.17451C13.6014 8.20427 13.5908 8.233 13.5774 8.2607C13.5639 8.2884 13.548 8.31456 13.5295 8.33918C13.511 8.3638 13.4903 8.38642 13.4675 8.40704C13.4446 8.42766 13.42 8.4459 13.3936 8.46176C13.3673 8.47762 13.3396 8.49081 13.3107 8.50132C13.2817 8.51184 13.2521 8.51949 13.2217 8.52426C13.1912 8.52904 13.1607 8.53086 13.1299 8.52972C13.0991 8.52859 13.0688 8.52452 13.0388 8.51751C13.009 8.50964 12.9803 8.49899 12.9526 8.48557C12.9249 8.47215 12.8988 8.45621 12.8742 8.43773C12.8496 8.41926 12.827 8.3986 12.8063 8.37576C12.7857 8.35291 12.7675 8.32831 12.7516 8.30194C12.7358 8.27557 12.7226 8.24793 12.7121 8.21901C12.7015 8.19009 12.6939 8.16043 12.6891 8.13004C12.6843 8.09964 12.6825 8.06907 12.6836 8.03831C12.6847 8.00757 12.6888 7.97721 12.6958 7.94724C13.2133 4.80237 11.0926 1.83391 7.94816 1.31427C4.80376 0.793474 1.83552 2.91611 1.31472 6.06097C0.793924 9.20561 2.91632 12.1743 6.06072 12.6937C6.65526 12.7945 7.26029 12.7945 7.85506 12.7103C7.91741 12.7044 7.97846 12.7108 8.03821 12.7296C8.09796 12.7483 8.15171 12.778 8.19946 12.8185C8.29582 12.9 8.35602 13.0145 8.36652 13.1394C8.39219 13.389 8.19946 13.6165 7.93906 13.6406C4.27572 14.16 0.87979 11.6113 0.35899 7.93814C-0.16041 4.26501 2.39692 0.877707 6.06072 0.358307C9.72569 -0.162493 13.123 2.39671 13.6424 6.06097ZM8.77742 3.63151C8.96596 3.81397 8.97529 4.10354 8.78676 4.29347L7.50062 5.57634L8.57652 5.57634C8.84392 5.58521 9.04949 5.80781 9.04179 6.06471C9.03106 6.30667 8.82852 6.50104 8.57652 6.51154L7.33682 6.51154L7.33682 7.33847L8.57652 7.33847C8.84392 7.34734 9.04949 7.57017 9.04179 7.82684C9.03106 8.06904 8.82852 8.26341 8.57652 8.27391L7.33682 8.27391L7.33682 10.0524C7.32749 10.309 7.09556 10.5067 6.82816 10.4992C6.57616 10.4889 6.37386 10.2943 6.36289 10.0524L6.36289 8.27227L5.13252 8.27227C4.86512 8.26341 4.65956 8.04081 4.66726 7.78391C4.67799 7.54194 4.88052 7.34757 5.13252 7.33707L6.36289 7.33707L6.36289 6.51014L5.13252 6.51014C4.86512 6.50127 4.65956 6.27844 4.66726 6.02177C4.67799 5.77957 4.88052 5.58521 5.13252 5.57471L6.20072 5.57471L4.91762 4.29371C4.72909 4.11101 4.73679 3.81397 4.92696 3.63151C5.11712 3.45044 5.42629 3.45767 5.61646 3.64037L6.85616 4.87237L8.08816 3.64037C8.11102 3.61838 8.13574 3.59873 8.16232 3.58141C8.18889 3.56409 8.21685 3.54941 8.2462 3.53737C8.27554 3.52532 8.30576 3.51613 8.33684 3.5098C8.36792 3.50346 8.39932 3.50009 8.43104 3.49968C8.46276 3.49927 8.49423 3.50184 8.52547 3.50737C8.5567 3.51291 8.58714 3.52132 8.61679 3.5326C8.64643 3.54388 8.67476 3.55784 8.70178 3.57447C8.72879 3.5911 8.754 3.61011 8.77742 3.63151L8.77742 3.63151Z" fill="rgb(20,118,255)" fill-rule="nonzero" />
</svg>
