<svg viewBox="0 0 14 14" xmlns="http://www.w3.org/2000/svg" xmlns:xlink="http://www.w3.org/1999/xlink" width="14.000000" height="14.000000" fill="none">
	<rect id="svg 35" width="14.000000" height="14.000000" x="0.000000" y="0.000000" />
	<path id="矢量 406" d="M7.29634 0.253906L7.62184 0.497156L7.68309 0.531573C7.90768 0.664573 8.73426 1.16274 9.91843 1.61599C10.7789 1.92803 11.6663 2.10401 12.5808 2.14391L13.1909 2.14391L13.1909 7.61149C13.1909 10.3555 9.37009 13.2622 7.29634 13.2622C5.27801 13.2622 1.53184 10.4529 1.40584 7.75149L1.40234 7.61149L1.40234 2.14449L2.03001 2.14274C2.24759 2.13224 3.36001 2.05991 4.52026 1.66324L4.65443 1.61599C5.40399 1.34676 6.11955 1.00609 6.80109 0.59399L6.95276 0.497156L7.29693 0.253906L7.29634 0.253906ZM7.30801 1.66382L7.29109 1.66382L7.20943 1.71282C6.86176 1.91699 6.40734 2.15266 5.86193 2.38949L5.67585 2.46882C5.47168 2.55457 5.26401 2.63566 5.05226 2.71266C4.40184 2.94891 3.72051 3.10932 3.04151 3.20966L2.80818 3.24174L2.56901 3.26916L2.56901 7.61149C2.56901 9.40582 5.47693 11.9958 7.19835 12.0927L7.29635 12.0956C8.98393 12.0956 11.9105 9.54524 12.0213 7.71649L12.0243 7.61149L12.0237 3.27557L11.9449 3.26799C11.8458 3.25773 11.7468 3.24607 11.648 3.23299L11.4899 3.20966C10.8096 3.1113 10.1469 2.9433 9.50193 2.70566C8.8449 2.45482 8.2079 2.16063 7.59093 1.82307L7.30801 1.66382L7.30801 1.66382ZM11.0513 6.79424C11.0734 6.81657 11.0934 6.84069 11.1112 6.86661C11.129 6.89252 11.1443 6.91982 11.1572 6.94849C11.1701 6.97716 11.1803 7.00676 11.1879 7.03727C11.1955 7.06778 11.2003 7.09873 11.2023 7.1301C11.2043 7.16148 11.2036 7.19278 11.2 7.22402C11.1964 7.25525 11.19 7.28591 11.1809 7.316C11.1718 7.3461 11.1601 7.37513 11.1457 7.40312C11.1314 7.43111 11.1147 7.45759 11.0956 7.48257L11.0483 7.53624L8.77568 9.79141C8.75245 9.81448 8.72729 9.8352 8.70019 9.85356C8.67309 9.87193 8.64452 9.88762 8.61449 9.90064C8.58445 9.91366 8.55347 9.92378 8.52154 9.93101C8.48961 9.93824 8.45729 9.94244 8.42457 9.94362C8.39186 9.94479 8.35932 9.94293 8.32695 9.93802C8.29459 9.93311 8.26295 9.92525 8.23206 9.91442C8.20117 9.9036 8.17154 9.89 8.14319 9.87363C8.11484 9.85727 8.08825 9.83841 8.06343 9.81707L8.01443 9.76924L6.90493 8.52849C6.88306 8.5039 6.86368 8.47748 6.84679 8.44924C6.82989 8.42101 6.81577 8.39144 6.80444 8.36055C6.7931 8.32966 6.78474 8.29798 6.77936 8.26552C6.77398 8.23305 6.77167 8.20037 6.77244 8.16747C6.7732 8.13458 6.77703 8.10204 6.78391 8.06986C6.79079 8.03768 6.80061 8.00642 6.81337 7.97609C6.82613 7.94576 6.84161 7.91688 6.8598 7.88946C6.87799 7.86204 6.89858 7.83655 6.92156 7.813C6.94454 7.78945 6.96952 7.76825 6.99649 7.74939C7.02346 7.73054 7.05195 7.71436 7.08196 7.70087C7.11197 7.68737 7.14298 7.67679 7.17498 7.66912C7.20698 7.66145 7.23941 7.65684 7.27228 7.65527C7.30515 7.6537 7.33788 7.65521 7.37047 7.6598C7.40305 7.66438 7.43492 7.67197 7.46608 7.68255C7.49724 7.69313 7.52714 7.70652 7.55579 7.72272C7.58443 7.73892 7.61131 7.75765 7.63643 7.77891L7.68718 7.82849L8.42801 8.65624L10.3087 6.79132C10.3331 6.76703 10.3598 6.74537 10.3885 6.72632C10.4172 6.70727 10.4476 6.69121 10.4795 6.67814C10.5114 6.66507 10.5442 6.65523 10.5781 6.64864C10.6119 6.64204 10.6461 6.63881 10.6806 6.63895C10.7151 6.63909 10.7492 6.64258 10.783 6.64944C10.8168 6.6563 10.8496 6.6664 10.8814 6.67972C10.9132 6.69304 10.9434 6.70934 10.972 6.72861C11.0005 6.74788 11.027 6.76976 11.0513 6.79424L11.0513 6.79424ZM6.87168 2.97516C6.93191 2.97496 6.99201 2.97774 7.05197 2.98347C7.11193 2.98921 7.17146 2.99788 7.23056 3.00949C7.28967 3.0211 7.34806 3.03559 7.40573 3.05296C7.4634 3.07033 7.52008 3.0905 7.57577 3.11346C7.63145 3.13642 7.68588 3.16207 7.73903 3.1904C7.79219 3.21873 7.84382 3.2496 7.89393 3.28303C7.94404 3.31645 7.99238 3.35226 8.03895 3.39045C8.08553 3.42865 8.13011 3.46904 8.1727 3.51163C8.2153 3.55422 8.25569 3.59881 8.29388 3.64538C8.33208 3.69196 8.36788 3.7403 8.40131 3.79041C8.43473 3.84052 8.46561 3.89215 8.49394 3.9453C8.52227 3.99846 8.54791 4.05288 8.57088 4.10857C8.59384 4.16425 8.614 4.22093 8.63137 4.2786C8.64874 4.33628 8.66323 4.39467 8.67484 4.45377C8.68645 4.51288 8.69513 4.57241 8.70086 4.63237C8.7066 4.69233 8.70937 4.75242 8.70918 4.81266C8.70956 4.93491 8.69779 5.05597 8.67385 5.17586C8.64992 5.29574 8.6143 5.41205 8.56701 5.52478C8.51971 5.63751 8.46168 5.74441 8.39291 5.84548C8.32414 5.94655 8.24601 6.03978 8.15851 6.12516C8.39068 6.23891 8.61001 6.38591 8.80951 6.56616L8.91334 6.66532L8.17251 7.40849C7.48826 6.72424 6.36768 6.70499 5.65543 7.33149L5.56209 7.42016C5.48066 7.50195 5.40767 7.59069 5.34312 7.68637C5.27857 7.78205 5.22362 7.88296 5.17827 7.9891C5.13291 8.09524 5.09798 8.2047 5.07345 8.31748C5.04892 8.43027 5.03525 8.54435 5.03243 8.65974L5.03359 8.78574L3.98418 8.83007C3.97613 8.64461 3.98599 8.4601 4.01373 8.27655C4.04148 8.09299 4.0866 7.91382 4.1491 7.73902C4.2116 7.56422 4.29031 7.39705 4.38524 7.23752C4.48016 7.07798 4.58953 6.92906 4.71334 6.79074L4.83118 6.66591C5.05275 6.44418 5.30417 6.26412 5.58543 6.12574C5.49858 6.04092 5.42097 5.94836 5.35259 5.84806C5.2842 5.74776 5.2264 5.64169 5.17917 5.52986C5.13195 5.41803 5.09623 5.30264 5.07202 5.18368C5.04781 5.06472 5.03558 4.94455 5.03534 4.82316L5.03826 4.70999C5.09251 3.75449 5.89518 2.97516 6.87226 2.97516L6.87168 2.97516ZM6.87168 4.02516C6.44234 4.02516 6.08418 4.38799 6.08418 4.81266L6.08884 4.90074C6.12968 5.29507 6.46393 5.60191 6.85418 5.60074L6.92709 5.59841C6.97648 5.5953 7.02514 5.58758 7.07306 5.57523C7.12098 5.56288 7.16731 5.54612 7.21204 5.52497C7.25678 5.50381 7.29912 5.47863 7.33907 5.44943C7.37902 5.42022 7.41587 5.38752 7.4496 5.35131C7.48333 5.3151 7.51336 5.27604 7.53967 5.23413C7.56598 5.19222 7.5881 5.1482 7.60605 5.10208C7.62399 5.05596 7.63743 5.00857 7.64637 4.95989C7.6553 4.91122 7.65957 4.86214 7.65918 4.81266C7.65957 4.76084 7.65485 4.70949 7.64503 4.65862C7.6352 4.60774 7.62047 4.55833 7.60082 4.51038C7.58116 4.46243 7.55699 4.41689 7.52828 4.37375C7.49957 4.33061 7.4669 4.29072 7.43026 4.25408C7.39362 4.21744 7.35373 4.18477 7.31059 4.15606C7.26745 4.12735 7.2219 4.10317 7.17396 4.08352C7.12601 4.06387 7.0766 4.04913 7.02572 4.03931C6.97484 4.02949 6.92349 4.02477 6.87168 4.02516L6.87168 4.02516Z" fill="rgb(25,25,25)" fill-rule="nonzero" />
</svg>
