<svg viewBox="0 0 14 14" xmlns="http://www.w3.org/2000/svg" xmlns:xlink="http://www.w3.org/1999/xlink" width="14.000000" height="14.000000" fill="none">
	<rect id="svg 36" width="14.000000" height="14.000000" x="0.000000" y="0.000000" />
	<path id="合并" d="M0 6.59224C0 2.94692 3.16624 0 7.0692 0C10.9722 0 14.1192 2.94905 14.1192 6.59224C14.1192 10.2354 10.953 13.1824 7.05004 13.1824C7.05004 13.1824 5.33597 13.2824 4.6397 13.4421C4.1819 13.5422 3.40471 13.7998 2.92776 13.9595C2.86814 13.9808 2.80852 14 2.7489 14C2.50829 14 2.26981 13.8424 2.21019 13.5827C2.09095 13.0844 2.11011 12.3072 2.38905 11.5513C0.936882 10.3355 0 8.56395 0 6.59224ZM6.99042 12.007L7.0692 12.007C10.3142 12.007 12.9439 9.59666 12.9439 6.61141C12.9439 3.62616 10.3142 1.21582 7.0692 1.21582C3.82205 1.21582 1.19452 3.62403 1.19452 6.61141C1.19452 8.14449 1.91209 9.59878 3.14707 10.6336L3.80502 11.1702L3.52608 11.9665C3.44517 12.1859 3.38555 12.3839 3.36639 12.584C3.74327 12.4456 4.10312 12.3456 4.40122 12.2859C5.15924 12.1262 6.81156 12.0262 6.99042 12.007ZM5.36197 5.07993L5.36197 5.8699C5.36197 6.22123 5.07665 6.50868 4.72319 6.50868C4.36973 6.50868 4.08441 6.22336 4.08441 5.8699L4.08441 5.07993C4.08441 4.72647 4.36973 4.44115 4.72319 4.44115C5.07665 4.44115 5.36197 4.72647 5.36197 5.07993ZM8.80927 5.07993C8.80927 4.72647 9.0946 4.44115 9.44806 4.44115C9.80152 4.44115 10.0868 4.72647 10.0868 5.07993L10.0868 5.8699C10.0868 6.22336 9.80152 6.50868 9.44806 6.50868C9.0946 6.50868 8.80927 6.22336 8.80927 5.8699L8.80927 5.07993ZM8.28121 7.8118C8.50053 7.57332 8.87954 7.55203 9.11802 7.75218C9.37779 7.97149 9.39696 8.3505 9.17764 8.58898C8.6581 9.16602 7.92137 9.48541 7.16547 9.48541C6.38829 9.48541 5.65156 9.16602 5.15331 8.58898C4.93399 8.3505 4.97445 7.97149 5.21292 7.75218C5.4514 7.53286 5.83042 7.57332 6.04973 7.8118C6.32867 8.13119 6.72684 8.31005 7.16547 8.31005C7.6041 8.31005 8.00228 8.13119 8.28121 7.8118Z" fill="rgb(25,25,25)" fill-rule="evenodd" />
</svg>
