<svg viewBox="0 0 14 14" xmlns="http://www.w3.org/2000/svg" xmlns:xlink="http://www.w3.org/1999/xlink" width="14.000000" height="14.000000" fill="none">
	<mask id="mask_13" width="13.999999" height="14.000000" x="0.000000" y="0.000000" maskUnits="userSpaceOnUse">
		<g filter="url(#pixso_custom_mask_type_luminance)">
			<g id="mask-4">
				<g id="use">
					<path id="path-3" d="M14 0L14 14L0 14L0 0L14 0ZM3.19201 4.60222C3.05233 4.52199 2.87405 4.57018 2.79382 4.70987L2.77179 4.75767C2.72543 4.88795 2.77731 5.03674 2.90147 5.10805L6.70788 7.30378L6.70833 11.0834C6.70833 11.2445 6.83892 11.3751 7 11.3751L7.05243 11.3704C7.18849 11.3457 7.29167 11.2266 7.29167 11.0834L7.29121 7.30378L11.0179 5.15124C11.1575 5.07078 11.2054 4.89243 11.1249 4.75288L11.0947 4.70981C11.0053 4.60426 10.8506 4.57435 10.7266 4.64587L6.99954 6.79862L3.19201 4.60222Z" fill="rgb(255,255,255)" fill-rule="nonzero" />
				</g>
			</g>
		</g>
	</mask>
	<defs>
		<filter id="pixso_custom_mask_type_luminance">
			<feColorMatrix type="matrix" values="1 0 0 0 0 0 1 0 0 0 0 0 1 0 0 0 0 0 1 0 " />
		</filter>
	</defs>
	<mask id="mask_12" width="14.000496" height="14.000000" x="0.000000" y="0.000000" maskUnits="userSpaceOnUse">
		<g filter="url(#pixso_custom_mask_type_luminance)">
			<g id="mask-2">
				<g id="use">
					<path id="path-1" d="M3.49414 9.32784C3.61129 9.46926 3.75404 9.59109 3.91807 9.68579L6.21527 11.0121C6.70097 11.2925 7.29938 11.2925 7.78508 11.0121L10.0823 9.68579C10.2426 9.59324 10.3826 9.4748 10.4982 9.33747L13.6577 11.0482C13.7729 11.1105 13.9115 11.0873 14.0005 11.0003L14.0002 14L0.000174581 14L0 11.0834C0.044919 11.0835 0.0905236 11.0731 0.133246 11.0512L3.49414 9.32784ZM14.0002 0L14.0005 10.5831C13.9816 10.5646 13.9598 10.5484 13.9354 10.5352L10.7845 8.82912C10.8385 8.66945 10.8672 8.49992 10.8672 8.32629L10.8672 5.67371C10.8672 5.11287 10.568 4.59463 10.0823 4.31421L7.78508 2.98792C7.62975 2.89824 7.46289 2.83724 7.29187 2.80492L7.29184 0L14.0002 0ZM6.70851 0L6.70848 2.80492C6.53746 2.83724 6.3706 2.89824 6.21527 2.98792L3.91807 4.31421C3.43237 4.59463 3.13316 5.11287 3.13316 5.67371L3.13316 8.32629C3.13316 8.49569 3.16046 8.66119 3.21194 8.81743L0 10.4641L0.000174581 0L6.70851 0Z" fill="rgb(255,255,255)" fill-rule="nonzero" />
				</g>
			</g>
		</g>
	</mask>
	<rect id="ic_gts_modelling" width="14.000000" height="14.000000" x="0.000000" y="0.000000" />
	<g id="ic_gts_modelling-模型/base/ic_gts_modelling">
		<path id="path1" d="M0.439095 6.99466C0.439095 5.96942 0.435506 4.94419 0.439095 3.91896C0.437032 3.42285 0.498009 2.92849 0.620561 2.44775C0.889172 1.43021 1.55198 0.826344 2.5685 0.592078C3.0782 0.481954 3.59879 0.430359 4.12019 0.438294C6.08624 0.438294 8.05247 0.438294 10.0189 0.438294C10.5155 0.435211 11.0106 0.492008 11.4937 0.607457C12.5409 0.863765 13.1694 1.52709 13.4088 2.57078C13.5164 3.06404 13.5678 3.56791 13.5621 4.07274C13.5621 6.05999 13.5621 8.0474 13.5621 10.035C13.5647 10.5268 13.5081 11.0172 13.3934 11.4954C13.1371 12.5432 12.4707 13.1686 11.427 13.408C10.9173 13.5177 10.3967 13.5693 9.87533 13.5618C7.91748 13.5618 5.9598 13.5618 4.00229 13.5618C3.50188 13.5659 3.00279 13.5099 2.5157 13.3952C1.46381 13.1389 0.832271 12.4725 0.593392 11.4237C0.47139 10.8905 0.439095 10.3559 0.439095 9.81661C0.439095 8.87613 0.439095 7.93548 0.439095 6.99466Z" fill="rgb(255,255,255)" fill-opacity="0" fill-rule="nonzero" />
		<path id="path1" d="M0.439095 3.91896C0.437032 3.42285 0.498009 2.92849 0.620561 2.44775C0.889172 1.43021 1.55198 0.826344 2.5685 0.592078C3.0782 0.481954 3.59879 0.430359 4.12019 0.438294C6.08624 0.438294 8.05247 0.438294 10.0189 0.438294C10.5155 0.435211 11.0106 0.492008 11.4937 0.607457C12.5409 0.863765 13.1694 1.52709 13.4088 2.57078C13.5164 3.06404 13.5678 3.56791 13.5621 4.07274C13.5621 6.05999 13.5621 8.0474 13.5621 10.035C13.5647 10.5268 13.5081 11.0172 13.3934 11.4954C13.1371 12.5432 12.4707 13.1686 11.427 13.408C10.9173 13.5177 10.3967 13.5693 9.87533 13.5618C7.91748 13.5618 5.9598 13.5618 4.00229 13.5618C3.50188 13.5659 3.00279 13.5099 2.5157 13.3952C1.46381 13.1389 0.832271 12.4725 0.593392 11.4237C0.47139 10.8905 0.439095 10.3559 0.439095 9.81661C0.439095 8.87613 0.439095 7.93548 0.439095 6.99466C0.439095 5.96942 0.435506 4.94419 0.439095 3.91896Z" fill-rule="nonzero" stroke="rgb(255,255,255)" stroke-opacity="0" stroke-width="0.875" />
		<path id="path2" d="M0.439095 6.99466C0.439095 5.96942 0.435506 4.94419 0.439095 3.91896C0.437032 3.42285 0.498009 2.92849 0.620561 2.44775C0.889172 1.43021 1.55198 0.826344 2.5685 0.592078C3.0782 0.481954 3.59879 0.430359 4.12019 0.438294C6.08624 0.438294 8.05247 0.438294 10.0189 0.438294C10.5155 0.435211 11.0106 0.492008 11.4937 0.607457C12.5409 0.863765 13.1694 1.52709 13.4088 2.57078C13.5164 3.06404 13.5678 3.56791 13.5621 4.07274C13.5621 6.05999 13.5621 8.0474 13.5621 10.035C13.5647 10.5268 13.5081 11.0172 13.3934 11.4954C13.1371 12.5432 12.4707 13.1686 11.427 13.408C10.9173 13.5177 10.3967 13.5693 9.87533 13.5618C7.91748 13.5618 5.9598 13.5618 4.00229 13.5618C3.50188 13.5659 3.00279 13.5099 2.5157 13.3952C1.46381 13.1389 0.832271 12.4725 0.593392 11.4237C0.47139 10.8905 0.439095 10.3559 0.439095 9.81661C0.439095 8.87613 0.439095 7.93548 0.439095 6.99466Z" opacity="0.200000003" fill="rgb(0,0,0)" fill-opacity="0" fill-rule="nonzero" />
		<path id="path2" d="M0.439095 3.91896C0.437032 3.42285 0.498009 2.92849 0.620561 2.44775C0.889172 1.43021 1.55198 0.826344 2.5685 0.592078C3.0782 0.481954 3.59879 0.430359 4.12019 0.438294C6.08624 0.438294 8.05247 0.438294 10.0189 0.438294C10.5155 0.435211 11.0106 0.492008 11.4937 0.607457C12.5409 0.863765 13.1694 1.52709 13.4088 2.57078C13.5164 3.06404 13.5678 3.56791 13.5621 4.07274C13.5621 6.05999 13.5621 8.0474 13.5621 10.035C13.5647 10.5268 13.5081 11.0172 13.3934 11.4954C13.1371 12.5432 12.4707 13.1686 11.427 13.408C10.9173 13.5177 10.3967 13.5693 9.87533 13.5618C7.91748 13.5618 5.9598 13.5618 4.00229 13.5618C3.50188 13.5659 3.00279 13.5099 2.5157 13.3952C1.46381 13.1389 0.832271 12.4725 0.593392 11.4237C0.47139 10.8905 0.439095 10.3559 0.439095 9.81661C0.439095 8.87613 0.439095 7.93548 0.439095 6.99466C0.439095 5.96942 0.435506 4.94419 0.439095 3.91896Z" opacity="0.200000003" fill-rule="nonzero" stroke="rgb(255,255,255)" stroke-opacity="0" stroke-width="0.875" />
		<circle id="path3" cx="6.99999952" cy="7" r="6.99999952" fill="rgb(255,255,255)" fill-opacity="0" />
		<circle id="path3" cx="6.99999952" cy="7" r="6.99999952" stroke="rgb(0,0,0)" stroke-opacity="0" stroke-width="0.875" />
		<path id="path4" d="M7.0006 0.602539L7.00041 3.20824M3.84022 8.82283L1.37988 10.0844M10.1606 8.82283L12.5832 10.1329" stroke="rgb(25,25,25)" stroke-linecap="round" stroke-linejoin="round" stroke-width="0.875" />
		<path id="path5" d="M7.86946 0.826252L11.9088 3.15839C12.4503 3.471 12.7838 4.04872 12.7838 4.67393L12.7838 9.33821C12.7838 9.96342 12.4503 10.5411 11.9088 10.8538L7.86946 13.1859C7.32801 13.4985 6.66091 13.4985 6.11946 13.1859L2.08008 10.8538C1.53863 10.5411 1.20508 9.96342 1.20508 9.33821L1.20508 4.67393C1.20508 4.04872 1.53863 3.471 2.08008 3.15839L6.11946 0.826252C6.66091 0.513645 7.32801 0.513645 7.86946 0.826252Z" fill="rgb(255,255,255)" fill-opacity="0" fill-rule="evenodd" />
		<path id="path5" d="M11.9088 3.15839C12.4503 3.471 12.7838 4.04872 12.7838 4.67393L12.7838 9.33821C12.7838 9.96342 12.4503 10.5411 11.9088 10.8538L7.86946 13.1859C7.32801 13.4985 6.66091 13.4985 6.11946 13.1859L2.08008 10.8538C1.53863 10.5411 1.20508 9.96342 1.20508 9.33821L1.20508 4.67393C1.20508 4.04872 1.53863 3.471 2.08008 3.15839L6.11946 0.826252C6.66091 0.513645 7.32801 0.513645 7.86946 0.826252L11.9088 3.15839Z" fill-rule="evenodd" stroke="rgb(25,25,25)" stroke-linejoin="round" stroke-width="0.875" />
		<path id="path6" d="M7.00026 10.5007L7.00026 7.29232M7.01839 7.14648L7.00026 7.13601M7.00026 7.13601L3.9873 5.39648M6.98212 7.14648L7.00026 7.13601L10.0132 5.39648" stroke="rgb(25,25,25)" stroke-linecap="round" stroke-linejoin="round" stroke-width="0.875" />
		<path id="path7" d="M7.49371 3.49349L9.79092 4.81978C10.0961 4.996 10.2842 5.32166 10.2842 5.67409L10.2842 8.32668C10.2842 8.67911 10.0961 9.00477 9.79092 9.18099L7.49371 10.5073C7.1885 10.6835 6.81246 10.6835 6.50724 10.5073L4.21003 9.18099C3.90482 9.00477 3.7168 8.67911 3.7168 8.32668L3.7168 5.67409C3.7168 5.32166 3.90482 4.996 4.21003 4.81978L6.50724 3.49349C6.81246 3.31727 7.1885 3.31727 7.49371 3.49349Z" fill="rgb(255,255,255)" fill-opacity="0" fill-rule="evenodd" />
		<path id="path7" d="M9.79092 4.81978C10.0961 4.996 10.2842 5.32166 10.2842 5.67409L10.2842 8.32668C10.2842 8.67911 10.0961 9.00477 9.79092 9.18099L7.49371 10.5073C7.1885 10.6835 6.81246 10.6835 6.50724 10.5073L4.21003 9.18099C3.90482 9.00477 3.7168 8.67911 3.7168 8.32668L3.7168 5.67409C3.7168 5.32166 3.90482 4.996 4.21003 4.81978L6.50724 3.49349C6.81246 3.31727 7.1885 3.31727 7.49371 3.49349L9.79092 4.81978Z" fill-rule="evenodd" stroke="rgb(25,25,25)" stroke-linejoin="round" stroke-width="0.875" />
		<g id="path8" />
		<g id="mask" mask="url(#mask_12)">
			<path id="path9" d="M7.86946 0.826252L11.9088 3.15839C12.4503 3.471 12.7838 4.04872 12.7838 4.67393L12.7838 9.33821C12.7838 9.96342 12.4503 10.5411 11.9088 10.8538L7.86946 13.1859C7.32801 13.4985 6.66091 13.4985 6.11946 13.1859L2.08008 10.8538C1.53863 10.5411 1.20508 9.96342 1.20508 9.33821L1.20508 4.67393C1.20508 4.04872 1.53863 3.471 2.08008 3.15839L6.11946 0.826252C6.66091 0.513645 7.32801 0.513645 7.86946 0.826252Z" fill="rgb(255,255,255)" fill-opacity="0" fill-rule="evenodd" />
			<path id="path9" d="M11.9088 3.15839C12.4503 3.471 12.7838 4.04872 12.7838 4.67393L12.7838 9.33821C12.7838 9.96342 12.4503 10.5411 11.9088 10.8538L7.86946 13.1859C7.32801 13.4985 6.66091 13.4985 6.11946 13.1859L2.08008 10.8538C1.53863 10.5411 1.20508 9.96342 1.20508 9.33821L1.20508 4.67393C1.20508 4.04872 1.53863 3.471 2.08008 3.15839L6.11946 0.826252C6.66091 0.513645 7.32801 0.513645 7.86946 0.826252L11.9088 3.15839Z" fill-rule="evenodd" stroke="rgb(255,255,255)" stroke-opacity="0" stroke-linejoin="round" stroke-width="0.875" />
		</g>
		<g id="path10" />
		<g id="mask" mask="url(#mask_13)">
			<path id="path11" d="M7.49371 3.49349L9.79092 4.81978C10.0961 4.996 10.2842 5.32166 10.2842 5.67409L10.2842 8.32668C10.2842 8.67911 10.0961 9.00477 9.79092 9.18099L7.49371 10.5073C7.1885 10.6835 6.81246 10.6835 6.50724 10.5073L4.21003 9.18099C3.90482 9.00477 3.7168 8.67911 3.7168 8.32668L3.7168 5.67409C3.7168 5.32166 3.90482 4.996 4.21003 4.81978L6.50724 3.49349C6.81246 3.31727 7.1885 3.31727 7.49371 3.49349Z" fill="rgb(255,255,255)" fill-opacity="0" fill-rule="evenodd" />
			<path id="path11" d="M9.79092 4.81978C10.0961 4.996 10.2842 5.32166 10.2842 5.67409L10.2842 8.32668C10.2842 8.67911 10.0961 9.00477 9.79092 9.18099L7.49371 10.5073C7.1885 10.6835 6.81246 10.6835 6.50724 10.5073L4.21003 9.18099C3.90482 9.00477 3.7168 8.67911 3.7168 8.32668L3.7168 5.67409C3.7168 5.32166 3.90482 4.996 4.21003 4.81978L6.50724 3.49349C6.81246 3.31727 7.1885 3.31727 7.49371 3.49349L9.79092 4.81978Z" fill-rule="evenodd" stroke="rgb(255,255,255)" stroke-opacity="0" stroke-linejoin="round" stroke-width="0.875" />
		</g>
	</g>
</svg>
