<svg viewBox="0 0 14 14" xmlns="http://www.w3.org/2000/svg" xmlns:xlink="http://www.w3.org/1999/xlink" width="14.000000" height="14.000000" fill="none">
	<rect id="svg 25" width="14.000000" height="14.000000" x="0.000000" y="0.000000" />
	<path id="矢量 392" d="M13.646 12.2107L0.721073 12.2107L0.721073 1.41507C0.721073 1.39187 0.718812 1.3689 0.71429 1.34615C0.709768 1.3234 0.703072 1.30131 0.694202 1.27987C0.685332 1.25844 0.674458 1.23808 0.661579 1.21878C0.648701 1.19949 0.634066 1.18164 0.617674 1.16523C0.601281 1.14881 0.583447 1.13416 0.56417 1.12126C0.544893 1.10835 0.524543 1.09746 0.50312 1.08856C0.481698 1.07966 0.459614 1.07294 0.436868 1.06839C0.414123 1.06384 0.391152 1.06155 0.367956 1.06152L0.353547 1.06152C0.330333 1.06152 0.307342 1.06379 0.284574 1.06832C0.261805 1.07285 0.239698 1.07955 0.218251 1.08844C0.196803 1.09732 0.176429 1.10821 0.157127 1.12111C0.137825 1.134 0.119967 1.14866 0.103552 1.16508C0.0871367 1.18149 0.0724806 1.19935 0.0595835 1.21865C0.0466863 1.23795 0.0357959 1.25833 0.0269122 1.27977C0.0180285 1.30122 0.0113222 1.32333 0.00679331 1.3461C0.00226444 1.36887 0 1.39186 0 1.41507L0 12.5854C0 12.6086 0.00226444 12.6316 0.00679331 12.6543C0.0113222 12.6771 0.0180285 12.6992 0.0269122 12.7207C0.0357959 12.7421 0.0466863 12.7625 0.0595835 12.7818C0.0724806 12.8011 0.0871366 12.8189 0.103552 12.8354C0.119967 12.8518 0.137825 12.8664 0.157127 12.8793C0.176429 12.8922 0.196803 12.9031 0.218251 12.912C0.239698 12.9209 0.261805 12.9276 0.284574 12.9321C0.307342 12.9366 0.330333 12.9389 0.353547 12.9389L0.367956 12.9389C0.391704 12.9389 0.415216 12.9365 0.438493 12.9318L13.646 12.9318C13.6692 12.9318 13.6922 12.9295 13.715 12.925C13.7377 12.9205 13.7598 12.9138 13.7813 12.9049C13.8027 12.896 13.8231 12.8851 13.8424 12.8722C13.8617 12.8593 13.8796 12.8447 13.896 12.8283C13.9124 12.8118 13.927 12.794 13.9399 12.7747C13.9528 12.7554 13.9637 12.735 13.9726 12.7136C13.9815 12.6921 13.9882 12.67 13.9927 12.6472C13.9973 12.6245 13.9995 12.6015 13.9995 12.5783L13.9995 12.5643C13.9995 12.5411 13.9973 12.5181 13.9927 12.4953C13.9882 12.4725 13.9815 12.4504 13.9726 12.429C13.9637 12.4075 13.9528 12.3872 13.9399 12.3679C13.927 12.3486 13.9124 12.3307 13.896 12.3143C13.8796 12.2979 13.8617 12.2832 13.8424 12.2703C13.8231 12.2574 13.8027 12.2465 13.7813 12.2376C13.7598 12.2288 13.7377 12.2221 13.715 12.2175C13.6922 12.213 13.6692 12.2107 13.646 12.2107Z" fill="rgb(20,118,255)" fill-rule="nonzero" />
	<path id="矢量 393" d="M2.01527 3.55842C2.01527 3.55842 2.74538 4.51691 3.56667 5.43777C4.29054 6.24917 5.06967 6.89884 5.70537 6.89884C6.90343 6.89884 7.38429 5.23992 8.02644 5.23992C8.52472 5.23992 9.3088 6.1825 9.94815 7.144C10.4294 7.86787 10.6619 8.27088 10.8449 8.55905L9.45159 9.36916L11.674 10.1664C11.6935 10.1741 11.7135 10.1808 11.7338 10.1864C11.7541 10.1919 11.7747 10.1963 11.7955 10.1996C11.8163 10.2029 11.8372 10.205 11.8583 10.2059C11.8793 10.2068 11.9003 10.2065 11.9213 10.2051C11.9424 10.2037 11.9632 10.2011 11.9839 10.1973C12.0047 10.1936 12.0251 10.1887 12.0453 10.1826C12.0655 10.1766 12.0853 10.1694 12.1046 10.1611C12.124 10.1529 12.1429 10.1436 12.1612 10.1332C12.1795 10.1228 12.1972 10.1115 12.2143 10.0991C12.2314 10.0868 12.2477 10.0735 12.2633 10.0594C12.2789 10.0452 12.2936 10.0302 12.3075 10.0144C12.3214 9.99857 12.3344 9.98203 12.3465 9.96476C12.3585 9.94749 12.3696 9.92961 12.3797 9.9111C12.3897 9.8926 12.3987 9.87359 12.4067 9.85408C12.4146 9.83457 12.4214 9.81467 12.4271 9.7944C12.4328 9.77413 12.4374 9.7536 12.4408 9.73281L12.8464 7.39433L11.437 8.21346C11.1361 7.62107 10.7938 7.05369 10.4101 6.51132C9.66514 5.49218 8.91138 4.50358 7.99697 4.50358C7.01655 4.50358 6.4701 6.17196 5.70644 6.1625C5.30494 6.15755 4.55699 5.49003 3.94301 4.75799C3.23484 3.91283 2.64774 3.15541 2.52904 3.03305C2.51165 3.01687 2.49287 3.00251 2.4727 2.98997C2.45253 2.97743 2.43135 2.96695 2.40915 2.95851C2.38694 2.95008 2.36414 2.94386 2.34073 2.93985C2.31732 2.93584 2.29375 2.93411 2.27 2.93467C2.24626 2.93523 2.22279 2.93807 2.1996 2.94317C2.17641 2.94828 2.15392 2.95557 2.13214 2.96504C2.11036 2.97451 2.08969 2.98598 2.07013 2.99945C2.05058 3.01293 2.0325 3.02816 2.01589 3.04514C1.99929 3.06212 1.98447 3.08053 1.97143 3.10039C1.9584 3.12024 1.94739 3.14116 1.93841 3.16314C1.92943 3.18513 1.92265 3.20778 1.91806 3.23108C1.91347 3.25438 1.91116 3.2779 1.91113 3.30165C1.9111 3.3254 1.91336 3.34893 1.91789 3.37225C1.92242 3.39556 1.92915 3.41822 1.93808 3.44023C1.947 3.46224 1.95796 3.48318 1.97095 3.50307C1.98393 3.52295 1.99871 3.5414 2.01527 3.55842L2.01527 3.55842Z" fill="rgb(20,118,255)" fill-rule="nonzero" />
</svg>
