<svg viewBox="0 0 14 14" xmlns="http://www.w3.org/2000/svg" xmlns:xlink="http://www.w3.org/1999/xlink" width="14.000000" height="14.000000" fill="none">
	<rect id="svg 28" width="14.000000" height="14.000000" x="0.000000" y="0.000000" />
	<path id="矢量 396" d="M9.27138 1.21191C7.36403 1.21191 5.62795 1.79061 5.62795 2.62206L5.62795 5.1081L4.7965 5.1081C2.8958 5.01997 1.24121 5.59866 1.24121 6.34697L1.24121 11.5652C1.24121 12.3068 2.8958 12.804 4.80315 12.804C6.79199 12.804 8.3651 12.3068 8.3651 11.6466L8.3651 11.1494L9.19655 11.1494C11.1854 11.1494 12.7585 10.6522 12.7585 9.99205L12.7585 2.62206C12.7518 2.00179 11.7242 1.21191 9.27138 1.21191L9.27138 1.21191ZM7.69827 8.91449C7.53531 9.24874 6.54089 9.74594 4.88464 9.74594C3.22838 9.74594 2.15415 9.24874 2.07266 8.91449L2.07266 7.58583C2.73284 8.00156 3.80874 8.16452 4.8863 8.16452C5.96386 8.16452 7.0381 8.00156 7.69993 7.58583L7.69993 8.91449L7.69827 8.91449L7.69827 8.91449ZM4.80315 5.76828C6.45774 5.76828 7.45216 6.26548 7.61679 6.42845L7.61679 6.6729C7.45383 7.00714 6.45941 7.50435 4.80315 7.50435C3.1469 7.50435 2.07266 7.0088 1.99118 6.67456L1.99118 6.43011C2.15415 6.17735 3.14856 5.76828 4.80315 5.76828ZM4.80315 12.0624C3.23005 12.0624 2.23563 11.7281 1.98952 11.4837L1.98952 9.82743C2.64969 10.2432 3.72559 10.4061 4.80315 10.4061C5.88072 10.4061 6.95662 10.2432 7.61679 9.82743L7.61679 11.482C7.45382 11.7281 6.37626 12.0624 4.80315 12.0624L4.80315 12.0624ZM12.0434 9.82078C11.799 10.0652 10.8511 10.3995 9.27803 10.3995L8.44658 10.3995L8.44658 8.74488C8.69103 8.74488 9.02527 8.82636 9.27803 8.82636C10.3539 8.82636 11.3833 8.66339 12.0434 8.24767L12.0434 9.82078ZM12.0434 7.17177C11.8805 7.50601 10.9326 8.00322 9.27803 8.00322C8.94379 8.00322 8.69934 8.00322 8.44658 7.92174L8.44658 6.51159C8.69103 6.51159 9.02527 6.59308 9.27803 6.59308C10.3539 6.59308 11.3833 6.43011 12.0434 6.01438L12.0434 7.17177ZM9.27138 5.84976C8.77417 5.84976 8.35845 5.84976 8.03252 5.76828C7.69827 5.52383 7.20106 5.35255 6.54089 5.18958L6.37793 5.02662L6.37793 3.86924C7.0381 4.28496 8.114 4.44793 9.19156 4.44793C10.2675 4.44793 11.3434 4.28496 12.0052 3.86924L12.0052 5.02662C12.0102 5.01997 11.5945 5.84976 9.27138 5.84976ZM12.0917 2.86651C11.9287 3.20075 10.9343 3.69796 9.27803 3.69796C7.62178 3.69796 6.54754 3.20075 6.4644 2.86651L6.4644 2.62206C6.62736 2.37761 7.62178 1.96188 9.27803 1.96188C10.9343 1.96188 11.927 2.45909 12.0917 2.62206L12.0917 2.86651Z" fill="rgb(20,118,255)" fill-rule="nonzero" />
</svg>
