<svg viewBox="0 0 14 14" xmlns="http://www.w3.org/2000/svg" xmlns:xlink="http://www.w3.org/1999/xlink" width="14.000000" height="14.000000" fill="none">
	<rect id="svg 27" width="14.000000" height="14.000000" x="0.000000" y="0.000000" />
	<path id="矢量 395" d="M6.82945 13.5979C6.76186 13.5988 6.69669 13.5866 6.63394 13.5615C6.5712 13.5363 6.5157 13.5 6.46745 13.4527C6.43112 13.4173 6.40106 13.3773 6.37727 13.3325C6.35348 13.2878 6.3371 13.2404 6.32814 13.1905C6.31917 13.1406 6.31805 13.0906 6.32476 13.0403C6.33147 12.9901 6.3457 12.9421 6.36745 12.8963C6.40962 12.8046 6.4482 12.7114 6.48319 12.6167C6.51818 12.5221 6.54948 12.4262 6.57708 12.3291C6.60468 12.232 6.6285 12.134 6.64855 12.0351C6.6686 11.9362 6.68481 11.8367 6.69719 11.7365C6.70956 11.6363 6.71807 11.5358 6.7227 11.435C6.72733 11.3342 6.72807 11.2333 6.72493 11.1325C6.72179 11.0316 6.71478 10.931 6.70388 10.8306C6.69299 10.7303 6.67825 10.6305 6.65966 10.5313C6.64108 10.4321 6.61871 10.3338 6.59255 10.2363C6.56638 10.1388 6.53651 10.0425 6.50292 9.94732C6.46934 9.85215 6.43214 9.7584 6.39133 9.66609C6.35052 9.57379 6.30622 9.48318 6.25842 9.39429C6.21063 9.30539 6.15949 9.21847 6.105 9.13352C6.0505 9.04856 5.99282 8.96583 5.93196 8.88533C5.87109 8.80482 5.80721 8.72677 5.74033 8.65119C5.67345 8.5756 5.60376 8.5027 5.53125 8.43249C5.33823 8.24553 5.12908 8.07881 4.9038 7.93233C4.67851 7.78585 4.44127 7.66233 4.19208 7.56176C3.94289 7.4612 3.68636 7.38546 3.42251 7.33454C3.15866 7.28362 2.89238 7.25847 2.62366 7.25908C2.33168 7.25877 2.04273 7.28817 1.7568 7.34729C1.47087 7.4064 1.19396 7.494 0.926047 7.61008C0.878773 7.63124 0.829447 7.6451 0.77807 7.65165C0.726693 7.6582 0.675468 7.65717 0.624396 7.64856C0.573324 7.63995 0.524595 7.62412 0.478209 7.60108C0.431822 7.57804 0.389768 7.54878 0.352047 7.51329C0.315715 7.47794 0.285655 7.43788 0.261867 7.39312C0.238079 7.34835 0.221702 7.30103 0.212735 7.25113C0.203769 7.20124 0.202642 7.15117 0.209355 7.10093C0.216069 7.05068 0.230301 7.00267 0.252051 6.95688C0.513025 6.40202 0.862492 5.91002 1.30045 5.48088C1.4206 5.36421 1.54612 5.25364 1.677 5.14914C1.80787 5.04465 1.9435 4.94674 2.08387 4.8554C2.22425 4.76407 2.36871 4.67974 2.51726 4.60241C2.66582 4.52509 2.81776 4.45513 2.9731 4.39254C3.12844 4.32996 3.28644 4.27503 3.44711 4.22777C3.60778 4.18051 3.77035 4.14113 3.93484 4.10964C4.09932 4.07814 4.26495 4.05468 4.43171 4.03925C4.59847 4.02382 4.76558 4.0165 4.93305 4.01728L5.15766 4.01728C5.36186 3.66697 5.59386 3.33616 5.85367 3.02484C6.11347 2.71353 6.39743 2.42608 6.70555 2.16249C7.01367 1.89891 7.34163 1.66288 7.68941 1.45441C8.0372 1.24595 8.39995 1.06797 8.77765 0.920475C9.21515 0.749362 9.66468 0.620097 10.1262 0.53268C10.5878 0.445263 11.0535 0.401196 11.5232 0.400478C12.0966 0.397653 12.6624 0.462121 13.2205 0.593881C13.2655 0.603519 13.3084 0.619194 13.3491 0.640904C13.3898 0.662615 13.4267 0.689518 13.4598 0.721613C13.4929 0.753708 13.5209 0.789749 13.5439 0.829735C13.5668 0.869721 13.5838 0.912099 13.5949 0.956869C13.6305 1.10365 13.6614 1.25144 13.6874 1.40024C13.7134 1.54904 13.7345 1.69853 13.7507 1.84871C13.7669 1.99889 13.7781 2.14944 13.7845 2.30036C13.7908 2.45128 13.7922 2.60224 13.7887 2.75325C13.7852 2.90426 13.7767 3.055 13.7633 3.20545C13.7499 3.35591 13.7315 3.50577 13.7083 3.65502C13.6851 3.80428 13.657 3.95262 13.6241 4.10003C13.5911 4.24745 13.5534 4.39363 13.5109 4.53858C13.4684 4.68353 13.4212 4.82693 13.3693 4.96879C13.3174 5.11064 13.2609 5.25065 13.1998 5.38881C13.1388 5.52696 13.0732 5.66298 13.0033 5.79684C12.9333 5.93071 12.859 6.06214 12.7804 6.19115C12.7018 6.32015 12.6191 6.44644 12.5323 6.57003C12.4454 6.69361 12.3546 6.81422 12.2599 6.93186C12.1651 7.0495 12.0666 7.16392 11.9644 7.27511C11.8621 7.38629 11.7564 7.49402 11.6471 7.59828C11.1691 8.06368 10.6367 8.45481 10.0496 8.77168C10.0543 8.89663 10.0543 9.02157 10.0496 9.14651C10.0449 9.27145 10.0354 9.39603 10.0213 9.52026C10.0072 9.64449 9.98847 9.76801 9.96506 9.89083C9.94164 10.0136 9.91365 10.1354 9.88106 10.2561C9.84848 10.3768 9.8114 10.4961 9.76984 10.6141C9.72827 10.732 9.68232 10.8482 9.632 10.9626C9.58168 11.0771 9.52713 11.1895 9.46834 11.2998C9.40956 11.4102 9.3467 11.5181 9.27978 11.6238C9.21286 11.7294 9.14207 11.8323 9.06739 11.9326C8.99272 12.0329 8.91438 12.1302 8.83238 12.2246C8.75038 12.319 8.66494 12.4101 8.57607 12.4981C8.4872 12.586 8.39515 12.6705 8.29992 12.7515C8.20469 12.8325 8.10654 12.9098 8.00548 12.9835C7.90443 13.0571 7.80075 13.1268 7.69444 13.1926C7.58813 13.2584 7.4795 13.3201 7.36855 13.3778C7.25759 13.4354 7.14463 13.4888 7.02965 13.5379C6.96989 13.5809 6.90322 13.6009 6.82964 13.5979L6.82945 13.5979ZM2.59845 6.26729C2.76592 6.26625 2.93305 6.27335 3.09983 6.2886C3.26661 6.30384 3.43226 6.32715 3.59677 6.35852C3.76128 6.3899 3.92388 6.42919 4.08457 6.4764C4.24525 6.52361 4.40326 6.57852 4.5586 6.64112C4.71394 6.70372 4.86587 6.77372 5.01439 6.85112C5.16291 6.92852 5.30732 7.01295 5.44762 7.10441C5.58791 7.19587 5.72344 7.29393 5.85418 7.39859C5.98493 7.50325 6.11028 7.61402 6.23024 7.73089C6.41542 7.90979 6.58569 8.10191 6.74103 8.30725C6.89637 8.51259 7.03494 8.7287 7.15672 8.95556C7.2785 9.18242 7.38204 9.41732 7.46735 9.66026C7.55265 9.90321 7.61869 10.1513 7.66546 10.4045C7.76155 10.9231 7.76989 11.4431 7.69047 11.9645C7.74026 11.9281 7.77787 11.8797 7.82766 11.8445C7.93642 11.7401 8.03885 11.6299 8.13494 11.5138C8.23103 11.3977 8.32015 11.2764 8.40231 11.15C8.48446 11.0237 8.55911 10.893 8.62625 10.7581C8.69339 10.6231 8.75257 10.4848 8.80381 10.343C8.85505 10.2013 8.89799 10.0571 8.93266 9.9104C8.96732 9.76371 8.99346 9.61553 9.01109 9.46584C9.02872 9.31615 9.03771 9.16594 9.03808 9.01522C9.03844 8.8645 9.03017 8.71425 9.01326 8.56448C9.00712 8.51318 9.00925 8.46222 9.01967 8.41162C9.03008 8.36101 9.04823 8.31336 9.07413 8.26865C9.10003 8.22394 9.13234 8.18449 9.17105 8.15028C9.20977 8.11607 9.25291 8.08887 9.30047 8.06868C9.90913 7.77627 10.4541 7.3932 10.9353 6.91948C11.1139 6.74891 11.2813 6.56791 11.4374 6.37647C11.5935 6.18503 11.7371 5.98464 11.8682 5.7753C11.9993 5.56596 12.1168 5.34928 12.2209 5.12528C12.325 4.90127 12.4148 4.67167 12.4902 4.43647C12.5657 4.20127 12.6262 3.9623 12.6719 3.71955C12.7175 3.4768 12.7479 3.23216 12.7631 2.98562C12.7782 2.73908 12.778 2.49255 12.7624 2.24604C12.7468 1.99953 12.716 1.75494 12.6699 1.51228C12.2902 1.44336 11.9075 1.41109 11.5217 1.41548C11.3175 1.41437 11.1139 1.42312 10.9106 1.44174C10.7073 1.46036 10.5054 1.48876 10.3049 1.52693C10.1044 1.56511 9.90616 1.61288 9.71026 1.67026C9.51437 1.72763 9.32171 1.79433 9.13227 1.87037C8.94284 1.9464 8.75752 2.03141 8.57632 2.1254C8.39512 2.21938 8.21889 2.3219 8.04762 2.43296C7.87635 2.54401 7.71085 2.66308 7.55111 2.79017C7.39138 2.91725 7.23816 3.05176 7.09145 3.19368C6.61352 3.65999 6.21832 4.18819 5.90585 4.77828C5.88125 4.82338 5.85061 4.86392 5.81393 4.89989C5.77724 4.93585 5.73611 4.96569 5.69053 4.9894C5.64495 5.0131 5.59691 5.02965 5.5464 5.03903C5.49589 5.04841 5.44511 5.05023 5.39406 5.04447C5.24425 5.03248 5.08205 5.02027 4.93405 5.02027C4.66512 5.01822 4.39854 5.04232 4.13433 5.09258C3.87012 5.14283 3.61332 5.21828 3.36391 5.31892C3.11451 5.41957 2.87726 5.54349 2.65217 5.69068C2.42708 5.83788 2.21844 6.00554 2.02625 6.19368C1.9816 6.23491 1.94026 6.27925 1.90225 6.32668C2.13302 6.2815 2.36596 6.2615 2.60106 6.26668L2.59925 6.26668L2.59845 6.26729ZM1.91225 12.8835C1.7537 12.8835 1.59556 12.8754 1.43784 12.8593C1.38388 12.8512 1.33244 12.8351 1.28353 12.811C1.23461 12.7868 1.19057 12.7558 1.1514 12.7178C1.11222 12.6798 1.0798 12.6368 1.05413 12.5886C1.02845 12.5405 1.01076 12.4896 1.00105 12.4359C0.988651 12.3633 0.739057 10.5359 2.02445 9.27847C2.63585 8.68588 3.14764 8.41849 3.65925 8.41849C4.27086 8.41849 4.69506 8.82968 4.91925 9.04747C5.14344 9.26527 5.54324 9.65228 5.56825 10.2209C5.59326 10.7289 5.30626 11.2491 4.68166 11.8661C3.77085 12.7491 2.56025 12.8823 1.91105 12.8823L1.91225 12.8835ZM3.65945 9.41208C3.53545 9.41208 3.25945 9.48467 2.74845 9.98069C2.64872 10.0809 2.55819 10.1888 2.47687 10.3045C2.39554 10.4202 2.32459 10.5419 2.26402 10.6696C2.20345 10.7974 2.15413 10.9293 2.11606 11.0655C2.07798 11.2016 2.05171 11.34 2.03724 11.4807C2.01397 11.6168 2.00151 11.754 1.99985 11.8921C2.49986 11.8799 3.34725 11.7589 3.97165 11.1663C4.49586 10.6583 4.57165 10.3801 4.55825 10.2711C4.52857 10.17 4.48393 10.076 4.42432 9.98912C4.36472 9.90224 4.2931 9.82676 4.20946 9.76268C3.94745 9.49649 3.79766 9.41189 3.65985 9.41189L3.65945 9.41208ZM10.1115 5.29948C10.0627 5.29794 10.0141 5.29403 9.96573 5.28775C9.91734 5.28146 9.86938 5.27284 9.82183 5.26188C9.77429 5.25092 9.72739 5.23767 9.68114 5.22213C9.63489 5.20659 9.5895 5.18884 9.54498 5.16887C9.50046 5.1489 9.45702 5.12681 9.41466 5.10261C9.3723 5.0784 9.33121 5.05219 9.29141 5.02397C9.2516 4.99576 9.21326 4.96567 9.17639 4.93372C9.13952 4.90176 9.1043 4.86808 9.07071 4.83269C9.03713 4.79729 9.00535 4.76035 8.97537 4.72185C8.94539 4.68336 8.91736 4.64349 8.89127 4.60226C8.86518 4.56103 8.84116 4.51863 8.81921 4.47505C8.79726 4.43148 8.77748 4.38694 8.75988 4.34143C8.74228 4.29593 8.72693 4.24967 8.71384 4.20267C8.70075 4.15567 8.68998 4.10814 8.68153 4.06009C8.67307 4.01203 8.66698 3.96368 8.66325 3.91503C8.65951 3.86638 8.65815 3.81767 8.65917 3.76889C8.66019 3.72011 8.66358 3.67149 8.66935 3.62304C8.67511 3.57459 8.68322 3.52654 8.69367 3.47888C8.70413 3.43122 8.71687 3.38418 8.73192 3.33777C8.74696 3.29135 8.76423 3.24578 8.78372 3.20105C8.80321 3.15632 8.82483 3.11265 8.84858 3.07003C8.87233 3.02741 8.8981 2.98604 8.92589 2.94594C8.95368 2.90583 8.98335 2.86718 9.01491 2.82997C9.04647 2.79276 9.07977 2.75717 9.11481 2.72321C9.14984 2.68925 9.18644 2.65708 9.22461 2.62669C9.26279 2.5963 9.30235 2.56784 9.3433 2.54131C9.38425 2.51479 9.42639 2.49031 9.46973 2.4679C9.51307 2.44548 9.55739 2.42523 9.60271 2.40714C9.64802 2.38905 9.69411 2.37321 9.74097 2.35962C9.78783 2.34603 9.83524 2.33475 9.8832 2.32578C9.93116 2.31681 9.97944 2.3102 10.028 2.30595C10.0767 2.3017 10.1254 2.29982 10.1741 2.30031C10.2229 2.30081 10.2716 2.30368 10.3201 2.30893C10.3686 2.31417 10.4167 2.32177 10.4645 2.33171C10.5123 2.34165 10.5594 2.3539 10.606 2.36844C10.6526 2.38299 10.6983 2.39977 10.7433 2.41878C10.7882 2.43779 10.8321 2.45894 10.875 2.48223C10.9179 2.50553 10.9595 2.53085 10.9999 2.55821C11.0403 2.58557 11.0793 2.61483 11.1168 2.64599C11.1544 2.67715 11.1903 2.71006 11.2246 2.74473C11.259 2.7794 11.2915 2.81566 11.3223 2.8535C11.3531 2.89135 11.382 2.9306 11.409 2.97127C11.4359 3.01193 11.4608 3.05381 11.4837 3.0969C11.5066 3.14 11.5273 3.18411 11.5459 3.22923C11.5645 3.27434 11.5808 3.32026 11.5949 3.36697C11.609 3.41368 11.6208 3.46097 11.6303 3.50883C11.6397 3.55669 11.6469 3.6049 11.6516 3.65346C11.6564 3.70202 11.6588 3.75069 11.6588 3.79948C11.6581 3.84938 11.6548 3.89911 11.6492 3.94869C11.6435 3.99827 11.6354 4.04744 11.6249 4.09623C11.6144 4.14501 11.6016 4.19316 11.5863 4.24068C11.5711 4.2882 11.5536 4.33486 11.5338 4.38066C11.514 4.42646 11.492 4.47117 11.4678 4.51481C11.4436 4.55845 11.4173 4.6008 11.3889 4.64185C11.3606 4.68291 11.3303 4.72247 11.298 4.76055C11.2658 4.79863 11.2317 4.83504 11.1959 4.86978C11.1601 4.90451 11.1226 4.93741 11.0836 4.96847C11.0445 4.99952 11.0041 5.02859 10.9621 5.05568C10.9202 5.08276 10.8771 5.10772 10.8327 5.13057C10.7884 5.15341 10.743 5.17403 10.6966 5.19241C10.6502 5.2108 10.603 5.22687 10.5551 5.24062C10.5071 5.25438 10.4586 5.26575 10.4095 5.27474C10.3604 5.28372 10.311 5.29028 10.2613 5.29442C10.2116 5.29855 10.1617 5.30024 10.1119 5.29948L10.1115 5.29948ZM10.1115 3.30367C10.0784 3.30334 10.0456 3.30622 10.0131 3.31231C9.98065 3.3184 9.94905 3.32758 9.91836 3.33986C9.88767 3.35214 9.85846 3.36728 9.83073 3.38528C9.80301 3.40328 9.77729 3.4238 9.75358 3.44684C9.72988 3.46988 9.70863 3.495 9.68985 3.5222C9.67106 3.5494 9.6551 3.57817 9.64195 3.6085C9.6288 3.63883 9.61872 3.67014 9.6117 3.70245C9.60469 3.73475 9.60088 3.76743 9.60026 3.80048C9.60144 3.83336 9.60573 3.86582 9.61314 3.89788C9.62054 3.92993 9.63093 3.96099 9.64429 3.99105C9.65765 4.02111 9.67375 4.04963 9.69259 4.0766C9.71142 4.10357 9.73265 4.12851 9.75627 4.15141C9.77989 4.17431 9.80547 4.19475 9.83301 4.21274C9.86055 4.23074 9.88955 4.24595 9.92001 4.25837C9.95047 4.2708 9.98184 4.28022 10.0141 4.28663C10.0464 4.29304 10.079 4.29632 10.1119 4.29648C10.1449 4.29683 10.1777 4.29397 10.2101 4.28791C10.2426 4.28184 10.2742 4.27269 10.3049 4.26044C10.3356 4.2482 10.3648 4.23309 10.3925 4.21513C10.4203 4.19717 10.446 4.17669 10.4697 4.1537C10.4935 4.1307 10.5147 4.10562 10.5335 4.07846C10.5524 4.0513 10.5684 4.02258 10.5816 3.99229C10.5948 3.962 10.6049 3.93071 10.612 3.89844C10.6191 3.86616 10.623 3.8335 10.6236 3.80047C10.6235 3.76778 10.6201 3.73542 10.6136 3.70338C10.6071 3.67135 10.5975 3.64026 10.5849 3.61011C10.5722 3.57996 10.5568 3.55134 10.5385 3.52423C10.5202 3.49713 10.4995 3.47206 10.4763 3.44904C10.453 3.42602 10.4278 3.40548 10.4006 3.38742C10.3733 3.36936 10.3446 3.35413 10.3143 3.34173C10.2841 3.32933 10.2529 3.31999 10.2208 3.31372C10.1887 3.30746 10.1563 3.30437 10.1237 3.30448L10.1124 3.30448L10.1115 3.30367Z" fill="rgb(181,14,101)" fill-rule="nonzero" />
</svg>
