<svg width="40.000000" height="40.000000" viewBox="0 0 40 40" fill="none" xmlns="http://www.w3.org/2000/svg" xmlns:xlink="http://www.w3.org/1999/xlink">
	<desc>
			Created with Pixso.
	</desc>
	<defs>
		<linearGradient x1="34.128883" y1="32.181156" x2="9.703195" y2="24.219234" id="paint_linear_498_36129_0" gradientUnits="userSpaceOnUse">
			<stop stop-color="#FFFFFF" stop-opacity="0.905882"/>
			<stop offset="0.697115" stop-color="#FFFFFF" stop-opacity="0.800000"/>
			<stop offset="1.000000" stop-color="#FFFFFF"/>
		</linearGradient>
		<linearGradient x1="28.998352" y1="21.163740" x2="20.247299" y2="15.057180" id="paint_linear_498_36130_0" gradientUnits="userSpaceOnUse">
			<stop stop-color="#000000" stop-opacity="0.000000"/>
			<stop offset="1.000000" stop-color="#000000"/>
		</linearGradient>
		<linearGradient x1="19.251587" y1="30.279270" x2="14.350390" y2="26.171619" id="paint_linear_498_36131_0" gradientUnits="userSpaceOnUse">
			<stop stop-color="#000000" stop-opacity="0.000000"/>
			<stop offset="1.000000" stop-color="#000000"/>
		</linearGradient>
		<linearGradient x1="35.500000" y1="31.999996" x2="25.060003" y2="25.011234" id="paint_linear_498_36134_0" gradientUnits="userSpaceOnUse">
			<stop stop-color="#FFFFFF" stop-opacity="0.800000"/>
			<stop offset="1.000000" stop-color="#FFFFFF"/>
		</linearGradient>
	</defs>
	<rect id="矩形备份 3" rx="8.000000" width="40.000000" height="40.000000" fill="#1476FF" fill-opacity="1.000000"/>
	<path id="路径" d="M7.76 24.76L15.53 9.22C17.37 5.54 22.62 5.53 24.47 9.21L35.94 32.08L30.6 34.81L20.89 15.49C20.52 14.75 19.47 14.75 19.1 15.49L14.57 24.55C14.24 25.21 14.72 26 15.47 26L20 26L23 32L12.23 32C8.51 32 6.1 28.08 7.76 24.76Z" fill="url(#paint_linear_498_36129_0)" fill-opacity="1.000000" fill-rule="evenodd"/>
	<g style="mix-blend-mode:soft-light">
		<path id="路径 41" d="M19.08 15.52C21.38 10.73 24.84 9.91 27.31 14.86C27.71 15.67 29.65 19.51 30.21 20.66C35.12 30.83 26.48 26.74 23.93 21.63C23.47 20.71 21.27 16.19 20.89 15.49C20.44 14.65 19.38 14.85 19.08 15.52Z" fill="url(#paint_linear_498_36130_0)" fill-opacity="1.000000" fill-rule="evenodd"/>
	</g>
	<g style="mix-blend-mode:soft-light">
		<path id="路径 41备份 2" d="M14.67 24.36C13.04 26.99 11.05 31.98 17.06 32C17.97 32 21.74 32 23 32C21.98 29.97 20.68 27.39 19.99 26C18.96 25.99 16.35 26 15.52 26C14.56 25.99 14.22 25.05 14.67 24.36Z" fill="url(#paint_linear_498_36131_0)" fill-opacity="1.000000" fill-rule="evenodd"/>
	</g>
	<rect id="矩形" x="22.000000" y="32.000000" width="14.000000" height="5.000000" fill="#1476FF" fill-opacity="1.000000"/>
	<rect id="矩形" x="22.500000" y="32.500000" width="13.000000" height="4.000000" stroke="#979797" stroke-opacity="0" stroke-width="1.000000"/>
	<path id="路径备份 9" d="M24 34L24 33.99C21.21 33.83 19 31.57 19 28.79C19 25.97 21.29 23.68 24.15 23.6C24.84 21.51 26.84 20 29.2 20C31.57 20 33.58 21.52 34.26 23.62C36.92 23.9 39 26.11 39 28.79C39 31.63 36.69 33.93 33.81 33.99L33.69 34L24 34Z" fill="#1476FF" fill-opacity="1.000000" fill-rule="evenodd"/>
	<path id="路径备份 9" d="" fill="#979797" fill-opacity="0" fill-rule="evenodd"/>
	<path id="路径备份 9" d="M25 32L25 31.99C23.04 31.88 21.5 30.26 21.5 28.28C21.5 26.27 23.1 24.62 25.1 24.57C25.58 23.08 26.98 22 28.64 22C30.3 22 31.7 23.08 32.18 24.59C34.04 24.79 35.5 26.36 35.5 28.28C35.5 30.3 33.88 31.95 31.87 31.99L31.78 32L25 32Z" fill="url(#paint_linear_498_36134_0)" fill-opacity="1.000000" fill-rule="evenodd"/>
</svg>
