<svg width="40.000000" height="40.000000" viewBox="0 0 40 40" fill="none" xmlns="http://www.w3.org/2000/svg" xmlns:xlink="http://www.w3.org/1999/xlink">
	<desc>
			Created with Pixso.
	</desc>
	<defs>
		<linearGradient x1="25.000000" y1="33.790718" x2="19.268661" y2="12.389950" id="paint_linear_498_36028_0" gradientUnits="userSpaceOnUse">
			<stop stop-color="#FFFFFF" stop-opacity="0.905882"/>
			<stop offset="0.666799" stop-color="#FFFFFF" stop-opacity="0.800000"/>
			<stop offset="1.000000" stop-color="#FFFFFF"/>
		</linearGradient>
		<linearGradient x1="22.036592" y1="26.320873" x2="20.956484" y2="17.791683" id="paint_linear_498_36032_0" gradientUnits="userSpaceOnUse">
			<stop stop-color="#000000" stop-opacity="0.000000"/>
			<stop offset="1.000000" stop-color="#000000"/>
		</linearGradient>
	</defs>
	<rect id="矩形备份 8" rx="8.000000" width="40.000000" height="40.000000" fill="#1476FF" fill-opacity="1.000000"/>
	<path id="路径备份" d="M33 10L33 16L24 16C23.44 16 23 16.44 23 17L23 32L17 32L17 15C17 12.23 19.23 10 22 10L33 10Z" fill="url(#paint_linear_498_36028_0)" fill-opacity="1.000000" fill-rule="evenodd"/>
	<path id="形状结合" d="M17.502 10L8 10L8 16L14.5 16C14.5 13.5483 15.6797 11.3691 17.502 10Z" clip-rule="evenodd" fill="#FFFFFF" fill-opacity="1.000000" fill-rule="evenodd"/>
	<g style="mix-blend-mode:soft-light">
		<path id="路径 44备份" d="M24 16C21.94 16 17 15.83 17 22.84C17 23.83 16.99 26.29 17 27C17.02 31.79 23 28.1 23 26C23 23.57 23 17.51 23 17.01C23 16.51 23.38 16 24 16Z" fill="url(#paint_linear_498_36032_0)" fill-opacity="1.000000" fill-rule="evenodd"/>
	</g>
</svg>
