<svg width="40.000000" height="40.000000" viewBox="0 0 40 40" fill="none" xmlns="http://www.w3.org/2000/svg" xmlns:xlink="http://www.w3.org/1999/xlink">
	<desc>
			Created with Pixso.
	</desc>
	<defs>
		<linearGradient x1="29.028963" y1="17.087862" x2="20.215513" y2="23.401136" id="paint_linear_498_36065_0" gradientUnits="userSpaceOnUse">
			<stop stop-color="#000000" stop-opacity="0.000000"/>
			<stop offset="1.000000" stop-color="#000000"/>
		</linearGradient>
		<linearGradient x1="33.670925" y1="29.552279" x2="12.168058" y2="26.295717" id="paint_linear_498_36066_0" gradientUnits="userSpaceOnUse">
			<stop stop-color="#FFFFFF" stop-opacity="0.905882"/>
			<stop offset="0.583061" stop-color="#FFFFFF" stop-opacity="0.800000"/>
			<stop offset="1.000000" stop-color="#FFFFFF"/>
		</linearGradient>
		<linearGradient x1="32.500004" y1="33.500000" x2="26.534288" y2="26.511234" id="paint_linear_498_36163_0" gradientUnits="userSpaceOnUse">
			<stop stop-color="#FFFFFF" stop-opacity="0.800000"/>
			<stop offset="1.000000" stop-color="#FFFFFF"/>
		</linearGradient>
	</defs>
	<rect id="矩形备份" rx="8.000000" width="40.000000" height="40.000000" fill="#1476FF" fill-opacity="1.000000"/>
	<g style="mix-blend-mode:soft-light">
		<path id="路径 41" d="M19.04 22.52C20.55 25.61 23.86 30.21 26.97 23.89C27.37 23.07 29.7 18.54 30.26 17.39C35.17 7.22 26.53 11.3 23.98 16.41C23.52 17.33 21.31 21.9 20.91 22.6C20.36 23.55 19.37 23.22 19.04 22.52Z" fill="url(#paint_linear_498_36065_0)" fill-opacity="1.000000" fill-rule="evenodd"/>
	</g>
	<path id="减去顶层" d="M6.3291 10.5L15.5283 28.8975C17.3701 32.583 22.6299 32.583 24.4717 28.8975L33.6709 10.5L26.9629 10.5L20.8945 22.6367C20.5264 23.374 19.4736 23.374 19.1055 22.6367L13.0371 10.5L6.3291 10.5L6.3291 10.5Z" clip-rule="evenodd" fill="url(#paint_linear_498_36066_0)" fill-opacity="1.000000" fill-rule="evenodd"/>
	<rect id="矩形" x="23.000000" y="22.000000" rx="2.000000" width="12.000000" height="14.000000" fill="#1476FF" fill-opacity="1.000000"/>
	<rect id="矩形" x="23.500000" y="22.500000" rx="2.000000" width="11.000000" height="13.000000" stroke="#979797" stroke-opacity="0" stroke-width="1.000000"/>
	<path id="减去顶层" d="M30.2559 23.5L26.7441 23.5C25.959 23.5 25.5654 23.5 25.2656 23.6528C25.002 23.7871 24.7871 24.002 24.6533 24.2656C24.5 24.5659 24.5 24.9585 24.5 25.7441L24.5 31.2559C24.5 32.0415 24.5 32.4341 24.6533 32.7344C24.7871 32.998 25.002 33.2129 25.2656 33.3472C25.5654 33.5 25.959 33.5 26.7441 33.5L30.2559 33.5C31.041 33.5 31.4346 33.5 31.7344 33.3472C31.998 33.2129 32.2129 32.998 32.3467 32.7344C32.5 32.4341 32.5 32.0415 32.5 31.2559L32.5 25.7441C32.5 24.9585 32.5 24.5659 32.3467 24.2656C32.2129 24.002 31.998 23.7871 31.7344 23.6528C31.4346 23.5 31.041 23.5 30.2559 23.5ZM27.0586 25.2856C27.0586 25.0894 27.2129 24.9351 27.4092 24.9351L29.5908 24.9351C29.7871 24.9351 29.9414 25.0894 29.9414 25.2856C29.9414 25.4819 29.7871 25.6362 29.5908 25.6362L27.4092 25.6362C27.2129 25.6362 27.0586 25.4819 27.0586 25.2856ZM27.9541 31.8926C27.9541 31.5967 28.1992 31.3569 28.5 31.3569C28.8008 31.3569 29.0459 31.5967 29.0459 31.8926C29.0459 32.1885 28.8008 32.4282 28.5 32.4282C28.1992 32.4282 27.9541 32.1885 27.9541 31.8926Z" clip-rule="evenodd" fill="url(#paint_linear_498_36163_0)" fill-opacity="1.000000" fill-rule="evenodd"/>
</svg>
