<svg width="18.11" height="14.25" viewBox="0 0 18.1133 14.25" fill="none"
	xmlns="http://www.w3.org/2000/svg" xmlns:xlink="http://www.w3.org/1999/xlink">

	<path
		d="M17.36 6.37C17.77 6.37 18.11 6.71 18.11 7.12C18.11 7.53 17.77 7.87 17.36 7.87L4.69 7.87C4.28 7.87 3.94 7.53 3.94 7.12C3.94 6.71 4.28 6.37 4.69 6.37L17.36 6.37ZM17.36 0.37C17.77 0.37 18.11 0.71 18.11 1.12C18.11 1.53 17.77 1.87 17.36 1.87L4.69 1.87C4.28 1.87 3.94 1.53 3.94 1.12C3.94 0.71 4.28 0.37 4.69 0.37L17.36 0.37ZM17.36 12.37C17.77 12.37 18.11 12.71 18.11 13.12C18.11 13.53 17.77 13.87 17.36 13.87L4.69 13.87C4.28 13.87 3.94 13.53 3.94 13.12C3.94 12.71 4.28 12.37 4.69 12.37L17.36 12.37ZM1.12 12C1.74 12 2.25 12.5 2.25 13.12C2.25 13.74 1.74 14.25 1.12 14.25C0.5 14.25 0 13.74 0 13.12C0 12.5 0.5 12 1.12 12ZM1.12 6C1.74 6 2.25 6.5 2.25 7.12C2.25 7.74 1.74 8.25 1.12 8.25C0.5 8.25 0 7.74 0 7.12C0 6.5 0.5 6 1.12 6ZM1.12 0C1.74 0 2.25 0.5 2.25 1.12C2.25 1.74 1.74 2.25 1.12 2.25C0.5 2.25 0 1.74 0 1.12C0 0.5 0.5 0 1.12 0Z"
		fill="#191919" fill-opacity="1.000000" fill-rule="nonzero" />
</svg>