<svg width="115.980469" height="28.000000" viewBox="0 0 115.98 28" fill="none"
	xmlns="http://www.w3.org/2000/svg" xmlns:xlink="http://www.w3.org/1999/xlink">
	<desc>
		Created with Pixso.
	</desc>
	<defs>
		<linearGradient x1="5.599609" y1="14.000093" x2="19.324738" y2="13.191214"
			id="paint_linear_109_6501_0" gradientUnits="userSpaceOnUse">
			<stop stop-color="#FFFFFF" stop-opacity="0.858824" />
			<stop offset="0.251694" stop-color="#FFFFFF" stop-opacity="0.800000" />
			<stop offset="1.000000" stop-color="#FFFFFF" />
		</linearGradient>
		<linearGradient x1="11.935458" y1="19.866705" x2="10.452940" y2="14.652288"
			id="paint_linear_109_6502_0" gradientUnits="userSpaceOnUse">
			<stop stop-color="#000000" stop-opacity="0.000000" />
			<stop offset="1.000000" stop-color="#000000" />
		</linearGradient>
	</defs>
	<rect id="矩形备份 7" rx="6.000000" width="28.000000" height="28.000000" fill="#5F5AF8"
		fill-opacity="1.000000" />
	<path id="路径备份 2"
		d="M20.29 5.6L20.29 9.8L14 9.8C11.67 9.8 9.79 11.68 9.79 14C9.79 16.31 11.67 18.2 14 18.2L20.29 18.2L20.29 22.4L14 22.4C9.36 22.4 5.59 18.63 5.59 14C5.59 9.36 9.36 5.6 14 5.6L20.29 5.6Z"
		fill="url(#paint_linear_109_6501_0)" fill-opacity="1.000000" fill-rule="evenodd" />
	<g style="mix-blend-mode:soft-light">
		<path id="路径 42备份"
			d="M14 9.8C6 9.8 4.95 16.97 8.01 19.88C11.08 22.78 13.65 22.37 15.43 22.39C17.2 22.42 16.61 18.2 14 18.2C11.38 18.2 9.78 15.86 9.78 14C9.78 12.13 11.28 9.8 14 9.8Z"
			fill="url(#paint_linear_109_6502_0)" fill-opacity="1.000000" fill-rule="evenodd" />
	</g>
	<path id="TinyCLI"
		d="M53.08 6.37C52.58 6.37 52.17 6.21 51.85 5.89Q51.68 5.72 51.57 5.51Q51.37 5.14 51.37 4.67Q51.37 4.19 51.58 3.82Q51.69 3.63 51.85 3.46Q52 3.32 52.17 3.22L52.17 3.22Q52.56 3 53.08 3Q53.55 3 53.92 3.19L53.92 3.19Q54.13 3.3 54.31 3.47Q54.51 3.66 54.63 3.89Q54.8 4.24 54.8 4.67Q54.8 5.01 54.69 5.3Q54.64 5.43 54.58 5.54Q54.45 5.76 54.28 5.92Q54.13 6.05 53.95 6.15Q53.86 6.2 53.77 6.24Q53.45 6.37 53.08 6.37ZM92.8 21.07Q90.16 21.07 88.28 20.06Q87.39 19.59 86.7 18.91Q85.93 18.16 85.41 17.15Q84.42 15.24 84.42 12.57Q84.42 9.83 85.45 7.81Q86.12 6.5 87.14 5.58Q87.69 5.09 88.35 4.71Q88.38 4.69 88.4 4.68Q90.26 3.63 92.71 3.63Q94.11 3.63 95.37 3.95C96.22 4.16 96.98 4.46 97.67 4.83L96.91 7.05Q94.81 5.96 92.85 5.96C91.7 5.96 90.72 6.22 89.91 6.75Q89.62 6.93 89.37 7.15L89.37 7.15Q88.55 7.87 88.07 8.98C87.65 9.95 87.44 11.09 87.44 12.41Q87.44 14.28 88.04 15.7C88.44 16.64 89.06 17.39 89.9 17.92C90.74 18.46 91.8 18.73 93.08 18.73C94.41 18.73 95.8 18.41 97.24 17.75L97.91 19.93Q96.83 20.47 95.59 20.77C94.77 20.97 93.83 21.07 92.8 21.07ZM41.26 6.31L36 6.31L36.25 3.86L49.46 3.86L49.19 6.31L44.19 6.31L44.19 20.83L41.26 20.83L41.26 6.31ZM100.43 3.86L103.35 3.86L103.35 18.32L110.37 18.32L110.13 20.83L100.43 20.83L100.43 3.86ZM113.05 3.86L115.98 3.86L115.98 20.83L113.05 20.83L113.05 3.86ZM58.25 11.41Q58.25 9.64 58.16 8.19L60.86 8.19C60.91 8.45 60.95 8.78 61 9.18Q61.06 9.77 61.08 10.16Q61.67 9.5 62.25 9.04Q62.83 8.57 63.62 8.26Q64.41 7.95 65.41 7.95Q66.74 7.95 67.64 8.58Q68 8.82 68.29 9.17Q69.31 10.39 69.31 12.73L69.31 20.83L66.44 20.83L66.44 12.93Q66.44 11.21 65.61 10.59Q65.15 10.24 64.41 10.24Q64.02 10.24 63.65 10.33Q63.16 10.45 62.7 10.72C62.17 11.05 61.65 11.48 61.13 12.03L61.13 20.83L58.25 20.83L58.25 11.41ZM51.64 8.19L54.52 8.19L54.52 20.83L51.64 20.83L51.64 8.19ZM72.9 26.12Q72.17 26.12 71.54 26Q70.91 25.89 70.5 25.75L71.02 23.64Q71.32 23.73 71.76 23.8Q72.21 23.88 72.6 23.88Q73.11 23.88 73.55 23.71Q74.78 23.23 75.49 21.41L75.67 20.94L71.01 8.19L74.12 8.19L76.46 15.31C76.84 16.53 77.09 17.46 77.2 18.11C77.42 17.2 77.67 16.28 77.97 15.37L80.35 8.19L83.27 8.19L78.62 21Q77.96 22.81 77.2 23.92Q76.44 25.04 75.4 25.58Q74.36 26.12 72.9 26.12Z"
		fill="currentColor" fill-opacity="1.000000" fill-rule="evenodd" />
</svg>