<svg width="119.601562" height="28.000000" viewBox="0 0 119.602 28" fill="none"
	xmlns="http://www.w3.org/2000/svg" xmlns:xlink="http://www.w3.org/1999/xlink">
	<desc>
		Created with Pixso.
	</desc>
	<defs>
		<linearGradient x1="12.825757" y1="5.924809" x2="16.354012" y2="18.940969"
			id="paint_linear_109_6520_0" gradientUnits="userSpaceOnUse">
			<stop stop-color="#FFFFFF" stop-opacity="0.964706" />
			<stop offset="0.406184" stop-color="#FFFFFF" stop-opacity="0.800000" />
			<stop offset="1.000000" stop-color="#FFFFFF" />
		</linearGradient>
		<linearGradient x1="15.483415" y1="13.799606" x2="19.149628" y2="10.838712"
			id="paint_linear_109_6521_0" gradientUnits="userSpaceOnUse">
			<stop stop-color="#000000" stop-opacity="0.000000" />
			<stop offset="1.000000" stop-color="#000000" />
		</linearGradient>
	</defs>
	<rect id="矩形备份" rx="6.000000" width="28.000000" height="28.000000" fill="#5F5AF8"
		fill-opacity="1.000000" />
	<path id="路径"
		d="M16.8 5.6C19.89 5.6 22.4 8.1 22.4 11.2C22.4 14.29 19.89 16.79 16.8 16.79L12.75 16.79C12.66 16.79 12.6 16.86 12.6 16.95L12.6 23.1L8.4 23.1L8.4 17.6C8.4 14.83 10.63 12.6 13.4 12.6L16.8 12.6C17.57 12.6 18.2 11.97 18.2 11.2C18.2 10.42 17.57 9.8 16.8 9.8L8.4 9.8L8.4 5.6L16.8 5.6Z"
		fill="url(#paint_linear_109_6520_0)" fill-opacity="1.000000" fill-rule="evenodd" />
	<g style="mix-blend-mode:soft-light">
		<path id="路径 43"
			d="M16.79 9.79C22.01 9.79 22.78 14.34 19.95 16.15C18.8 16.89 17.47 16.8 16.1 16.8C14.72 16.8 13.12 12.6 16.79 12.6C17.63 12.6 18.19 11.89 18.2 11.2C18.2 10.51 17.64 9.79 16.79 9.79Z"
			fill="url(#paint_linear_109_6521_0)" fill-opacity="1.000000" fill-rule="evenodd" />
	</g>
	<path id="TinyPro"
		d="M53.08 6.37C52.58 6.37 52.17 6.21 51.85 5.89Q51.68 5.72 51.57 5.51Q51.37 5.14 51.37 4.67Q51.37 4.19 51.58 3.82Q51.69 3.63 51.85 3.46Q52 3.32 52.17 3.22L52.17 3.22Q52.56 3 53.08 3Q53.55 3 53.92 3.19L53.92 3.19Q54.13 3.3 54.31 3.47Q54.51 3.66 54.63 3.89Q54.8 4.24 54.8 4.67Q54.8 5.01 54.69 5.3Q54.64 5.43 54.58 5.54Q54.45 5.76 54.28 5.92Q54.13 6.05 53.95 6.15Q53.86 6.2 53.77 6.24Q53.45 6.37 53.08 6.37ZM41.26 6.31L36 6.31L36.25 3.86L49.46 3.86L49.19 6.31L44.19 6.31L44.19 20.83L41.26 20.83L41.26 6.31ZM85.51 3.86L90.08 3.86Q93.3 3.86 95.01 5.17C96.15 6.05 96.72 7.32 96.72 8.97Q96.72 10.55 96.05 11.75Q96 11.84 95.95 11.92Q95.66 12.41 95.27 12.81L95.27 12.81Q94.65 13.44 93.82 13.85C92.9 14.3 91.85 14.53 90.66 14.53Q89.69 14.53 88.44 14.29L88.44 20.83L85.51 20.83L85.51 3.86ZM90.12 12.29C91.32 12.29 92.23 12 92.85 11.44C93.48 10.87 93.79 10.07 93.79 9.04C93.79 8 93.47 7.24 92.84 6.78C92.2 6.32 91.26 6.09 90.03 6.09L88.44 6.09L88.44 12.11C89.17 12.23 89.73 12.29 90.12 12.29ZM58.25 11.41Q58.25 9.64 58.16 8.19L60.86 8.19C60.91 8.45 60.95 8.78 61 9.18C61.04 9.57 61.07 9.9 61.08 10.16Q61.67 9.5 62.25 9.04C62.64 8.73 63.09 8.47 63.62 8.26C64.15 8.06 64.75 7.95 65.41 7.95C66.65 7.95 67.61 8.36 68.29 9.17Q69.31 10.39 69.31 12.73L69.31 20.83L66.44 20.83L66.44 12.93Q66.44 11.21 65.61 10.59Q65.15 10.24 64.41 10.24C63.8 10.24 63.23 10.4 62.7 10.72Q61.91 11.21 61.13 12.03L61.13 20.83L58.25 20.83L58.25 11.41ZM99.29 11.36Q99.29 10.32 99.19 8.19L101.9 8.19Q101.97 8.71 102.04 9.45Q102.1 10.18 102.12 10.64Q102.63 9.8 103.11 9.24C103.44 8.86 103.82 8.55 104.25 8.31Q104.29 8.29 104.33 8.27Q104.95 7.95 105.73 7.95Q106.4 7.95 106.88 8.09L106.52 10.6Q106.1 10.47 105.58 10.47Q104.79 10.47 104.15 10.79Q103.97 10.88 103.8 10.99Q103.04 11.51 102.17 12.71L102.17 20.83L99.29 20.83L99.29 11.36ZM113.46 21.07Q111.74 21.07 110.39 20.36Q110.37 20.34 110.35 20.33Q109.92 20.1 109.54 19.79Q108.74 19.14 108.22 18.15Q107.44 16.71 107.44 14.66Q107.44 12.59 108.22 11.08Q108.75 10.04 109.57 9.33L109.57 9.33Q109.94 9.01 110.38 8.75Q110.49 8.69 110.61 8.63Q111.92 7.95 113.57 7.95Q115.24 7.95 116.54 8.64Q116.63 8.69 116.71 8.74Q117.14 8.99 117.5 9.3Q118.31 9.99 118.84 11.02Q119.6 12.51 119.6 14.54Q119.6 16.6 118.81 18.07Q118.28 19.05 117.49 19.71L117.49 19.71Q117.09 20.05 116.63 20.3Q116.56 20.34 116.49 20.37Q115.15 21.07 113.46 21.07ZM51.64 8.19L54.52 8.19L54.52 20.83L51.64 20.83L51.64 8.19ZM72.9 26.12Q72.17 26.12 71.54 26Q70.91 25.89 70.5 25.75L71.02 23.64Q71.32 23.73 71.76 23.8Q72.21 23.88 72.6 23.88Q73.11 23.88 73.55 23.71Q74.78 23.23 75.49 21.41L75.67 20.94L71.01 8.19L74.12 8.19L76.46 15.31C76.84 16.53 77.09 17.46 77.2 18.11C77.42 17.2 77.67 16.28 77.97 15.37L80.35 8.19L83.27 8.19L78.62 21Q77.96 22.81 77.2 23.92Q76.44 25.04 75.4 25.58Q74.36 26.12 72.9 26.12ZM113.63 18.86Q114.61 18.86 115.26 18.41Q115.62 18.16 115.88 17.78Q116.62 16.69 116.62 14.67Q116.62 12.55 115.83 11.35Q115.5 10.85 115.04 10.56Q114.4 10.16 113.49 10.16Q112.55 10.16 111.9 10.59Q111.47 10.87 111.17 11.34Q110.4 12.53 110.4 14.58Q110.4 16.62 111.23 17.74Q111.52 18.14 111.91 18.4Q112.62 18.86 113.63 18.86Z"
		fill="currentColor" fill-opacity="1.000000" fill-rule="evenodd" />
</svg>