<svg width="159.210938" height="28.000000" viewBox="0 0 159.211 28" fill="none"
	xmlns="http://www.w3.org/2000/svg" xmlns:xlink="http://www.w3.org/1999/xlink">
	<desc>
		Created with Pixso.
	</desc>
	<defs>
		<linearGradient x1="5.599609" y1="14.000093" x2="19.324738" y2="13.191214"
			id="paint_linear_109_6494_0" gradientUnits="userSpaceOnUse">
			<stop stop-color="#FFFFFF" stop-opacity="0.858824" />
			<stop offset="0.251694" stop-color="#FFFFFF" stop-opacity="0.800000" />
			<stop offset="1.000000" stop-color="#FFFFFF" />
		</linearGradient>
		<linearGradient x1="11.935458" y1="19.866705" x2="10.452940" y2="14.652288"
			id="paint_linear_109_6496_0" gradientUnits="userSpaceOnUse">
			<stop stop-color="#000000" stop-opacity="0.000000" />
			<stop offset="1.000000" stop-color="#000000" />
		</linearGradient>
	</defs>
	<rect id="画板 130" width="159.210938" height="28.000000" fill="#FFFFFF" fill-opacity="0" />
	<rect id="矩形备份 5" rx="6.000000" width="28.000000" height="28.000000" fill="#5F5AF8"
		fill-opacity="1.000000" />
	<path id="路径"
		d="M20.29 5.6L20.29 9.8L14 9.8C11.67 9.8 9.79 11.68 9.79 14C9.79 16.31 11.67 18.2 14 18.2L20.29 18.2L20.29 22.4L14 22.4C9.36 22.4 5.59 18.63 5.59 14C5.59 9.36 9.36 5.6 14 5.6L20.29 5.6Z"
		fill="url(#paint_linear_109_6494_0)" fill-opacity="1.000000" fill-rule="evenodd" />
	<path id="矩形备份 6"
		d="M14.69 11.89L18.19 11.89L18.19 16.09L14.69 16.09C13.54 16.09 12.59 15.15 12.59 14C12.59 12.84 13.54 11.89 14.69 11.89Z"
		fill="#FFFFFF" fill-opacity="1.000000" fill-rule="evenodd" />
	<g style="mix-blend-mode:soft-light">
		<path id="路径 42"
			d="M14 9.8C6 9.8 4.95 16.97 8.01 19.88C11.08 22.78 13.65 22.37 15.43 22.39C17.2 22.42 16.61 18.2 14 18.2C11.38 18.2 9.78 15.86 9.78 14C9.78 12.13 11.28 9.8 14 9.8Z"
			fill="url(#paint_linear_109_6496_0)" fill-opacity="1.000000" fill-rule="evenodd" />
	</g>
	<path id="TinyEngine"
		d="M53.39 7.53Q52.89 7.53 52.51 7.32Q52.32 7.21 52.16 7.05Q51.98 6.88 51.87 6.67Q51.67 6.31 51.67 5.83Q51.67 5.35 51.88 4.98Q51.99 4.79 52.16 4.63Q52.3 4.48 52.48 4.38L52.48 4.38Q52.87 4.16 53.39 4.16Q53.86 4.16 54.22 4.35L54.22 4.35Q54.44 4.46 54.62 4.63Q54.81 4.82 54.93 5.06Q55.11 5.4 55.11 5.83Q55.11 6.17 55 6.47Q54.95 6.59 54.88 6.71Q54.75 6.92 54.58 7.08Q54.44 7.22 54.26 7.32Q54.17 7.37 54.08 7.4Q53.76 7.53 53.39 7.53ZM129.17 7.53Q128.67 7.53 128.29 7.32Q128.1 7.21 127.94 7.05Q127.77 6.88 127.66 6.67Q127.46 6.31 127.46 5.83Q127.46 5.35 127.67 4.98L127.67 4.98Q127.78 4.79 127.94 4.63Q128.09 4.48 128.26 4.38L128.26 4.38Q128.65 4.16 129.17 4.16Q129.64 4.16 130.01 4.35L130.01 4.35Q130.22 4.46 130.4 4.63Q130.6 4.82 130.72 5.06L130.72 5.06Q130.89 5.4 130.89 5.83Q130.89 6.17 130.78 6.47Q130.73 6.59 130.67 6.71Q130.54 6.92 130.37 7.08Q130.22 7.22 130.04 7.32Q129.95 7.37 129.86 7.4L129.86 7.4Q129.54 7.53 129.17 7.53ZM41.56 7.48L36.3 7.48L36.56 5.03L49.76 5.03L49.5 7.48L44.49 7.48L44.49 22L41.56 22L41.56 7.48ZM85.81 5.03L95.81 5.03L95.53 7.44L88.74 7.44L88.74 12.12L95.14 12.12L95.14 14.38L88.74 14.38L88.74 19.56L95.89 19.56L95.64 22L85.81 22L85.81 5.03ZM58.55 12.57Q58.55 10.8 58.46 9.35L61.17 9.35Q61.24 9.75 61.3 10.34Q61.37 10.93 61.39 11.32Q61.98 10.66 62.56 10.2Q63.14 9.74 63.93 9.43Q64.72 9.12 65.71 9.12Q67.05 9.12 67.95 9.74Q68.31 9.99 68.6 10.33Q69.62 11.55 69.62 13.9L69.62 22L66.75 22L66.75 14.1Q66.75 12.38 65.92 11.75Q65.45 11.4 64.72 11.4Q64.33 11.4 63.96 11.49Q63.46 11.61 63.01 11.89Q62.21 12.37 61.44 13.19L61.44 22L58.55 22L58.55 12.57ZM98.87 12.57Q98.87 10.8 98.77 9.35L101.48 9.35Q101.55 9.75 101.61 10.34Q101.68 10.93 101.7 11.32Q102.29 10.66 102.87 10.2Q103.45 9.74 104.24 9.43Q105.03 9.12 106.03 9.12Q107.36 9.12 108.26 9.74L108.26 9.74Q108.62 9.99 108.91 10.33Q109.93 11.55 109.93 13.9L109.93 22L107.06 22L107.06 14.1Q107.06 12.38 106.23 11.75Q105.76 11.4 105.03 11.4Q104.64 11.4 104.27 11.49Q103.78 11.61 103.32 11.89Q102.52 12.37 101.75 13.19L101.75 22L98.87 22L98.87 12.57ZM118.21 27.28Q116.6 27.28 115.46 26.97Q114.32 26.66 113.36 26.23L114 24.12Q116.02 25.1 117.85 25.1Q119.43 25.1 120.27 24.31Q120.28 24.31 120.29 24.3Q121.13 23.5 121.13 21.67L121.13 20.37Q120.36 21.22 119.47 21.73Q118.59 22.23 117.31 22.23Q116.41 22.23 115.62 21.93Q115.26 21.79 114.93 21.6Q113.85 20.96 113.2 19.59Q112.54 18.22 112.54 16.11Q112.54 13.96 113.26 12.38Q113.79 11.22 114.66 10.45L114.66 10.45Q114.97 10.18 115.33 9.96Q115.33 9.95 115.34 9.95Q116.69 9.12 118.55 9.12Q119.2 9.12 119.82 9.25L119.82 9.25L119.82 9.25Q120.01 9.29 120.19 9.34Q120.99 9.56 121.55 9.92L122.16 9.35L124.1 9.35Q124 10.94 124 12.47L124 21.81Q124 23.57 123.25 24.8Q122.89 25.4 122.39 25.86Q121.86 26.34 121.19 26.66Q119.88 27.28 118.21 27.28ZM134.34 12.57Q134.34 10.8 134.25 9.35L136.95 9.35Q137.02 9.75 137.09 10.34Q137.15 10.93 137.17 11.32Q137.76 10.66 138.34 10.2Q138.92 9.74 139.71 9.43Q140.5 9.12 141.5 9.12Q142.83 9.12 143.73 9.74L143.73 9.74Q144.09 9.99 144.38 10.33Q145.4 11.55 145.4 13.9L145.4 22L142.53 22L142.53 14.1Q142.53 12.38 141.7 11.75Q141.24 11.4 140.5 11.4Q140.11 11.4 139.74 11.49Q139.25 11.61 138.79 11.89Q138 12.37 137.22 13.19L137.22 22L134.34 22L134.34 12.57ZM159.21 16.04L150.93 16.04Q151.04 18.24 152.19 19.23Q153.12 20.01 154.72 20.01Q155.61 20.01 156.54 19.8Q157.47 19.58 158.33 19.22L158.96 21.2Q156.84 22.23 154.19 22.23Q152.17 22.23 150.79 21.47Q150.13 21.1 149.62 20.58L149.62 20.58Q149.08 20.02 148.71 19.28Q148.02 17.85 148.02 15.83Q148.02 13.73 148.75 12.22Q149.32 11.06 150.23 10.32Q150.51 10.1 150.81 9.91Q150.98 9.81 151.15 9.72Q152.35 9.12 153.85 9.12Q155.64 9.12 156.85 9.95Q157.33 10.29 157.71 10.72L157.71 10.72Q158.28 11.35 158.63 12.19Q159.21 13.58 159.21 15.27L159.21 16.04ZM51.94 9.35L54.83 9.35L54.83 22L51.94 22L51.94 9.35ZM73.2 27.28Q72.48 27.28 71.84 27.17Q71.21 27.06 70.8 26.92L71.33 24.81Q71.62 24.89 72.07 24.97Q72.51 25.04 72.91 25.04Q73.41 25.04 73.85 24.87Q75.08 24.39 75.79 22.57L75.98 22.1L71.32 9.35L74.42 9.35L76.76 16.48Q77.34 18.3 77.5 19.28Q77.83 17.91 78.28 16.53L80.66 9.35L83.57 9.35L78.92 22.16Q78.26 23.98 77.5 25.09Q76.74 26.2 75.7 26.74Q74.67 27.28 73.2 27.28ZM127.73 9.35L130.61 9.35L130.61 22L127.73 22L127.73 9.35ZM156.38 14.2Q156.3 12.69 155.62 11.93Q155.39 11.68 155.12 11.51Q154.56 11.18 153.8 11.18Q153.18 11.18 152.67 11.42Q152.29 11.61 151.97 11.94Q151.24 12.7 151.02 14.2L156.38 14.2ZM118.07 19.94Q118.59 19.94 119.07 19.8Q119.44 19.69 119.79 19.49Q120.58 19.04 121.13 18.43L121.13 11.85Q120.65 11.55 120.02 11.39Q119.4 11.23 118.78 11.23Q118.07 11.23 117.5 11.5Q117.26 11.61 117.04 11.77Q116.3 12.32 115.9 13.4Q115.5 14.48 115.5 16.07Q115.5 18.09 116.22 19.02Q116.61 19.52 117.12 19.75Q117.55 19.94 118.07 19.94Z"
		fill="currentColor" fill-opacity="1.000000" fill-rule="evenodd" />
</svg>