<svg width="128.000000" height="28.000000" viewBox="0 0 128 28" fill="none"
	xmlns="http://www.w3.org/2000/svg" xmlns:xlink="http://www.w3.org/1999/xlink">
	<desc>
		Created with Pixso.
	</desc>
	<defs>
		<linearGradient x1="20.089661" y1="12.311260" x2="13.920244" y2="16.730551"
			id="paint_linear_194_44636_0" gradientUnits="userSpaceOnUse">
			<stop stop-color="#000000" stop-opacity="0.000000" />
			<stop offset="1.000000" stop-color="#000000" />
		</linearGradient>
		<linearGradient x1="23.339224" y1="21.036547" x2="8.287218" y2="18.756954"
			id="paint_linear_194_44639_0" gradientUnits="userSpaceOnUse">
			<stop stop-color="#FFFFFF" stop-opacity="0.905882" />
			<stop offset="0.583061" stop-color="#FFFFFF" stop-opacity="0.800000" />
			<stop offset="1.000000" stop-color="#FFFFFF" />
		</linearGradient>
	</defs>
	<rect id="TinyVue" width="128.000000" height="28.000000" fill="#FFFFFF" fill-opacity="0" />
	<rect id="组合 19" width="128.000000" height="28.000000" fill="#FFFFFF" fill-opacity="0" />
	<path id="TinyVue"
		d="M52.51 7.32Q52.89 7.53 53.39 7.53Q53.76 7.53 54.07 7.4Q54.17 7.37 54.26 7.32Q54.44 7.22 54.58 7.08Q54.76 6.92 54.88 6.71Q54.95 6.59 54.99 6.47Q55.11 6.17 55.11 5.83Q55.11 5.4 54.93 5.06Q54.81 4.82 54.62 4.63Q54.44 4.46 54.22 4.35Q53.85 4.16 53.39 4.16Q52.87 4.16 52.48 4.38Q52.3 4.48 52.16 4.63Q51.99 4.79 51.88 4.98Q51.67 5.35 51.67 5.83Q51.67 6.31 51.87 6.67Q51.98 6.88 52.16 7.05Q52.32 7.21 52.51 7.32ZM36.3 7.48L41.56 7.48L41.56 22L44.49 22L44.49 7.48L49.5 7.48L49.76 5.03L36.56 5.03L36.3 7.48ZM86.82 5.03L83.61 5.03L90.14 22L93.04 22L99.57 5.03L96.59 5.03L92.35 16.91Q92.14 17.51 91.73 18.92Q91.62 18.44 91.45 17.85Q91.27 17.25 91.16 16.91L86.82 5.03ZM58.46 9.35Q58.55 10.8 58.55 12.57L58.55 22L61.44 22L61.44 13.19Q62.21 12.37 63.01 11.89Q63.46 11.61 63.96 11.49Q64.33 11.4 64.72 11.4Q65.45 11.4 65.92 11.75Q66.75 12.38 66.75 14.1L66.75 22L69.62 22L69.62 13.9Q69.62 11.55 68.6 10.33Q68.31 9.99 67.95 9.74Q67.05 9.12 65.71 9.12Q64.72 9.12 63.93 9.43Q63.14 9.74 62.56 10.2Q61.98 10.66 61.39 11.32Q61.37 10.93 61.3 10.34Q61.24 9.75 61.17 9.35L58.46 9.35ZM118.02 16.04L126.29 16.04L126.29 15.27Q126.29 13.58 125.71 12.19Q125.36 11.35 124.79 10.72Q124.41 10.29 123.93 9.95Q122.73 9.12 120.93 9.12Q119.43 9.12 118.24 9.72Q118.06 9.81 117.89 9.91Q117.59 10.1 117.32 10.32Q116.4 11.06 115.84 12.22Q115.1 13.73 115.1 15.83Q115.1 17.85 115.79 19.28Q116.16 20.02 116.71 20.58Q117.21 21.1 117.87 21.47Q119.26 22.23 121.27 22.23Q123.92 22.23 126.04 21.2L125.41 19.22Q124.55 19.58 123.62 19.8Q122.69 20.01 121.8 20.01Q120.2 20.01 119.28 19.23Q118.13 18.24 118.02 16.04ZM54.83 9.35L51.94 9.35L51.94 22L54.83 22L54.83 9.35ZM71.84 27.17Q72.48 27.28 73.2 27.28Q74.67 27.28 75.7 26.74Q76.74 26.2 77.5 25.09Q78.26 23.98 78.92 22.16L83.57 9.35L80.66 9.35L78.28 16.53Q77.83 17.91 77.5 19.28Q77.34 18.3 76.76 16.48L74.42 9.35L71.32 9.35L75.98 22.1L75.79 22.57Q75.08 24.39 73.85 24.87Q73.41 25.04 72.91 25.04Q72.51 25.04 72.07 24.97Q71.62 24.89 71.33 24.81L70.8 26.92Q71.21 27.06 71.84 27.17ZM102.72 21.52Q103.66 22.23 105.14 22.23Q106.11 22.23 106.9 21.91Q107.69 21.6 108.27 21.15Q108.84 20.69 109.45 20.06Q109.54 21.27 109.69 22L112.37 22Q112.26 20.42 112.26 18.82L112.26 9.35L109.38 9.35L109.38 18.19Q107.86 19.84 106.25 19.93Q106.16 19.93 106.07 19.93Q105.29 19.93 104.81 19.55Q104.67 19.44 104.56 19.3Q104.05 18.67 104.05 17.27L104.05 9.35L101.19 9.35L101.19 17.47Q101.19 19.83 102.2 21.03Q102.43 21.3 102.72 21.52ZM122.7 11.93Q123.38 12.69 123.46 14.2L118.1 14.2Q118.32 12.7 119.05 11.94Q119.37 11.61 119.75 11.42Q120.26 11.18 120.89 11.18Q121.64 11.18 122.2 11.51Q122.48 11.68 122.7 11.93Z"
		fill="currentColor" fill-opacity="1.000000" fill-rule="evenodd" />
	<rect id="矩形备份" rx="8.000000" width="28.000000" height="28.000000" fill="#5F5AF8"
		fill-opacity="1.000000" />
	<g style="mix-blend-mode:soft-light">
		<path id="路径 41"
			d="M13.1 16.11C14.15 18.28 16.47 21.5 18.65 17.07C18.93 16.5 20.56 13.32 20.95 12.52C24.39 5.4 18.34 8.26 16.55 11.84C16.23 12.48 14.68 15.68 14.4 16.17C14.02 16.84 13.33 16.6 13.1 16.11Z"
			fill="url(#paint_linear_194_44636_0)" fill-opacity="1.000000" fill-rule="evenodd" />
	</g>
	<path id="减去顶层"
		d="M4.19995 7.69995L10.6392 20.5781C11.929 23.158 15.6104 23.158 16.9001 20.5781L23.3391 7.69995L18.6436 7.69995L14.3958 16.1956C14.1377 16.7117 13.4014 16.7117 13.1436 16.1956L8.89575 7.69995L4.19995 7.69995L4.19995 7.69995Z"
		clip-rule="evenodd" fill="url(#paint_linear_194_44639_0)" fill-opacity="1.000000"
		fill-rule="evenodd" />
</svg>