<svg width="157.000000" height="28.000000" viewBox="0 0 157 28" fill="none"
	xmlns="http://www.w3.org/2000/svg" xmlns:xlink="http://www.w3.org/1999/xlink">
	<desc>
		Created with Pixso.
	</desc>
	<defs>
		<linearGradient x1="21.995325" y1="16.851425" x2="10.552237" y2="14.094663"
			id="paint_linear_194_44689_0" gradientUnits="userSpaceOnUse">
			<stop stop-color="#FFFFFF" stop-opacity="0.905882" />
			<stop offset="0.708703" stop-color="#FFFFFF" stop-opacity="0.800000" />
			<stop offset="1.000000" stop-color="#FFFFFF" />
		</linearGradient>
		<linearGradient x1="19.922752" y1="19.953041" x2="6.418886" y2="13.725021"
			id="paint_linear_194_44691_0" gradientUnits="userSpaceOnUse">
			<stop stop-color="#FFFFFF" stop-opacity="0.905882" />
			<stop offset="0.727615" stop-color="#FFFFFF" stop-opacity="0.800000" />
			<stop offset="1.000000" stop-color="#FFFFFF" />
		</linearGradient>
		<linearGradient x1="17.927670" y1="13.509727" x2="15.141267" y2="12.969216"
			id="paint_linear_194_44693_0" gradientUnits="userSpaceOnUse">
			<stop stop-color="#000000" stop-opacity="0.000000" />
			<stop offset="1.000000" stop-color="#000000" />
		</linearGradient>
		<linearGradient x1="14.178537" y1="20.278797" x2="10.327059" y2="19.413328"
			id="paint_linear_194_44694_0" gradientUnits="userSpaceOnUse">
			<stop stop-color="#000000" stop-opacity="0.000000" />
			<stop offset="1.000000" stop-color="#000000" />
		</linearGradient>
	</defs>
	<rect id="TinyCharts" width="157.000000" height="28.000000" fill="currentColor" fill-opacity="0" />
	<rect id="组合 19" width="157.000000" height="28.000000" fill="#FFFFFF" fill-opacity="0" />
	<path id="TinyCharts"
		d="M109.89 9.79Q108.96 9.12 107.54 9.12Q106.28 9.12 105.3 9.64Q105.23 9.67 105.16 9.71Q104.13 10.31 103.28 11.25L103.28 3.78L100.43 4.02L100.43 22L103.31 22L103.31 13.08Q104.05 12.32 104.85 11.86Q105.28 11.61 105.75 11.5Q106.15 11.4 106.57 11.4Q107.39 11.4 107.88 11.81Q108 11.91 108.11 12.03Q108.62 12.67 108.62 14.06L108.62 22L111.49 22L111.49 13.82Q111.49 11.5 110.46 10.31Q110.2 10.01 109.89 9.79ZM52.51 7.32Q52.89 7.53 53.39 7.53Q53.76 7.53 54.07 7.4Q54.17 7.37 54.26 7.32Q54.44 7.22 54.58 7.08Q54.76 6.92 54.88 6.71Q54.95 6.59 54.99 6.47Q55.11 6.17 55.11 5.83Q55.11 5.4 54.93 5.06Q54.81 4.82 54.62 4.63Q54.44 4.46 54.22 4.35Q53.85 4.16 53.39 4.16Q52.87 4.16 52.48 4.38Q52.3 4.48 52.16 4.63Q51.99 4.79 51.88 4.98Q51.67 5.35 51.67 5.83Q51.67 6.31 51.87 6.67Q51.98 6.88 52.16 7.05Q52.32 7.21 52.51 7.32ZM88.58 21.23Q90.46 22.23 93.1 22.23Q94.66 22.23 95.9 21.93Q97.13 21.63 98.21 21.09L97.54 18.91Q95.39 19.9 93.38 19.9Q91.46 19.9 90.2 19.09Q89.67 18.75 89.26 18.3Q88.69 17.68 88.34 16.86Q87.75 15.44 87.75 13.57Q87.75 11.6 88.37 10.15Q88.85 9.04 89.67 8.32Q89.93 8.09 90.21 7.91Q91.42 7.12 93.16 7.12Q95.12 7.12 97.21 8.21L97.98 6Q96.94 5.44 95.68 5.11Q94.41 4.79 93.02 4.79Q90.57 4.79 88.71 5.84Q88.68 5.86 88.66 5.87Q88 6.25 87.44 6.75Q86.42 7.66 85.75 8.97Q84.72 10.99 84.72 13.73Q84.72 16.41 85.71 18.32Q86.23 19.32 87 20.08Q87.69 20.75 88.58 21.23ZM36.3 7.48L41.56 7.48L41.56 22L44.49 22L44.49 7.48L49.5 7.48L49.76 5.03L36.56 5.03L36.3 7.48ZM139.67 21.37Q140.65 22.23 142.38 22.23Q143.28 22.23 144.08 22.04Q144.89 21.85 145.5 21.57L145.07 19.65Q144.02 20.01 143.25 20.01Q142.41 20.01 141.96 19.6Q141.89 19.54 141.83 19.46Q141.38 18.91 141.38 17.61L141.38 11.5L144.79 11.5L145.14 9.35L141.38 9.35L141.38 6L138.76 6.3L138.59 9.35L137.1 9.6L136.75 11.5L138.52 11.5L138.52 17.91Q138.52 20.24 139.52 21.23Q139.59 21.31 139.67 21.37ZM58.46 9.35Q58.55 10.8 58.55 12.57L58.55 22L61.44 22L61.44 13.19Q62.21 12.37 63.01 11.89Q63.46 11.61 63.96 11.49Q64.33 11.4 64.72 11.4Q65.45 11.4 65.92 11.75Q66.75 12.38 66.75 14.1L66.75 22L69.62 22L69.62 13.9Q69.62 11.55 68.6 10.33Q68.31 9.99 67.95 9.74Q67.05 9.12 65.71 9.12Q64.72 9.12 63.93 9.43Q63.14 9.74 62.56 10.2Q61.98 10.66 61.39 11.32Q61.37 10.93 61.3 10.34Q61.24 9.75 61.17 9.35L58.46 9.35ZM122.2 20.32Q122.25 21.26 122.4 22L125.12 22Q125.02 20.4 125.02 19.62L125.02 14.59Q125.02 12.54 124.38 11.33Q123.92 10.47 123.21 9.96Q122.92 9.76 122.59 9.61Q121.44 9.12 119.8 9.12Q118.39 9.12 117.12 9.41Q115.86 9.7 115.09 10.05L115.54 12.16Q116.34 11.79 117.39 11.52Q118.45 11.25 119.37 11.25Q120.67 11.25 121.38 11.89Q121.4 11.91 121.43 11.93Q122.14 12.62 122.14 14.3L122.14 14.54L122.12 14.54Q120.99 14.38 119.84 14.38Q116.75 14.38 115.43 15.47Q114.89 15.92 114.57 16.49Q114.1 17.32 114.1 18.41Q114.1 19.65 114.63 20.51Q114.92 20.99 115.32 21.33Q115.65 21.61 116.05 21.8Q116.09 21.82 116.13 21.84Q117 22.23 118.04 22.23Q119.34 22.23 120.38 21.71Q120.42 21.69 120.46 21.67Q121.53 21.12 122.2 20.32ZM128.52 9.35Q128.61 11.48 128.61 12.53L128.61 22L131.49 22L131.49 13.87Q132.36 12.68 133.12 12.16Q133.29 12.04 133.47 11.95Q134.11 11.64 134.9 11.64Q135.42 11.64 135.84 11.76L136.2 9.26Q135.72 9.12 135.05 9.12Q134.27 9.12 133.65 9.43Q133.61 9.45 133.57 9.47Q133.29 9.63 133.03 9.83Q132.71 10.08 132.43 10.4Q131.95 10.97 131.44 11.8Q131.42 11.34 131.36 10.61Q131.29 9.88 131.22 9.35L128.52 9.35ZM148.15 22Q149.2 22.23 150.37 22.23Q152.01 22.23 153.15 21.73Q154.17 21.28 154.73 20.5Q154.8 20.42 154.85 20.33Q154.89 20.26 154.93 20.19Q155.42 19.33 155.42 18.19Q155.42 17.03 154.95 16.29Q154.59 15.73 154.09 15.35Q153.93 15.23 153.76 15.13Q153.04 14.71 151.87 14.24Q150.8 13.82 150.31 13.58Q149.82 13.33 149.56 13.05Q149.45 12.94 149.39 12.8Q149.3 12.61 149.3 12.37Q149.3 12.08 149.42 11.85Q149.54 11.62 149.78 11.45Q150.27 11.11 151.14 11.11Q151.86 11.11 152.75 11.32Q153.64 11.53 154.45 11.89L154.95 9.98Q154.09 9.57 153.08 9.34Q152.42 9.19 151.75 9.14Q151.41 9.12 151.06 9.12Q149.66 9.12 148.66 9.55Q147.8 9.92 147.29 10.58Q147.21 10.68 147.14 10.79Q147.1 10.86 147.05 10.93Q146.62 11.69 146.62 12.69Q146.62 13.72 147.07 14.43Q147.24 14.7 147.46 14.94Q147.8 15.31 148.25 15.59Q148.99 16.04 150.07 16.45Q151.14 16.86 151.67 17.13Q152.2 17.39 152.47 17.72Q152.52 17.79 152.57 17.87Q152.74 18.16 152.74 18.55Q152.74 18.98 152.55 19.3Q152.41 19.55 152.15 19.74Q151.57 20.17 150.38 20.17Q149.54 20.17 148.63 19.96Q147.72 19.75 147.08 19.44L146.42 21.41Q147.1 21.76 148.15 22ZM54.83 9.35L51.94 9.35L51.94 22L54.83 22L54.83 9.35ZM71.84 27.17Q72.48 27.28 73.2 27.28Q74.67 27.28 75.7 26.74Q76.74 26.2 77.5 25.09Q78.26 23.98 78.92 22.16L83.57 9.35L80.66 9.35L78.28 16.53Q77.83 17.91 77.5 19.28Q77.34 18.3 76.76 16.48L74.42 9.35L71.32 9.35L75.98 22.1L75.79 22.57Q75.08 24.39 73.85 24.87Q73.41 25.04 72.91 25.04Q72.51 25.04 72.07 24.97Q71.62 24.89 71.33 24.81L70.8 26.92Q71.21 27.06 71.84 27.17ZM120.66 19.65Q119.76 20.08 118.89 20.08Q118.1 20.08 117.62 19.7Q117.58 19.67 117.54 19.63Q117.51 19.61 117.48 19.58Q117.04 19.13 117.04 18.25Q117.04 17.63 117.31 17.17Q117.47 16.9 117.73 16.68Q118.41 16.1 120.21 16.1Q120.96 16.1 122.14 16.23L122.14 18.57Q121.57 19.22 120.66 19.65Z"
		fill="#000000" fill-opacity="1.000000" fill-rule="evenodd" />
	<rect id="矩形备份 11" rx="8.000000" width="28.000000" height="28.000000" fill="#5F5AF8"
		fill-opacity="1.000000" />
	<path id="路径"
		d="M7.84 16.05L11.45 11.04C12.76 9.22 15.53 9.46 16.52 11.47C16.84 12.15 17.78 12.22 18.21 11.61L21.35 7.13L23.65 8.74L19.7 14.35C18.4 16.2 15.59 15.98 14.6 13.94C14.28 13.27 13.35 13.19 12.91 13.8L10.11 17.69L7.84 16.05Z"
		fill="url(#paint_linear_194_44689_0)" fill-opacity="1.000000" fill-rule="evenodd" />
	<rect id="矩形备份 10" x="7.699951" y="11.899902" width="2.800000" height="6.300000" fill="#5F5AF8"
		fill-opacity="1.000000" />
	<rect id="矩形备份 10" x="8.199951" y="12.399902" width="1.800000" height="5.300000"
		stroke="#979797" stroke-opacity="0" stroke-width="1.000000" />
	<path id="路径"
		d="M8.4 6.3L8.4 17.9C8.4 18.45 8.84 18.9 9.4 18.9L22.4 18.9L22.4 21.7L10.6 21.7C7.83 21.7 5.6 19.46 5.6 16.7L5.6 6.3L8.4 6.3Z"
		fill="url(#paint_linear_194_44691_0)" fill-opacity="1.000000" fill-rule="evenodd" />
	<rect id="矩形备份 13" x="21.000000" y="6.300049" width="2.800000" height="7.000000" fill="#5F5AF8"
		fill-opacity="1.000000" />
	<rect id="矩形备份 13" x="21.500000" y="6.800049" width="1.800000" height="6.000000"
		stroke="#979797" stroke-opacity="0" stroke-width="1.000000" />
	<g style="mix-blend-mode:soft-light">
		<path id="路径 45"
			d="M13.2 13.39C14.7 11.4 16.42 11.4 16.88 12.12C17 12.31 17.59 12.5 17.97 11.95C18.53 11.15 20.01 14.15 18.64 15.84C17.8 16.89 15.97 16.78 15.35 15.47C15.03 14.81 14.55 13.8 14.39 13.5C14.06 12.89 13.35 13.13 13.2 13.39Z"
			fill="url(#paint_linear_194_44693_0)" fill-opacity="1.000000" fill-rule="evenodd" />
	</g>
	<g style="mix-blend-mode:soft-light">
		<path id="路径 46"
			d="M8.4 18.2C8.4 18.65 8.78 18.9 9.09 18.9C9.41 18.9 12.78 18.9 13.63 18.9C14.49 18.9 15.74 21.7 13.63 21.7C11.53 21.7 14.09 21.7 11.59 21.7C9.09 21.7 8.4 19.57 8.4 18.2Z"
			fill="url(#paint_linear_194_44694_0)" fill-opacity="1.000000" fill-rule="evenodd" />
	</g>
</svg>