<svg width="159.503906" height="28.000000" viewBox="0 0 159.504 28" fill="none"
	xmlns="http://www.w3.org/2000/svg" xmlns:xlink="http://www.w3.org/1999/xlink">
	<desc>
		Created with Pixso.
	</desc>
	<defs>
		<linearGradient x1="17.500391" y1="23.653498" x2="13.488451" y2="8.672962"
			id="paint_linear_109_6510_0" gradientUnits="userSpaceOnUse">
			<stop stop-color="#FFFFFF" stop-opacity="0.905882" />
			<stop offset="0.666799" stop-color="#FFFFFF" stop-opacity="0.800000" />
			<stop offset="1.000000" stop-color="#FFFFFF" />
		</linearGradient>
		<linearGradient x1="15.426001" y1="18.424612" x2="14.669928" y2="12.454177"
			id="paint_linear_109_6514_0" gradientUnits="userSpaceOnUse">
			<stop stop-color="#000000" stop-opacity="0.000000" />
			<stop offset="1.000000" stop-color="#000000" />
		</linearGradient>
	</defs>
	<rect id="矩形备份 8" rx="6.000000" width="28.000000" height="28.000000" fill="#5F5AF8"
		fill-opacity="1.000000" />
	<path id="路径备份"
		d="M23.1 7L23.1 11.2L17.1 11.2C16.54 11.2 16.1 11.64 16.1 12.2L16.1 22.39L11.9 22.39L11.9 12C11.9 9.23 14.13 7 16.9 7L23.1 7Z"
		fill="url(#paint_linear_109_6510_0)" fill-opacity="1.000000" fill-rule="evenodd" />
	<path id="形状结合"
		d="M12.251 7L5.59961 7L5.59961 11.2L10.1494 11.2C10.1494 9.48364 10.9756 7.95825 12.251 7Z"
		clip-rule="evenodd" fill="#FFFFFF" fill-opacity="1.000000" fill-rule="evenodd" />
	<g style="mix-blend-mode:soft-light">
		<path id="路径 44备份"
			d="M16.8 11.2C15.36 11.2 11.9 11.08 11.9 15.99C11.9 16.68 11.89 18.4 11.9 18.9C11.91 22.25 16.1 19.67 16.1 18.2C16.1 16.5 16.1 12.25 16.1 11.91C16.1 11.56 16.36 11.2 16.8 11.2Z"
			fill="url(#paint_linear_109_6514_0)" fill-opacity="1.000000" fill-rule="evenodd" />
	</g>
	<path id="TinyTheme"
		d="M106.39 9.33Q107.81 9.33 108.74 10L108.74 10Q109.05 10.22 109.31 10.52Q110.34 11.71 110.34 14.03L110.34 22.21L107.47 22.21L107.47 14.27Q107.47 12.88 106.96 12.25Q106.86 12.12 106.73 12.02Q106.24 11.61 105.42 11.61C104.81 11.61 104.24 11.76 103.7 12.07Q102.9 12.53 102.16 13.29L102.16 22.21L99.28 22.21L99.28 4.23L102.14 4L102.14 11.46Q102.98 10.52 104.01 9.92Q104.08 9.88 104.15 9.85Q105.13 9.33 106.39 9.33ZM53.08 7.75Q52.58 7.75 52.2 7.53Q52.01 7.42 51.85 7.26C51.53 6.94 51.37 6.54 51.37 6.05C51.37 5.55 51.53 5.15 51.85 4.84Q52 4.69 52.17 4.59L52.17 4.59Q52.56 4.37 53.08 4.37Q53.55 4.37 53.92 4.56Q54.13 4.67 54.31 4.84Q54.51 5.04 54.63 5.27Q54.8 5.61 54.8 6.05Q54.8 6.38 54.69 6.68Q54.64 6.8 54.58 6.92Q54.45 7.13 54.28 7.29Q54.13 7.43 53.95 7.53Q53.86 7.58 53.77 7.62Q53.45 7.75 53.08 7.75ZM41.26 7.69L36 7.69L36.25 5.24L49.46 5.24L49.19 7.69L44.19 7.69L44.19 22.21L41.26 22.21L41.26 7.69ZM88.89 7.69L83.63 7.69L83.89 5.24L97.1 5.24L96.83 7.69L91.82 7.69L91.82 22.21L88.89 22.21L88.89 7.69ZM58.25 12.78Q58.25 11.01 58.16 9.56L60.86 9.56Q60.93 9.96 61 10.55C61.04 10.95 61.07 11.27 61.08 11.53C61.48 11.09 61.86 10.72 62.25 10.41Q62.83 9.95 63.62 9.64Q64.41 9.33 65.41 9.33C66.65 9.33 67.61 9.73 68.29 10.55Q69.31 11.76 69.31 14.11L69.31 22.21L66.44 22.21L66.44 14.31Q66.44 12.59 65.61 11.96Q65.15 11.61 64.41 11.61Q64.02 11.61 63.65 11.7Q63.16 11.82 62.7 12.1Q61.91 12.58 61.13 13.41L61.13 22.21L58.25 22.21L58.25 12.78ZM124.14 16.25L115.87 16.25Q115.98 18.46 117.13 19.44Q118.06 20.23 119.66 20.23Q120.55 20.23 121.48 20.01C122.1 19.86 122.69 19.67 123.27 19.43L123.9 21.41Q121.78 22.44 119.13 22.44Q117.11 22.44 115.73 21.68Q115.07 21.31 114.56 20.79Q114.01 20.23 113.65 19.49Q112.95 18.06 112.95 16.04Q112.95 13.94 113.69 12.43C114.18 11.42 114.87 10.66 115.75 10.12Q115.91 10.02 116.09 9.93L116.09 9.93Q117.29 9.33 118.79 9.33Q120.58 9.33 121.78 10.16Q122.27 10.5 122.65 10.93L122.65 10.93Q123.22 11.56 123.56 12.4Q124.14 13.79 124.14 15.48L124.14 16.25ZM126.93 12.88Q126.93 11.25 126.86 9.56L129.57 9.56C129.61 9.78 129.65 10.1 129.69 10.52C129.73 10.93 129.75 11.27 129.77 11.53Q131.92 9.33 134.07 9.33Q135.2 9.33 136.01 9.84L136.02 9.84Q136.08 9.88 136.15 9.93Q136.16 9.94 136.16 9.94Q137 10.54 137.49 11.64Q138.43 10.62 139.5 9.97Q139.7 9.85 139.92 9.75L139.92 9.75Q140.83 9.33 141.94 9.33Q143.12 9.33 143.97 9.85Q144.36 10.1 144.69 10.46Q145.71 11.59 145.71 14.11L145.71 22.21L142.82 22.21L142.82 14.11Q142.82 12.54 142.07 11.96Q141.62 11.61 140.9 11.61C140.33 11.61 139.79 11.77 139.27 12.08Q138.49 12.55 137.74 13.37L137.74 22.21L134.9 22.21L134.9 13.9Q134.9 12.7 134.39 12.16Q134.2 11.95 133.97 11.83Q133.58 11.61 133.07 11.61Q132.21 11.61 131.3 12.16Q130.39 12.7 129.82 13.39L129.82 22.21L126.93 22.21L126.93 12.88ZM159.5 16.25L151.23 16.25Q151.34 18.46 152.49 19.44Q153.41 20.23 155.01 20.23Q155.9 20.23 156.83 20.01C157.45 19.86 158.05 19.67 158.62 19.43L159.25 21.41Q157.13 22.44 154.48 22.44Q152.47 22.44 151.09 21.68Q150.42 21.31 149.92 20.79Q149.37 20.23 149 19.49Q148.31 18.06 148.31 16.04Q148.31 13.94 149.05 12.43C149.54 11.42 150.22 10.66 151.1 10.12Q151.27 10.02 151.44 9.93L151.45 9.93Q152.64 9.33 154.14 9.33Q155.94 9.33 157.14 10.16Q157.62 10.5 158 10.93L158 10.93Q158.57 11.56 158.92 12.4Q159.5 13.79 159.5 15.48L159.5 16.25ZM51.64 9.56L54.52 9.56L54.52 22.21L51.64 22.21L51.64 9.56ZM72.9 27.49Q72.17 27.49 71.54 27.38Q70.91 27.27 70.5 27.13L71.02 25.02Q71.32 25.1 71.76 25.18Q72.21 25.25 72.6 25.25Q73.11 25.25 73.55 25.08Q74.78 24.6 75.49 22.78L75.67 22.31L71.01 9.56L74.12 9.56L76.46 16.69C76.84 17.91 77.09 18.84 77.2 19.49Q77.53 18.12 77.97 16.75L80.35 9.56L83.27 9.56L78.62 22.37Q77.96 24.19 77.2 25.3Q76.44 26.41 75.4 26.95Q74.36 27.49 72.9 27.49ZM121.32 14.41Q121.24 12.9 120.56 12.15Q120.33 11.89 120.05 11.72Q119.5 11.39 118.74 11.39Q118.12 11.39 117.61 11.63Q117.22 11.82 116.91 12.15Q116.18 12.91 115.95 14.41L121.32 14.41ZM156.67 14.41Q156.59 12.9 155.91 12.15Q155.69 11.89 155.41 11.72Q154.85 11.39 154.1 11.39Q153.47 11.39 152.97 11.63Q152.58 11.82 152.26 12.15Q151.53 12.91 151.31 14.41L156.67 14.41Z"
		fill="currentColor" fill-opacity="1.000000" fill-rule="evenodd" />
</svg>