<?xml version="1.0" encoding="UTF-8"?>
<svg width="16px" height="16px" viewBox="0 0 16 16" version="1.1" xmlns="http://www.w3.org/2000/svg" xmlns:xlink="http://www.w3.org/1999/xlink">
    <g id="定稿" stroke="none" stroke-width="1" fill="none" fill-rule="evenodd">
        <g id="03规范内页" transform="translate(-670.000000, -152.000000)">
            <g id="数据输入/按钮/图标+文本" transform="translate(670.000000, 149.000000)">
                <g id="icon/16/button" transform="translate(0.000000, 3.000000)">
                    <rect id="矩形" x="0" y="0" width="16" height="16"></rect>
                    <g id="编组" transform="translate(1.000000, 2.000000)" fill="#1476FF" fill-rule="nonzero">
                        <path d="M12.25,0 C13.2164983,0 14,0.767511856 14,1.71428571 L14,10.2857143 C14,11.2324881 13.2164983,12 12.25,12 L1.75,12 C0.783501686,12 0,11.2324881 0,10.2857143 L0,1.71428571 C0,0.767511856 0.783501686,0 1.75,0 L12.25,0 Z M12.264,1.19828571 L1.73425,1.19828571 C1.59501134,1.19828571 1.46147554,1.25246923 1.36301894,1.34891651 C1.26456234,1.44536379 1.20925001,1.57617438 1.20925001,1.71257143 L1.20925001,10.2788571 C1.20925001,10.5628893 1.44430051,10.7931429 1.73425,10.7931429 L12.264,10.7931429 C12.5539495,10.7931429 12.789,10.5628893 12.789,10.2788571 L12.789,1.71257143 C12.789,1.57617438 12.7336877,1.44536379 12.6352311,1.34891651 C12.5367745,1.25246923 12.4032387,1.19828571 12.264,1.19828571 Z" id="形状"></path>
                        <path d="M6.125,7.71428571 L11.375,7.71428571 L11.375,8.74285714 L6.125,8.74285714 L6.125,7.71428571 Z M6.405,5.92371429 L3.38625,8.88085714 L2.61800001,8.12914286 L4.869375,5.92285714 L2.5655,3.66771429 L3.33375,2.91428571 L6.405,5.92371429 Z" id="形状"></path>
                    </g>
                </g>
            </g>
        </g>
    </g>
</svg>