<?xml version="1.0" encoding="UTF-8"?>
<svg width="48px" height="122px" viewBox="0 0 48 122" version="1.1" xmlns="http://www.w3.org/2000/svg" xmlns:xlink="http://www.w3.org/1999/xlink">
    <g id="定稿" stroke="none" stroke-width="1" fill="none" fill-rule="evenodd">
        <g id="首页" transform="translate(-1805.000000, -3433.000000)" stroke="#1B1B1B">
            <g id="编组-13" transform="translate(0.000000, 3004.000000)">
                <g id="编组-3" transform="translate(1829.000000, 490.000000) scale(1, -1) translate(-1829.000000, -490.000000) translate(1805.000000, 429.000000)">
                    <path d="M24,0.5 C30.4893458,0.5 36.3643458,3.13032709 40.6170094,7.38299064 C44.8696729,11.6356542 47.5,17.5106542 47.5,24 L47.5,98 C47.5,104.489346 44.8696729,110.364346 40.6170094,114.617009 C36.3643458,118.869673 30.4893458,121.5 24,121.5 C17.5106542,121.5 11.6356542,118.869673 7.38299064,114.617009 C3.13032709,110.364346 0.5,104.489346 0.5,98 L0.5,24 C0.5,17.5106542 3.13032709,11.6356542 7.38299064,7.38299064 C11.6356542,3.13032709 17.5106542,0.5 24,0.5 Z" id="矩形"></path>
                    <g id="编组" transform="translate(16.000000, 24.000000)">
                        <line x1="8.5" y1="1.41574583e-13" x2="8.5" y2="74" id="路径"></line>
                        <path d="M0,64.482066 C4.26684068,66.3853483 7.10017401,69.5579929 8.5,74" id="路径-2"></path>
                        <path d="M8.5,64.482066 C12.7668407,66.3853483 15.600174,69.5579929 17,74" id="路径-2" transform="translate(12.750000, 69.241033) scale(-1, 1) translate(-12.750000, -69.241033) "></path>
                    </g>
                </g>
            </g>
        </g>
    </g>
</svg>