<svg width="80.000000" height="80.000000" viewBox="0 0 80 80" fill="none"
	xmlns="http://www.w3.org/2000/svg" xmlns:xlink="http://www.w3.org/1999/xlink">
	<desc>
		Created with Pixso.
	</desc>
	<defs>
		<clipPath id="clip482_35985">
			<rect id="svg" width="80.000000" height="80.000000" fill="white" fill-opacity="0" />
		</clipPath>
	</defs>
	<g clip-path="url(#clip482_35985)">
		<animate attributeName="opacity" from="0" to="1" dur="1s" begin="0s" fill="freeze" />
		<path id="path"
			d="M51.67 29.17C51.67 31.02 51.47 32.84 51.06 34.62L60.44 34.62C60.61 34.62 60.78 34.64 60.95 34.66C63.67 34.81 66.13 36.25 67.55 38.54C68.45 39.94 68.88 41.6 68.78 43.33C68.8 43.72 68.76 44.11 68.66 44.49L64.04 64.77C64.04 64.79 64.03 64.82 64.02 64.84C63.91 65.26 63.74 65.64 63.51 65.98C62.83 67.28 61.83 68.36 60.62 69.11C59.31 69.94 57.78 70.39 56.21 70.39C56.14 70.39 24.61 70.37 24.61 70.37C24.58 70.37 24.55 70.37 24.53 70.37C24.53 70.37 17.82 70.4 17.66 70.4C15.42 70.4 13.59 68.58 13.59 66.35L13.61 40.8C13.61 38.57 15.44 36.75 17.68 36.75C17.79 36.75 24.95 36.73 25.04 36.73C26.1 36.73 26.96 37.57 26.96 38.63L26.96 39.27L29.49 37.65C28.91 36.76 29.16 35.57 30.05 34.99C33.02 33.06 34.86 29.83 35 26.32C34.98 26.11 34.97 25.91 34.97 25.7C34.97 21.23 38.63 17.6 43.12 17.6C46.81 17.6 49.99 20.02 50.96 23.54C51.02 23.65 51.06 23.77 51.08 23.9C51.47 25.67 51.67 27.44 51.67 29.17Z"
			fill="#DEECFF" fill-opacity="1.000000" fill-rule="evenodd" />
		<path id="path"
			d="M73.38 33.08C71.58 30.16 68.47 28.33 65.02 28.14C64.81 28.11 64.59 28.09 64.37 28.09L52.48 28.08C53 25.82 53.26 23.5 53.26 21.16C53.26 18.95 53.01 16.69 52.51 14.44C52.48 14.28 52.43 14.13 52.36 13.98C51.13 9.51 47.1 6.42 42.42 6.42C36.73 6.42 32.1 11.05 32.1 16.74C32.1 17 32.11 17.26 32.13 17.52C31.96 21.99 29.62 26.11 25.86 28.56C24.73 29.3 24.41 30.81 25.15 31.94C25.89 33.07 27.4 33.39 28.53 32.65C33.67 29.3 36.84 23.64 37.02 17.52C37.02 17.41 37.02 17.31 37 17.21C36.99 17.05 36.98 16.89 36.98 16.74C36.98 13.74 39.42 11.3 42.42 11.3C44.96 11.3 47.14 13.03 47.72 15.52C47.75 15.64 47.78 15.75 47.83 15.86C48.2 17.65 48.38 19.42 48.38 21.16C48.38 24.08 47.89 26.96 46.94 29.72C46.68 30.46 46.79 31.29 47.25 31.93C47.71 32.58 48.45 32.96 49.24 32.96L64.33 32.97C64.45 32.99 64.56 33 64.67 33.01C66.55 33.08 68.26 34.07 69.25 35.67C69.86 36.63 70.14 37.76 70.06 38.95C70.06 39.02 70.05 39.09 70.06 39.17C70.06 39.24 70.06 39.3 70.06 39.37C70.07 39.39 70.06 39.42 70.06 39.44C70.05 39.47 70.04 39.5 70.03 39.53L64.18 65.35C64.1 65.45 64.04 65.55 63.98 65.66C63.52 66.58 62.84 67.34 62 67.86C61.16 68.4 60.2 68.69 59.21 68.73C59.14 68.72 19.07 68.71 19.07 68.71C19.04 68.71 19 68.71 18.96 68.71C18.96 68.71 10.29 68.72 10.16 68.74C10.01 68.74 9.89 68.63 9.89 68.48L9.91 35.95C9.91 35.8 10.03 35.68 10.15 35.68L10.24 35.69C10.34 35.7 10.45 35.71 10.52 35.71L17.07 35.69L17.07 62.2C17.07 63.55 18.16 64.64 19.51 64.64C20.86 64.64 21.95 63.55 21.95 62.2L21.95 34.01C21.95 33.87 21.95 33.33 21.95 33.19C21.95 31.85 20.86 30.78 19.51 30.78C19.39 30.78 10.33 30.8 10.18 30.8C7.34 30.8 5.03 33.11 5.03 35.95L5.01 68.48C5.01 71.31 7.32 73.62 10.16 73.62C10.36 73.62 18.86 73.59 18.86 73.59C18.9 73.59 18.93 73.59 18.97 73.59C18.97 73.59 58.93 73.61 59.01 73.61C61 73.61 62.94 73.05 64.61 71.99C66.14 71.03 67.4 69.66 68.27 68.01C68.55 67.57 68.77 67.08 68.91 66.56C68.92 66.52 68.93 66.49 68.93 66.46L74.78 40.65C74.91 40.17 74.96 39.67 74.94 39.17C75.07 36.98 74.52 34.86 73.38 33.08Z"
			fill="#7EB7FC" fill-opacity="1.000000" fill-rule="nonzero" />
		<path id="path"
			d="M35.15 40.51C33.81 40.51 32.71 41.61 32.71 42.95L32.71 45.34C32.71 46.68 33.81 47.78 35.15 47.78C36.5 47.78 37.59 46.68 37.59 45.34L37.59 42.95C37.59 41.61 36.5 40.51 35.15 40.51Z"
			fill="#0BB8B2" fill-opacity="1.000000" fill-rule="nonzero" />
		<path id="path"
			d="M54.2 40.51C52.85 40.51 51.76 41.61 51.76 42.95L51.76 45.34C51.76 46.68 52.85 47.78 54.2 47.78C55.55 47.78 56.64 46.68 56.64 45.34L56.64 42.95C56.64 41.61 55.55 40.51 54.2 40.51Z"
			fill="#0BB8B2" fill-opacity="1.000000" fill-rule="nonzero" />
		<path id="path"
			d="M50.69 51.56C49.58 50.83 48.07 51.14 47.32 52.25C47.31 52.26 46.26 53.79 44.65 53.79C43.09 53.79 42.12 52.38 42.05 52.28C41.34 51.15 39.85 50.81 38.71 51.52C37.56 52.23 37.21 53.73 37.92 54.88C38.8 56.29 41.2 58.67 44.65 58.67C48.09 58.67 50.52 56.3 51.42 54.91C52.14 53.78 51.81 52.3 50.69 51.56Z"
			fill="#0BB8B2" fill-opacity="1.000000" fill-rule="nonzero" />
		<circle id="椭圆 43" cx="73.200195" cy="6.800049" r="6.800000" fill="#DEECFF"
			fill-opacity="1.000000">
			<animate attributeName="opacity" from="0" to="1" dur="0.8s" begin="0.2s" fill="freeze" />
		</circle>
		<circle id="椭圆 44" cx="5.199219" cy="15.599976" r="3.600000" fill="#DEECFF"
			fill-opacity="1.000000">
			<animate attributeName="opacity" from="0" to="1" dur="0.8s" begin="0.4s" fill="freeze" />
		</circle>
		<circle id="椭圆 45" cx="11.200195" cy="20.000000" r="2.400000" fill="#E6F2D5"
			fill-opacity="1.000000">
			<animate attributeName="opacity" from="0" to="1" dur="0.8s" begin="0.6s" fill="freeze" />
		</circle>
	</g>
</svg>