<?xml version="1.0" encoding="UTF-8"?>
<svg width="120px" height="120px" viewBox="0 0 120 120" version="1.1" xmlns="http://www.w3.org/2000/svg" xmlns:xlink="http://www.w3.org/1999/xlink">
    <g id="定稿" stroke="none" stroke-width="1" fill="none" fill-rule="evenodd">
        <g id="资源库-空页面" transform="translate(-900.000000, -370.000000)">
            <g id="编组-7" transform="translate(726.000000, 370.000000)">
                <g id="缺省提示/暂无数据" transform="translate(174.000000, 0.000000)">
                    <rect id="矩形" x="0" y="0" width="120" height="120"></rect>
                    <g id="数据为空" transform="translate(0.000000, 9.000000)">
                        <g id="编组" transform="translate(11.250000, 28.312500)">
                            <path d="M7.5,0 L93.2700001,0 C96.4345917,-5.81326039e-16 99,2.56540834 99,5.7299999 L99,67.8469838 C99,70.9690584 96.4690584,73.5 93.3469838,73.5 L13.1530162,73.5 C10.0309416,73.5 7.5,70.9690584 7.5,67.8469838 L7.5,0 L7.5,0 Z" id="矩形备份" fill="#EEEEEE"></path>
                            <path d="M1.97855571,0 L73.5,0 L73.5,0 L73.5,67.8469837 C73.5,70.9690584 70.9690584,73.5 67.8469837,73.5 L5.65301633,73.5 C2.53094162,73.5 3.93505756e-15,70.9690584 0,67.8469837 L0,1.97855571 C3.10268852e-16,0.885829566 0.885829566,-6.87447883e-16 1.97855571,0 Z" id="矩形" fill="#FFFFFF"></path>
                            <path d="M73.5,0 L94.1934074,0 C95.2176145,-6.32232996e-16 96.1616886,0.554060617 96.6611104,1.44825186 L106.825782,19.6476178 C107.206377,20.3290552 106.962496,21.1900025 106.281059,21.5705974 C106.070428,21.6882386 105.833187,21.75 105.59193,21.75 L88.0865652,21.75 C85.9642867,21.75 84.0208074,20.5613171 83.0540835,18.6720022 L73.5,0 L73.5,0 Z" id="矩形备份-4" fill="#FFFFFF"></path>
                        </g>
                        <g id="编组" transform="translate(0.000000, 28.500000)">
                            <path d="M110.428538,21.5865358 L110.428538,67.5930931 C110.428538,70.8550249 107.782235,73.4993431 104.517855,73.4993431 L78.8964522,73.4993431 L78.8964522,72.1868431 L104.517855,72.1868431 C107.056818,72.1868431 109.115053,70.1301512 109.115053,67.5930931 L109.115053,21.5865358 L110.428538,21.5865358 Z" id="矩形备份" fill="#858585" fill-rule="nonzero"></path>
                            <path d="M110.428538,21.5865358 L110.428538,67.5930931 C110.428538,70.8550249 107.782235,73.4993431 104.517855,73.4993431 L78.8964522,73.4993431 L78.8964522,72.1868431 L104.517855,72.1868431 C107.056818,72.1868431 109.115053,70.1301512 109.115053,67.5930931 L109.115053,21.5865358 L110.428538,21.5865358 Z" id="矩形备份" fill="#858585" fill-rule="nonzero"></path>
                            <path d="M85.3802852,0.000656906907 L85.3802852,67.593093 C85.3802852,70.8550249 82.7339823,73.4993431 79.4696021,73.4993431 L16.4223168,73.4993431 C13.1579367,73.4993431 10.5116337,70.8550249 10.5116337,67.593093 L10.5116337,21.5865358 L11.8251188,21.5865358 L11.8251188,67.593093 C11.8251188,70.1301511 13.8833545,72.1868431 16.4223168,72.1868431 L79.4696021,72.1868431 C82.0085645,72.1868431 84.0668001,70.1301511 84.0668001,67.593093 L84.0668001,1.31315691 L16.0072554,1.31315691 L16.0072554,0.000656906907 L85.3802852,0.000656906907 Z" id="矩形" fill="#858585" fill-rule="nonzero"></path>
                            <path d="M71.4163442,0 C72.3069982,0 73.1349337,0.46942361 73.6075648,1.24238031 L85.3669887,20.4741313 C85.745822,21.0936879 85.5624056,21.9103858 84.9573168,22.298277 C84.751689,22.4300944 84.513982,22.5 84.2713783,22.5 L17.0317362,22.5 C15.2778518,22.5 13.6435462,21.5896353 12.6907463,20.0819185 L0,0 L71.4163442,0 Z M71.0872429,1.5 L2.80167313,1.5 L14.0773427,19.21868 C14.7841266,20.3293647 15.9964492,21 17.2974749,21 L83.8016731,21 L72.1708698,2.11014677 C71.937139,1.73053915 71.5276991,1.5 71.0872429,1.5 Z" id="矩形" fill="#858585" fill-rule="nonzero" transform="translate(42.782087, 11.250000) scale(-1, 1) translate(-42.782087, -11.250000) "></path>
                            <path d="M106.126701,0 C106.971831,0 107.758899,0.45469412 108.215519,1.20672412 L119.803093,20.2908621 C120.173453,20.9008254 120.006091,21.7127903 119.429279,22.1044363 C119.229207,22.2402822 118.996447,22.3125 118.758684,22.3125 L99.2241383,22.3125 C97.4648412,22.3125 95.8369296,21.3279088 94.9449305,19.7243557 L83.9729797,0 L106.126701,0 Z M106.092083,1.5 L86.7,1.5 L96.2795569,19.0773785 C96.9287453,20.2685894 98.113524,21 99.3939237,21 L118.35,21 L107.105564,2.09761576 C106.884015,1.72518185 106.502135,1.5 106.092083,1.5 Z" id="矩形备份-4" fill="#858585" fill-rule="nonzero"></path>
                            <g id="编组-2" transform="translate(20.250000, 46.500000)">
                                <rect id="矩形" fill="#1476FF" x="0" y="0" width="21" height="6" rx="1.41466874"></rect>
                                <path d="M15.09375,10.5 C15.4561869,10.5 15.75,10.8357864 15.75,11.25 C15.75,11.6642136 15.4561869,12 15.09375,12 L0.65625,12 C0.293813133,12 0,11.6642136 0,11.25 C0,10.8357864 0.293813133,10.5 0.65625,10.5 L15.09375,10.5 Z" id="矩形备份-2" fill="#858585" fill-rule="nonzero"></path>
                                <rect id="矩形备份-3" fill="#858585" x="0" y="15" width="7.5" height="1.5" rx="0.75"></rect>
                            </g>
                        </g>
                        <g id="编组-3" transform="translate(34.517117, 0.000000)" fill="#858585" fill-rule="nonzero">
                            <path d="M25.4828828,0 C25.8997786,0 26.2377393,0.295878436 26.2377393,0.660862983 L26.2377393,9.91294475 C26.2377393,10.2779293 25.8997786,10.5738077 25.4828828,10.5738077 C25.0659871,10.5738077 24.7280264,10.2779293 24.7280264,9.91294475 L24.7280264,0.660862983 C24.7280264,0.295878436 25.0659871,0 25.4828828,0 Z" id="路径备份"></path>
                            <path d="M47.6685888,3.25686709 C48.0854846,3.25686709 48.4234453,3.55274552 48.4234453,3.91773007 L48.4234453,13.1698118 C48.4234453,13.5347964 48.0854846,13.8306748 47.6685888,13.8306748 C47.2516931,13.8306748 46.9137324,13.5347964 46.9137324,13.1698118 L46.9137324,3.91773007 C46.9137324,3.55274552 47.2516931,3.25686709 47.6685888,3.25686709 Z" id="路径备份" transform="translate(47.668589, 8.543771) rotate(-330.000000) translate(-47.668589, -8.543771) "></path>
                            <path d="M3.29717682,3.25686709 C3.71407254,3.25686709 4.0520333,3.55274552 4.0520333,3.91773007 L4.0520333,13.1698118 C4.0520333,13.5347964 3.71407254,13.8306748 3.29717682,13.8306748 C2.8802811,13.8306748 2.54232034,13.5347964 2.54232034,13.1698118 L2.54232034,3.91773007 C2.54232034,3.55274552 2.8802811,3.25686709 3.29717682,3.25686709 Z" id="路径备份" transform="translate(3.297177, 8.543771) rotate(-30.000000) translate(-3.297177, -8.543771) "></path>
                        </g>
                    </g>
                </g>
            </g>
        </g>
    </g>
</svg>