<svg width="12.997070" height="21.165039" viewBox="0 0 12.9971 21.165" fill="none" xmlns="http://www.w3.org/2000/svg" xmlns:xlink="http://www.w3.org/1999/xlink">
	<desc>
			Created with Pixso.
	</desc>
	<defs/>
	<path id="矢量 102" d="M0.5 2.22L0.5 18.93C0.5 19.89 1.27 20.66 2.22 20.66C3.17 20.66 3.94 19.89 3.94 18.93L3.95 2.22C3.95 1.27 3.17 0.5 2.22 0.5C1.27 0.5 0.5 1.27 0.5 2.22ZM9.04 2.22L9.04 18.94C9.04 19.89 9.81 20.66 10.76 20.66C11.71 20.66 12.49 19.89 12.49 18.94L12.49 2.22C12.49 1.27 11.72 0.5 10.77 0.5C9.81 0.5 9.04 1.27 9.04 2.22Z" fill="#191919" fill-opacity="1.000000" fill-rule="evenodd"/>
	<path id="矢量 102" d="M0.5 2.22C0.5 1.27 1.27 0.5 2.22 0.5C3.17 0.5 3.95 1.27 3.95 2.22L3.94 18.93C3.94 19.89 3.17 20.66 2.22 20.66C1.27 20.66 0.5 19.89 0.5 18.93L0.5 13.05L0.5 2.22ZM9.04 2.22C9.04 1.27 9.81 0.5 10.77 0.5C11.72 0.5 12.49 1.27 12.49 2.22L12.49 18.94C12.49 19.89 11.71 20.66 10.76 20.66C9.81 20.66 9.04 19.89 9.04 18.94L9.04 13.05L9.04 2.22Z" stroke="#191919" stroke-opacity="1.000000" stroke-width="1.000000"/>
</svg>
