<svg width="443.000000" height="780.000000" viewBox="0 0 443 780" fill="none" xmlns="http://www.w3.org/2000/svg" xmlns:xlink="http://www.w3.org/1999/xlink">
	<desc>
			Created with Pixso.
	</desc>
	<defs>
		<filter id="filter_469_35996_dd" x="0.000000" y="0.000000" width="443.000000" height="780.000000" filterUnits="userSpaceOnUse" color-interpolation-filters="sRGB">
			<feFlood flood-opacity="0" result="BackgroundImageFix"/>
			<feColorMatrix in="SourceAlpha" type="matrix" values="0 0 0 0 0 0 0 0 0 0 0 0 0 0 0 0 0 0 127 0" result="hardAlpha"/>
			<feOffset dx="0" dy="8"/>
			<feGaussianBlur stdDeviation="8"/>
			<feComposite in2="hardAlpha" operator="out" k2="-1" k3="1"/>
			<feColorMatrix type="matrix" values="0 0 0 0 0 0 0 0 0 0 0 0 0 0 0 0 0 0 0.078 0"/>
			<feBlend mode="normal" in2="BackgroundImageFix" result="effect_dropShadow_1"/>
			<feBlend mode="normal" in="SourceGraphic" in2="effect_dropShadow_1" result="shape"/>
		</filter>
	</defs>
	<g filter="url(#filter_469_35996_dd)">
		<path id="矩形 791" d="M84 26L359 26C386.61 26 409 48.38 409 76L409 688C409 715.61 386.61 738 359 738L84 738C56.38 738 34 715.61 34 688L34 76C34 48.38 56.38 26 84 26Z" fill="#FFFFFF" fill-opacity="0" fill-rule="evenodd"/>
		<path id="矩形 791" d="M382.03 20.39C374.96 17.46 367.28 16 359 16L84 16C75.71 16 68.03 17.46 60.96 20.39C53.89 23.32 47.43 27.71 41.57 33.57C35.71 39.43 31.32 45.89 28.39 52.96C25.46 60.03 24 67.71 24 76L24 688C24 696.28 25.46 703.96 28.39 711.03C31.32 718.1 35.71 724.56 41.57 730.42C47.43 736.28 53.89 740.67 60.96 743.6C68.03 746.53 75.71 748 84 748L359 748C367.28 748 374.96 746.53 382.03 743.6C389.1 740.67 395.56 736.28 401.42 730.42C407.28 724.56 411.67 718.1 414.6 711.03C417.53 703.96 419 696.28 419 688L419 76C419 67.71 417.53 60.03 414.6 52.96C411.67 45.89 407.28 39.43 401.42 33.57C395.56 27.71 389.1 23.32 382.03 20.39ZM84 26L359 26C386.61 26 409 48.38 409 76L409 688C409 715.61 386.61 738 359 738L84 738C56.38 738 34 715.61 34 688L34 76C34 48.38 56.38 26 84 26Z" fill="#000000" fill-opacity="1.000000" fill-rule="evenodd"/>
	</g>
	<rect id="矩形 879" x="161.000000" y="37.000000" rx="14.500000" width="120.000000" height="29.000000" fill="#000000" fill-opacity="1.000000"/>
</svg>
