<svg width="180.000000" height="85.000000" viewBox="0 0 180 85" fill="none" xmlns="http://www.w3.org/2000/svg" xmlns:xlink="http://www.w3.org/1999/xlink">
	<desc>
			Created with Pixso.
	</desc>
	<defs>
		<filter id="filter_636_40155_dd" x="0.000000" y="0.000000" width="180.000000" height="85.000000" filterUnits="userSpaceOnUse" color-interpolation-filters="sRGB">
			<feFlood flood-opacity="0" result="BackgroundImageFix"/>
			<feGaussianBlur in="BackgroundImage" stdDeviation="16.6667"/>
			<feComposite in2="SourceAlpha" operator="in" result="effect_backgroundBlur_1"/>
			<feColorMatrix in="SourceAlpha" type="matrix" values="0 0 0 0 0 0 0 0 0 0 0 0 0 0 0 0 0 0 127 0" result="hardAlpha"/>
			<feOffset dx="0" dy="0"/>
			<feGaussianBlur stdDeviation="6.66667"/>
			<feComposite in2="hardAlpha" operator="out" k2="-1" k3="1"/>
			<feColorMatrix type="matrix" values="0 0 0 0 0.34118 0 0 0 0 0.47451 0 0 0 0 0.90196 0 0 0 0.2 0"/>
			<feBlend mode="normal" in2="effect_backgroundBlur_1" result="effect_dropShadow_2"/>
			<feBlend mode="normal" in="SourceGraphic" in2="effect_dropShadow_2" result="shape"/>
		</filter>
	</defs>
	<g filter="url(#filter_636_40155_dd)">
		<rect id="矩形 917" x="20.000000" y="20.000000" rx="22.500000" width="140.000000" height="45.000000" fill="#191919" fill-opacity="1.000000"/>
		<rect id="矩形 917" x="20.500000" y="20.500000" rx="22.000000" width="139.000000" height="44.000000" stroke="#DBDBDB" stroke-opacity="0" stroke-width="1.000000"/>
	</g>
	<path id="path" d="M84.31 39.07L80.57 39.09C80.44 39.1 80.31 39.04 80.22 38.95C80.12 38.86 80.07 38.73 80.08 38.6L80.08 34.64C80.08 34.43 80.21 34.25 80.4 34.19C80.57 34.12 80.77 34.16 80.89 34.31L84.66 38.29C84.79 38.41 84.83 38.61 84.75 38.77C84.68 38.95 84.5 39.07 84.31 39.07ZM88 46.06C87.79 46.06 87.6 46 87.43 45.9C87.08 45.7 86.87 45.34 86.86 44.94L86.86 38.77C86.87 38.37 87.08 38 87.44 37.8C87.79 37.6 88.21 37.6 88.56 37.8L93.97 40.87C94.32 41.07 94.54 41.44 94.54 41.84C94.54 42.24 94.32 42.62 93.97 42.82L88.56 45.9C88.38 46 88.19 46.05 88 46.06Z" fill="#FFFFFF" fill-opacity="1.000000" fill-rule="nonzero"/>
	<path id="path" d="M90.07 52C88.23 52 86.43 51.49 84.86 50.54C83.27 49.57 81.99 48.18 81.14 46.51C81.14 46.51 81.14 46.5 81.14 46.49C81.05 46.36 81 46.19 81 46.02C81 45.54 81.39 45.15 81.87 45.15C82.22 45.15 82.55 45.38 82.68 45.71C84.09 48.52 86.91 50.27 90.06 50.27C90.63 50.27 91.21 50.21 91.77 50.09C95.49 49.31 98.18 46.11 98.32 42.31C98.46 38.51 96.01 35.12 92.36 34.07C91.61 33.85 90.84 33.74 90.07 33.74C87.13 33.74 84.39 35.32 82.92 37.86C82.9 37.88 82.88 37.9 82.86 37.9C82.85 37.9 82.84 37.9 82.83 37.89L81.36 37.22C81.34 37.21 81.33 37.2 81.32 37.18C81.32 37.16 81.32 37.14 81.33 37.13C83.1 33.95 86.44 31.99 90.07 31.99C90.95 31.99 91.83 32.1 92.68 32.34C97.13 33.54 100.17 37.6 100.07 42.2C99.98 46.8 96.78 50.73 92.29 51.75C91.56 51.91 90.81 52 90.07 52Z" fill="#FFFFFF" fill-opacity="1.000000" fill-rule="nonzero"/>
	<path id="path" d="M84.86 50.54C83.27 49.57 81.99 48.18 81.14 46.51C81.14 46.51 81.14 46.5 81.14 46.49C81.05 46.36 81 46.19 81 46.02C81 45.54 81.39 45.15 81.87 45.15C82.22 45.15 82.55 45.38 82.68 45.71C84.09 48.52 86.91 50.27 90.06 50.27C90.63 50.27 91.21 50.21 91.77 50.09C95.49 49.31 98.18 46.11 98.32 42.31C98.46 38.51 96.01 35.12 92.36 34.07C91.61 33.85 90.84 33.74 90.07 33.74C87.13 33.74 84.39 35.32 82.92 37.86C82.9 37.88 82.88 37.9 82.86 37.9C82.85 37.9 82.84 37.9 82.83 37.89L81.36 37.22C81.34 37.21 81.33 37.2 81.32 37.18C81.32 37.16 81.32 37.14 81.33 37.13C83.1 33.95 86.44 31.99 90.07 31.99C90.95 31.99 91.83 32.1 92.68 32.34C97.13 33.54 100.17 37.6 100.07 42.2C99.98 46.8 96.78 50.73 92.29 51.75C91.56 51.91 90.81 52 90.07 52C88.23 52 86.43 51.49 84.86 50.54Z" stroke="#FFFFFF" stroke-opacity="1.000000" stroke-width="0.500000"/>
</svg>
