<?xml version="1.0" encoding="UTF-8"?>
<svg width="292px" height="26px" viewBox="0 0 292 26" version="1.1" xmlns="http://www.w3.org/2000/svg" xmlns:xlink="http://www.w3.org/1999/xlink">
    <title>编组 13</title>
    <g id="导航（深色模式）定稿" stroke="none" stroke-width="1" fill="none" fill-rule="evenodd">
        <g id="03规范内页【样例】0131" transform="translate(-39.000000, -19.000000)" fill-rule="nonzero">
            <g id="编组-13" transform="translate(40.000000, 20.000000)">
                <path d="M65.3804068,2.62314898 L65.0333438,4.01263102 C64.908672,4.51176047 64.4602504,4.86195268 63.9457863,4.86195268 L60.6310523,4.86195268 L60.6310523,4.86195268 C58.1603277,4.86195268 56.1574096,6.86664579 56.1574096,9.33956007 L56.1574096,13.7498011 C56.1574096,16.2227154 58.1603277,18.2274085 60.6310523,18.2274085 L64.2619961,18.2274085 L63.9149332,19.6168906 C63.7902613,20.11602 63.3418397,20.4662122 62.8273756,20.4662122 L60.6310523,20.4662122 L60.6310523,20.4662122 C56.9249653,20.4662122 53.9205882,17.4591725 53.9205882,13.7498011 L53.9205882,9.33956007 C53.9205882,5.63018865 56.9249653,2.62314898 60.6310523,2.62314898 L65.3804068,2.62314898 Z M70.4372832,2.62314898 L70.4372832,16.6474422 C70.4372832,17.5747851 71.1883775,18.326545 72.1148992,18.326545 L78.4881472,18.326545 L78.2471555,19.2913662 C78.0601477,20.0400604 77.3875153,20.5653487 76.6158191,20.5653487 L72.1148992,20.5653487 L72.1148992,20.5653487 C69.9530152,20.5653487 68.2004618,18.8112422 68.2004618,16.6474422 L68.2004618,4.05788897 C68.2004618,3.54359911 68.5504217,3.0952824 69.0493302,2.97044475 L70.4372832,2.62314898 L70.4372832,2.62314898 Z M95.5157222,2.86424218 L96.4792411,2.62314898 L96.4792411,2.62314898 L96.4792411,14.7521659 C96.4792411,16.626748 97.9748833,18.1516945 99.8369607,18.1967977 L99.921849,18.1978247 C101.823149,18.1978247 103.364457,16.6551507 103.364457,14.7521659 L103.364457,4.49540851 C103.364457,3.72397371 103.889397,3.05149864 104.637759,2.86424218 L105.601278,2.62314898 L105.601278,2.62314898 L105.601278,14.7521659 C105.601278,17.8916079 103.058511,20.4366284 99.921849,20.4366284 C96.7851868,20.4366284 94.2424198,17.8916079 94.2424198,14.7521659 L94.2424198,4.49540851 C94.2424198,3.72397371 94.7673596,3.05149864 95.5157222,2.86424218 Z M85.6621128,2.57730434 C82.5254506,2.57730434 79.9826836,5.12232489 79.9826836,8.26176685 L79.9826836,14.7521659 C79.9826836,17.8916079 82.5254506,20.4366284 85.6621128,20.4366284 C88.798775,20.4366284 91.341542,17.8916079 91.341542,14.7521659 L91.341542,8.26176685 C91.341542,5.12232489 88.798775,2.57730434 85.6621128,2.57730434 Z M85.6621128,4.81610803 C87.5634126,4.81610803 89.1047207,6.35878203 89.1047207,8.26176685 L89.1047207,14.7521659 C89.1047207,16.6551507 87.5634126,18.1978247 85.6621128,18.1978247 C83.760813,18.1978247 82.2195049,16.6551507 82.2195049,14.7521659 L82.2195049,8.26176685 C82.2195049,6.35878203 83.760813,4.81610803 85.6621128,4.81610803 Z M114.338862,2.57142857 C117.427268,2.57142857 119.930915,5.07729496 119.930915,8.16843781 L119.930915,13.7907265 C119.930915,17.5000979 116.926538,20.5071376 113.220451,20.5071376 L108.439218,20.5071376 L108.68021,19.5423164 C108.867218,18.7936222 109.53985,18.2683339 110.311546,18.2683339 L113.220451,18.2683339 L113.220451,18.2683339 C115.691176,18.2683339 117.694094,16.2636408 117.694094,13.7907265 L117.694094,8.16843781 C117.694094,6.3137521 116.191905,4.81023227 114.338862,4.81023227 L111.834998,4.81023227 C110.96868,4.81023227 110.6501,5.53705092 110.6501,6.15141014 L110.6501,14.1408732 C110.6501,14.912308 110.12516,15.5847831 109.376797,15.7720395 L108.413278,16.0131327 L108.413278,16.0131327 L108.413278,5.36993319 C108.413278,3.82436177 109.665102,2.57142857 111.209305,2.57142857 L114.338862,2.57142857 Z M155.23635,2.58830432 L154.889287,3.97778636 C154.764615,4.47691581 154.316193,4.82710802 153.801729,4.82710802 L148.477761,4.82710802 L148.477761,4.82710802 C147.247195,4.82710802 146.668057,5.63625573 146.668057,6.48585057 L146.668057,10.424677 L154.626421,10.4161241 L154.280818,11.8055514 C154.156653,12.3047315 153.70868,12.6553436 153.19429,12.6559381 L146.668057,12.6634807 L146.668057,12.6634807 L146.668057,16.5605355 C146.668057,17.5189004 147.30515,18.232806 148.477761,18.232806 L154.316173,18.232806 L153.96911,19.6222881 C153.844438,20.1214175 153.396017,20.4716097 152.881553,20.4716097 L147.786468,20.4716097 L147.786468,20.4716097 C145.933424,20.4716097 144.431236,18.9680899 144.431236,17.1134042 L144.431236,5.94650986 C144.431236,4.09182416 145.933424,2.58830432 147.786468,2.58830432 L155.23635,2.58830432 Z M183.297372,2.57730434 C186.434034,2.57730434 188.976801,4.84247443 188.976801,7.98191639 L188.976801,8.17575133 C188.976801,8.79484614 188.474926,9.29672163 187.855831,9.29672163 L186.73998,9.29672163 L186.73998,9.29672163 L186.73998,7.98191639 C186.73998,6.07893157 185.198672,4.81610803 183.297372,4.81610803 C181.396072,4.81610803 179.854764,6.35878203 179.854764,8.26176685 L179.854764,14.7521659 C179.854764,16.6551507 181.396072,18.1978247 183.297372,18.1978247 C185.198672,18.1978247 186.73998,16.6551507 186.73998,14.7521659 L186.7397,13.60817 L182.458564,13.6083045 L182.805627,12.2188224 C182.930299,11.719693 183.378721,11.3695008 183.893185,11.3695008 L188.976801,11.3695008 L188.976801,11.3695008 L188.976801,14.7521659 C188.976801,17.8916079 186.434034,20.4366284 183.297372,20.4366284 C180.16071,20.4366284 177.617943,17.8916079 177.617943,14.7521659 L177.617943,8.26176685 C177.617943,5.12232489 180.16071,2.57730434 183.297372,2.57730434 Z M135.922195,2.57142857 C139.0106,2.57142857 141.514248,5.07729496 141.514248,8.16843781 L141.514248,13.7907265 C141.514248,17.5000979 138.509871,20.5071376 134.803784,20.5071376 L130.022551,20.5071376 L130.369614,19.1176556 C130.494286,18.6185261 130.942707,18.2683339 131.457171,18.2683339 L134.803784,18.2683339 L134.803784,18.2683339 C137.274509,18.2683339 139.277427,16.2636408 139.277427,13.7907265 L139.277427,8.16843781 C139.277427,6.3137521 137.775238,4.81023227 135.922195,4.81023227 L133.418331,4.81023227 C132.552013,4.81023227 132.233433,5.53705092 132.233433,6.15141014 L132.233433,14.5783927 C132.233433,15.0926826 131.883473,15.5409993 131.384564,15.665837 L129.996611,16.0131327 L129.996611,16.0131327 L129.996611,5.36993319 C129.996611,3.82436177 131.248435,2.57142857 132.792638,2.57142857 L135.922195,2.57142857 Z M163.683272,2.60668317 C166.153997,2.60668317 168.156915,4.61137629 168.156915,7.08429056 L168.156915,7.65455342 C168.156915,8.16884328 167.806955,8.61715999 167.308046,8.74199764 L165.920093,9.08929341 L165.920093,9.08929341 L165.920093,7.08429056 C165.920093,5.84783342 164.918634,4.84548687 163.683272,4.84548687 L162.061426,4.84548687 C160.795263,4.84548687 159.768835,5.87282479 159.768835,7.14011035 L159.768835,8.38964039 C159.768835,9.15440965 160.285158,9.82256269 161.024712,10.0148194 L165.226535,11.1071391 C166.95216,11.5557382 168.156915,13.114762 168.156915,14.8992236 L168.156915,16.0651948 C168.156915,18.5239047 166.180134,20.5247821 163.723756,20.5523928 L162.055894,20.5711403 C159.614737,20.5985799 157.608325,18.663763 157.534133,16.2321993 L157.532013,16.0938152 L157.532013,14.6290481 L158.866448,14.9629524 C159.396829,15.0956651 159.768893,15.5722242 159.768976,16.1189565 L159.768976,16.1189565 L159.768976,16.1189565 C159.782849,17.3553356 160.795491,18.3463629 162.030775,18.3324778 L163.698637,18.3137303 C164.929528,18.2998946 165.920093,17.2972546 165.920093,16.0651948 L165.920093,14.8992236 C165.920093,14.1344543 165.40377,13.4663013 164.664216,13.2740445 L160.462393,12.1817248 C158.736768,11.7331257 157.532013,10.174102 157.532013,8.38964039 L157.532013,7.14011035 C157.532013,4.63636765 159.559901,2.60668317 162.061426,2.60668317 L163.683272,2.60668317 Z M173.92017,2.58031054 L173.92017,20.4287713 L171.683349,20.4287713 L171.683349,4.01505053 C171.683349,3.50076067 172.033309,3.05244396 172.532217,2.92760632 L173.92017,2.58031054 L173.92017,2.58031054 Z M193.513323,2.57675776 C194.045233,2.57675776 194.531061,2.87887323 194.766686,3.35617097 L201.067753,15.5606145 L201.067808,2.58031054 L202.183659,2.58031054 C202.802754,2.58031054 203.304629,3.08218604 203.304629,3.70128085 L203.304629,20.4671004 L203.304629,20.4671004 L201.500519,20.4671004 C201.021799,20.4671004 200.584554,20.1951965 200.372491,19.7656285 L194.049446,7.5168727 L194.049446,20.4907401 L192.933595,20.4907401 C192.314501,20.4907401 191.812625,19.9888646 191.812625,19.3697698 L191.812625,2.57675776 L191.812625,2.57675776 L193.513323,2.57675776 Z M276.781289,2.58830432 L276.434227,3.97778636 C276.309555,4.47691581 275.861133,4.82710802 275.346669,4.82710802 L270.0227,4.82710802 L270.0227,4.82710802 C268.792135,4.82710802 268.212997,5.63625573 268.212997,6.48585057 L268.212997,10.424677 L276.171361,10.4161241 L275.825757,11.8055514 C275.701592,12.3047315 275.25362,12.6553436 274.73923,12.6559381 L268.212997,12.6634807 L268.212997,12.6634807 L268.212997,16.5605355 C268.212997,17.5189004 268.850089,18.232806 270.0227,18.232806 L275.861113,18.232806 L275.51405,19.6222881 C275.389378,20.1214175 274.940956,20.4716097 274.426492,20.4716097 L269.331407,20.4716097 L269.331407,20.4716097 C267.478364,20.4716097 265.976175,18.9680899 265.976175,17.1134042 L265.976175,5.94650986 C265.976175,4.09182416 267.478364,2.58830432 269.331407,2.58830432 L276.781289,2.58830432 Z M219.521584,2.60668317 C221.992309,2.60668317 223.995227,4.61137629 223.995227,7.08429056 L223.995227,7.65455342 C223.995227,8.16884328 223.645267,8.61715999 223.146359,8.74199764 L221.758406,9.08929341 L221.758406,9.08929341 L221.758406,7.08429056 C221.758406,5.84783342 220.756947,4.84548687 219.521584,4.84548687 L217.899739,4.84548687 C216.633575,4.84548687 215.607147,5.87282479 215.607147,7.14011035 L215.607147,8.38964039 C215.607147,9.15440965 216.12347,9.82256269 216.863024,10.0148194 L221.064847,11.1071391 C222.790472,11.5557382 223.995227,13.114762 223.995227,14.8992236 L223.995227,16.0651948 C223.995227,18.5239047 222.018446,20.5247821 219.562068,20.5523928 L217.894206,20.5711403 C215.453049,20.5985799 213.446637,18.663763 213.372445,16.2321993 L213.370325,16.0938152 L213.370325,14.6290481 L214.70476,14.9629524 C215.235141,15.0956651 215.607205,15.5722242 215.607288,16.1189565 L215.607288,16.1189565 L215.607288,16.1189565 C215.621161,17.3553356 216.633803,18.3463629 217.869087,18.3324778 L219.536949,18.3137303 C220.76784,18.2998946 221.758406,17.2972546 221.758406,16.0651948 L221.758406,14.8992236 C221.758406,14.1344543 221.242082,13.4663013 220.502529,13.2740445 L216.300705,12.1817248 C214.57508,11.7331257 213.370325,10.174102 213.370325,8.38964039 L213.370325,7.14011035 C213.370325,4.63636765 215.398213,2.60668317 217.899739,2.60668317 L219.521584,2.60668317 Z M244.965427,2.60668317 C247.436152,2.60668317 249.43907,4.61137629 249.43907,7.08429056 L249.43907,7.65455342 C249.43907,8.16884328 249.08911,8.61715999 248.590202,8.74199764 L247.202249,9.08929341 L247.202249,9.08929341 L247.202249,7.08429056 C247.202249,5.84783342 246.20079,4.84548687 244.965427,4.84548687 L243.343582,4.84548687 C242.077418,4.84548687 241.05099,5.87282479 241.05099,7.14011035 L241.05099,8.38964039 C241.05099,9.15440965 241.567313,9.82256269 242.306867,10.0148194 L246.50869,11.1071391 C248.234315,11.5557382 249.43907,13.114762 249.43907,14.8992236 L249.43907,16.0651948 C249.43907,18.5239047 247.462289,20.5247821 245.005911,20.5523928 L243.338049,20.5711403 C240.896892,20.5985799 238.89048,18.663763 238.816288,16.2321993 L238.814168,16.0938152 L238.814168,14.6290481 L240.148603,14.9629524 C240.678984,15.0956651 241.051048,15.5722242 241.051131,16.1189565 L241.051131,16.1189565 L241.051131,16.1189565 C241.065004,17.3553356 242.077646,18.3463629 243.31293,18.3324778 L244.980792,18.3137303 C246.211683,18.2998946 247.202249,17.2972546 247.202249,16.0651948 L247.202249,14.8992236 C247.202249,14.1344543 246.685925,13.4663013 245.946372,13.2740445 L241.744548,12.1817248 C240.018923,11.7331257 238.814168,10.174102 238.814168,8.38964039 L238.814168,7.14011035 C238.814168,4.63636765 240.842056,2.60668317 243.343582,2.60668317 L244.965427,2.60668317 Z M227.951636,2.58031054 C228.347506,2.58031054 228.714023,2.78911129 228.915898,3.1296398 L231.343764,7.22503961 C231.422691,7.35817639 231.594603,7.40212197 231.727739,7.32319482 C231.76649,7.30022247 231.799131,7.26824707 231.822898,7.22997836 L234.381623,3.10988481 C234.586131,2.78058306 234.946259,2.58031054 235.333897,2.58031054 L237.307754,2.58031054 L232.694037,9.91342023 L232.694281,19.3697698 C232.694323,19.9475916 232.257148,20.4233137 231.695511,20.4841882 L231.57334,20.4907401 L231.57334,20.4907401 L230.457489,20.4907401 L230.457216,9.91034187 L225.844045,2.58031054 L227.951636,2.58031054 Z M263.310803,2.60668317 L262.96374,3.99616521 C262.839068,4.49529466 262.390646,4.84548687 261.876182,4.84548687 L258.697093,4.84468317 L258.697359,19.3697698 C258.697359,19.9888646 258.195483,20.4907401 257.576388,20.4907401 L256.460537,20.4907401 L256.460093,4.84468317 L251.847093,4.84548687 L252.194156,3.45600483 C252.318828,2.95687538 252.76725,2.60668317 253.281714,2.60668317 L263.310803,2.60668317 Z M279.786088,2.60285709 L281.256891,2.60285709 C281.368227,2.60285709 281.469004,2.66876424 281.513633,2.77076415 L285.000458,10.7398884 C285.062499,10.8816833 285.227741,10.9463364 285.369536,10.8842952 C285.434211,10.8559974 285.485823,10.8043334 285.514056,10.7396305 L288.991125,2.77102202 C289.035693,2.66888373 289.136542,2.60285709 289.24798,2.60285709 L290.719757,2.60285709 C290.874531,2.60285709 291,2.72832596 291,2.88309967 L291,19.3697698 C291,19.9888646 290.498125,20.4907401 289.87903,20.4907401 L288.763179,20.4907401 L288.763179,20.4907401 L288.762962,10.471587 C288.762958,10.3168133 288.637487,10.1913472 288.482713,10.1913505 C288.36879,10.191353 288.266206,10.2603199 288.223206,10.365816 L285.779578,16.3610075 C285.662739,16.6476579 285.335647,16.7853179 285.048997,16.6684798 C284.909509,16.6116249 284.798777,16.5010181 284.741765,16.361595 L282.282303,10.3470488 C282.223721,10.2037899 282.060098,10.1351451 281.916839,10.1937264 C281.811496,10.2368029 281.742667,10.3393101 281.742667,10.4531196 L281.742667,19.3506394 C281.742667,19.9697342 281.240791,20.4716097 280.621697,20.4716097 L279.505845,20.4716097 L279.505845,20.4716097 L279.505845,2.88309967 C279.505845,2.72832596 279.631314,2.60285709 279.786088,2.60285709 Z" id="形状结合" fill="#000000"></path>
                <path d="M19.6852941,0 L19.0344725,1.81364906 C18.6146216,2.98365049 17.5910282,3.81247417 16.3897938,4.00031964 L11.8111765,4 C7.46242138,4 3.93705882,7.581722 3.93705882,12 C3.93705882,16.418278 7.46242138,20 11.8111765,20 L16.348382,20 L15.5066762,22.1992664 C15.130316,23.1826458 14.2393876,23.8631896 13.2107846,23.9815892 L13.2037092,24 L11.8111765,24 L11.736,23.999 L11.5651103,24 L11.565,23.997 L11.5110006,23.9962001 C5.1265864,23.8343928 0,18.5254567 0,12 C0,5.372583 5.28804383,0 11.8111765,0 L19.6852941,0 Z" id="形状结合" stroke="#1476FF" stroke-width="0.5" fill="#1476FF"></path>
                <path d="M25.9725066,5.81188217 L22.7975883,14.180836 C22.3852112,15.267845 21.3444997,15.9873567 20.1818992,15.9892325 L18.2528204,15.9923449 C18.0980469,15.9925946 17.9723758,15.8673283 17.9721261,15.7125548 C17.9720707,15.6782545 17.9783127,15.6442354 17.9905417,15.612189 L23.1224238,2.16394691 C23.6196726,0.860892382 24.8696359,-1.878857e-16 26.2643428,0 L30.4596522,0 L30.4596522,0 C36.9334146,0 41.9382353,5.39944086 41.9382353,12.0599887 C41.9382353,18.6178285 37.0720266,23.8940839 30.7226247,24 L30.4596522,24 L19.5140032,24 C19.3592295,24 19.2337606,23.8745311 19.2337606,23.7197574 C19.2337606,23.6887263 19.2389145,23.6579107 19.2490118,23.6285683 L20.0434753,21.3198924 C20.3159573,20.5280718 21.0610227,19.996518 21.8984153,19.996518 L30.0447386,19.996518 L30.0447386,19.996518 C34.3340004,19.996518 38.0470251,16.4730072 38.0470251,12.0599887 C38.0470251,7.61050293 34.5411579,4.00348203 30.2164515,4.00348203 L28.5927171,4.00348203 C27.4284618,4.00348203 26.3854701,4.72332739 25.9725066,5.81188217 Z" id="路径-7" stroke="#1476FF" stroke-width="0.5" fill="#1476FF"></path>
            </g>
        </g>
    </g>
</svg>