<svg width="410.000000" height="230.625000" viewBox="0 0 410 230.625" fill="none" xmlns="http://www.w3.org/2000/svg" xmlns:xlink="http://www.w3.org/1999/xlink">
	<desc>
			Created with Pixso.
	</desc>
	<defs>
		<filter id="filter_94_9786_dd" x="1603.000000" y="500.450928" width="0.000000" height="0.000000" filterUnits="userSpaceOnUse" color-interpolation-filters="sRGB">
			<feFlood flood-opacity="0" result="BackgroundImageFix"/>
			<feGaussianBlur in="BackgroundImage" stdDeviation="1.58179"/>
			<feComposite in2="SourceAlpha" operator="in" result="effect_backgroundBlur_1"/>
			<feColorMatrix in="SourceAlpha" type="matrix" values="0 0 0 0 0 0 0 0 0 0 0 0 0 0 0 0 0 0 127 0" result="hardAlpha"/>
			<feOffset dx="0" dy="1.89815"/>
			<feGaussianBlur stdDeviation="0.632716"/>
			<feComposite in2="hardAlpha" operator="out" k2="-1" k3="1"/>
			<feColorMatrix type="matrix" values="0 0 0 0 0 0 0 0 0 0 0 0 0 0 0 0 0 0 0.25 0"/>
			<feBlend mode="normal" in2="effect_backgroundBlur_1" result="effect_dropShadow_2"/>
			<feBlend mode="normal" in="SourceGraphic" in2="effect_dropShadow_2" result="shape"/>
		</filter>
		<linearGradient x1="-19.304367" y1="-17.183716" x2="401.458313" y2="224.693298" id="paint_linear_94_9785_0" gradientUnits="userSpaceOnUse">
			<stop offset="0.083138" stop-color="#0506DD"/>
			<stop offset="0.967848" stop-color="#0506DD"/>
		</linearGradient>
	</defs>
	<rect id="蒙版" rx="16.000000" width="410.000000" height="230.625000" fill="url(#paint_linear_94_9785_0)" fill-opacity="1.000000"/>
	<rect id="蒙版" x="0.237305" y="0.237274" rx="16.000000" width="409.525452" height="230.150467" stroke="#979797" stroke-opacity="0" stroke-width="0.474537"/>
	<rect id="蒙版" rx="16.000000" width="410.000000" height="230.625000" fill="url(#paint_linear_94_9785_0)" fill-opacity="1.000000"/>
	<rect id="蒙版" x="0.237305" y="0.237274" rx="16.000000" width="409.525452" height="230.150467" stroke="#979797" stroke-opacity="0" stroke-width="0.474537"/>
	<path id="OpenTiny编程赛事解读" d="M237.25 95.66C234.5 94.86 232.39 93.85 230.92 92.63L236.23 92.63L236.23 90.71L229.7 90.71L229.7 89.57L234.14 89.57L234.14 87.84L229.7 87.84L229.7 86.65L233.39 86.65L233.39 84.79L229.7 84.79L229.7 83.14L233.42 83.14L233.42 85.69L235.99 85.69L235.99 81.1L226.75 81.1C226.16 79.87 225.78 79.09 225.58 78.75L222.71 79.39C222.83 79.69 223.12 80.26 223.56 81.1L213.62 81.1L213.62 85.69L216.23 85.69L216.23 86.65L219.92 86.65L219.92 87.84L215.53 87.84L215.53 89.57L219.92 89.57L219.92 90.71L213.38 90.71L213.38 92.63L218.62 92.63C217.85 93.25 216.92 93.84 215.82 94.4C214.73 94.95 213.56 95.44 212.32 95.84L213.49 98.15C214.82 97.62 216.09 96.99 217.32 96.27L217.32 99.54L219.87 99.54L219.87 96.06L229.7 96.06L229.7 99.41L232.3 99.41L232.3 96.21C233.53 96.91 234.85 97.52 236.29 98.05L237.25 95.66ZM183.01 101.37L183.01 90.24L170.47 90.24L170.49 88.35L182.79 88.35L182.79 81.54L177.32 81.54Q176.63 79.63 176.34 78.92L173.36 79.29C173.7 80.12 173.99 80.87 174.24 81.54L168.2 81.54L168.2 87.36C168.2 90.16 168.08 92.49 167.85 94.34C167.61 96.19 167.19 97.82 166.59 99.24L166.43 96.88C165.56 97.15 164.39 97.48 162.94 97.89C161.49 98.29 160.34 98.61 159.49 98.85L159.89 101.55L166.43 99.61C166.09 100.34 165.72 101 165.34 101.59L167.44 103.1Q169.4 99.88 170.09 94.62L170.09 103.47L172.27 103.47L172.27 97.86L173.84 97.86L173.84 101.96L175.73 101.96L175.73 97.86L177.32 97.86L177.32 101.96L179.23 101.96L179.23 101.45L179.61 103.31C180.28 103.38 180.85 103.42 181.31 103.42C181.94 103.42 182.39 103.25 182.63 102.92C182.88 102.6 183.01 102.08 183.01 101.37ZM275.12 85.66L276.82 83.3L276.82 81.23L272.06 81.23L272.82 79.53L270.28 78.97C269.58 80.44 268.85 81.77 268.07 82.96C267.29 84.14 266.41 85.25 265.42 86.27L267.12 88.24L267.12 92.57C267.12 94.5 267.08 95.98 267.01 97C266.94 98.02 266.79 98.94 266.57 99.75Q266.24 100.97 265.47 102.54L267.75 103.68C268.27 102.73 268.65 101.78 268.89 100.84C269.14 99.9 269.3 98.79 269.37 97.52L271.21 97.52L271.21 101.93L273.33 101.93L273.33 101.72L273.6 103.29Q274.4 103.36 275.03 103.36C275.69 103.36 276.19 103.31 276.55 103.19C276.9 103.08 277.17 102.85 277.33 102.51C277.5 102.18 277.59 101.67 277.59 101L277.59 85.66L275.12 85.66ZM312.37 90.93L314.79 91.75L316.44 87.74L316.44 85.4L309.66 85.4L309.66 83.46L315.53 83.46L315.53 81.15L309.66 81.15L309.66 79.05L306.98 79.05L306.98 81.15L301 81.15L301 83.46L306.98 83.46L306.98 85.4L299.98 85.4L299.98 87.82L313.7 87.82L312.37 90.93ZM263.42 95.84L263.42 93.83L261.27 93.83L261.27 90.56L252.69 90.56L252.69 89.28L260.74 89.28L260.74 84.26L252.69 84.26L252.69 82.95L262.83 82.95L262.83 80.8L252.69 80.8L252.69 79.1L250.05 79.1L250.05 80.8L239.72 80.8L239.72 82.95L250.05 82.95L250.05 84.26L241.84 84.26L241.84 89.28L250.05 89.28L250.05 90.56L240.94 90.56L240.94 92.5L250.05 92.5L250.05 93.83L239.13 93.83L239.13 95.84L250.05 95.84L250.05 97.17L240.72 97.17L240.72 99.17L250.05 99.17L250.05 99.56C250.05 100.13 249.96 100.52 249.79 100.74Q249.78 100.75 249.77 100.76Q249.5 101.08 248.86 101.08C247.53 101.05 246.39 100.97 245.43 100.87L245.96 103.36C246.95 103.45 248.14 103.49 249.52 103.49C250.67 103.49 251.49 103.23 251.97 102.7C252.45 102.17 252.69 101.28 252.69 100.04L252.69 99.17L261.27 99.17L261.27 95.84L263.42 95.84ZM159.25 87.23L159.81 89.86L161.33 89.52C161.89 89.39 162.51 89.29 163.18 89.2C162.49 90.46 161.77 91.71 161 92.94C160.86 93.18 160.72 93.35 160.57 93.46C160.42 93.56 160.19 93.66 159.89 93.74L160.47 96.48C160.51 96.46 160.94 96.35 161.77 96.14C163.78 95.64 165.49 95.23 166.91 94.91L166.85 92.33L163.53 93.29C164.2 92.28 164.96 90.95 165.81 89.3Q167.09 86.83 168 84.74L166 83.78C165.59 84.65 165.09 85.64 164.49 86.75L162.36 87.18C163.17 85.75 164.26 83.44 165.63 80.27L163.21 79.26Q162.55 81.06 161.66 83.11C161.06 84.48 160.55 85.58 160.1 86.44C159.9 86.79 159.62 87.06 159.25 87.23ZM295.32 83.69C296.09 84.65 296.67 85.4 297.06 85.93L299.32 84.2C298.51 83.14 297.21 81.57 295.42 79.5L293.24 81.17Q294.16 82.24 295.32 83.69ZM192.36 93.66C193.25 94.81 193.94 95.74 194.43 96.43L195.93 94.25C195.61 93.82 195.09 93.24 194.39 92.48Q193.34 91.35 192.36 90.37L192.36 89.04L195.39 89.04L195.39 86.33L192.36 86.33L192.36 83C193.44 82.78 194.49 82.53 195.5 82.26L194.91 79.6C193.76 79.94 192.4 80.27 190.82 80.59C189.25 80.91 187.83 81.15 186.57 81.33L186.81 84.02L189.81 83.51L189.81 86.33L186.49 86.33L186.49 89.04L189.6 89.04C188.6 91.82 187.34 94.35 185.8 96.64L187.08 99.19C188.01 97.79 188.92 96.1 189.81 94.12L189.81 103.66L192.36 103.66L192.36 93.66ZM209 80.3L196.59 80.3L196.59 88.24L209 88.24L209 80.3ZM279.43 86.07Q278.88 86.62 277.85 87.39L279.47 89.28C280.62 88.41 281.48 87.58 282.04 86.79C282.6 86.01 283.01 85.04 283.27 83.89C283.32 83.64 283.39 83.24 283.46 82.71L286.7 82.71C286.66 83.53 286.58 84.25 286.46 84.87C286.37 85.35 286.24 85.66 286.07 85.81C285.9 85.96 285.57 86.03 285.08 86.03Q284.04 86.03 282.98 85.88L283.46 88.27Q284.84 88.38 285.55 88.38C286.44 88.38 287.11 88.3 287.56 88.16C288.01 88.02 288.35 87.75 288.56 87.36Q288.88 86.78 289.04 85.61C289.23 84.03 289.37 82.26 289.46 80.3L278.46 80.3L278.46 82.71L280.91 82.71L280.82 83.19C280.66 83.9 280.48 84.46 280.28 84.88C280.08 85.29 279.79 85.69 279.43 86.07ZM42.72 86.42Q41.52 88.69 41.52 91.75Q41.52 94.81 42.72 97.1Q43.6 98.77 44.95 99.88Q45.44 100.28 45.99 100.6Q46.53 100.92 47.1 101.15Q48.73 101.82 50.64 101.82Q52.46 101.82 54.03 101.2Q54.66 100.95 55.26 100.6Q55.82 100.27 56.31 99.87Q57.66 98.77 58.54 97.1C59.35 95.57 59.76 93.79 59.76 91.75C59.76 89.71 59.36 87.94 58.56 86.42C57.77 84.91 56.67 83.75 55.28 82.93Q54.62 82.55 53.91 82.28Q52.39 81.71 50.64 81.71Q48.89 81.71 47.36 82.28Q46.66 82.55 46 82.93Q45.39 83.29 44.85 83.74Q43.56 84.82 42.72 86.42ZM123.53 85.12C123.93 85.52 124.39 85.72 124.91 85.72C125.45 85.72 125.91 85.52 126.3 85.12C126.69 84.72 126.88 84.26 126.88 83.72C126.88 83.18 126.69 82.7 126.3 82.3Q125.96 81.96 125.55 81.81Q125.25 81.71 124.91 81.71C124.36 81.71 123.9 81.91 123.52 82.3C123.14 82.7 122.95 83.18 122.95 83.72C122.95 84.26 123.14 84.72 123.53 85.12ZM121.22 82.05L105.97 82.05L105.97 85.03L111.89 85.03L111.89 101.5L115.27 101.5L115.27 85.03L121.22 85.03L121.22 82.05ZM206.29 85.83L199.3 85.83L199.3 82.8L206.29 82.8L206.29 85.83ZM216.23 84.79L216.23 83.14L219.92 83.14L219.92 84.79L216.23 84.79ZM227.07 84.79L222.55 84.79L222.55 83.14L227.07 83.14L227.07 84.79ZM269.35 85.66C269.9 84.96 270.39 84.22 270.83 83.46L273.76 83.46L272.24 85.66L269.35 85.66ZM180.3 83.94L180.3 85.96L170.49 85.96L170.49 83.94L180.3 83.94ZM45.75 95.41Q45.06 93.83 45.06 91.75Q45.06 89.68 45.75 88.1Q46.35 86.72 47.39 85.89Q47.55 85.77 47.71 85.65Q48.11 85.39 48.54 85.2Q49.5 84.79 50.64 84.79Q51.79 84.79 52.76 85.21Q53.18 85.39 53.56 85.65C54.41 86.23 55.07 87.04 55.53 88.1Q56.22 89.68 56.22 91.75Q56.22 93.83 55.53 95.41Q54.93 96.76 53.92 97.6Q53.75 97.74 53.57 97.86C52.73 98.45 51.76 98.74 50.64 98.74Q49.41 98.74 48.41 98.27Q48.04 98.1 47.7 97.86C46.86 97.28 46.21 96.46 45.75 95.41ZM244.5 87.44L244.5 86.09L250.05 86.09L250.05 87.44L244.5 87.44ZM258.05 86.09L258.05 87.44L252.69 87.44L252.69 86.09L258.05 86.09ZM222.55 86.65L227.07 86.65L227.07 87.84L222.55 87.84L222.55 86.65ZM73.32 88.26C72.39 87.68 71.38 87.39 70.28 87.39C69.36 87.39 68.5 87.6 67.71 88.02C66.93 88.43 66.28 89.06 65.79 89.89C65.72 89.32 65.66 88.61 65.63 87.74L62.79 87.74L62.79 107.41L66 107.41L66 99.61C66.48 100.36 67.1 100.91 67.85 101.27C68.6 101.64 69.41 101.82 70.28 101.82C71.38 101.82 72.4 101.53 73.34 100.96C74.28 100.38 75.02 99.55 75.58 98.46C76.14 97.37 76.42 96.08 76.42 94.59Q76.42 92.39 75.57 90.76C75 89.67 74.25 88.83 73.32 88.26ZM88.52 88.21C87.59 87.66 86.53 87.39 85.32 87.39C84.12 87.39 83 87.67 81.96 88.23C80.92 88.78 80.09 89.6 79.46 90.67C78.83 91.75 78.52 93.03 78.52 94.54C78.52 96.08 78.83 97.4 79.46 98.5C80.09 99.6 80.93 100.42 81.98 100.98C83.04 101.54 84.19 101.82 85.43 101.82C86.67 101.82 87.8 101.55 88.83 101.01C89.86 100.47 90.56 99.71 90.93 98.74L88.54 97.33C87.95 98.48 86.96 99.06 85.56 99.06C84.57 99.06 83.74 98.75 83.07 98.14C82.41 97.53 82.02 96.62 81.89 95.42L91.3 95.42C91.39 94.83 91.43 94.31 91.43 93.85C91.43 92.61 91.18 91.5 90.67 90.52C90.17 89.53 89.45 88.76 88.52 88.21ZM105.09 88.87C104.21 87.88 103.01 87.39 101.51 87.39C100.53 87.39 99.66 87.6 98.9 88.03C98.14 88.46 97.53 89.09 97.07 89.95C96.98 89.36 96.92 88.62 96.88 87.74L94.04 87.74L94.04 101.5L97.25 101.5L97.25 94.27C97.25 93.02 97.56 92.04 98.18 91.34Q98.64 90.82 99.23 90.55Q99.81 90.29 100.52 90.29C101.44 90.29 102.12 90.63 102.56 91.32Q103.23 92.33 103.23 94.2L103.23 101.5L106.42 101.5L106.42 93.16C106.42 91.28 105.98 89.85 105.09 88.87ZM140.34 88.09Q139.23 87.39 137.67 87.39C136.7 87.39 135.83 87.6 135.07 88.03C134.31 88.46 133.7 89.09 133.24 89.95C133.15 89.36 133.08 88.62 133.05 87.74L130.21 87.74L130.21 101.5L133.42 101.5L133.42 94.27C133.42 93.02 133.73 92.04 134.35 91.34Q134.81 90.82 135.39 90.55Q135.98 90.29 136.69 90.29C137.61 90.29 138.29 90.63 138.73 91.32C139.18 91.99 139.4 92.95 139.4 94.2L139.4 101.5L142.59 101.5L142.59 93.16C142.59 91.28 142.14 89.85 141.25 88.87Q140.84 88.41 140.34 88.09ZM297.25 102.14C298.23 101.26 299.21 100.4 300.2 99.56L299.27 97.06L298.21 97.94L297.67 98.39L297.67 87.42L292.22 87.42L292.22 90.15L295.02 90.15L295.02 99.72C295.04 100.02 294.99 100.28 294.88 100.5C294.78 100.71 294.6 100.94 294.35 101.18L296.08 103.31C296.43 102.92 296.82 102.53 297.25 102.14ZM123.32 101.5L126.54 101.5L126.54 87.74L123.32 87.74L123.32 101.5ZM158.27 87.74L154.89 87.74L151.3 97.76L147.45 87.74L143.83 87.74L149.71 101.74L149.69 101.82C149.31 102.67 148.97 103.31 148.67 103.75C148.37 104.18 148.07 104.48 147.78 104.64C147.49 104.8 147.14 104.88 146.73 104.88C146.11 104.88 145.57 104.71 145.11 104.38L143.89 106.93C144.69 107.49 145.63 107.78 146.71 107.78Q148.27 107.78 149.39 107.07Q149.68 106.89 149.93 106.66Q151.2 105.54 152.24 102.91L158.27 87.74ZM305.33 91.62L306.18 92.04L307.05 90.13C305.1 89.21 303.48 88.47 302.19 87.92L301.37 89.73Q301.72 89.89 305.33 91.62ZM271.21 88.06L271.21 90.47L269.48 90.47L269.48 88.06L271.21 88.06ZM275.22 90.47L273.33 90.47L273.33 88.06L275.22 88.06L275.22 90.47ZM308.22 100.04C311.59 101.76 314.05 103.03 315.61 103.87L316.83 101.5C314 100.1 311.57 98.94 309.55 98.02C309.62 97.88 309.71 97.67 309.82 97.38L316.68 97.38L316.68 94.97L310.35 94.97Q310.48 93.93 310.54 92.44L310.64 88.64L307.98 88.64C307.98 89.81 307.96 91.14 307.9 92.63C307.87 93.6 307.8 94.38 307.69 94.97L305.04 94.97L305.94 93.16L300.89 90.69L300.01 92.55C300.54 92.78 301.3 93.14 302.29 93.64C303.29 94.14 304.16 94.58 304.9 94.97L299.61 94.97L299.61 97.38L306.81 97.38C306.26 98.23 305.4 98.97 304.22 99.59C303.04 100.21 301.38 100.81 299.22 101.4L300.36 103.92C302.34 103.34 303.96 102.74 305.21 102.12C306.46 101.51 307.46 100.82 308.22 100.04ZM290.26 99L290.26 96.48L285.9 96.48L285.9 93.69L289.62 93.69L289.62 91.27L285.9 91.27L285.9 89.12L283.3 89.12L283.3 91.27L281.62 91.27C281.73 90.86 281.85 90.37 281.97 89.78L279.82 89.25C279.3 91.4 278.65 93.34 277.85 95.07L280.05 95.87C280.27 95.37 280.55 94.65 280.91 93.69L283.3 93.69L283.3 96.48L278.3 96.48L278.3 99L283.3 99L283.3 103.68L285.9 103.68L285.9 99L290.26 99ZM222.55 89.57L227.07 89.57L227.07 90.71L222.55 90.71L222.55 89.57ZM83.1 90.87C83.7 90.36 84.4 90.1 85.21 90.1C86.03 90.1 86.7 90.36 87.22 90.87C87.74 91.39 88.04 92.12 88.11 93.08L81.94 93.08C82.12 92.12 82.51 91.39 83.1 90.87ZM72.15 97.78C71.52 98.54 70.68 98.93 69.61 98.93Q68.83 98.93 68.17 98.64Q67.56 98.37 67.05 97.86Q66 96.8 66 94.59Q66 92.41 67.06 91.31Q67.65 90.7 68.36 90.43Q68.95 90.21 69.61 90.21C70.66 90.21 71.5 90.6 72.14 91.38C72.78 92.16 73.1 93.23 73.1 94.59C73.1 95.96 72.78 97.02 72.15 97.78ZM204.18 100.26L204.18 97.6L209.05 97.6L209.05 95.18L204.18 95.18L204.18 92.68L209.71 92.68L209.71 90.21L196.16 90.21L196.16 92.68L201.37 92.68L201.37 95.18L196.56 95.18L196.56 97.6L201.37 97.6L201.37 100.26L194.86 100.26L194.86 102.78L210.54 102.78L210.54 100.26L204.18 100.26ZM252.69 92.5L258.71 92.5L258.71 93.83L252.69 93.83L252.69 92.5ZM172.27 95.58L172.27 92.55L173.84 92.55L173.84 95.58L172.27 95.58ZM175.73 95.58L175.73 92.55L177.32 92.55L177.32 95.58L175.73 95.58ZM180.8 95.58L179.23 95.58L179.23 92.55L180.8 92.55L180.8 95.58ZM227.65 92.63C228.15 93.16 228.67 93.64 229.22 94.09L220.4 94.09C220.98 93.58 221.49 93.09 221.91 92.63L227.65 92.63ZM271.21 95.23L269.48 95.23L269.48 92.79L271.21 92.79L271.21 95.23ZM275.22 95.23L273.33 95.23L273.33 92.79L275.22 92.79L275.22 95.23ZM258.71 97.17L252.69 97.17L252.69 95.84L258.71 95.84L258.71 97.17ZM225.9 98.71C226.11 98.24 226.29 97.6 226.43 96.8L223.38 96.8C223.25 97.61 222.94 98.3 222.44 98.85C221.95 99.4 221.04 99.89 219.7 100.33C218.38 100.77 216.45 101.16 213.92 101.5L214.95 103.95C217.55 103.43 219.6 102.92 221.1 102.4C222.6 101.89 223.74 101.31 224.52 100.65L227.01 101.45C231.02 102.74 233.56 103.58 234.64 103.97L235.44 101.48C232.39 100.55 229.21 99.63 225.9 98.71ZM275.08 100.9C275 101 274.8 101.05 274.5 101.05Q273.86 101.05 273.33 100.94L273.33 97.52L275.22 97.52L275.22 100.26C275.22 100.59 275.17 100.81 275.08 100.9ZM180.64 100.96C180.54 101.06 180.35 101.09 180.08 101.05L179.23 100.94L179.23 97.86L180.8 97.86L180.8 100.44Q180.8 100.81 180.64 100.96Z" fill="#FFFFFF" fill-opacity="1.000000" fill-rule="evenodd"/>
	<rect id="矩形 3" x="40.335693" y="33.217529" rx="7.592593" width="30.844908" height="30.844908" fill="#FFFFFF" fill-opacity="1.000000"/>
	<path id="path" d="M55.42 42.69L61.7 48.97L53.22 57.45L46.94 57.45L46.94 51.17L55.42 42.69ZM55.42 45.88L49.14 52.16L49.14 55.24L52.23 55.24L58.51 48.97L55.42 45.88ZM58.4 39.82L64.57 46.1L62.69 47.97L56.41 41.69L58.4 39.82Z" fill="#0506DD" fill-opacity="1.000000" fill-rule="nonzero"/>
	<path id="CCF开源大赛赛题讲解 Web 应用开发挑战赛技术答疑" d="M162.93 133.39C161.88 132.78 161.01 132.12 160.32 131.39L165.78 131.39L165.78 130.52L159.91 130.52L159.91 128.92L163.77 128.92L163.77 128.11L159.91 128.11L159.91 126.43L163.47 126.43L163.47 125.56L159.91 125.56L159.91 123.62L164.14 123.62L164.14 126.08L165.19 126.08L165.19 122.7L157.55 122.7L156.31 120.45L155.2 120.8C155.43 121.16 155.78 121.8 156.26 122.7L147.6 122.7L147.6 126.13L148.67 126.13L148.67 123.62L152.88 123.62L152.88 125.56L149.34 125.56L149.34 126.43L152.88 126.43L152.88 128.11L149.06 128.11L149.06 128.92L152.88 128.92L152.88 130.52L147.01 130.52L147.01 131.39L152.42 131.39C151.77 132.04 150.9 132.7 149.81 133.37C148.73 134.03 147.56 134.61 146.31 135.12L146.79 136.08C148.13 135.53 149.42 134.84 150.68 134.01L150.68 137.65L151.74 137.65L151.74 134.05L161.02 134.05L161.02 137.65L162.09 137.65L162.09 134.01Q163.9 135.14 166.11 135.9L166.5 134.92C165.18 134.52 163.99 134 162.93 133.39ZM184.76 133.39C183.71 132.78 182.84 132.12 182.15 131.39L187.61 131.39L187.61 130.52L181.74 130.52L181.74 128.92L185.6 128.92L185.6 128.11L181.74 128.11L181.74 126.43L185.3 126.43L185.3 125.56L181.74 125.56L181.74 123.62L185.97 123.62L185.97 126.08L187.02 126.08L187.02 122.7L179.38 122.7L178.14 120.45L177.02 120.8C177.26 121.16 177.61 121.8 178.09 122.7L169.43 122.7L169.43 126.13L170.5 126.13L170.5 123.62L174.71 123.62L174.71 125.56L171.17 125.56L171.17 126.43L174.71 126.43L174.71 128.11L170.89 128.11L170.89 128.92L174.71 128.92L174.71 130.52L168.84 130.52L168.84 131.39L174.25 131.39C173.59 132.04 172.73 132.7 171.64 133.37C170.56 134.03 169.39 134.61 168.14 135.12L168.62 136.08C169.96 135.53 171.25 134.84 172.51 134.01L172.51 137.65L173.57 137.65L173.57 134.05L182.85 134.05L182.85 137.65L183.92 137.65L183.92 134.01C185.13 134.76 186.47 135.4 187.94 135.9L188.33 134.92C187.01 134.52 185.82 134 184.76 133.39ZM137.95 134.22C136.42 132.3 135.48 130.18 135.11 127.85C135.12 127.78 135.13 127.67 135.13 127.53L143.99 127.53L143.99 126.37L135.15 126.37L135.15 120.63L133.95 120.63L133.95 126.37L125.16 126.37L125.16 127.53L133.93 127.53C133.8 129.94 132.97 132.12 131.43 134.06Q129.13 136.95 124.83 139.53L125.57 140.62C128.03 139.08 130.02 137.49 131.53 135.85Q133.65 133.56 134.53 130.86Q134.6 130.67 134.65 130.47C135.87 134.33 138.89 137.68 143.71 140.53L144.43 139.46Q140.24 137.09 137.95 134.22ZM240.37 126.41L242.29 123.71L242.29 122.81L238.08 122.81C238.4 122.2 238.68 121.58 238.93 120.96L237.92 120.65C237.37 121.92 236.75 123.06 236.06 124.09C235.37 125.11 234.58 126.07 233.69 126.96L234.39 127.83L235.28 126.89L235.28 132C235.28 133.51 235.24 134.7 235.16 135.57C235.08 136.44 234.94 137.2 234.72 137.86C234.51 138.52 234.18 139.29 233.73 140.16L234.71 140.62C235.2 139.72 235.55 138.86 235.77 138.06C236 137.25 236.15 136.26 236.22 135.08L238.69 135.08L238.69 139.31L239.58 139.31L239.58 135.08L242.05 135.08L242.05 138.37C242.05 138.74 242 138.98 241.89 139.09C241.78 139.21 241.55 139.27 241.2 139.27C240.76 139.27 240.36 139.23 240 139.16L240.17 140.18C240.52 140.23 241 140.25 241.62 140.25C242.15 140.24 242.52 140.11 242.73 139.87C242.95 139.64 243.05 139.23 243.05 138.63L243.05 126.41L240.37 126.41ZM231.81 133.29L231.81 132.15L228.47 132.15L228.47 126.41L231.4 126.41L231.4 125.28L228.47 125.28L228.47 120.91L227.34 120.91L227.34 125.28L222.78 125.28L222.78 120.98L221.62 120.98L221.62 125.28L218.76 125.28L218.76 126.41L221.62 126.41L221.62 130.62C221.62 131.32 221.61 131.83 221.6 132.15L218.28 132.15L218.28 133.29L221.55 133.29C221.48 134.34 221.33 135.21 221.1 135.91C220.88 136.61 220.54 137.25 220.09 137.85C219.64 138.45 218.99 139.15 218.15 139.97L219.04 140.8Q220.39 139.46 221.12 138.44Q221.65 137.7 221.99 136.88Q222.12 136.57 222.22 136.23Q222.58 135.06 222.71 133.29L227.34 133.29L227.34 140.68L228.47 140.68L228.47 133.29L231.81 133.29ZM214.89 123.79Q215.85 125.04 216.53 125.98L217.45 125.24C217.08 124.71 216.57 124.02 215.91 123.16C215.25 122.3 214.71 121.64 214.31 121.17L213.39 121.89C213.75 122.32 214.25 122.95 214.89 123.79ZM105.83 123.86Q106.93 124.82 107.52 125.38L108.2 124.47L104.55 121.34L103.9 122.22C104.45 122.67 105.09 123.22 105.83 123.86ZM198.5 121.87L191.58 121.87L191.58 128.92L198.5 128.92L198.5 121.87ZM122.89 122.07L109.29 122.07L109.29 129.01Q109.29 131.56 109.06 133.36C108.91 134.56 108.65 135.69 108.29 136.75C107.94 137.8 107.43 138.95 106.78 140.18L107.82 140.66C108.5 139.41 109.01 138.24 109.37 137.14C109.74 136.04 110 134.86 110.15 133.59C110.31 132.31 110.38 130.78 110.38 128.99L110.38 123.16L116.3 123.16C116.03 124.25 115.8 125.13 115.59 125.78L112.36 125.78L112.36 133.42L116.3 133.42L116.3 137.61C116.3 138.22 116.21 138.66 116.02 138.92C115.84 139.18 115.53 139.31 115.09 139.31C114.53 139.3 113.88 139.24 113.15 139.14L113.35 140.21C114.05 140.29 114.74 140.34 115.42 140.34C116.15 140.34 116.66 140.16 116.95 139.8C117.24 139.44 117.38 138.85 117.38 138L117.38 133.42L121.18 133.42L121.18 125.78L116.73 125.78C116.94 125.05 117.18 124.18 117.45 123.16L122.89 123.16L122.89 122.07ZM204.26 123.16C204.03 124.22 203.84 125.06 203.68 125.67L200.88 125.67L200.88 133.66L201.89 133.66L201.89 126.61L207.5 126.61L207.5 133.66L208.56 133.66L208.56 125.67L204.72 125.67C204.97 124.71 205.17 123.87 205.33 123.16L209.63 123.16L209.63 122.13L199.99 122.13L199.99 123.16L204.26 123.16ZM245.27 126.66C244.9 127.05 244.37 127.49 243.69 127.99L244.27 128.85C245.34 128.05 246.11 127.31 246.59 126.62C247.07 125.93 247.4 125.07 247.57 124.05C247.63 123.73 247.67 123.43 247.68 123.14L251.54 123.14C251.5 123.98 251.4 124.82 251.24 125.67C251.17 126.05 251.09 126.32 251 126.49C250.91 126.65 250.77 126.77 250.58 126.84C250.4 126.9 250.12 126.94 249.75 126.94C249.22 126.94 248.59 126.88 247.88 126.78L248.07 127.81C248.85 127.88 249.54 127.92 250.15 127.92C250.69 127.9 251.1 127.84 251.38 127.72C251.67 127.61 251.87 127.41 252 127.14C252.13 126.87 252.24 126.48 252.31 125.95C252.47 124.83 252.59 123.56 252.66 122.13L244.01 122.13L244.01 123.14L246.61 123.14Q246.57 123.62 246.52 123.81C246.42 124.47 246.28 125.01 246.1 125.44C245.92 125.87 245.64 126.28 245.27 126.66ZM100.73 131.34L100.73 130.19L95.62 130.19L95.62 123.44L99.81 123.44L99.81 122.33L81.98 122.33L81.98 123.44L86.45 123.44L86.45 130.19L81.09 130.19L81.09 131.34L86.41 131.34C86.34 132.65 86.16 133.75 85.88 134.63C85.59 135.51 85.13 136.35 84.5 137.13C83.87 137.92 82.96 138.79 81.76 139.75L82.66 140.62C83.91 139.57 84.87 138.62 85.54 137.78C86.21 136.92 86.7 136 87.01 135.01C87.33 134.02 87.52 132.8 87.59 131.34L94.44 131.34L94.44 140.53L95.62 140.53L95.62 131.34L100.73 131.34ZM197.41 122.79L197.41 124.93L192.63 124.93L192.63 122.79L197.41 122.79ZM51.06 137.36C50.38 137.83 49.55 138.07 48.56 138.07C47.45 138.07 46.48 137.77 45.62 137.17Q45.48 137.07 45.35 136.97Q44.27 136.1 43.63 134.68C43.16 133.62 42.93 132.41 42.93 131.04Q42.93 128.99 43.63 127.39Q44.27 125.97 45.36 125.11Q45.49 125.01 45.62 124.92Q46.04 124.63 46.49 124.44Q47.44 124.03 48.56 124.03Q50 124.03 51 124.7Q51.03 124.72 51.06 124.74C51.74 125.21 52.26 125.85 52.62 126.65L53.67 126.04Q53.4 125.38 52.98 124.84Q52.47 124.18 51.74 123.71C50.84 123.12 49.79 122.83 48.58 122.83Q47.38 122.83 46.31 123.21Q45.62 123.46 44.99 123.87C43.92 124.56 43.08 125.53 42.47 126.77Q41.55 128.64 41.55 131.04Q41.55 133.44 42.47 135.32Q43.2 136.82 44.38 137.79Q44.67 138.03 44.99 138.23Q45.61 138.63 46.29 138.88Q47.37 139.27 48.58 139.27C49.79 139.27 50.84 138.98 51.74 138.39C52.63 137.81 53.28 137.04 53.67 136.06L52.62 135.45Q52.23 136.31 51.59 136.92Q51.34 137.16 51.06 137.36ZM64.7 137.36C64.03 137.83 63.19 138.07 62.2 138.07C61.1 138.07 60.12 137.77 59.27 137.17C58.42 136.58 57.75 135.75 57.28 134.68C56.81 133.62 56.57 132.41 56.57 131.04Q56.57 128.99 57.28 127.39C57.75 126.33 58.42 125.51 59.27 124.92Q59.68 124.63 60.13 124.44Q61.08 124.03 62.2 124.03C63.19 124.03 64.03 124.27 64.7 124.74C65.38 125.21 65.9 125.85 66.26 126.65L67.31 126.04C66.92 125.07 66.27 124.29 65.38 123.71C64.48 123.12 63.43 122.83 62.22 122.83Q61.02 122.83 59.96 123.21Q59.26 123.46 58.63 123.87C57.56 124.56 56.72 125.53 56.11 126.77Q55.19 128.64 55.19 131.04Q55.19 133.44 56.11 135.32C56.72 136.57 57.56 137.54 58.63 138.23Q59.26 138.63 59.94 138.88Q61.01 139.27 62.22 139.27C63.43 139.27 64.48 138.98 65.38 138.39C66.27 137.81 66.92 137.04 67.31 136.06L66.26 135.45C65.9 136.25 65.38 136.89 64.7 137.36ZM79.18 123.07L69.97 123.07L69.97 139.05L71.29 139.05L71.29 131.67L78.4 131.67L78.4 130.52L71.29 130.52L71.29 124.23L79.18 124.23L79.18 123.07ZM94.44 130.19L87.64 130.19L87.64 123.44L94.44 123.44L94.44 130.19ZM153.95 123.62L158.84 123.62L158.84 125.56L153.95 125.56L153.95 123.62ZM175.78 123.62L180.67 123.62L180.67 125.56L175.78 125.56L175.78 123.62ZM235.7 126.41C236.42 125.52 237.04 124.65 237.53 123.79L241 123.79L239.15 126.41L235.7 126.41ZM192.63 128.01L192.63 125.82L197.41 125.82L197.41 128.01L192.63 128.01ZM104.8 128.62C105.59 129.29 106.24 129.85 106.74 130.3L107.46 129.38L106.23 128.37L103.52 126.17L102.87 127.04C103.37 127.42 104.01 127.95 104.8 128.62ZM227.34 126.41L227.34 132.15L222.76 132.15C222.77 131.82 222.78 131.29 222.78 130.56L222.78 126.41L227.34 126.41ZM153.95 126.43L158.84 126.43L158.84 128.11L153.95 128.11L153.95 126.43ZM175.78 126.43L180.67 126.43L180.67 128.11L175.78 128.11L175.78 126.43ZM120.11 129.16L113.44 129.16L113.44 126.76L120.11 126.76L120.11 129.16ZM238.69 127.41L238.69 130.28L236.29 130.28L236.29 127.41L238.69 127.41ZM242.05 130.28L239.58 130.28L239.58 127.41L242.05 127.41L242.05 130.28ZM205.21 131.21L205.21 127.96L204.2 127.96L204.2 131.04C204.2 132.01 204.08 132.83 203.84 133.49Q203.48 134.47 202.44 135.32C201.75 135.89 200.74 136.46 199.42 137.04L199.92 137.96C201.17 137.41 202.17 136.85 202.91 136.29C203.65 135.73 204.21 135.08 204.57 134.36C205.21 134.87 205.93 135.46 206.74 136.15C207.55 136.83 208.2 137.39 208.68 137.83L209.37 136.98C207.8 135.64 206.32 134.43 204.94 133.35C205.12 132.71 205.21 132 205.21 131.21ZM217.47 137.48L218.96 136.23L218.5 135.12L215.99 137.33L215.99 128.05L211.97 128.05L211.97 129.25L214.85 129.25L214.85 137.76C214.85 137.91 214.83 138.04 214.77 138.15C214.72 138.25 214.61 138.41 214.44 138.61L215.16 139.51C215.46 139.17 215.72 138.93 215.92 138.77C216.42 138.39 216.93 137.96 217.47 137.48ZM253.71 136.12L253.71 135.08L249.56 135.08L249.56 132.02L253.16 132.02L253.16 131.02L249.56 131.02L249.56 128.61L248.51 128.61L248.51 131.02L246.04 131.02C246.22 130.42 246.38 129.78 246.52 129.09L245.59 128.88C245.4 129.75 245.15 130.63 244.86 131.53Q244.41 132.87 243.86 133.96L244.8 134.34Q245.26 133.39 245.74 132.02L248.51 132.02L248.51 135.08L243.75 135.08L243.75 136.12L248.51 136.12L248.51 140.71L249.56 140.71L249.56 136.12L253.71 136.12ZM153.95 128.92L158.84 128.92L158.84 130.52L153.95 130.52L153.95 128.92ZM175.78 128.92L180.67 128.92L180.67 130.52L175.78 130.52L175.78 128.92ZM113.44 132.48L113.44 130.1L120.11 130.1L120.11 132.48L113.44 132.48ZM204.4 139.18C202.39 139.18 200.3 139.08 198.13 138.87C197.42 138.82 196.77 138.69 196.19 138.5L196.19 135.6L199.46 135.6L199.46 134.64L196.19 134.64L196.19 131.98L199.79 131.98L199.79 130.95L190.29 130.95L190.29 131.98L195.16 131.98L195.16 138.03C194.68 137.75 194.25 137.37 193.87 136.89C193.49 136.41 193.09 135.78 192.67 134.99C192.75 134.51 192.82 133.83 192.89 132.96L191.89 132.89C191.77 134.51 191.56 135.82 191.26 136.83Q190.82 138.33 189.81 139.97L190.73 140.49C191.15 139.76 191.5 139.08 191.75 138.44C192.02 137.8 192.24 137.11 192.41 136.39C193.1 137.58 193.86 138.43 194.7 138.95C195.55 139.47 196.68 139.79 198.11 139.92C200.17 140.11 202.31 140.21 204.5 140.21Q206.99 140.21 209.83 140.03L210.05 138.96C207.97 139.11 206.08 139.18 204.4 139.18ZM238.69 131.28L238.69 134.07L236.26 134.07C236.28 133.74 236.29 133.18 236.29 132.39L236.29 131.28L238.69 131.28ZM239.58 134.07L239.58 131.28L242.05 131.28L242.05 134.07L239.58 134.07ZM159.01 131.39C159.48 131.96 160.11 132.55 160.91 133.17L151.85 133.17C152.63 132.56 153.26 131.97 153.75 131.39L159.01 131.39ZM180.84 131.39C181.31 131.96 181.94 132.55 182.74 133.17L173.68 133.17C174.45 132.56 175.09 131.97 175.58 131.39L180.84 131.39ZM104.73 140.36L106.86 132.33L105.77 132.09C105.35 133.82 104.65 136.48 103.68 140.08L104.73 140.36ZM122.64 139.53Q120.88 135.69 120.29 134.53L119.35 134.92C119.67 135.52 120.08 136.35 120.57 137.42C121.07 138.49 121.44 139.34 121.69 139.97L122.64 139.53ZM112.49 137.63Q113.26 136.23 113.72 135.1L112.78 134.73C112.5 135.47 112.12 136.28 111.62 137.16C111.13 138.04 110.61 138.86 110.07 139.62L110.93 140.16C111.46 139.41 111.98 138.56 112.49 137.63ZM156.57 136.89C156.84 136.38 157.03 135.69 157.14 134.84L155.92 134.84Q155.8 136.06 155.22 136.85Q154.65 137.63 152.9 138.34C151.74 138.81 149.98 139.3 147.64 139.79L148.05 140.84C150.31 140.32 152.06 139.81 153.29 139.32C154.53 138.83 155.43 138.29 156 137.7Q162.2 139.92 164.5 140.84L164.93 139.82C163.39 139.25 160.83 138.35 157.25 137.13C156.85 136.98 156.63 136.9 156.57 136.89ZM178.4 136.89C178.67 136.38 178.86 135.69 178.96 134.84L177.74 134.84C177.67 135.65 177.44 136.32 177.05 136.85Q176.48 137.63 174.73 138.34C173.57 138.81 171.81 139.3 169.47 139.79L169.88 140.84C172.14 140.32 173.89 139.81 175.12 139.32C176.36 138.83 177.26 138.29 177.83 137.7Q184.03 139.92 186.32 140.84L186.76 139.82C185.21 139.25 182.65 138.35 179.08 137.13C178.68 136.98 178.46 136.9 178.4 136.89ZM289.11 156.31C289.96 155.37 290.78 154.27 291.6 152.99L293.1 152.99C293.56 153.8 294.01 154.78 294.46 155.94L295.4 155.48C295.01 154.55 294.61 153.72 294.2 152.99L297.98 152.99L297.98 151.94L292.24 151.94C292.79 151.01 293.2 150.22 293.48 149.58L292.34 149.3C291.92 150.25 291.32 151.33 290.53 152.54C289.75 153.75 288.96 154.79 288.18 155.65L289.11 156.31ZM300.44 149.34C299.76 151.16 298.86 152.81 297.76 154.3L298.78 154.8C299.18 154.26 299.57 153.66 299.96 152.99L302.19 152.99C302.74 153.92 303.29 154.97 303.85 156.13L304.76 155.58C304.29 154.61 303.81 153.74 303.35 152.99L307.64 152.99L307.64 151.94L300.55 151.94C300.88 151.3 301.24 150.51 301.62 149.56L300.44 149.34ZM239.03 162.39C237.97 161.78 237.1 161.12 236.42 160.39L241.87 160.39L241.87 159.52L236 159.52L236 157.92L239.87 157.92L239.87 157.11L236 157.11L236 155.43L239.56 155.43L239.56 154.56L236 154.56L236 152.62L240.24 152.62L240.24 155.08L241.29 155.08L241.29 151.7L233.65 151.7L232.4 149.45L231.29 149.8C231.52 150.16 231.88 150.8 232.36 151.7L223.69 151.7L223.69 155.13L224.76 155.13L224.76 152.62L228.97 152.62L228.97 154.56L225.44 154.56L225.44 155.43L228.97 155.43L228.97 157.11L225.16 157.11L225.16 157.92L228.97 157.92L228.97 159.52L223.1 159.52L223.1 160.39L228.51 160.39C227.86 161.04 226.99 161.7 225.91 162.37C224.82 163.03 223.66 163.61 222.41 164.12L222.89 165.08Q224.89 164.25 226.77 163.01L226.77 166.65L227.84 166.65L227.84 163.05L237.12 163.05L237.12 166.65L238.19 166.65L238.19 163.01C239.39 163.76 240.73 164.4 242.21 164.9L242.59 163.92C241.27 163.52 240.08 163 239.03 162.39ZM111.08 153.53L111.08 152.4L103.59 152.4C103.27 151.57 102.87 150.62 102.39 149.54L101.26 149.89C101.63 150.72 101.97 151.55 102.28 152.4L93.94 152.4L93.94 158.47C93.94 160.08 93.88 161.45 93.76 162.58C93.63 163.69 93.4 164.77 93.05 165.81C92.71 166.84 92.21 167.92 91.54 169.06L92.57 169.66C93.25 168.47 93.77 167.32 94.14 166.22C94.5 165.11 94.75 163.96 94.88 162.76C95.01 161.56 95.08 160.12 95.08 158.45L95.08 153.53L111.08 153.53ZM260.15 167.83C261.18 168.43 262.36 169.02 263.7 169.6L264.18 168.46C261.75 167.53 259.79 166.44 258.29 165.17Q259.64 163.95 260.56 162.46C261.17 161.47 261.72 160.28 262.22 158.88L262.22 157.75L258.01 157.75L258.01 154.19L263.68 154.19L263.68 153.05L258.01 153.05L258.01 149.63L256.85 149.63L256.85 153.05L251.91 153.05L251.91 154.19L256.85 154.19L256.85 157.75L251.89 157.75L251.89 158.86L252.9 158.86C253.35 160.15 253.88 161.31 254.47 162.32C255.07 163.33 255.77 164.25 256.57 165.06C255.11 166.14 252.94 167.28 250.06 168.49L250.61 169.62C252.15 168.94 253.47 168.3 254.58 167.7C255.68 167.11 256.64 166.49 257.44 165.87C258.23 166.58 259.13 167.23 260.15 167.83ZM220.34 165.87C220.49 165.21 220.61 164.66 220.68 164.23L219.65 163.82C219.59 164.19 219.51 164.66 219.39 165.2C219.28 165.75 219.16 166.23 219.04 166.65C218.87 167.26 218.69 167.67 218.51 167.87C218.32 168.08 218.07 168.18 217.75 168.18C217.48 168.18 217.21 168.09 216.95 167.9C216.7 167.72 216.42 167.41 216.12 166.96C215.68 166.29 215.28 165.42 214.92 164.36Q216.03 163.2 216.99 161.92Q217.2 161.64 217.41 161.36C218.16 160.31 218.79 159.27 219.28 158.25L218.32 157.7C217.46 159.54 216.21 161.36 214.55 163.16C214.09 161.46 213.74 159.48 213.47 157.23L220.4 156.11L220.26 155.06L213.37 156.17L213.26 155.08C213.05 152.6 212.95 150.79 212.93 149.67L211.86 149.69C211.87 150.99 211.98 152.75 212.17 154.98L212.3 156.33L209.07 156.85L209.2 157.9L212.43 157.37C212.76 160.11 213.18 162.34 213.67 164.06C212.49 165.23 211.18 166.29 209.72 167.22L210.36 168.2C211.59 167.42 212.83 166.43 214.07 165.23Q214.59 166.61 215.16 167.53C215.56 168.17 215.98 168.63 216.4 168.92C216.82 169.21 217.27 169.36 217.75 169.36C218.29 169.36 218.73 169.21 219.07 168.91C219.4 168.61 219.69 168.07 219.94 167.29C220.05 167 220.19 166.52 220.34 165.87ZM312.18 155.99C312.51 156.29 313.03 156.45 313.76 156.48Q314.24 156.5 315.15 156.5C315.78 156.5 316.25 156.49 316.55 156.48C317.13 156.45 317.57 156.39 317.86 156.3C318.15 156.2 318.37 156.03 318.5 155.8C318.64 155.56 318.73 155.2 318.78 154.74C318.84 153.86 318.87 153.38 318.87 153.29L317.93 153.1L317.86 154.41C317.83 154.73 317.78 154.96 317.69 155.11C317.62 155.27 317.48 155.37 317.28 155.43C317.09 155.49 316.79 155.53 316.38 155.56C316.13 155.58 315.74 155.58 315.22 155.58C314.71 155.58 314.32 155.58 314.06 155.56C313.6 155.53 313.27 155.44 313.07 155.27C312.87 155.1 312.78 154.77 312.78 154.28L312.78 153.67C313.77 153.32 314.85 152.91 316.01 152.43C317.19 151.96 318.07 151.56 318.67 151.24L318.28 150.3C317.68 150.62 316.84 151.01 315.76 151.47Q314.15 152.16 312.78 152.66L312.78 149.72L311.7 149.72L311.7 154.41C311.7 155.16 311.86 155.69 312.18 155.99ZM281.23 161.45C279.92 159.78 278.78 157.84 277.8 155.63L285.43 155.63L285.43 154.54L276.71 154.54L276.71 149.74L275.51 149.74L275.51 154.54L266.89 154.54L266.89 155.63L274.47 155.63C273.53 157.76 272.38 159.69 270.99 161.44Q268.92 164.06 265.95 166.41L266.74 167.48C268.82 165.8 270.54 164.02 271.91 162.16C273.28 160.29 274.48 158.13 275.51 155.67L275.51 169.66L276.71 169.66L276.71 155.67Q278.24 159.4 280.31 162.14Q282.39 164.88 285.6 167.33L286.27 166.17C284.22 164.69 282.54 163.11 281.23 161.45ZM168.66 166.02Q171.45 167.96 176.19 169.62L176.7 168.49C173.73 167.54 171.36 166.48 169.6 165.3Q170.72 164.36 171.61 163.24Q171.78 163.03 171.93 162.81C172.6 161.89 173.22 160.83 173.77 159.62L173.77 158.62L164.36 158.62C164.65 157.66 164.92 156.63 165.17 155.54L176.5 155.54L176.5 154.43L165.39 154.43C165.63 153.12 165.86 151.6 166.07 149.87L164.91 149.78Q164.67 152.11 164.21 154.43L159.91 154.43C160.2 153.44 160.51 152.17 160.85 150.61L159.73 150.34C159.6 150.97 159.43 151.7 159.21 152.53C158.99 153.36 158.81 154.02 158.66 154.52L158.66 155.54L163.97 155.54C163.37 158.12 162.53 160.41 161.42 162.41C160.33 164.41 158.84 166.36 156.96 168.25L157.79 169.21C159.25 167.69 160.46 166.2 161.43 164.74C162.41 163.28 163.21 161.73 163.84 160.08C164.74 162.16 166.03 163.9 167.7 165.28C165.94 166.46 163.52 167.57 160.45 168.62L160.93 169.68C162.67 169.07 164.16 168.48 165.4 167.89C166.64 167.32 167.73 166.69 168.66 166.02ZM248.75 160.82L251.02 160.04L250.87 158.8C250.26 159.03 249.55 159.28 248.75 159.54L248.75 155.1L251.07 155.1L251.07 153.88L248.75 153.88L248.75 149.8L247.59 149.8L247.59 153.88L244.76 153.88L244.76 155.1L247.59 155.1L247.59 159.93C245.85 160.51 244.7 160.88 244.14 161.04L244.52 162.29L247.59 161.24L247.59 166.81C247.59 167.33 247.5 167.69 247.31 167.89C247.12 168.1 246.78 168.2 246.29 168.2C245.96 168.2 245.47 168.14 244.8 168.03L245.02 169.21Q246.02 169.34 246.57 169.34C247.37 169.34 247.93 169.18 248.26 168.87C248.59 168.56 248.75 168 248.75 167.2L248.75 160.82ZM169.25 150.78C170.82 151.67 172.22 152.49 173.44 153.23L174.01 152.23Q173.88 152.16 173.44 151.89L169.84 149.82L169.25 150.78ZM198.61 165.69C198.64 165.31 198.65 165.04 198.65 164.88L197.69 164.66C197.65 165.55 197.62 166.14 197.6 166.41C197.58 166.92 197.49 167.27 197.34 167.47C197.2 167.67 196.94 167.78 196.58 167.81C196.38 167.84 196.08 167.85 195.69 167.85C195.28 167.85 194.97 167.84 194.77 167.81C194.39 167.78 194.14 167.69 194 167.53C193.86 167.37 193.79 167.05 193.79 166.57L193.79 160.12C195.13 161.14 196.42 162.19 197.65 163.27L198.35 162.37C196.92 161.18 195.4 160.01 193.79 158.86L193.79 149.84L192.7 149.84L192.7 166.87C192.7 167.63 192.83 168.15 193.1 168.43C193.37 168.72 193.82 168.88 194.47 168.92C194.72 168.95 195.1 168.97 195.6 168.97C196.11 168.97 196.49 168.95 196.74 168.92C197.17 168.88 197.51 168.8 197.76 168.68C198.01 168.57 198.19 168.36 198.31 168.08C198.44 167.8 198.52 167.38 198.55 166.83L198.61 165.69ZM280.59 152.09C281.26 152.7 281.82 153.22 282.24 153.64L283 152.81C282.51 152.35 281.92 151.81 281.24 151.21C280.57 150.6 280.03 150.15 279.62 149.84L278.9 150.63C279.35 151 279.91 151.48 280.59 152.09ZM184.86 159.91C184.92 159.88 185.11 159.8 185.43 159.69L185.19 158.58L182.98 159.43L182.98 155.26L185.12 155.26L185.12 154.12L182.98 154.12L182.98 149.89L181.87 149.89L181.87 154.12L179.1 154.12L179.1 155.26L181.87 155.26L181.87 159.84C180.55 160.34 179.52 160.71 178.79 160.96L179.1 162.07C179.5 161.92 180.43 161.59 181.87 161.07L181.87 166.87C181.87 167.36 181.8 167.71 181.67 167.92C181.54 168.12 181.32 168.22 180.99 168.22C180.4 168.22 179.8 168.18 179.18 168.09L179.4 169.21C180.19 169.28 180.84 169.31 181.37 169.3C181.96 169.28 182.38 169.13 182.62 168.83C182.86 168.53 182.98 167.99 182.98 167.22L182.98 160.63L184.86 159.91ZM190.23 149.93L189.16 149.93L189.16 159.23C188.16 160.02 186.77 161 184.99 162.17L185.58 163.29C186.5 162.65 187.68 161.74 189.14 160.56C189.08 161.94 188.91 163.1 188.62 164.04C188.34 164.97 187.89 165.81 187.27 166.56C186.65 167.31 185.79 168.07 184.69 168.84L185.58 169.68C186.83 168.8 187.79 167.89 188.46 166.95C189.13 166.01 189.59 164.93 189.84 163.73C190.1 162.52 190.23 160.98 190.23 159.12L190.23 149.93ZM205.66 154.86L210.4 154.86L210.4 153.8L205.66 153.8L205.66 150.02L204.55 150.02L204.55 159.6L201.84 159.6L201.84 168.2L208.93 168.2L208.93 159.6L205.66 159.6L205.66 154.86ZM216.42 152.68C217.14 153.31 217.69 153.82 218.08 154.21L218.89 153.36C218.47 152.97 217.89 152.46 217.17 151.85C216.46 151.24 215.86 150.76 215.38 150.41L214.63 151.2C215.11 151.56 215.71 152.06 216.42 152.68ZM328.08 167.83C327.29 167.83 326.7 167.82 326.31 167.79C325.74 167.76 325.24 167.69 324.8 167.59L324.8 163.31L329.13 163.31L329.13 162.29L324.8 162.29L324.8 158.21L328.23 158.21L327.18 160.45L328.08 160.78L329.28 158.23L329.28 157.18L325.92 157.18C325.58 156.83 325.2 156.45 324.78 156.04Q325.74 155.19 327.01 154Q328.29 152.79 328.84 152.16L328.84 151.04L319.8 151.04L319.8 152.07L327.49 152.07C326.73 152.87 325.6 153.96 324.08 155.34C323.27 154.53 322.55 153.83 321.94 153.25L321.26 153.93C321.8 154.42 322.66 155.29 323.84 156.53L324.5 157.18L319.23 157.18L319.23 158.21L323.75 158.21L323.75 167.27C323.13 166.99 322.63 166.56 322.27 165.99C321.9 165.41 321.61 164.62 321.4 163.62Q321.55 162.42 321.6 160.24L320.59 160.21Q320.57 162.44 320.34 163.85C320.18 164.79 319.91 165.66 319.52 166.46C319.13 167.26 318.54 168.13 317.77 169.08L318.73 169.68C319.32 168.95 319.79 168.25 320.14 167.59C320.5 166.94 320.78 166.26 320.98 165.56C321.41 166.67 322.02 167.47 322.83 167.97C323.64 168.48 324.73 168.76 326.11 168.84C326.51 168.87 327.09 168.88 327.86 168.88C328.65 168.88 329.23 168.87 329.61 168.84L329.82 167.79C329.43 167.82 328.85 167.83 328.08 167.83ZM131.42 151.13L115.75 151.13L115.75 160C115.75 161.67 115.7 162.98 115.59 163.91C115.49 164.85 115.3 165.7 115.02 166.47C114.73 167.23 114.28 168.14 113.65 169.21L114.7 169.75C115.42 168.53 115.93 167.43 116.24 166.46C116.55 165.48 116.76 164.33 116.86 162.99L123.02 162.99L123.02 169.32L124.15 169.32L124.15 162.99L130.26 162.99L130.26 166.61C130.26 167.08 130.22 167.42 130.14 167.63C130.06 167.85 129.91 168 129.67 168.08C129.44 168.16 129.07 168.2 128.56 168.2C128.1 168.2 127.4 168.14 126.47 168.03L126.66 169.21Q127.89 169.34 128.82 169.34C129.51 169.34 130.03 169.28 130.4 169.15C130.76 169.03 131.02 168.8 131.18 168.46Q131.42 167.96 131.42 166.96L131.42 151.13ZM155 160.34L155 159.19L149.89 159.19L149.89 152.44L154.08 152.44L154.08 151.33L136.25 151.33L136.25 152.44L140.72 152.44L140.72 159.19L135.35 159.19L135.35 160.34L140.68 160.34Q140.57 162.31 140.14 163.63C139.86 164.51 139.4 165.35 138.77 166.13C138.14 166.92 137.22 167.79 136.03 168.75L136.92 169.62C138.17 168.57 139.14 167.62 139.8 166.78C140.47 165.92 140.97 165 141.28 164.01C141.59 163.02 141.78 161.8 141.85 160.34L148.71 160.34L148.71 169.54L149.89 169.54L149.89 160.34L155 160.34ZM79.9 156.63Q79.31 156.46 78.66 156.46C77.8 156.46 77.02 156.68 76.31 157.12C75.61 157.57 75.08 158.22 74.71 159.08L74.71 151.46L73.49 151.46L73.49 168.05L74.56 168.05C74.59 166.78 74.62 165.94 74.64 165.52C75 166.41 75.53 167.09 76.26 167.56C76.99 168.03 77.79 168.27 78.66 168.27Q79.31 168.27 79.9 168.1Q80.52 167.92 81.09 167.57Q81.18 167.51 81.28 167.44Q82.26 166.75 82.86 165.53C83.31 164.63 83.53 163.57 83.53 162.35Q83.53 160.54 82.86 159.2C82.42 158.3 81.83 157.62 81.09 157.16Q80.52 156.8 79.9 156.63ZM55.59 165.89L51.35 152.05L50.24 152.05L46.22 165.89L42.03 152.07L40.63 152.07L45.63 168.05L46.68 168.05L50.77 154.5L54.98 168.05L56.05 168.05L60.85 152.07L59.59 152.07L55.59 165.89ZM123.02 152.27L123.02 156.57L116.93 156.57L116.93 152.27L123.02 152.27ZM130.26 156.57L124.15 156.57L124.15 152.27L130.26 152.27L130.26 156.57ZM148.71 159.19L141.9 159.19L141.9 152.44L148.71 152.44L148.71 159.19ZM230.04 152.62L234.94 152.62L234.94 154.56L230.04 154.56L230.04 152.62ZM195.14 158.16C196 156.69 196.84 155 197.67 153.1L196.67 152.64C195.96 154.33 195.13 156 194.18 157.66L195.14 158.16ZM186.78 155.47C187.23 156.49 187.58 157.33 187.83 157.97L188.81 157.53C188.55 156.89 188.19 156.06 187.73 155.04C187.27 154.02 186.9 153.24 186.63 152.71L185.71 153.12C185.97 153.66 186.33 154.44 186.78 155.47ZM307.95 160.61C303.76 159.17 300.57 157.3 298.39 155L297.32 155C296.24 156.09 294.87 157.13 293.2 158.13Q290.69 159.62 287.7 160.67L288.11 161.72C290.1 161.01 291.97 160.13 293.71 159.1C295.45 158.07 296.83 157.01 297.86 155.94C298.91 157.05 300.27 158.11 301.94 159.09C303.6 160.07 305.47 160.94 307.54 161.7L307.95 160.61ZM230.04 155.43L234.94 155.43L234.94 157.11L230.04 157.11L230.04 155.43ZM102.5 159.67Q103.03 162.17 103.31 164.01L104.42 163.73C104.22 162.48 103.94 161.02 103.59 159.36C103.24 157.7 102.94 156.42 102.67 155.52L101.58 155.74C101.84 156.68 102.15 157.99 102.5 159.67ZM111.3 168.49L111.3 167.37L105.9 167.37Q106.95 165 108.03 161.84C108.75 159.74 109.31 157.91 109.7 156.35L108.59 156.04C108.18 157.75 107.61 159.66 106.88 161.78C106.16 163.89 105.43 165.76 104.68 167.37L95.27 167.37L95.27 168.49L111.3 168.49ZM98 160.74Q98.85 163.4 99.31 165.26L100.38 164.88C100.06 163.66 99.61 162.17 99.04 160.42C98.46 158.67 97.98 157.29 97.59 156.29L96.56 156.61C96.96 157.59 97.43 158.96 98 160.74ZM68.63 157.13C67.94 156.68 67.13 156.46 66.2 156.46C65.27 156.46 64.41 156.69 63.63 157.16C62.85 157.62 62.23 158.29 61.78 159.17C61.32 160.06 61.09 161.09 61.09 162.29C61.09 163.52 61.32 164.59 61.8 165.5C62.27 166.4 62.91 167.09 63.71 167.56C64.51 168.03 65.4 168.27 66.37 168.27C67.26 168.27 68.07 168.07 68.81 167.68C69.54 167.28 70.06 166.73 70.37 166L69.41 165.45C69.12 166 68.71 166.42 68.19 166.7C67.68 166.97 67.09 167.11 66.44 167.11Q65.33 167.11 64.48 166.64Q63.98 166.36 63.57 165.91C62.83 165.11 62.43 163.96 62.38 162.46L70.72 162.46C70.76 162.13 70.78 161.8 70.78 161.5Q70.78 160.2 70.3 159.12Q70.26 159.04 70.22 158.96C69.85 158.19 69.32 157.59 68.63 157.13ZM314.87 165.5L317.64 167.72L318.19 166.87C317.72 166.49 316.72 165.73 315.18 164.58C315.29 164.19 315.36 163.78 315.37 163.36L319.17 163.36L319.17 162.39L315.42 162.39L315.5 159.58L318.56 159.58L318.56 158.64L312.91 158.64C313.18 158.05 313.38 157.55 313.52 157.16L312.62 156.85Q311.82 159.1 310.29 161.37L311.1 161.91C311.65 161.07 312.1 160.29 312.45 159.58L314.48 159.58C314.48 160.76 314.45 161.7 314.39 162.39L310.05 162.39L310.05 163.36L314.3 163.36C314.14 164.52 313.73 165.54 313.06 166.42C312.39 167.3 311.36 168.17 309.96 169.01L310.7 169.86C311.82 169.13 312.71 168.42 313.38 167.72C314.05 167.02 314.55 166.28 314.87 165.5ZM63.66 158.6C64.35 157.93 65.18 157.59 66.16 157.59C67.17 157.59 67.98 157.95 68.57 158.65C69.16 159.36 69.45 160.29 69.45 161.44L62.44 161.44C62.57 160.21 62.98 159.27 63.66 158.6ZM80.43 166.56C79.86 166.93 79.22 167.11 78.51 167.11C77.87 167.11 77.26 166.95 76.68 166.63C76.11 166.31 75.64 165.8 75.27 165.09C74.9 164.37 74.71 163.46 74.71 162.35C74.71 161.25 74.9 160.34 75.27 159.64C75.64 158.93 76.11 158.42 76.68 158.11C77.26 157.79 77.87 157.64 78.51 157.64C79.22 157.64 79.86 157.82 80.43 158.18Q80.5 158.23 80.56 158.27Q81.32 158.81 81.76 159.8C82.08 160.51 82.24 161.36 82.24 162.35C82.24 163.36 82.08 164.22 81.76 164.93C81.44 165.64 81 166.18 80.43 166.56ZM123.02 157.7L123.02 161.85L116.91 161.85C116.92 161.55 116.93 161.05 116.93 160.36L116.93 157.7L123.02 157.7ZM124.15 161.85L124.15 157.7L130.26 157.7L130.26 161.85L124.15 161.85ZM230.04 157.92L234.94 157.92L234.94 159.52L230.04 159.52L230.04 157.92ZM257.44 164.36C256.03 162.95 254.92 161.12 254.12 158.86L261 158.86C260.59 160.03 260.1 161.05 259.54 161.94C258.97 162.83 258.27 163.63 257.44 164.36ZM168.64 164.6C166.98 163.26 165.7 161.61 164.8 159.64L172.48 159.64C172.03 160.65 171.5 161.56 170.88 162.37C170.26 163.17 169.51 163.92 168.64 164.6ZM292.8 159.88L292.8 160.93L302.82 160.93L302.82 159.88L292.8 159.88ZM235.11 160.39C235.57 160.96 236.21 161.55 237.01 162.17L227.95 162.17C228.72 161.56 229.35 160.97 229.85 160.39L235.11 160.39ZM207.87 167.11L202.91 167.11L202.91 160.72L207.87 160.72L207.87 167.11ZM291.12 169.42L292.21 169.42L292.21 168.4L303.48 168.4L303.48 169.45L304.57 169.45L304.57 163.07L291.12 163.07L291.12 169.42ZM232.67 165.89C232.94 165.38 233.13 164.69 233.23 163.84L232.01 163.84C231.94 164.65 231.7 165.32 231.32 165.85C230.93 166.37 230.16 166.87 228.99 167.34C227.83 167.81 226.08 168.3 223.73 168.79L224.15 169.84C226.41 169.32 228.15 168.81 229.39 168.32C230.62 167.83 231.53 167.29 232.1 166.7Q238.29 168.92 240.59 169.84L241.02 168.82C239.48 168.25 236.92 167.35 233.34 166.13C232.95 165.98 232.72 165.9 232.67 165.89ZM303.48 164.12L303.48 167.41L292.21 167.41L292.21 164.12L303.48 164.12Z" fill="#FFFFFF" fill-opacity="1.000000" fill-rule="evenodd"/>
</svg>
