<svg width="20.000000" height="20.000000" viewBox="0 0 20 20" fill="none" xmlns="http://www.w3.org/2000/svg" xmlns:xlink="http://www.w3.org/1999/xlink">
	<desc>
			Created with Pixso.
	</desc>
	<defs>
		<clipPath id="clip25_9531">
			<rect id="word" rx="4.000000" width="20.000000" height="20.000000" fill="white" fill-opacity="0"/>
		</clipPath>
	</defs>
	<rect id="word" rx="4.000000" width="20.000000" height="20.000000" fill="#F0F0F0" fill-opacity="1.000000"/>
	<g clip-path="url(#clip25_9531)">
		<path id="8" d="M12.86 10.05Q12.49 9.66 11.97 9.42Q12.5 9.13 12.82 8.7Q12.87 8.62 12.92 8.54Q13 8.42 13.06 8.29Q13.26 7.84 13.26 7.29Q13.26 6.75 13.08 6.28Q13 6.09 12.89 5.9Q12.8 5.76 12.7 5.62Q12.35 5.19 11.82 4.92Q11.12 4.55 10.15 4.55Q9.19 4.55 8.46 4.92Q7.84 5.23 7.47 5.73Q7.41 5.82 7.35 5.92Q7.2 6.16 7.11 6.42Q6.96 6.83 6.96 7.29Q6.96 7.8 7.14 8.23Q7.21 8.39 7.31 8.55Q7.39 8.67 7.48 8.78Q7.8 9.17 8.29 9.42Q7.76 9.67 7.39 10.06Q7.2 10.25 7.06 10.47Q6.97 10.6 6.9 10.74Q6.61 11.33 6.61 12.07Q6.61 12.76 6.87 13.33Q6.94 13.5 7.04 13.67Q7.14 13.82 7.26 13.96Q7.66 14.46 8.28 14.77Q9.09 15.16 10.15 15.16Q11.2 15.16 11.99 14.77Q12.59 14.47 12.98 14Q13.11 13.84 13.22 13.67Q13.32 13.5 13.4 13.33Q13.65 12.76 13.65 12.07Q13.65 11.34 13.37 10.76Q13.29 10.61 13.2 10.47Q13.05 10.24 12.86 10.05ZM9.42 6.22Q9.73 6.05 10.15 6.05Q10.53 6.05 10.83 6.2Q10.85 6.21 10.87 6.22Q11.08 6.34 11.23 6.51Q11.3 6.6 11.36 6.7Q11.38 6.74 11.4 6.78Q11.53 7.05 11.53 7.38Q11.53 7.75 11.37 8.04Q11.28 8.19 11.15 8.33Q11.08 8.4 11 8.46Q10.66 8.7 10.15 8.7Q9.64 8.7 9.3 8.46Q9.22 8.4 9.15 8.33Q9.02 8.2 8.94 8.05Q8.78 7.76 8.78 7.38Q8.78 7.07 8.89 6.81Q8.92 6.75 8.95 6.69Q9.03 6.54 9.15 6.42Q9.27 6.3 9.42 6.22ZM11.01 13.39Q10.64 13.59 10.15 13.59Q9.66 13.59 9.28 13.39Q9.1 13.3 8.96 13.16Q8.8 13.01 8.69 12.82Q8.47 12.45 8.47 11.93Q8.47 11.41 8.68 11.03Q8.81 10.8 8.99 10.63Q9.12 10.52 9.27 10.44Q9.65 10.23 10.15 10.23Q10.66 10.23 11.03 10.45Q11.21 10.55 11.34 10.69Q11.5 10.84 11.6 11.03Q11.81 11.41 11.81 11.93Q11.81 12.43 11.59 12.81Q11.48 13.03 11.3 13.18Q11.17 13.3 11.01 13.39Z" fill="#595959" fill-opacity="1.000000" fill-rule="evenodd"/>
	</g>
</svg>
