<svg width="20.000000" height="20.000000" viewBox="0 0 20 20" fill="none" xmlns="http://www.w3.org/2000/svg" xmlns:xlink="http://www.w3.org/1999/xlink">
	<desc>
			Created with Pixso.
	</desc>
	<defs>
		<clipPath id="clip25_9519">
			<rect id="word" rx="4.000000" width="20.000000" height="20.000000" fill="white" fill-opacity="0"/>
		</clipPath>
	</defs>
	<rect id="word" rx="4.000000" width="20.000000" height="20.000000" fill="#F0F0F0" fill-opacity="1.000000"/>
	<g clip-path="url(#clip25_9519)">
		<path id="5" d="M11.59 8.61Q11.01 8.37 10.34 8.37Q9.96 8.37 9.62 8.45Q9.29 8.53 9.01 8.68L9.33 6.23L13.02 6.23L13.02 4.72L7.83 4.72L7.14 10.31L8.36 10.91Q8.69 10.34 9.19 10.1Q9.54 9.93 9.98 9.93Q10.53 9.93 10.9 10.18Q11.07 10.29 11.19 10.44Q11.35 10.62 11.45 10.85Q11.64 11.27 11.64 11.78Q11.64 12.28 11.45 12.69Q11.35 12.92 11.19 13.1Q11.06 13.24 10.9 13.34Q10.89 13.35 10.89 13.35Q10.52 13.58 10.01 13.58Q9.55 13.58 9.19 13.38Q9.08 13.33 8.98 13.25Q8.56 12.92 8.35 12.25L6.93 13.06Q7.18 13.82 7.68 14.31Q7.87 14.49 8.09 14.63Q8.18 14.69 8.27 14.74Q9.04 15.16 10.04 15.16Q10.73 15.16 11.35 14.94Q11.57 14.86 11.79 14.74Q12.18 14.53 12.49 14.24Q12.81 13.93 13.04 13.54Q13.5 12.76 13.5 11.7Q13.5 10.74 13.1 9.99Q13.09 9.98 13.08 9.97Q12.83 9.5 12.46 9.16Q12.23 8.95 11.95 8.79Q11.77 8.69 11.59 8.61Z" fill="#595959" fill-opacity="1.000000" fill-rule="evenodd"/>
	</g>
</svg>
