<svg width="20.000000" height="20.000000" viewBox="0 0 20 20" fill="none" xmlns="http://www.w3.org/2000/svg" xmlns:xlink="http://www.w3.org/1999/xlink">
	<desc>
			Created with Pixso.
	</desc>
	<defs>
		<clipPath id="clip25_9337">
			<rect id="最新动态" width="19.999998" height="20.000000" fill="white" fill-opacity="0"/>
		</clipPath>
	</defs>
	<g clip-path="url(#clip25_9337)">
		<path id="合并" d="M14.7644 1.66455C15.218 1.17139 15.9629 1.10242 16.4756 1.53198C17.2961 2.22144 18.2083 3.99268 18.1436 8.51086C18.1382 8.776 18.1382 9.04114 18.1436 9.30627C18.1543 10.3774 18.0571 13.8351 16.2812 15.2562C15.8118 15.6328 15.1531 15.6062 14.6943 15.2139C13.5933 14.2699 10.7161 12.4351 4.69751 12.1116C4.5896 12.1062 4.50317 12.0109 4.50317 11.8994L4.50317 11.3956L2.76514 11.3956C2.38721 11.3956 2.07959 11.0775 2.07959 10.6797L2.07959 7.34412C2.07959 6.95166 2.38721 6.62817 2.76514 6.62817L4.50317 6.62817L4.50317 6.19336C4.50317 6.08203 4.58423 5.98657 4.69214 5.9812C5.78784 5.90173 11.3638 5.33435 14.7644 1.66455ZM7.89697 13.7358L7.89697 13.7306C7.89697 13.72 7.8916 13.7094 7.8916 13.6987C7.83228 13.3223 7.88623 13.1154 7.88623 13.1154C7.38965 12.8556 5.71631 12.8025 5.71631 12.8025C5.71631 13.1526 5.79736 13.6245 5.8999 14.0699C5.9646 14.3934 6.07788 14.8495 6.26147 15.4064C6.26147 15.4116 6.26685 15.4169 6.26685 15.4169C6.58008 16.3556 7.09814 17.5593 7.95093 18.8162C8.16162 19.129 8.51245 19.3093 8.87939 19.2776C9.45703 19.2351 10.283 19.0813 10.4663 18.5616C10.4663 18.5616 10.666 18.0208 10.0669 17.326C9.86719 17.0184 8.25317 15.5919 7.89697 13.7358Z" clip-rule="evenodd" fill="#1476FF" fill-opacity="1.000000" fill-rule="evenodd"/>
	</g>
</svg>
