<svg width="28.000000" height="28.000000" viewBox="0 0 28 28" fill="none" xmlns="http://www.w3.org/2000/svg" xmlns:xlink="http://www.w3.org/1999/xlink">
	<desc>
			Created with Pixso.
	</desc>
	<defs>
		<radialGradient gradientTransform="translate(5.65705 3.86894) rotate(0) scale(27.2797 27.2797)" cx="0.000000" cy="0.000000" r="1.000000" id="paint_radial_26_9211_0" gradientUnits="userSpaceOnUse">
			<stop stop-color="#5AE681"/>
			<stop offset="1.000000" stop-color="#25C251"/>
		</radialGradient>
	</defs>
	<rect id="矩形备份-19" rx="14.000000" width="28.000000" height="28.000000" fill="url(#paint_radial_26_9211_0)" fill-opacity="1.000000"/>
	<rect id="矩形备份-19" rx="14.000000" width="28.000000" height="28.000000" stroke="#000000" stroke-opacity="0" stroke-width="0.583333"/>
	<path id="形状结合" d="M17.42 7.68C18.52 7.68 19.41 8.57 19.41 9.66L19.41 18.33C19.41 19.42 18.52 20.31 17.42 20.31L10.57 20.31C9.47 20.31 8.58 19.42 8.58 18.33L8.58 9.66C8.58 8.57 9.47 7.68 10.57 7.68L17.42 7.68ZM16.59 16.12L11.4 16.12C11.07 16.12 10.8 16.39 10.8 16.72C10.8 17.06 11.07 17.33 11.4 17.33L16.59 17.33C16.92 17.33 17.19 17.06 17.19 16.72C17.19 16.39 16.92 16.12 16.59 16.12ZM15.11 13.39L11.4 13.39C11.07 13.39 10.8 13.66 10.8 14C10.8 14.33 11.07 14.6 11.4 14.6L15.11 14.6C15.45 14.6 15.72 14.33 15.72 14C15.72 13.66 15.45 13.39 15.11 13.39ZM16.59 10.66L11.4 10.66C11.07 10.66 10.8 10.93 10.8 11.27C10.8 11.6 11.07 11.87 11.4 11.87L16.59 11.87C16.92 11.87 17.19 11.6 17.19 11.27C17.19 10.93 16.92 10.66 16.59 10.66Z" fill="#FFFFFF" fill-opacity="1.000000" fill-rule="evenodd"/>
	<path id="形状结合" d="M19.41 9.66L19.41 18.33C19.41 19.42 18.52 20.31 17.42 20.31L10.57 20.31C9.47 20.31 8.58 19.42 8.58 18.33L8.58 9.66C8.58 8.57 9.47 7.68 10.57 7.68L17.42 7.68C18.52 7.68 19.41 8.57 19.41 9.66ZM11.4 16.12C11.07 16.12 10.8 16.39 10.8 16.72C10.8 17.06 11.07 17.33 11.4 17.33L16.59 17.33C16.92 17.33 17.19 17.06 17.19 16.72C17.19 16.39 16.92 16.12 16.59 16.12L11.4 16.12ZM11.4 13.39C11.07 13.39 10.8 13.66 10.8 14C10.8 14.33 11.07 14.6 11.4 14.6L15.11 14.6C15.45 14.6 15.72 14.33 15.72 14C15.72 13.66 15.45 13.39 15.11 13.39L11.4 13.39ZM11.4 10.66C11.07 10.66 10.8 10.93 10.8 11.27C10.8 11.6 11.07 11.87 11.4 11.87L16.59 11.87C16.92 11.87 17.19 11.6 17.19 11.27C17.19 10.93 16.92 10.66 16.59 10.66L11.4 10.66Z" stroke="#000000" stroke-opacity="0" stroke-width="0.583333"/>
</svg>
