<svg width="25.250000" height="7.929993" viewBox="0 0 25.25 7.92999" fill="none" xmlns="http://www.w3.org/2000/svg" xmlns:xlink="http://www.w3.org/1999/xlink">
	<desc>
			Created with Pixso.
	</desc>
	<defs/>
	<path id="NEW_边框_" d="M5.3 4.38L6.06 0L8 0L6.62 7.91L5.03 7.91L2.68 3.52L1.92 7.91L0 7.91L1.37 0L2.95 0L5.3 4.38ZM13.86 1.85L14.12 0.34L14.18 0L8.85 0L7.46 7.91L12.9 7.91L13.25 6.04L9.84 6.04L10.05 4.83L13.01 4.83L13.32 2.97L10.37 2.97L10.57 1.85L13.86 1.85ZM21.21 4.16L23.13 0.01L25.25 0.01L21.37 7.92L19.81 7.92L19.21 3.85L17.24 7.92L15.66 7.92L14.5 0.01L16.57 0.01L17.1 4.16L19.04 0.01L20.65 0.01L21.21 4.16Z" fill="#F23030" fill-opacity="1.000000" fill-rule="nonzero"/>
</svg>
