<svg width="47.000000" height="48.001831" viewBox="0 0 47 48.0018" fill="none" xmlns="http://www.w3.org/2000/svg" xmlns:xlink="http://www.w3.org/1999/xlink">
	<desc>
			Created with Pixso.
	</desc>
	<defs/>
	<rect id="矩形备份 5" rx="8.000000" width="47.000000" height="48.001820" fill="#5F5AF8" fill-opacity="1.000000"/>
	<path id="矩形备份 6" d="M23 20C25.2 20 27 21.79 27 24C27 26.2 25.2 28 23 28C20.79 28 19 26.2 19 24C19 21.79 20.79 20 23 20Z" fill="#FFFFFF" fill-opacity="1.000000" fill-rule="evenodd"/>
	<path id="矩形备份 16" d="M36 20C38.2 20 40 21.79 40 24C40 26.2 38.2 28 36 28C33.79 28 32 26.2 32 24C32 21.79 33.79 20 36 20Z" fill="#FFFFFF" fill-opacity="1.000000" fill-rule="evenodd"/>
	<path id="矩形备份 15" d="M10 20C12.2 20 14 21.79 14 24C14 26.2 12.2 28 10 28C7.79 28 6 26.2 6 24C6 21.79 7.79 20 10 20Z" fill="#FFFFFF" fill-opacity="1.000000" fill-rule="evenodd"/>
</svg>
