<svg width="16.000000" height="16.000000" viewBox="0 0 16 16" fill="none" xmlns="http://www.w3.org/2000/svg" xmlns:xlink="http://www.w3.org/1999/xlink">
	<desc>
			Created with Pixso.
	</desc>
	<defs/>
	<mask id="mask34_9198" mask-type="alpha" maskUnits="userSpaceOnUse" x="0.000000" y="0.000000" width="16.000000" height="16.000000">
		<path id="path-1" d="M16 0L16 16L0 16L0 0L16 0ZM10.43 1L3.27 1C2.26 1 1.43 1.82 1.43 2.83L1.43 13.78C1.43 14.8 2.26 15.62 3.27 15.62L11.49 15.62C12.51 15.62 13.33 14.8 13.33 13.78L13.33 3.89C13.33 2.29 12.03 1 10.43 1Z" fill="#FFFFFF" fill-opacity="1.000000" fill-rule="nonzero"/>
	</mask>
	<g mask="url(#mask34_9198)">
		<path id="path5" d="M10.66 0.66C11.49 0.66 12.24 1 12.78 1.54C13.33 2.08 13.66 2.83 13.66 3.66L13.66 10.66C13.66 11.49 13.33 12.24 12.78 12.78C12.24 13.33 11.49 13.66 10.66 13.66L6.66 13.66C5.83 13.66 5.08 13.33 4.54 12.78C4 12.24 3.66 11.49 3.66 10.66L3.66 3.66C3.66 2.83 4 2.08 4.54 1.54C5.08 1 5.83 0.66 6.66 0.66L10.66 0.66Z" fill="#000000" fill-opacity="0" fill-rule="evenodd"/>
		<path id="path5" d="M12.78 1.54C13.33 2.08 13.66 2.83 13.66 3.66L13.66 10.66C13.66 11.49 13.33 12.24 12.78 12.78C12.24 13.33 11.49 13.66 10.66 13.66L6.66 13.66C5.83 13.66 5.08 13.33 4.54 12.78C4 12.24 3.66 11.49 3.66 10.66L3.66 3.66C3.66 2.83 4 2.08 4.54 1.54C5.08 1 5.83 0.66 6.66 0.66L10.66 0.66C11.49 0.66 12.24 1 12.78 1.54Z" stroke="#808080" stroke-opacity="1.000000" stroke-width="1.000000"/>
	</g>
	<path id="path6" d="M4.13 2L10.19 2C11.37 2 12.33 2.94 12.33 4.1L12.33 13.22C12.33 14.39 11.37 15.33 10.19 15.33L4.13 15.33C2.95 15.33 2 14.39 2 13.22L2 4.1C2 2.94 2.95 2 4.13 2Z" fill="#FFFFFF" fill-opacity="0" fill-rule="evenodd"/>
	<path id="path6" d="M10.19 2C11.37 2 12.33 2.94 12.33 4.1L12.33 13.22C12.33 14.39 11.37 15.33 10.19 15.33L4.13 15.33C2.95 15.33 2 14.39 2 13.22L2 4.1C2 2.94 2.95 2 4.13 2L10.19 2Z" stroke="#808080" stroke-opacity="1.000000" stroke-width="1.000000" stroke-linejoin="round"/>
	<path id="path7" d="M5.02 10.94L5 10.96C4.71 10.96 4.5 10.74 4.5 10.46C4.5 10.18 4.71 9.96 5 9.96L5.02 9.98L5.02 10.94ZM9.31 9.98L9.33 9.96C9.61 9.96 9.83 10.18 9.83 10.46C9.83 10.74 9.61 10.96 9.33 10.96L9.31 10.94L9.31 9.98ZM5.02 7.68L5 7.7C4.71 7.7 4.5 7.48 4.5 7.2C4.5 6.92 4.71 6.7 5 6.7L5.02 6.72L5.02 7.68ZM9.31 6.72L9.33 6.7C9.61 6.7 9.83 6.92 9.83 7.2C9.83 7.48 9.61 7.7 9.33 7.7L9.31 7.68L9.31 6.72Z" fill="#000000" fill-opacity="0" fill-rule="nonzero"/>
	<path id="path7" d="M5 10.46L9.33 10.46M5 7.2L9.33 7.2" stroke="#808080" stroke-opacity="1.000000" stroke-width="1.000000" stroke-linejoin="round" stroke-linecap="round"/>
</svg>
