<svg width="20.000000" height="20.000000" viewBox="0 0 20 20" fill="none" xmlns="http://www.w3.org/2000/svg" xmlns:xlink="http://www.w3.org/1999/xlink">
	<desc>
			Created with Pixso.
	</desc>
	<defs>
		<clipPath id="clip25_9507">
			<rect id="word" rx="4.000000" width="20.000000" height="20.000000" fill="white" fill-opacity="0"/>
		</clipPath>
	</defs>
	<rect id="word" rx="4.000000" width="20.000000" height="20.000000" fill="#D94838" fill-opacity="1.000000"/>
	<g clip-path="url(#clip25_9507)">
		<path id="2" d="M9.29 13.45L11.25 11.27Q12.35 10.07 12.79 9.28Q13.01 8.88 13.12 8.45Q13.22 8.04 13.22 7.6Q13.22 6.71 12.84 6.03Q12.83 6.01 12.83 6Q12.64 5.67 12.38 5.41Q12.1 5.13 11.73 4.93Q11.02 4.55 10.1 4.55Q9.39 4.55 8.77 4.78Q8.35 4.94 7.97 5.21Q7.71 5.39 7.5 5.61Q6.94 6.2 6.68 7.09L8.08 7.88Q8.32 7.07 8.81 6.62Q9.11 6.34 9.46 6.23Q9.7 6.16 9.96 6.16Q10.34 6.16 10.63 6.32Q10.82 6.42 10.96 6.57Q11.02 6.64 11.07 6.7Q11.36 7.09 11.36 7.69Q11.36 7.88 11.32 8.07Q11.25 8.46 11.03 8.83Q10.7 9.37 9.86 10.31L6.68 13.86L6.68 15L13.57 15L13.57 13.45L9.29 13.45Z" fill="#FFFFFF" fill-opacity="1.000000" fill-rule="evenodd"/>
	</g>
</svg>
