<svg width="20.000000" height="20.000000" viewBox="0 0 20 20" fill="none" xmlns="http://www.w3.org/2000/svg" xmlns:xlink="http://www.w3.org/1999/xlink">
	<desc>
			Created with Pixso.
	</desc>
	<defs>
		<clipPath id="clip25_9523">
			<rect id="word" rx="4.000000" width="20.000000" height="20.000000" fill="white" fill-opacity="0"/>
		</clipPath>
	</defs>
	<rect id="word" rx="4.000000" width="20.000000" height="20.000000" fill="#F0F0F0" fill-opacity="1.000000"/>
	<g clip-path="url(#clip25_9523)">
		<path id="6" d="M12.01 8.85Q11.35 8.51 10.52 8.51Q10.07 8.51 9.69 8.62L9.84 8.4Q9.93 8.29 10.17 7.94L12.2 4.73L10.26 4.73L7.98 8.42Q7.27 9.55 6.98 10.24Q6.94 10.35 6.9 10.46Q6.7 11.05 6.7 11.7Q6.7 12.55 7.02 13.24Q7.08 13.38 7.16 13.5Q7.4 13.92 7.74 14.24Q8.04 14.52 8.41 14.73Q8.53 14.79 8.65 14.84Q9.36 15.16 10.21 15.16Q10.9 15.16 11.51 14.94Q11.75 14.85 11.99 14.73Q12.45 14.48 12.8 14.12Q13.06 13.85 13.26 13.52Q13.38 13.32 13.47 13.11Q13.72 12.49 13.72 11.78Q13.72 11.02 13.45 10.38Q13.39 10.24 13.32 10.1Q13.09 9.68 12.76 9.36Q12.5 9.12 12.18 8.93Q12.1 8.89 12.01 8.85ZM11.03 13.37Q10.68 13.58 10.2 13.58Q9.74 13.58 9.39 13.39Q9.36 13.37 9.33 13.36Q9.2 13.28 9.08 13.17Q8.89 12.99 8.75 12.74Q8.54 12.34 8.54 11.82Q8.54 11.3 8.74 10.89Q8.87 10.64 9.07 10.45Q9.19 10.35 9.32 10.26Q9.37 10.24 9.42 10.21Q9.77 10.04 10.2 10.04Q10.69 10.04 11.05 10.25Q11.06 10.26 11.07 10.26Q11.22 10.35 11.34 10.47Q11.52 10.65 11.64 10.89Q11.85 11.29 11.85 11.8Q11.85 12.32 11.64 12.72Q11.53 12.94 11.37 13.11Q11.24 13.25 11.07 13.35Q11.05 13.36 11.03 13.37Z" fill="#595959" fill-opacity="1.000000" fill-rule="evenodd"/>
	</g>
</svg>
