<svg width="80.000000" height="24.000000" viewBox="0 0 80 24" fill="none" xmlns="http://www.w3.org/2000/svg" xmlns:xlink="http://www.w3.org/1999/xlink">
	<desc>
			Created with Pixso.
	</desc>
	<defs/>
	<path id="类型=文字,颜色=橙,圆角=8px,尺寸=默认尺寸" d="M0 0L72 0C76.41 0 80 3.58 80 8L80 24L8 24C3.58 24 0 20.41 0 16L0 0Z" fill="#FFEBD1" fill-opacity="1.000000" fill-rule="evenodd"/>
	<path id="敬请等待" d="M49.33 7.39L48.51 7.39C48.27 7.87 48 8.29 47.72 8.68L46.88 8.15C47.5 7.34 47.93 6.45 48.21 5.47L49.17 5.67C49.08 5.96 48.98 6.26 48.89 6.54L52.92 6.54L52.92 7.39L50.38 7.39C50.76 7.88 51.06 8.34 51.26 8.76L50.4 9.09C50.1 8.5 49.75 7.94 49.33 7.39ZM54.53 9.01C55.87 7.98 56.84 6.8 57.45 5.47L58.34 5.88C57.61 7.42 56.45 8.79 54.82 9.98L54.53 9.01ZM19.32 11.49C20.18 10.01 20.79 8.01 21.09 5.49L22.07 5.67C21.98 6.38 21.85 7.06 21.71 7.7L25.25 7.7L25.25 8.67L24.33 8.67C24.27 10.99 23.85 12.96 23.1 14.62C23.78 15.85 24.59 16.81 25.55 17.48L24.96 18.37C24.04 17.67 23.25 16.74 22.59 15.58C21.91 16.7 21.04 17.65 19.98 18.42L19.42 17.54C20.54 16.77 21.42 15.78 22.06 14.57C21.53 13.47 21.09 12.21 20.73 10.78C20.48 11.32 20.21 11.81 19.93 12.26L19.32 11.49ZM43.38 7.43L42.82 7.43C42.49 8.08 42.09 8.68 41.66 9.21L40.79 8.67C41.6 7.7 42.21 6.64 42.59 5.49L43.54 5.7C43.43 6.01 43.33 6.3 43.21 6.58L46.8 6.58L46.8 7.43L44.43 7.43C44.8 7.92 45.09 8.37 45.31 8.79L44.4 9.13C44.12 8.54 43.78 7.98 43.38 7.43ZM14.45 6.69L14.45 5.53L15.4 5.53L15.4 6.69L17.4 6.69L17.4 5.54L18.35 5.54L18.35 6.69L19.89 6.69L19.89 7.64L18.35 7.64L18.35 8.85L17.4 8.85L17.4 7.64L15.4 7.64L15.4 8.64L14.45 8.64L14.45 7.64L12.72 7.64L12.72 6.69L14.45 6.69ZM62.69 7.06L62.69 5.53L63.65 5.53L63.65 7.06L66.81 7.06L66.81 7.96L63.65 7.96L63.65 9.71L67.38 9.71L67.38 10.64L59.04 10.64L59.04 9.71L62.69 9.71L62.69 7.96L59.57 7.96L59.57 7.06L62.69 7.06ZM34.59 6.47L34.59 5.56L35.56 5.56L35.56 6.47L39.03 6.47L39.03 7.29L35.56 7.29L35.56 8.23L38.53 8.23L38.53 9.04L35.56 9.04L35.56 10L39.38 10L39.38 10.84L30.81 10.84L30.81 10L34.59 10L34.59 9.04L31.76 9.04L31.76 8.23L34.59 8.23L34.59 7.29L31.2 7.29L31.2 6.47L34.59 6.47ZM27.56 6.4L28.28 5.71C29.21 6.41 30 7.12 30.64 7.84L29.96 8.54C29.37 7.87 28.57 7.15 27.56 6.4ZM22.54 13.51C23.07 12.12 23.36 10.51 23.42 8.67L21.47 8.67C21.4 8.9 21.33 9.14 21.26 9.37C21.59 10.96 22.01 12.33 22.54 13.51ZM54.65 12.88C56.17 11.66 57.27 10.26 57.97 8.69L58.84 9.1C58.5 9.85 58.08 10.57 57.58 11.24L57.58 18.32L56.61 18.32L56.61 12.36C56.11 12.89 55.55 13.38 54.95 13.84L54.65 12.88ZM13.56 15.99L13.56 12.21C13.41 12.4 13.26 12.6 13.12 12.77L12.47 12C13.2 11.17 13.8 10.09 14.26 8.75L15.23 8.96C15.15 9.2 15.05 9.43 14.96 9.66L19.11 9.66C19.11 13.47 19.04 15.81 18.91 16.7C18.79 17.76 18.2 18.3 17.13 18.3C16.87 18.3 16.42 18.27 15.78 18.24L15.55 17.34C16.11 17.37 16.59 17.4 17.01 17.4C17.57 17.4 17.89 17.04 17.99 16.31C18.09 15.69 18.14 13.78 18.17 10.58L14.56 10.58C14.31 11.09 14.03 11.55 13.73 11.97L16.91 11.97L16.91 15.99L13.56 15.99ZM42.32 10.57L42.32 9.69L46.49 9.69L46.49 8.81L47.5 8.81L47.5 9.69L51.62 9.69L51.62 10.57L47.5 10.57L47.5 11.93L53.21 11.93L53.21 12.81L50.51 12.81L50.51 14.15L52.61 14.15L52.61 15.04L50.51 15.04L50.51 17.23C50.51 18 50.09 18.4 49.26 18.4L47.23 18.4L47.02 17.44C47.7 17.48 48.32 17.51 48.91 17.51C49.31 17.51 49.5 17.33 49.5 17L49.5 15.04L41.59 15.04L41.59 14.15L49.5 14.15L49.5 12.81L40.76 12.81L40.76 11.93L46.49 11.93L46.49 10.57L42.32 10.57ZM26.58 10.81L26.58 9.84L29.55 9.84L29.55 15.99C29.97 15.59 30.4 15.16 30.88 14.67L31.15 15.73C30.36 16.55 29.52 17.28 28.65 17.9L28.26 17.01C28.47 16.81 28.59 16.6 28.59 16.37L28.59 10.81L26.58 10.81ZM59.1 13.29L59.1 12.35L64.54 12.35L64.54 11.31L65.54 11.31L65.54 12.35L67.18 12.35L67.18 13.29L65.54 13.29L65.54 16.88C65.54 17.79 65.08 18.26 64.19 18.26L62.2 18.26L61.98 17.29C62.62 17.33 63.25 17.36 63.84 17.36C64.3 17.36 64.54 17.11 64.54 16.63L64.54 13.29L59.1 13.29ZM37.36 16.17L32.84 16.17L32.84 18.4L31.87 18.4L31.87 11.72L38.33 11.72L38.33 17.18C38.33 17.93 37.92 18.31 37.14 18.31L35.96 18.31L35.73 17.42L36.84 17.46C37.18 17.46 37.36 17.29 37.36 16.97L37.36 16.17ZM32.84 13.58L37.36 13.58L37.36 12.54L32.84 12.54L32.84 13.58ZM14.43 15.12L16.03 15.12L16.03 12.81L14.43 12.81L14.43 15.12ZM59.97 14.32L60.76 13.83C61.54 14.63 62.14 15.33 62.56 15.92L61.78 16.48C61.33 15.83 60.73 15.1 59.97 14.32ZM37.36 14.36L32.84 14.36L32.84 15.39L37.36 15.39L37.36 14.36ZM43.15 15.93L43.96 15.43C44.71 16.15 45.29 16.81 45.68 17.37L44.9 17.92C44.46 17.32 43.87 16.66 43.15 15.93Z" fill="#D96900" fill-opacity="1.000000" fill-rule="evenodd"/>
</svg>
