<svg width="20.000000" height="20.000000" viewBox="0 0 20 20" fill="none" xmlns="http://www.w3.org/2000/svg" xmlns:xlink="http://www.w3.org/1999/xlink">
	<desc>
			Created with Pixso.
	</desc>
	<defs>
		<clipPath id="clip25_9511">
			<rect id="word" rx="4.000000" width="20.000000" height="20.000000" fill="white" fill-opacity="0"/>
		</clipPath>
	</defs>
	<rect id="word" rx="4.000000" width="20.000000" height="20.000000" fill="#D94838" fill-opacity="1.000000"/>
	<g clip-path="url(#clip25_9511)">
		<path id="3" d="M13.01 10.48Q12.56 9.89 11.73 9.6Q12.36 9.32 12.71 8.84Q12.76 8.77 12.8 8.7Q12.85 8.63 12.88 8.56Q13.16 8.03 13.16 7.35Q13.16 6.63 12.87 6.06Q12.83 5.98 12.78 5.9Q12.67 5.72 12.54 5.57Q12.2 5.17 11.68 4.92Q10.96 4.56 10.04 4.56Q9 4.56 8.21 5Q8.07 5.08 7.93 5.17Q7.72 5.31 7.54 5.48Q6.96 6.04 6.7 6.93L8.05 7.71Q8.31 6.96 8.77 6.55Q8.95 6.4 9.15 6.3Q9.49 6.15 9.9 6.15Q10.39 6.15 10.74 6.37Q10.83 6.43 10.91 6.5Q11.01 6.59 11.09 6.71Q11.3 7.01 11.3 7.46Q11.3 7.8 11.17 8.08Q11.05 8.33 10.83 8.54Q10.36 8.96 9.48 8.96L8.96 8.96L8.95 10.45L9.34 10.45Q10.5 10.45 11.08 10.85Q11.3 11 11.43 11.21Q11.65 11.54 11.65 12.01Q11.65 12.47 11.45 12.82Q11.44 12.84 11.43 12.86Q11.31 13.05 11.14 13.19Q11 13.32 10.83 13.4Q10.46 13.58 10 13.58Q9.71 13.58 9.45 13.51Q9.09 13.42 8.76 13.19Q8.66 13.12 8.56 13.03Q8.15 12.66 7.95 12.04L6.56 12.84Q6.79 13.56 7.26 14.07Q7.52 14.35 7.86 14.57Q8.07 14.7 8.29 14.8Q9.08 15.16 10.03 15.16Q10.99 15.16 11.78 14.81Q12.31 14.57 12.7 14.18Q12.89 13.99 13.04 13.76Q13.11 13.67 13.16 13.58Q13.51 12.95 13.51 12.12Q13.51 11.23 13.1 10.61Q13.08 10.58 13.06 10.55Q13.04 10.51 13.01 10.48Z" fill="#FFFFFF" fill-opacity="1.000000" fill-rule="evenodd"/>
	</g>
</svg>
