<svg width="48.000000" height="47.573364" viewBox="0 0 48 47.5734" fill="none" xmlns="http://www.w3.org/2000/svg" xmlns:xlink="http://www.w3.org/1999/xlink">
	<desc>
			Created with Pixso.
	</desc>
	<defs>
		<linearGradient x1="34.439590" y1="20.917498" x2="23.863447" y2="28.426086" id="paint_linear_25_9597_0" gradientUnits="userSpaceOnUse">
			<stop stop-color="#000000" stop-opacity="0.000000"/>
			<stop offset="1.000000" stop-color="#000000"/>
		</linearGradient>
		<linearGradient x1="40.010239" y1="35.768791" x2="14.206524" y2="31.891081" id="paint_linear_25_9598_0" gradientUnits="userSpaceOnUse">
			<stop stop-color="#FFFFFF" stop-opacity="0.905882"/>
			<stop offset="0.583061" stop-color="#FFFFFF" stop-opacity="0.800000"/>
			<stop offset="1.000000" stop-color="#FFFFFF"/>
		</linearGradient>
	</defs>
	<rect id="矩形备份" rx="8.000000" width="48.000000" height="47.573334" fill="#5F5AF8" fill-opacity="1.000000"/>
	<g style="mix-blend-mode:soft-light">
		<path id="路径 41" d="M22.46 27.38C24.26 31.06 28.24 36.53 31.97 29C32.45 28.03 35.25 22.64 35.92 21.28C41.81 9.18 31.44 14.04 28.38 20.12C27.83 21.21 25.18 26.64 24.7 27.47C24.04 28.61 22.85 28.21 22.46 27.38Z" fill="url(#paint_linear_25_9597_0)" fill-opacity="1.000000" fill-rule="evenodd"/>
	</g>
	<path id="减去顶层" d="M9.8291 18.2946L18.248 34.9828C20.4661 39.3795 26.7439 39.3795 28.9619 34.9828L37.3809 18.2946C38.5867 15.9045 36.8494 13.0825 34.1724 13.0825C32.8159 13.0825 31.575 13.8464 30.9641 15.0575L24.6763 27.5213C24.2327 28.4006 22.9773 28.4006 22.5337 27.5213L16.2458 15.0575C15.6348 13.8464 14.394 13.0825 13.0376 13.0825C10.3606 13.0825 8.62329 15.9045 9.8291 18.2946Z" clip-rule="evenodd" fill="url(#paint_linear_25_9598_0)" fill-opacity="1.000000" fill-rule="evenodd"/>
</svg>
