<svg width="16.000000" height="16.000000" viewBox="0 0 16 16" fill="none" xmlns="http://www.w3.org/2000/svg" xmlns:xlink="http://www.w3.org/1999/xlink">
	<desc>
			Created with Pixso.
	</desc>
	<defs>
		<clipPath id="clip25_9621">
			<rect id="word" width="16.000000" height="16.000000" fill="white" fill-opacity="0"/>
		</clipPath>
	</defs>
	<g clip-path="url(#clip25_9621)">
		<path id="path" d="M10.05 1.72L13.27 4.94C13.33 5 13.39 5.07 13.44 5.14C13.49 5.21 13.53 5.29 13.56 5.37C13.59 5.45 13.62 5.53 13.64 5.62C13.65 5.71 13.66 5.79 13.66 5.88L13.66 12.66C13.66 12.73 13.66 12.79 13.65 12.86C13.65 12.92 13.64 12.99 13.62 13.05C13.61 13.12 13.59 13.18 13.58 13.24C13.56 13.3 13.53 13.37 13.51 13.43C13.48 13.49 13.46 13.55 13.43 13.6C13.39 13.66 13.36 13.72 13.32 13.77C13.29 13.83 13.25 13.88 13.21 13.93C13.17 13.98 13.12 14.03 13.08 14.08C13.03 14.12 12.98 14.17 12.93 14.21C12.88 14.25 12.83 14.29 12.77 14.32C12.72 14.36 12.66 14.39 12.6 14.43C12.55 14.46 12.49 14.48 12.43 14.51C12.37 14.53 12.3 14.56 12.24 14.58C12.18 14.59 12.12 14.61 12.05 14.62C11.99 14.64 11.92 14.65 11.86 14.65C11.79 14.66 11.73 14.66 11.66 14.66L4.33 14.66C4.26 14.66 4.2 14.66 4.13 14.65C4.07 14.65 4 14.64 3.94 14.62C3.87 14.61 3.81 14.59 3.75 14.58C3.68 14.56 3.62 14.53 3.56 14.51C3.5 14.48 3.44 14.46 3.39 14.43C3.33 14.39 3.27 14.36 3.22 14.32C3.16 14.29 3.11 14.25 3.06 14.21C3.01 14.17 2.96 14.12 2.91 14.08C2.87 14.03 2.82 13.98 2.78 13.93C2.74 13.88 2.7 13.83 2.67 13.77C2.63 13.72 2.6 13.66 2.56 13.6C2.53 13.55 2.51 13.49 2.48 13.43C2.46 13.37 2.43 13.3 2.41 13.24C2.4 13.18 2.38 13.12 2.37 13.05C2.35 12.99 2.34 12.92 2.34 12.86C2.33 12.79 2.33 12.73 2.33 12.66L2.33 3.33C2.33 3.26 2.33 3.2 2.34 3.13C2.34 3.07 2.35 3 2.37 2.94C2.38 2.87 2.4 2.81 2.41 2.75C2.43 2.69 2.46 2.62 2.48 2.56C2.51 2.5 2.53 2.44 2.56 2.39C2.6 2.33 2.63 2.27 2.67 2.22C2.7 2.16 2.74 2.11 2.78 2.06C2.82 2.01 2.87 1.96 2.91 1.91C2.96 1.87 3.01 1.82 3.06 1.78C3.11 1.74 3.16 1.7 3.22 1.67C3.27 1.63 3.33 1.6 3.39 1.56C3.44 1.53 3.5 1.51 3.56 1.48C3.62 1.46 3.68 1.43 3.75 1.41C3.81 1.4 3.87 1.38 3.94 1.37C4 1.35 4.07 1.34 4.13 1.34C4.2 1.33 4.26 1.33 4.33 1.33L9.11 1.33C9.2 1.33 9.28 1.34 9.37 1.35C9.46 1.37 9.54 1.4 9.62 1.43C9.7 1.46 9.78 1.5 9.85 1.55C9.92 1.6 9.99 1.66 10.05 1.72Z" fill="#808080" fill-opacity="1.000000" fill-rule="nonzero"/>
		<path id="path" d="M7.25 10.65L7.82 7.89L7.99 6.98L8.15 7.89L8.72 10.65L9.67 10.65L11 5.93L9.99 5.93L9.36 8.66L9.22 9.39L9.07 8.63L8.51 5.93L7.47 5.93L6.94 8.65L6.8 9.39L6.67 8.63L6.04 5.93L5 5.93L6.33 10.65L7.25 10.65Z" fill="#FFFFFF" fill-opacity="1.000000" fill-rule="nonzero"/>
	</g>
</svg>
