<svg viewBox="0 0 64 64" xmlns="http://www.w3.org/2000/svg" xmlns:xlink="http://www.w3.org/1999/xlink" width="64.000000" height="64.000000" fill="none">
	<defs>
		<linearGradient id="paint_linear_3" x1="0" x2="63.9999924" y1="0" y2="63.9999924" gradientUnits="userSpaceOnUse">
			<stop stop-color="rgb(68,154,255)" offset="0.00499924878" stop-opacity="1" />
			<stop stop-color="rgb(20,118,255)" offset="0.501534343" stop-opacity="1" />
			<stop stop-color="rgb(53,137,255)" offset="1" stop-opacity="1" />
		</linearGradient>
	</defs>
	<rect id="ad3_高低代码混合开发" width="64.000000" height="64.000000" x="0.000000" y="0.000000" fill="rgb(255,255,255)" fill-opacity="0" />
	<g id="组合 16811">
		<rect id="矩形备份-19" width="64.000000" height="64.000000" x="0.000000" y="0.000000" rx="16.000000" fill="url(#paint_linear_3)" />
		<path id="矢量 1248" d="M45 21C45 18.2383 42.7617 16 40 16L19 16C16.2383 16 14 18.2383 14 21L14 36C14 38.7617 16.2383 41 19 41L21 41L21 44.1992C21 46.1875 22.6133 47.8008 24.6016 47.8008L47.3984 47.8008C49.3867 47.8008 51 46.1875 51 44.1992L51 27.4023C51 25.4141 49.3867 23.8008 47.3984 23.8008L45 23.8008L45 21ZM42 23.8008L42 21C42 20.8281 41.9805 20.6602 41.9375 20.4961C41.9141 20.4023 41.8828 20.3125 41.8438 20.2227C41.8008 20.1211 41.75 20.0234 41.6914 19.9336C41.6133 19.8086 41.5195 19.6914 41.4141 19.5859C41.3086 19.4805 41.1914 19.3867 41.0664 19.3086C40.9766 19.25 40.8789 19.1992 40.7773 19.1562C40.6875 19.1172 40.5977 19.0859 40.5039 19.0625C40.3398 19.0195 40.1719 19 40 19L19 19C18.8281 19 18.6602 19.0195 18.4961 19.0625C18.4023 19.0859 18.3125 19.1172 18.2227 19.1562C18.1211 19.1992 18.0234 19.25 17.9336 19.3086C17.8086 19.3867 17.6914 19.4805 17.5859 19.5859C17.4805 19.6914 17.3867 19.8086 17.3086 19.9336C17.25 20.0234 17.1992 20.1211 17.1562 20.2227C17.1172 20.3125 17.0859 20.4023 17.0625 20.4961C17.0195 20.6602 17 20.8281 17 21L17 36C17 36.1719 17.0195 36.3398 17.0625 36.5039C17.0859 36.5977 17.1172 36.6875 17.1562 36.7773C17.1992 36.8789 17.25 36.9766 17.3086 37.0664C17.3867 37.1914 17.4805 37.3086 17.5859 37.4141C17.6914 37.5195 17.8086 37.6133 17.9336 37.6914C18.0234 37.75 18.1211 37.8008 18.2227 37.8438C18.3125 37.8828 18.4023 37.9141 18.4961 37.9375L18.5 37.9375C18.6602 37.9805 18.8281 38 19 38L21 38L21 27.4023C21 25.4141 22.6133 23.8008 24.6016 23.8008L42 23.8008ZM35.6445 41.1484L38.6562 31.1094C38.8516 30.4648 38.4961 29.8086 37.8516 29.6133C37.207 29.4219 36.5508 29.7734 36.3594 30.418L33.3477 40.457C33.1523 41.1016 33.5078 41.7578 34.1523 41.9531C34.7969 42.1445 35.4531 41.7891 35.6445 41.1484ZM40.7227 32.6172L43.8555 35.7383L40.3203 38.9062C39.8203 39.3555 39.7812 40.1016 40.2266 40.6016C40.6758 41.1016 41.4219 41.1406 41.9219 40.6914L46.2461 36.8203C46.3203 36.7539 46.3828 36.6797 46.4414 36.6016C46.4961 36.5234 46.5469 36.4414 46.5859 36.3555C46.625 36.2695 46.6523 36.1797 46.6758 36.0938C46.6953 36 46.707 35.9102 46.7109 35.8125C46.7109 35.7188 46.707 35.625 46.6875 35.5312C46.6719 35.4414 46.6484 35.3555 46.6133 35.2656C46.5781 35.1758 46.5352 35.0938 46.4844 35.0117C46.4297 34.9297 46.3672 34.8555 46.2969 34.7852L42.418 30.918C41.9414 30.4453 41.1953 30.4453 40.7188 30.9219C40.2461 31.3984 40.2461 32.1445 40.7227 32.6172ZM28.1484 35.7422L31.2812 32.625C31.7578 32.1484 31.7578 31.4023 31.2852 30.9258C30.8086 30.4492 30.0625 30.4492 29.5859 30.9219L25.707 34.7891C25.6328 34.8594 25.5742 34.9336 25.5195 35.0156C25.4688 35.0977 25.4258 35.1797 25.3906 35.2695C25.3555 35.3594 25.3281 35.4453 25.3125 35.5352C25.2969 35.6289 25.2891 35.7227 25.293 35.8164C25.2969 35.9141 25.3086 36.0039 25.3281 36.0977C25.3477 36.1875 25.3789 36.2734 25.418 36.3594C25.457 36.4453 25.5039 36.5273 25.5625 36.6055C25.6172 36.6836 25.6836 36.7578 25.7578 36.8242L30.082 40.6953C30.582 41.1445 31.3242 41.1055 31.7734 40.6055C32.2227 40.1055 32.1836 39.3594 31.6836 38.9102L28.1484 35.7422Z" fill="rgb(255,255,255)" fill-rule="evenodd" />
	</g>
</svg>
