<?xml version="1.0" encoding="UTF-8"?>
<svg width="25px" height="25px" viewBox="0 0 25 25" version="1.1" xmlns="http://www.w3.org/2000/svg" xmlns:xlink="http://www.w3.org/1999/xlink">
    <title>angular</title>
    <g id="页面-1" stroke="none" stroke-width="1" fill="none" fill-rule="evenodd">
        <g id="Tiny-Design-首页" transform="translate(-379.000000, -384.000000)" fill-rule="nonzero">
            <g id="angular" transform="translate(379.045455, 384.444444)">
                <g id="编组-32" transform="translate(0.999074, 0.000000)">
                    <g id="编组-3">
                        <polygon id="路径" fill="#FCFDFF" points="10.9898148 0 10.9898148 0 10.9898148 0 0 3.984 1.67621236 18.756 10.9898148 24 10.9898148 24 10.9898148 24 20.3034173 18.756 21.9796296 3.984"></polygon>
                        <polygon id="路径" fill="#BFCEFF" points="10.9898148 0 10.9898148 2.664 10.9898148 2.652 10.9898148 14.808 10.9898148 14.808 10.9898148 24 10.9898148 24 20.3034173 18.756 21.9796296 3.984"></polygon>
                    </g>
                    <path d="M11.0016369,3.13043478 L4.12118056,18.7826087 L4.12118056,18.7826087 L6.68657407,18.7826087 L6.68657407,18.7826087 L8.0697586,15.2803598 L13.909871,15.2803598 L15.2930556,18.7826087 L15.2930556,18.7826087 L17.8584491,18.7826087 L17.8584491,18.7826087 L11.0016369,3.13043478 L11.0016369,3.13043478 L11.0016369,3.13043478 L11.0016369,3.13043478 L11.0016369,3.13043478 Z M13.0113922,13.1214393 L8.99188161,13.1214393 L11.0016369,8.21589205 L13.0113922,13.1214393 Z" id="形状" fill="#2F5BEA"></path>
                </g>
                <rect id="矩形" fill="#000000" opacity="0" x="0" y="0" width="24" height="24"></rect>
            </g>
        </g>
    </g>
</svg>