<?xml version="1.0" encoding="UTF-8"?>
<svg width="39px" height="43px" viewBox="0 0 39 43" version="1.1" xmlns="http://www.w3.org/2000/svg" xmlns:xlink="http://www.w3.org/1999/xlink">
    <title>angular</title>
    <g id="页面-1" stroke="none" stroke-width="1" fill="none" fill-rule="evenodd">
        <g id="Tiny-Design-首页" transform="translate(-783.000000, -2350.000000)" fill-rule="nonzero">
            <g id="编组-3备份-2" transform="translate(360.000000, 2341.991494)">
                <g id="编组-2备份" transform="translate(423.000000, 0.000000)">
                    <g id="angular" transform="translate(0.000000, 8.008506)">
                        <g id="编组-3">
                            <polygon id="路径" fill="#DD0533" points="19.5 0 19.5 0 19.5 0 0 7.138 2.97422127 33.6045 19.5 43 19.5 43 19.5 43 36.0257787 33.6045 39 7.138"></polygon>
                            <polygon id="路径" fill="#C40430" points="19.5 0 19.5 4.773 19.5 4.7515 19.5 26.531 19.5 26.531 19.5 43 19.5 43 36.0257787 33.6045 39 7.138"></polygon>
                        </g>
                        <path d="M19.5215146,6 L7,34 L7,34 L11.6686747,34 L11.6686747,34 L14.1858864,27.7348659 L24.8141136,27.7348659 L27.3313253,34 L27.3313253,34 L32,34 L32,34 L19.5215146,6 L19.5215146,6 L19.5215146,6 L19.5215146,6 L19.5215146,6 Z M23.1790017,23.8727969 L15.8640275,23.8727969 L19.5215146,15.097318 L23.1790017,23.8727969 Z" id="形状" fill="#FFFFFF"></path>
                    </g>
                </g>
            </g>
        </g>
    </g>
</svg>