<?xml version="1.0" encoding="UTF-8"?>
<svg width="258px" height="135px" viewBox="0 0 258 135" version="1.1" xmlns="http://www.w3.org/2000/svg" xmlns:xlink="http://www.w3.org/1999/xlink">
    <title>公共组件@2x</title>
    <g id="高保真-定稿" stroke="none" stroke-width="1" fill="none" fill-rule="evenodd">
        <g id="控制台组件与规范总览-高保真（带切图）" transform="translate(-673.000000, -7442.000000)">
            <g id="编组-83" transform="translate(396.000000, 6974.000000)">
                <g id="编组-31备份" transform="translate(276.000000, 467.000000)">
                    <g id="公共组件" transform="translate(1.000000, 1.000000)">
                        <rect id="矩形" x="0" y="0" width="258" height="135"></rect>
                        <g id="编组-103">
                            <rect id="矩形" x="0" y="0" width="258" height="135"></rect>
                            <g id="组件-(1)" transform="translate(104.000000, 45.000000)" fill="#1476FF">
                                <path d="M47.6630375,30.5299167 C47.354811,30.5299167 47.0465844,30.5914915 46.7663784,30.7146411 L46.7551702,30.7202388 L46.7439619,30.7202388 L25.0055818,39.9732554 L3.26159763,30.7258365 L3.25038939,30.7258365 L3.23918115,30.7202388 C2.95897517,30.6026869 2.66195683,30.5355144 2.34252201,30.5355144 C1.04797037,30.5355144 0,31.6158726 0,32.9481279 C0,33.9557159 0.599640802,34.8121657 1.44586287,35.1760169 L24.0809021,44.8096778 L24.1033186,44.8152755 C24.6749388,45.0615748 25.3250167,45.0615748 25.8966369,44.8152755 L25.9078451,44.8096778 C25.9134492,44.8096778 25.9134492,44.8040801 25.9190533,44.8040801 L48.5540926,35.1704192 C49.4003146,34.806568 49.9999778,33.9501182 49.9999778,32.9425302 C50.0055596,31.6102749 48.9575892,30.5299167 47.6630375,30.5299167 Z M47.6630375,20.0901853 C47.2203121,20.0789899 46.7663784,20.2693121 46.7663784,20.2693121 L25.0055818,29.5279264 L3.23918115,20.2693121 C3.23918115,20.2693121 2.66195683,20.0901853 2.34252201,20.0901853 C1.04797037,20.0901853 0,21.1649459 0,22.4972011 C0,23.4991914 0.599640802,24.361239 1.44586287,24.7194925 L24.0809021,34.3475557 C24.0865062,34.3475557 24.0865062,34.3531534 24.0921103,34.3531534 L24.0977145,34.3587511 C24.3779204,34.476303 24.6749388,34.5434756 24.9943736,34.5434756 C25.3138084,34.5434756 25.6164309,34.476303 25.8910327,34.3587511 L25.902241,34.3531534 C25.9078451,34.3531534 25.9078451,34.3531534 25.9134492,34.3475557 L48.5484884,24.7194925 C49.3947105,24.361239 49.9943513,23.4991914 49.9999778,22.4972011 C50.0055596,21.1649459 48.9575892,20.0901853 47.6630375,20.0901853 L47.6630375,20.0901853 Z" id="形状" fill-opacity="0.382129589"></path>
                                <path d="M1.44586287,14.2797612 L24.0809021,23.9134221 C24.0865062,23.9134221 24.0865062,23.9134221 24.0921103,23.9190198 L24.0977145,23.9246175 C24.3779204,24.0421694 24.6749388,24.1037442 24.9943736,24.1037442 C25.3026002,24.1037442 25.6052226,24.0421694 25.8910327,23.9246175 L25.902241,23.9190198 L25.9134492,23.9134221 L48.5484884,14.2853589 C49.3947105,13.9215077 49.9943513,13.0650578 49.9999554,12.0630675 C49.9999554,11.0554795 49.4003146,10.1990297 48.5540926,9.8351785 L25.9190533,0.195919891 C25.9134492,0.195919891 25.9134492,0.195919891 25.9078451,0.190322179 L25.8966369,0.184724468 C25.3250167,-0.0615748227 24.6749388,-0.0615748227 24.1033186,0.184724468 L24.0977145,0.190322179 L1.44586287,9.82958079 C0.599640802,10.1878343 0,11.0498818 0,12.0574698 C0,13.0594601 0.599640802,13.9159099 1.44586287,14.2797612 Z" id="路径"></path>
                            </g>
                        </g>
                    </g>
                </g>
            </g>
        </g>
    </g>
</svg>