<svg width="80.000000" height="81.407227" viewBox="0 0 80 81.4072" fill="none" xmlns="http://www.w3.org/2000/svg" xmlns:xlink="http://www.w3.org/1999/xlink">
	<desc>
			Created with Pixso.
	</desc>
	<defs/>
	<path id="直线 207 (边框)" d="M16 5.48L64 5.48L64 9.48L16 9.48L16 5.48Z" fill="#FFD9AD" fill-opacity="1.000000" fill-rule="evenodd"/>
	<path id="椭圆 31 (边框)" d="M18.21 24.36C18.07 25.39 18 26.43 18 27.48L22 27.48C22 26.56 22.06 25.66 22.2 24.77C22.24 24.46 22.3 24.15 22.36 23.85C22.48 23.26 22.63 22.69 22.81 22.12C22.98 21.56 23.18 21.01 23.41 20.47C23.6 20.02 23.8 19.59 24.03 19.16C24.34 18.56 24.69 17.98 25.07 17.41C25.36 16.98 25.68 16.56 26.01 16.15C26.4 15.66 26.82 15.2 27.27 14.75C27.71 14.3 28.18 13.88 28.66 13.49C29.07 13.16 29.5 12.85 29.93 12.55C30.5 12.17 31.08 11.82 31.67 11.51C32.1 11.29 32.54 11.08 32.99 10.89C33.53 10.66 34.08 10.46 34.64 10.29C35.2 10.11 35.78 9.96 36.37 9.84C36.67 9.78 36.98 9.73 37.28 9.68C38.18 9.54 39.08 9.48 40 9.48C40.91 9.48 41.81 9.54 42.71 9.68C43.01 9.73 43.32 9.78 43.62 9.84C44.21 9.96 44.79 10.11 45.35 10.29C45.91 10.46 46.46 10.66 47 10.89C47.45 11.08 47.89 11.29 48.32 11.51C48.91 11.82 49.5 12.17 50.06 12.55C50.5 12.85 50.92 13.16 51.32 13.49C51.81 13.88 52.28 14.3 52.72 14.75C53.54 15.57 54.27 16.46 54.92 17.41C55.3 17.98 55.65 18.56 55.96 19.16C56.19 19.59 56.39 20.02 56.58 20.47C57.04 21.56 57.39 22.69 57.63 23.85C57.87 25.04 58 26.25 58 27.48L62 27.48C62 25.98 61.85 24.5 61.55 23.05C61.26 21.63 60.83 20.25 60.26 18.91C60.03 18.35 59.76 17.79 59.48 17.25C59.1 16.54 58.69 15.85 58.24 15.18C57.87 14.63 57.48 14.11 57.07 13.6C56.59 13.02 56.09 12.46 55.55 11.92C54.55 10.92 53.47 10.03 52.3 9.24C51.63 8.78 50.93 8.37 50.22 7.99C49.68 7.71 49.13 7.45 48.56 7.21C47.9 6.93 47.22 6.68 46.54 6.47C45.85 6.25 45.14 6.07 44.43 5.92C43.99 5.83 43.55 5.76 43.11 5.7C42.08 5.55 41.04 5.48 40 5.48C38.95 5.48 37.91 5.55 36.88 5.7C36.44 5.76 36 5.83 35.56 5.92C34.85 6.07 34.14 6.25 33.45 6.47C32.77 6.68 32.09 6.93 31.43 7.21C30.86 7.45 30.31 7.71 29.77 7.99C29.06 8.37 28.36 8.78 27.69 9.24C27.15 9.6 26.63 9.99 26.12 10.4C25.53 10.88 24.98 11.39 24.44 11.92C23.9 12.46 23.4 13.02 22.92 13.6C22.51 14.11 22.12 14.63 21.75 15.18C21.3 15.85 20.89 16.54 20.51 17.25C20.23 17.79 19.96 18.35 19.73 18.91C19.44 19.58 19.2 20.25 18.99 20.93C18.77 21.63 18.59 22.33 18.44 23.05C18.35 23.48 18.28 23.92 18.21 24.36Z" fill="#FFFFFF" fill-opacity="1.000000" fill-rule="evenodd"/>
	<path id="矩形 753 (边框)" d="M14 29.48L14 37.48C14 38.14 14.16 38.64 14.5 38.98C14.83 39.31 15.33 39.48 16 39.48L24 39.48C24.66 39.48 25.16 39.31 25.5 38.98C25.83 38.64 26 38.14 26 37.48L26 29.48C26 28.81 25.83 28.31 25.5 27.98C25.16 27.64 24.66 27.48 24 27.48L16 27.48C15.33 27.48 14.83 27.64 14.5 27.98C14.16 28.31 14 28.81 14 29.48ZM18 35.48L18 31.48L22 31.48L22 35.48L18 35.48Z" fill="#FFD9AD" fill-opacity="1.000000" fill-rule="evenodd"/>
	<path id="矩形 758 (边框)" d="M60 3.48L60 11.48C60 12.14 60.16 12.64 60.5 12.98C60.83 13.31 61.33 13.48 62 13.48L70 13.48C70.66 13.48 71.16 13.31 71.5 12.98C71.83 12.64 72 12.14 72 11.48L72 3.48C72 2.81 71.83 2.31 71.5 1.98C71.16 1.64 70.66 1.48 70 1.48L62 1.48C61.33 1.48 60.83 1.64 60.5 1.98C60.16 2.31 60 2.81 60 3.48ZM64 9.48L64 5.48L68 5.48L68 9.48L64 9.48Z" fill="#FFD9AD" fill-opacity="1.000000" fill-rule="evenodd"/>
	<path id="矩形 790 (边框)" d="M8 3.48L8 11.48C8 12.14 8.16 12.64 8.5 12.98C8.83 13.31 9.33 13.48 10 13.48L18 13.48C18.66 13.48 19.16 13.31 19.5 12.98C19.83 12.64 20 12.14 20 11.48L20 3.48C20 2.81 19.83 2.31 19.5 1.98C19.16 1.64 18.66 1.48 18 1.48L10 1.48C9.33 1.48 8.83 1.64 8.5 1.98C8.16 2.31 8 2.81 8 3.48ZM12 9.48L12 5.48L16 5.48L16 9.48L12 9.48Z" fill="#FFD9AD" fill-opacity="1.000000" fill-rule="evenodd"/>
	<path id="矩形 791" d="M36 3.48L44 3.48L44 11.48L36 11.48L36 3.48Z" fill="#FF9217" fill-opacity="1.000000" fill-rule="evenodd"/>
	<path id="矩形 791 (边框)" d="M34 3.48L34 11.48C34 12.14 34.16 12.64 34.5 12.98C34.83 13.31 35.33 13.48 36 13.48L44 13.48C44.66 13.48 45.16 13.31 45.5 12.98C45.83 12.64 46 12.14 46 11.48L46 3.48C46 2.81 45.83 2.31 45.5 1.98C45.16 1.64 44.66 1.48 44 1.48L36 1.48C35.33 1.48 34.83 1.64 34.5 1.98C34.16 2.31 34 2.81 34 3.48ZM38 9.48L38 5.48L42 5.48L42 9.48L38 9.48Z" fill="#FFD9AD" fill-opacity="1.000000" fill-rule="evenodd"/>
	<path id="矩形 789 (边框)" d="M54 29.48L54 37.48C54 38.03 54.19 38.5 54.58 38.89C54.97 39.28 55.44 39.48 56 39.48L64 39.48C64.55 39.48 65.02 39.28 65.41 38.89C65.8 38.5 66 38.03 66 37.48L66 29.48C66 28.93 65.8 28.45 65.41 28.06C65.02 27.67 64.55 27.48 64 27.48L56 27.48C55.44 27.48 54.97 27.67 54.58 28.06C54.19 28.45 54 28.93 54 29.48ZM58 35.48L58 31.48L62 31.48L62 35.48L58 35.48Z" fill="#FFD9AD" fill-opacity="1.000000" fill-rule="evenodd"/>
</svg>
