<svg width="807.352539" height="105.477051" viewBox="0 0 807.353 105.477" fill="none" xmlns="http://www.w3.org/2000/svg" xmlns:xlink="http://www.w3.org/1999/xlink">
	<desc>
			Created with Pixso.
	</desc>
	<defs>
		<clipPath id="clip329_37684">
			<rect id="logo" width="807.352966" height="105.476936" fill="white" fill-opacity="0"/>
		</clipPath>
	</defs>
	<g clip-path="url(#clip329_37684)">
		<path id="矢量_12" d="M40.42 0C28.55 0 19.28 3.98 12.6 12.19C6.13 19.95 3 29.97 3 42.39C3 54.81 6.12 64.72 12.6 72.48C19.08 80.24 28.57 84.57 40.42 84.57C52.28 84.57 61.46 80.59 68.24 72.61C74.71 64.98 77.95 54.94 77.95 42.41C77.95 29.88 74.71 19.73 68.24 12.1C61.45 3.99 52.17 0 40.42 0ZM745.07 13.62L807.35 13.62L807.35 0L745.07 0L745.07 13.62ZM262.21 14.75L324.48 14.75L324.48 1.12L262.21 1.12L262.21 14.75ZM656.11 1.68L600.56 1.6L600.56 82.95L613.24 82.95L613.24 12.97L656.11 12.97L656.11 1.68ZM734.06 1.6L718.63 1.6L665.25 82.96L680.68 82.96L734.06 1.6ZM536.68 1.6L566.63 47.78L566.63 69.09L537.11 23.49L536.68 23.49L536.68 82.96L524.06 82.96L524.06 1.6L536.68 1.6ZM575.62 82.96L575.18 82.3L575.18 16.49L575.18 1.6L587.91 1.6L587.91 82.96L575.62 82.96ZM58.87 64.72C54.56 70.09 48.41 72.81 40.42 72.81C32.44 72.81 26.18 69.96 21.87 64.38C17.57 58.79 15.62 51.61 15.62 42.38C15.62 33.14 17.67 25.74 21.87 20.27C26.3 14.57 32.44 11.72 40.42 11.72C48.41 11.72 54.56 14.33 58.87 19.81C63.17 25.28 65.23 32.8 65.23 42.38C65.23 51.96 63.07 59.36 58.87 64.72ZM286.74 81.03L286.74 23.04L299.38 23.04L299.38 81.03L286.74 81.03ZM769.61 79.9L769.61 23.04L782.24 23.04L782.24 79.9L769.61 79.9ZM435.01 69.25L441.38 53.48L431.02 24.04L417.64 24.04L435.01 69.25ZM445.8 65.98L445.6 65.42L439.63 81.25L439.75 81.58L436.49 89.52L435.13 93.15L435.02 93.12L429.93 105.52L443.1 105.52L473.29 24.04L459.92 24.04L449.34 55.45L449.37 55.48L449.05 56.3L445.8 65.98ZM198.13 34.78C195.83 31.35 192.31 29.1 189.08 27.66C185.85 26.21 181.61 25.48 176.37 25.48L176.37 25.61C171.65 25.71 167.78 26.43 164.77 27.77C161.53 29.22 158.76 31.65 156.47 35.06C153.1 40.08 151.41 45.92 151.4 52.61C151.4 62.94 154.6 70.73 161 75.97C163.23 77.77 165.69 79.08 168.39 79.9C171.02 80.7 174.41 81.09 178.57 81.09L197.77 81.09L197.77 69.25L180.17 69.25C175.78 69.25 169.5 68.48 167.54 66.96C165.59 65.44 163.42 62.47 162.85 59.13L177.01 59.13C177.01 59.13 189.44 58.9 190.49 58.92C196.93 59 201.98 57.81 201.43 46.53C201.23 42.17 199.78 37.24 198.13 34.78ZM336.53 81.52L348.82 81.52L348.82 25.48L336.53 25.48L336.53 81.52ZM225.44 43.82L225.62 43.82L225.62 81.11L212.53 81.11L212.53 25.61L225.44 25.61L225.44 43.82ZM241.26 37.46L233.44 37.46L233.44 25.61L240.36 25.61C244.53 25.61 247.71 25.93 249.9 26.58C252.15 27.25 254.14 28.41 255.89 30.05C259.55 33.63 261.39 39.25 261.4 46.91L261.4 81.11L248.7 81.11L248.7 45.22C248.7 42.47 248.13 40.5 246.97 39.28C245.82 38.06 243.91 37.46 241.26 37.46ZM361.31 25.61L374.25 25.61L374.25 43.77L374.39 43.77L374.39 81.11L361.31 81.11L361.31 25.61ZM382.84 25.61L382.84 37.46L390.03 37.46C392.69 37.46 394.59 38.06 395.75 39.28C396.9 40.5 397.47 42.47 397.47 45.22L397.47 81.11L410.17 81.11L410.17 46.91C410.17 39.24 408.34 33.62 404.68 30.05C402.93 28.41 400.94 27.25 398.69 26.58C396.5 25.92 393.32 25.6 389.15 25.61L382.84 25.61ZM162.85 47.17C163.21 43.77 163.84 41.2 166.28 39.31C169.06 37.17 174.33 37.32 178.24 37.43L181.68 37.43C184.46 37.62 187.08 38.13 188.28 39.43C190.41 41.73 190.84 43.44 191.19 47.23L162.85 47.17ZM621.7 82.96L621.7 71.58L657.85 71.58L657.85 82.96L621.7 82.96Z" fill="#191919" fill-opacity="1.000000" fill-rule="evenodd"/>
		<path id="矢量_12" d="M683.15 0L696.22 20.71L688.29 31.37L667.73 0L683.15 0ZM337.28 11.49L349.57 11.49L349.57 0.01L337.28 0.01L337.28 11.49ZM114.16 23.95L86.73 23.95L86.73 35.22L99.37 35.41L99.37 35.33L113.2 35.33C118.71 35.33 122.81 36.36 125.39 38.52C127.97 40.68 129.38 43.99 129.38 48.89C129.38 53.8 128.08 57.33 125.49 59.49C122.91 61.65 118.8 62.68 113.2 62.68L99.64 62.68L86.73 63.04L86.73 105.31L99.35 105.31L99.35 74.08L113.95 74.08C132.73 74.08 142.11 65.64 142.11 48.89C142.11 32.15 132.71 23.95 114.16 23.95ZM622.45 33.95L622.45 45.34L654.18 45.34L654.18 33.95L622.45 33.95ZM721.1 81.36L705.87 57.22L713.35 46.2L736.53 81.36L721.1 81.36Z" fill="#1476FF" fill-opacity="1.000000" fill-rule="evenodd"/>
	</g>
</svg>

