<?xml version="1.0" encoding="UTF-8"?>
<svg width="146.777344px" height="26.6666667px" viewBox="0 0 146.777344 26.6666667" version="1.1" xmlns="http://www.w3.org/2000/svg" xmlns:xlink="http://www.w3.org/1999/xlink">
    <title>编组 113</title>
    <defs>
        <linearGradient x1="37.1902924%" y1="89.1183179%" x2="55.4881909%" y2="14.6935571%" id="linearGradient-1">
            <stop stop-color="#000000" stop-opacity="0" offset="0%"></stop>
            <stop stop-color="#000000" offset="100%"></stop>
        </linearGradient>
        <linearGradient x1="0.663169496%" y1="45.4022616%" x2="87.6368393%" y2="52.5967357%" id="linearGradient-2">
            <stop stop-color="#000000" stop-opacity="0" offset="13%"></stop>
            <stop stop-color="#000000" offset="100%"></stop>
        </linearGradient>
        <linearGradient x1="9.18608165e-14%" y1="31.1094101%" x2="51.1408359%" y2="31.1094101%" id="linearGradient-3">
            <stop stop-color="#000000" offset="0%"></stop>
            <stop stop-color="#000000" stop-opacity="0" offset="100%"></stop>
        </linearGradient>
        <linearGradient x1="-1.41553436e-13%" y1="13.0356017%" x2="89.3524876%" y2="88.4926101%" id="linearGradient-4">
            <stop stop-color="#FE3800" offset="0%"></stop>
            <stop stop-color="#FF5E30" offset="0%"></stop>
            <stop stop-color="#FF7E46" offset="43.6549811%"></stop>
            <stop stop-color="#FFB67C" offset="100%"></stop>
        </linearGradient>
        <linearGradient x1="48.6391129%" y1="2.81644458%" x2="50.2016129%" y2="83.2517855%" id="linearGradient-5">
            <stop stop-color="#000000" stop-opacity="0" offset="0%"></stop>
            <stop stop-color="#000000" offset="100%"></stop>
        </linearGradient>
    </defs>
    <g id="内页" stroke="none" stroke-width="1" fill="none" fill-rule="evenodd">
        <g id="编组-113" transform="translate(-1.000000, -5.000000)">
            <g id="OpenTiny" transform="translate(40.000000, 8.000000)" fill="#000000" fill-rule="nonzero">
                <path d="M8.25,18.0703125 C6.546875,18.0703125 5.07421875,17.7148438 3.83203125,17.0039062 C2.58984375,16.2929688 1.640625,15.2949219 0.984375,14.0097656 C0.328125,12.7246094 0,11.2304688 0,9.52734375 C0,7.73828125 0.349609375,6.17382812 1.04882812,4.83398438 C1.74804688,3.49414062 2.75585938,2.45898438 4.07226562,1.72851562 C5.38867188,0.998046875 6.94140625,0.6328125 8.73046875,0.6328125 C10.4414062,0.6328125 11.9140625,0.986328125 13.1484375,1.69335938 C14.3828125,2.40039062 15.3242188,3.39453125 15.9726562,4.67578125 C16.6210938,5.95703125 16.9453125,7.44140625 16.9453125,9.12890625 C16.9453125,10.9492188 16.5917969,12.53125 15.8847656,13.875 C15.1777344,15.21875 14.1699219,16.2539062 12.8613281,16.9804688 C11.5527344,17.7070312 10.015625,18.0703125 8.25,18.0703125 Z M8.42578125,15.75 C9.60546875,15.75 10.6054688,15.4746094 11.4257812,14.9238281 C12.2460938,14.3730469 12.859375,13.6152344 13.265625,12.6503906 C13.671875,11.6855469 13.875,10.5820312 13.875,9.33984375 C13.875,8.12109375 13.6953125,7.03515625 13.3359375,6.08203125 C12.9765625,5.12890625 12.4023438,4.36914062 11.6132812,3.80273438 C10.8242188,3.23632812 9.80859375,2.953125 8.56640625,2.953125 C7.37890625,2.953125 6.37109375,3.24023438 5.54296875,3.81445312 C4.71484375,4.38867188 4.09375,5.15820312 3.6796875,6.12304688 C3.265625,7.08789062 3.05859375,8.15234375 3.05859375,9.31640625 C3.05859375,10.5429688 3.25390625,11.640625 3.64453125,12.609375 C4.03515625,13.578125 4.6328125,14.34375 5.4375,14.90625 C6.2421875,15.46875 7.23828125,15.75 8.42578125,15.75 Z" id="形状"></path>
                <path d="M20.109375,8.28515625 C20.109375,7.34765625 20.078125,6.31640625 20.015625,5.19140625 L22.734375,5.19140625 C22.8359375,5.71484375 22.90625,6.25 22.9453125,6.796875 C24.0703125,5.5703125 25.359375,4.95703125 26.8125,4.95703125 C27.65625,4.95703125 28.4375,5.16992188 29.15625,5.59570312 C29.875,6.02148438 30.4550781,6.69335938 30.8964844,7.61132812 C31.3378906,8.52929688 31.5585938,9.6953125 31.5585938,11.109375 C31.5585938,12.5859375 31.3066406,13.8476562 30.8027344,14.8945312 C30.2988281,15.9414062 29.59375,16.734375 28.6875,17.2734375 C27.78125,17.8125 26.734375,18.0820312 25.546875,18.0820312 C24.6875,18.0820312 23.8398438,17.9375 23.0039062,17.6484375 L23.0039062,22.875 L20.109375,23.1210938 L20.109375,8.28515625 Z M25.1484375,15.9375 C26.2734375,15.9375 27.1308594,15.5410156 27.7207031,14.7480469 C28.3105469,13.9550781 28.6054688,12.796875 28.6054688,11.2734375 C28.6054688,9.859375 28.3613281,8.83398438 27.8730469,8.19726562 C27.3847656,7.56054688 26.734375,7.2421875 25.921875,7.2421875 C25.359375,7.2421875 24.8398438,7.375 24.3632812,7.640625 C23.8867188,7.90625 23.4335938,8.26171875 23.0039062,8.70703125 L23.0039062,15.4804688 C23.2929688,15.6210938 23.6289062,15.7324219 24.0117188,15.8144531 C24.3945312,15.8964844 24.7734375,15.9375 25.1484375,15.9375 Z" id="形状"></path>
                <path d="M44.6835938,11.8828125 L36.4101562,11.8828125 C36.5429688,14.53125 37.8046875,15.8554688 40.1953125,15.8554688 C40.7890625,15.8554688 41.3964844,15.7832031 42.0175781,15.6386719 C42.6386719,15.4941406 43.234375,15.3007812 43.8046875,15.0585938 L44.4375,17.0390625 C43.0234375,17.7265625 41.4335938,18.0703125 39.6679688,18.0703125 C38.3242188,18.0703125 37.1914062,17.8164062 36.2695312,17.3085938 C35.3476562,16.8007812 34.6542969,16.0703125 34.1894531,15.1171875 C33.7246094,14.1640625 33.4921875,13.015625 33.4921875,11.671875 C33.4921875,10.2734375 33.7382812,9.0703125 34.2304688,8.0625 C34.7226562,7.0546875 35.4082031,6.28515625 36.2871094,5.75390625 C37.1660156,5.22265625 38.1796875,4.95703125 39.328125,4.95703125 C40.5234375,4.95703125 41.5214844,5.23632812 42.3222656,5.79492188 C43.1230469,6.35351562 43.7167969,7.09765625 44.1035156,8.02734375 C44.4902344,8.95703125 44.6835938,9.984375 44.6835938,11.109375 L44.6835938,11.8828125 Z M41.859375,10.0429688 C41.8046875,9.03515625 41.5507812,8.27929688 41.0976562,7.77539062 C40.6445312,7.27148438 40.0390625,7.01953125 39.28125,7.01953125 C38.546875,7.01953125 37.9355469,7.2734375 37.4472656,7.78125 C36.9589844,8.2890625 36.640625,9.04296875 36.4921875,10.0429688 L41.859375,10.0429688 Z" id="形状"></path>
                <path d="M47.4960938,8.4140625 C47.4960938,7.234375 47.4648438,6.16015625 47.4023438,5.19140625 L50.109375,5.19140625 C50.15625,5.45703125 50.2011719,5.78710938 50.2441406,6.18164062 C50.2871094,6.57617188 50.3164062,6.90234375 50.3320312,7.16015625 C50.7226562,6.72265625 51.1113281,6.34960938 51.4980469,6.04101562 C51.8847656,5.73242188 52.3417969,5.47460938 52.8691406,5.26757812 C53.3964844,5.06054688 53.9921875,4.95703125 54.65625,4.95703125 C55.8984375,4.95703125 56.859375,5.36328125 57.5390625,6.17578125 C58.21875,6.98828125 58.5585938,8.17578125 58.5585938,9.73828125 L58.5585938,17.8359375 L55.6875,17.8359375 L55.6875,9.9375 C55.6875,8.140625 55.0117188,7.2421875 53.6601562,7.2421875 C53.0507812,7.2421875 52.4804688,7.40429688 51.9492188,7.72851562 C51.4179688,8.05273438 50.8945312,8.48828125 50.3789062,9.03515625 L50.3789062,17.8359375 L47.4960938,17.8359375 L47.4960938,8.4140625 Z" id="路径"></path>
                <polygon id="路径" points="65.765625 3.31640625 60.5039062 3.31640625 60.7617188 0.8671875 73.96875 0.8671875 73.6992188 3.31640625 68.6953125 3.31640625 68.6953125 17.8359375 65.765625 17.8359375"></polygon>
                <path d="M76.1484375,5.19140625 L79.03125,5.19140625 L79.03125,17.8359375 L76.1484375,17.8359375 L76.1484375,5.19140625 Z M77.5898438,3.375 C77.0898438,3.375 76.6796875,3.21484375 76.359375,2.89453125 C76.0390625,2.57421875 75.8789062,2.16796875 75.8789062,1.67578125 C75.8789062,1.18359375 76.0390625,0.78125 76.359375,0.46875 C76.6796875,0.15625 77.0898438,0 77.5898438,0 C78.0820312,0 78.4921875,0.158203125 78.8203125,0.474609375 C79.1484375,0.791015625 79.3125,1.19140625 79.3125,1.67578125 C79.3125,1.99609375 79.2363281,2.28710938 79.0839844,2.54882812 C78.9316406,2.81054688 78.7246094,3.01367188 78.4628906,3.15820312 C78.2011719,3.30273438 77.9101562,3.375 77.5898438,3.375 Z" id="形状"></path>
                <path d="M82.7578125,8.4140625 C82.7578125,7.234375 82.7265625,6.16015625 82.6640625,5.19140625 L85.3710938,5.19140625 C85.4179688,5.45703125 85.4628906,5.78710938 85.5058594,6.18164062 C85.5488281,6.57617188 85.578125,6.90234375 85.59375,7.16015625 C85.984375,6.72265625 86.3730469,6.34960938 86.7597656,6.04101562 C87.1464844,5.73242188 87.6035156,5.47460938 88.1308594,5.26757812 C88.6582031,5.06054688 89.2539062,4.95703125 89.9179688,4.95703125 C91.1601562,4.95703125 92.1210938,5.36328125 92.8007812,6.17578125 C93.4804688,6.98828125 93.8203125,8.17578125 93.8203125,9.73828125 L93.8203125,17.8359375 L90.9492188,17.8359375 L90.9492188,9.9375 C90.9492188,8.140625 90.2734375,7.2421875 88.921875,7.2421875 C88.3125,7.2421875 87.7421875,7.40429688 87.2109375,7.72851562 C86.6796875,8.05273438 86.15625,8.48828125 85.640625,9.03515625 L85.640625,17.8359375 L82.7578125,17.8359375 L82.7578125,8.4140625 Z" id="路径"></path>
                <path d="M97.40625,23.1210938 C96.921875,23.1210938 96.46875,23.0839844 96.046875,23.0097656 C95.625,22.9355469 95.2773438,22.8515625 95.0039062,22.7578125 L95.53125,20.6484375 C95.7265625,20.703125 95.9726562,20.7558594 96.2695312,20.8066406 C96.5664062,20.8574219 96.8476562,20.8828125 97.1132812,20.8828125 C98.3945312,20.8828125 99.3554688,20.0585938 99.9960938,18.4101562 L100.183594,17.9414062 L95.5195312,5.19140625 L98.625,5.19140625 L100.96875,12.3164062 C101.351562,13.5351562 101.597656,14.46875 101.707031,15.1171875 C101.925781,14.203125 102.183594,13.2890625 102.480469,12.375 L104.859375,5.19140625 L107.777344,5.19140625 L103.125,18 C102.6875,19.2109375 102.214844,20.1875 101.707031,20.9296875 C101.199219,21.671875 100.599609,22.2226562 99.9082031,22.5820312 C99.2167969,22.9414062 98.3828125,23.1210938 97.40625,23.1210938 Z" id="路径"></path>
            </g>
            <g id="编组-112">
                <rect id="矩形" x="0" y="0" width="36" height="36"></rect>
                <g id="资源-11" transform="translate(1.000000, 5.000000)" fill-rule="nonzero">
                    <path d="M20.4616724,0 C27.9787947,0 34.0850509,5.96848201 34.0850509,13.3333333 C34.0850509,20.6981847 27.9787947,26.6666667 20.4616724,26.6666667 C12.9445501,26.6666667 6.83829388,20.6981847 6.83829388,13.3333333 L6.83829388,6.66666667 L13.6233785,6.66666667 L13.6233785,13.3333333 C13.6233785,17.008482 16.6839515,20 20.4616724,20 C24.2393932,20 27.2999663,17.008482 27.2999663,13.3333333 C27.2999663,9.65818466 24.2393932,6.66666667 20.4616724,6.66666667 L13.6411149,6.66666667 L13.6411149,0 L20.4616724,0 Z" id="路径" fill="#5F5AF8"></path>
                    <path d="M20.4616724,6.66666667 C28.789573,6.2 34.7984841,13.32 33.4889371,17.3066667 C31.6951305,22.7533333 25.2019598,19.1 26.4569424,16.5333333 C27.2890504,14.8266667 27.2072037,14.2333333 27.2822298,13.3333333 C27.3095121,9.45333333 23.9742595,6.64666667 20.4616724,6.66666667 Z" id="路径" fill="url(#linearGradient-1)" style="mix-blend-mode: soft-light;"></path>
                    <path d="M27.2822298,13.3333333 C27.2822298,22.1 20.6731097,27.1733333 16.4784668,26.0933333 C14.1935801,25.5066667 14.5823518,18.04 17.2355487,19.22 C18.4427874,19.7533333 19.1521253,20.0066667 20.5162368,20.0066667 C24.274364,20.0066667 27.2822298,16.9133333 27.2822298,13.3333333 Z" id="路径" fill="url(#linearGradient-2)" style="mix-blend-mode: soft-light;"></path>
                    <rect id="矩形" fill="#8080FF" x="6.82055746" y="6.66666667" width="6.82055746" height="6.66666667"></rect>
                    <path d="M33.4821166,17.3066667 C36.3535712,6.45333333 27.6914633,0 20.5776218,0 C18.2654529,0 15.0938937,0.00666666667 13.6411149,0.00666666667 C13.6411149,1.54666667 13.6411149,4.88666667 13.6411149,6.67333333 C16.2261062,6.67333333 21.1369076,6.66666667 22.1668117,6.66 C27.1321776,6.63333333 34.7507402,12 33.4889371,17.3066667 L33.4821166,17.3066667 Z" id="路径" fill="url(#linearGradient-3)" style="mix-blend-mode: soft-light;"></path>
                    <path d="M0,0 L0,6.66666667 L5.46326652,6.66666667 C6.21352784,6.66666667 6.82737801,7.26666667 6.82737801,8 L6.82737801,13.3333333 L13.6342944,13.3333333 L13.6342944,8 C13.6342944,7.26666667 14.241324,6.66666667 14.9984058,6.66666667 L15.196202,6.66666667 L13.6342944,5.14 L13.6342944,5.32666667 C13.6342944,6.06666667 13.0204442,6.66666667 12.2633623,6.66666667 L8.18466895,6.66666667 C7.43440763,6.66666667 6.82055746,6.06666667 6.82055746,5.33333333 L6.82055746,0 L0,0 Z" id="路径" fill="url(#linearGradient-4)"></path>
                    <path d="M20.3457229,20 C14.1935801,20 6.82055746,17.62 6.82055746,12.4466667 C6.82055746,10.64 6.82737801,7.80666667 6.82737801,6.66666667 C8.40292679,6.66666667 11.8200261,6.66666667 13.6479355,6.66666667 C13.6479355,8.68666667 13.6411149,12.5266667 13.6342944,13.3333333 C13.6070121,17.2133333 16.9627264,20 20.3525435,20 L20.3457229,20 Z" id="路径" fill="url(#linearGradient-5)" style="mix-blend-mode: soft-light;"></path>
                </g>
            </g>
        </g>
    </g>
</svg>