<?xml version="1.0" encoding="UTF-8"?>
<svg width="34.0850509px" height="26.6666667px" viewBox="0 0 34.0850509 26.6666667" version="1.1" xmlns="http://www.w3.org/2000/svg" xmlns:xlink="http://www.w3.org/1999/xlink">
    <title>编组 112</title>
    <defs>
        <linearGradient x1="37.1902924%" y1="89.1183179%" x2="55.4881909%" y2="14.6935571%" id="linearGradient-1">
            <stop stop-color="#000000" stop-opacity="0" offset="0%"></stop>
            <stop stop-color="#000000" offset="100%"></stop>
        </linearGradient>
        <linearGradient x1="0.663169496%" y1="45.4022616%" x2="87.6368393%" y2="52.5967357%" id="linearGradient-2">
            <stop stop-color="#000000" stop-opacity="0" offset="13%"></stop>
            <stop stop-color="#000000" offset="100%"></stop>
        </linearGradient>
        <linearGradient x1="9.18608165e-14%" y1="31.1094101%" x2="51.1408359%" y2="31.1094101%" id="linearGradient-3">
            <stop stop-color="#000000" offset="0%"></stop>
            <stop stop-color="#000000" stop-opacity="0" offset="100%"></stop>
        </linearGradient>
        <linearGradient x1="-1.41553436e-13%" y1="13.0356017%" x2="89.3524876%" y2="88.4926101%" id="linearGradient-4">
            <stop stop-color="#FE3800" offset="0%"></stop>
            <stop stop-color="#FF5E30" offset="0%"></stop>
            <stop stop-color="#FF7E46" offset="43.6549811%"></stop>
            <stop stop-color="#FFB67C" offset="100%"></stop>
        </linearGradient>
        <linearGradient x1="48.6391129%" y1="2.81644458%" x2="50.2016129%" y2="83.2517855%" id="linearGradient-5">
            <stop stop-color="#000000" stop-opacity="0" offset="0%"></stop>
            <stop stop-color="#000000" offset="100%"></stop>
        </linearGradient>
    </defs>
    <g id="内页" stroke="none" stroke-width="1" fill="none" fill-rule="evenodd">
        <g id="编组-112" transform="translate(-1.000000, -5.000000)">
            <rect id="矩形" x="0" y="0" width="36" height="36"></rect>
            <g id="资源-11" transform="translate(1.000000, 5.000000)" fill-rule="nonzero">
                <path d="M20.4616724,0 C27.9787947,0 34.0850509,5.96848201 34.0850509,13.3333333 C34.0850509,20.6981847 27.9787947,26.6666667 20.4616724,26.6666667 C12.9445501,26.6666667 6.83829388,20.6981847 6.83829388,13.3333333 L6.83829388,6.66666667 L13.6233785,6.66666667 L13.6233785,13.3333333 C13.6233785,17.008482 16.6839515,20 20.4616724,20 C24.2393932,20 27.2999663,17.008482 27.2999663,13.3333333 C27.2999663,9.65818466 24.2393932,6.66666667 20.4616724,6.66666667 L13.6411149,6.66666667 L13.6411149,0 L20.4616724,0 Z" id="路径" fill="#5F5AF8"></path>
                <path d="M20.4616724,6.66666667 C28.789573,6.2 34.7984841,13.32 33.4889371,17.3066667 C31.6951305,22.7533333 25.2019598,19.1 26.4569424,16.5333333 C27.2890504,14.8266667 27.2072037,14.2333333 27.2822298,13.3333333 C27.3095121,9.45333333 23.9742595,6.64666667 20.4616724,6.66666667 Z" id="路径" fill="url(#linearGradient-1)" style="mix-blend-mode: soft-light;"></path>
                <path d="M27.2822298,13.3333333 C27.2822298,22.1 20.6731097,27.1733333 16.4784668,26.0933333 C14.1935801,25.5066667 14.5823518,18.04 17.2355487,19.22 C18.4427874,19.7533333 19.1521253,20.0066667 20.5162368,20.0066667 C24.274364,20.0066667 27.2822298,16.9133333 27.2822298,13.3333333 Z" id="路径" fill="url(#linearGradient-2)" style="mix-blend-mode: soft-light;"></path>
                <rect id="矩形" fill="#8080FF" x="6.82055746" y="6.66666667" width="6.82055746" height="6.66666667"></rect>
                <path d="M33.4821166,17.3066667 C36.3535712,6.45333333 27.6914633,0 20.5776218,0 C18.2654529,0 15.0938937,0.00666666667 13.6411149,0.00666666667 C13.6411149,1.54666667 13.6411149,4.88666667 13.6411149,6.67333333 C16.2261062,6.67333333 21.1369076,6.66666667 22.1668117,6.66 C27.1321776,6.63333333 34.7507402,12 33.4889371,17.3066667 L33.4821166,17.3066667 Z" id="路径" fill="url(#linearGradient-3)" style="mix-blend-mode: soft-light;"></path>
                <path d="M0,0 L0,6.66666667 L5.46326652,6.66666667 C6.21352784,6.66666667 6.82737801,7.26666667 6.82737801,8 L6.82737801,13.3333333 L13.6342944,13.3333333 L13.6342944,8 C13.6342944,7.26666667 14.241324,6.66666667 14.9984058,6.66666667 L15.196202,6.66666667 L13.6342944,5.14 L13.6342944,5.32666667 C13.6342944,6.06666667 13.0204442,6.66666667 12.2633623,6.66666667 L8.18466895,6.66666667 C7.43440763,6.66666667 6.82055746,6.06666667 6.82055746,5.33333333 L6.82055746,0 L0,0 Z" id="路径" fill="url(#linearGradient-4)"></path>
                <path d="M20.3457229,20 C14.1935801,20 6.82055746,17.62 6.82055746,12.4466667 C6.82055746,10.64 6.82737801,7.80666667 6.82737801,6.66666667 C8.40292679,6.66666667 11.8200261,6.66666667 13.6479355,6.66666667 C13.6479355,8.68666667 13.6411149,12.5266667 13.6342944,13.3333333 C13.6070121,17.2133333 16.9627264,20 20.3525435,20 L20.3457229,20 Z" id="路径" fill="url(#linearGradient-5)" style="mix-blend-mode: soft-light;"></path>
            </g>
        </g>
    </g>
</svg>