<svg width="40.000000" height="40.000000" viewBox="0 0 40 40" fill="none" xmlns="http://www.w3.org/2000/svg" xmlns:xlink="http://www.w3.org/1999/xlink">
	<desc>
			Created with Pixso.
	</desc>
	<defs>
		<linearGradient x1="28.699862" y1="17.587374" x2="19.886412" y2="23.900648" id="paint_linear_498_35990_0" gradientUnits="userSpaceOnUse">
			<stop stop-color="#000000" stop-opacity="0.000000"/>
			<stop offset="1.000000" stop-color="#000000"/>
		</linearGradient>
		<linearGradient x1="33.341824" y1="30.052279" x2="11.838957" y2="26.795717" id="paint_linear_498_35991_0" gradientUnits="userSpaceOnUse">
			<stop stop-color="#FFFFFF" stop-opacity="0.905882"/>
			<stop offset="0.583061" stop-color="#FFFFFF" stop-opacity="0.800000"/>
			<stop offset="1.000000" stop-color="#FFFFFF"/>
		</linearGradient>
	</defs>
	<rect id="矩形备份" rx="8.000000" width="40.000000" height="40.000000" fill="#1476FF" fill-opacity="1.000000"/>
	<g style="mix-blend-mode:soft-light">
		<path id="路径 41" d="M18.72 23.02C20.22 26.11 23.54 30.71 26.64 24.38C27.04 23.57 29.37 19.04 29.93 17.89C34.84 7.72 26.2 11.8 23.65 16.91C23.19 17.83 20.98 22.4 20.58 23.1C20.03 24.05 19.04 23.72 18.72 23.02Z" fill="url(#paint_linear_498_35990_0)" fill-opacity="1.000000" fill-rule="evenodd"/>
	</g>
	<path id="减去顶层" d="M6 11L15.1992 29.3975C17.041 33.083 22.3008 33.083 24.1426 29.3975L33.3418 11L26.6338 11L20.5654 23.1367C20.1973 23.874 19.1445 23.874 18.7764 23.1367L12.708 11L6 11L6 11Z" clip-rule="evenodd" fill="url(#paint_linear_498_35991_0)" fill-opacity="1.000000" fill-rule="evenodd"/>
</svg>
