<svg width="40.000000" height="40.000000" viewBox="0 0 40 40" fill="none" xmlns="http://www.w3.org/2000/svg" xmlns:xlink="http://www.w3.org/1999/xlink">
	<desc>
			Created with Pixso.
	</desc>
	<defs>
		<linearGradient x1="18.321949" y1="8.463875" x2="23.362316" y2="27.058390" id="paint_linear_453_37261_0" gradientUnits="userSpaceOnUse">
			<stop stop-color="#FFFFFF" stop-opacity="0.964706"/>
			<stop offset="0.406184" stop-color="#FFFFFF" stop-opacity="0.800000"/>
			<stop offset="1.000000" stop-color="#FFFFFF"/>
		</linearGradient>
		<linearGradient x1="22.119024" y1="19.714003" x2="27.356470" y2="15.484156" id="paint_linear_453_37262_0" gradientUnits="userSpaceOnUse">
			<stop stop-color="#000000" stop-opacity="0.000000"/>
			<stop offset="1.000000" stop-color="#000000"/>
		</linearGradient>
	</defs>
	<rect id="矩形备份" rx="8.000000" width="40.000000" height="40.000000" fill="#1476FF" fill-opacity="1.000000"/>
	<path id="路径" d="M24 8C28.41 8 32 11.58 32 16C32 20.41 28.41 24 24 24L18.22 24C18.09 24 18 24.09 18 24.22L18 33L12 33L12 23C12 20.23 14.23 18 17 18L24 18C25.1 18 26 17.1 26 16C26 14.89 25.1 14 24 14L12 14L12 8L24 8Z" fill="url(#paint_linear_453_37261_0)" fill-opacity="1.000000" fill-rule="evenodd"/>
	<g style="mix-blend-mode:soft-light">
		<path id="路径 43" d="M23.99 14C31.45 14 32.54 20.48 28.51 23.07C26.86 24.13 24.96 24 23 24C21.04 24 18.75 18 23.99 18C25.19 18 25.98 16.98 26 16C26.01 15.01 25.2 13.99 23.99 14Z" fill="url(#paint_linear_453_37262_0)" fill-opacity="1.000000" fill-rule="evenodd"/>
	</g>
</svg>
