<?xml version="1.0" encoding="UTF-8"?>
<svg width="11px" height="11px" viewBox="0 0 11 11" version="1.1" xmlns="http://www.w3.org/2000/svg" xmlns:xlink="http://www.w3.org/1999/xlink">
    <title>编组 25备份 6</title>
    <g id="首页" stroke="none" stroke-width="1" fill="none" fill-rule="evenodd">
        <g id="4月修改banner" transform="translate(-1734.000000, -2310.000000)" fill="#2F5BEA" fill-rule="nonzero">
            <g id="-mockplus-" transform="translate(1710.000000, 2019.000000)">
                <g id="编组-25备份-6" transform="translate(24.000000, 291.000000)">
                    <path d="M5.5,0 C2.46783854,0 0,2.46783854 0,5.5 C0,8.53216146 2.46783854,11 5.5,11 C8.53216146,11 11,8.53216146 11,5.5 C11,2.46783854 8.53216146,0 5.5,0 Z M5.5,10.2752604 C2.86744792,10.2752604 0.724739583,8.13255208 0.724739583,5.5 C0.724739583,2.86744792 2.86744792,0.724739583 5.5,0.724739583 C8.13255208,0.724739583 10.2752604,2.86744792 10.2752604,5.5 C10.2752604,8.13255208 8.13255208,10.2752604 5.5,10.2752604 Z" id="形状"></path>
                    <path d="M5.81384277,4.16992188 C5.70397949,4.06005859 5.55895996,4 5.40368652,4 C5.24841309,4 5.10339355,4.06005859 4.99353027,4.16992188 L2.60876465,6.5546875 C2.46374512,6.69970703 2.46374512,6.93408203 2.60876465,7.07910156 C2.75378418,7.22412109 2.98815918,7.22412109 3.13317871,7.07910156 L5.40368652,4.80859375 L7.67419434,7.07910156 C7.74597168,7.15087891 7.84118652,7.1875 7.93640137,7.1875 C8.03161621,7.1875 8.12683105,7.15087891 8.1986084,7.07910156 C8.34362793,6.93408203 8.34362793,6.69970703 8.1986084,6.5546875 L5.81384277,4.16992188 Z" id="路径"></path>
                </g>
            </g>
        </g>
    </g>
</svg>