<svg viewBox="0 0 16 16" xmlns="http://www.w3.org/2000/svg" xmlns:xlink="http://www.w3.org/1999/xlink" width="16.000000" height="16.000000" fill="none">
	<rect id="svg 23" width="16.000000" height="16.000000" x="0.000000" y="0.000000" />
	<path id="矢量 387" d="M9.17607 13.467L11.3127 6.32381L14.8309 6.32381C14.8273 6.33181 14.828 6.34563 14.8233 6.35145L9.17607 13.4673L9.17607 13.467ZM1.03321 6.32381L4.29501 6.32381L6.50471 13.3207L1.03321 6.32381ZM2.88129 2.70148L4.01416 5.25934L1.42283 5.25934L2.88057 2.70184L2.88129 2.70148ZM10.214 6.32381L7.87259 14.1542L5.39877 6.32381L10.2136 6.32381L10.214 6.32381ZM4.83197 4.50337L3.7515 2.06483L6.57347 2.06483L4.83197 4.50337ZM7.92898 2.06483L10.2107 5.2597L5.58976 5.2597L7.8715 2.06483L7.92898 2.06483L7.92898 2.06483ZM9.227 2.06483L12.0479 2.06483L10.9685 4.50337L9.227 2.06483ZM14.3864 5.2597L11.7867 5.2597L12.9283 2.68038L14.3864 5.2597ZM15.7583 5.54419L13.6042 1.72978C13.3641 1.30704 12.8424 1 12.3618 1L3.46482 1C2.98316 1 2.45965 1.30632 2.22064 1.72759L0.0811489 5.48562C-0.169507 5.92581 -0.123669 6.55882 0.189197 6.96081L7.14863 15.8597C7.20939 15.9346 7.28833 15.9812 7.36327 16.0354L7.3851 16.1045L7.42985 16.0899C7.571 16.1736 7.72416 16.23 7.88823 16.23C8.05376 16.23 8.20801 16.1718 8.35098 16.0848L8.38918 16.0968L8.40664 16.0394C8.48304 15.9863 8.5638 15.9386 8.62492 15.8618L15.644 7.01793C15.958 6.6203 16.0071 5.98729 15.7583 5.54383L15.7583 5.54419Z" fill="rgb(20,118,255)" fill-rule="nonzero" />
</svg>
