<svg viewBox="0 0 16 16" xmlns="http://www.w3.org/2000/svg" xmlns:xlink="http://www.w3.org/1999/xlink" width="16.000000" height="16.000000" fill="none">
	<rect id="svg 24" width="16.000000" height="16.000000" x="0.000000" y="0.000000" />
	<path id="矢量 388" d="M1.33301 3.54634C1.33301 4.77301 2.31967 5.75967 3.54634 5.75967C4.77301 5.75967 5.75967 4.77301 5.75967 3.54634C5.75967 2.31967 4.79967 1.33301 3.57301 1.33301C2.34634 1.33301 1.33301 2.31967 1.33301 3.54634Z" fill="rgb(20,118,255)" fill-rule="nonzero" />
	<path id="矢量 389" d="M3.57262 6.18659C2.13262 6.18659 0.959284 5.01325 0.959284 3.57325C0.959284 2.13326 2.13262 0.959922 3.57262 0.959922C5.01262 0.959922 6.18595 2.13326 6.18595 3.57325C6.18595 5.01325 5.01262 6.18659 3.57262 6.18659ZM3.57262 1.73325C2.55928 1.73325 1.75928 2.55992 1.75928 3.54659C1.75928 4.55992 2.58595 5.35992 3.57262 5.35992C4.58595 5.35992 5.38595 4.53325 5.38595 3.54659C5.38595 2.55992 4.55928 1.73325 3.57262 1.73325L3.57262 1.73325ZM14.666 7.65325C14.4526 7.65325 14.266 7.46659 14.266 7.25325L14.266 5.03992C14.266 4.45325 13.786 3.94659 13.1726 3.94659L9.70595 3.94659L11.2526 5.49325C11.4126 5.65325 11.4126 5.89325 11.2526 6.05325C11.0926 6.21325 10.8526 6.21325 10.6926 6.05325L8.47929 3.83992C8.39929 3.75992 8.37262 3.67992 8.37262 3.57325L8.37262 3.49325C8.37262 3.41325 8.42595 3.33326 8.47929 3.27992L8.50595 3.25326L10.7193 1.03992C10.8793 0.879922 11.1193 0.879922 11.2793 1.03992C11.4393 1.19992 11.4393 1.43992 11.2793 1.59992L9.73262 3.14659L13.1993 3.14659C14.2393 3.14659 15.0926 3.99992 15.0926 5.03992L15.0926 7.25325C15.066 7.49325 14.8793 7.65325 14.666 7.65325L14.666 7.65325ZM5.03928 15.0666C4.93262 15.0666 4.82595 15.0399 4.74595 14.9599C4.58595 14.7999 4.58595 14.5599 4.74595 14.3999L6.29262 12.8533L2.82595 12.8533C1.78595 12.8533 0.932617 11.9999 0.932617 10.9599L0.932617 8.74659C0.932617 8.53325 1.11928 8.34659 1.33262 8.34659C1.54595 8.34659 1.73262 8.53325 1.73262 8.74659L1.73262 10.9599C1.73262 11.5466 2.21262 12.0533 2.82595 12.0533L6.29262 12.0533L4.74595 10.5066C4.58595 10.3466 4.58595 10.1066 4.74595 9.94659C4.90595 9.78659 5.14595 9.78659 5.30595 9.94659L7.51928 12.1599C7.59928 12.2399 7.62595 12.3199 7.62595 12.4266L7.62595 12.5066C7.62595 12.5866 7.57262 12.6666 7.51928 12.7199L7.49262 12.7466L5.33262 14.9599C5.25262 15.0399 5.14595 15.0666 5.03928 15.0666L5.03928 15.0666Z" fill="rgb(20,118,255)" fill-rule="nonzero" />
	<path id="矢量 390" d="M10.2393 12.4536C10.2393 13.6802 11.2259 14.6669 12.4526 14.6669C13.6793 14.6669 14.6659 13.6802 14.6659 12.4536C14.6659 11.2269 13.6793 10.2402 12.4526 10.2402C11.2259 10.2402 10.2393 11.2269 10.2393 12.4536Z" fill="rgb(20,118,255)" fill-rule="nonzero" />
	<path id="矢量 391" d="M12.4532 15.0665C11.0132 15.0665 9.83984 13.8932 9.83984 12.4532C9.83984 11.0132 11.0132 9.83984 12.4532 9.83984C13.8932 9.83984 15.0665 11.0132 15.0665 12.4532C15.0665 13.8932 13.8932 15.0665 12.4532 15.0665L12.4532 15.0665ZM12.4532 10.6132C11.4398 10.6132 10.6398 11.4398 10.6398 12.4265C10.6398 13.4398 11.4665 14.2398 12.4532 14.2398C13.4665 14.2398 14.2665 13.4132 14.2665 12.4265C14.2665 11.4398 13.4665 10.6132 12.4532 10.6132Z" fill="rgb(20,118,255)" fill-rule="nonzero" />
</svg>
