<svg viewBox="0 0 16 16" xmlns="http://www.w3.org/2000/svg" xmlns:xlink="http://www.w3.org/1999/xlink" width="16.000000" height="16.000000" fill="none">
	<rect id="svg 10" width="16.000000" height="16.000000" x="0.000000" y="0.000000" />
	<path id="合并" d="M7.18995 10.2839C7.43467 10.4758 7.73938 10.5814 8.04888 10.5814C8.36079 10.5814 8.66549 10.4758 8.90782 10.2839L13.9511 6.3107C14.287 6.04678 14.4789 5.64851 14.4789 5.22144C14.4789 4.79437 14.287 4.39609 13.9511 4.13218L8.90782 0.159005C8.42077 -0.224877 7.6794 -0.224877 7.19235 0.159005L2.14911 4.13218C1.81321 4.39609 1.62127 4.79437 1.62127 5.22144C1.62127 5.64851 1.81321 6.04678 2.14911 6.3107L7.18995 10.2839ZM7.76337 0.885979C7.84495 0.821199 7.94332 0.787609 8.04888 0.787609C8.15445 0.78761 8.25282 0.8212 8.33679 0.88598L13.3776 4.85915C13.488 4.94552 13.5528 5.07988 13.5528 5.22144C13.5528 5.363 13.4904 5.49495 13.3776 5.58373L8.3344 9.5569C8.17125 9.68646 7.92892 9.68646 7.76337 9.5569L2.72013 5.58373C2.60977 5.49735 2.54499 5.363 2.54499 5.22144C2.54499 5.07988 2.60737 4.94792 2.72013 4.85915L7.76337 0.885979ZM8.04838 13.355C7.74608 13.355 7.44377 13.2542 7.18945 13.0551L1.22729 8.35736C1.02575 8.19901 0.992163 7.9087 1.15051 7.70716C1.30886 7.50802 1.59917 7.47203 1.80071 7.63038L7.76527 12.3305C7.93322 12.4625 8.16834 12.4625 8.33629 12.3305L14.3008 7.63038C14.5024 7.47203 14.7927 7.50802 14.951 7.70716C15.1094 7.9087 15.0758 8.19901 14.8743 8.35736L8.90732 13.0551C8.65539 13.2542 8.35309 13.355 8.04838 13.355ZM8.04838 16.1285C7.74608 16.1285 7.44377 16.0277 7.18945 15.8286L1.22729 11.1308C1.02575 10.9725 0.992163 10.6822 1.15051 10.4806C1.30886 10.2815 1.59917 10.2455 1.80071 10.4039L7.76527 15.104C7.93322 15.236 8.16834 15.236 8.33629 15.104L14.3008 10.4039C14.5024 10.2455 14.7927 10.2815 14.951 10.4806C15.1094 10.6822 15.0758 10.9725 14.8743 11.1308L8.90732 15.8286C8.65539 16.0277 8.35309 16.1285 8.04838 16.1285Z" fill="rgb(20,118,255)" fill-rule="evenodd" />
</svg>
