<svg viewBox="0 0 14 14" xmlns="http://www.w3.org/2000/svg" xmlns:xlink="http://www.w3.org/1999/xlink" width="14.000000" height="14.000000" fill="none">
	<rect id="svg 24" width="14.000000" height="14.000000" x="0.000000" y="0.000000" />
	<path id="矢量 391" d="M7 13C3.96939 13 1.5 10.5306 1.5 7.5C1.5 4.46939 3.96939 2 7 2C10.0306 2 12.5 4.46939 12.5 7.5C12.5 10.5306 10.0306 13 7 13L7 13ZM7 3.62755C4.86735 3.62755 3.18367 5.36735 3.18367 7.44388C3.18367 9.57653 4.92347 11.2602 7 11.2602C9.13265 11.2602 10.8163 9.52041 10.8163 7.44388C10.8163 5.36735 9.13265 3.62755 7 3.62755Z" fill="rgb(242,48,48)" fill-rule="nonzero" />
	<path id="矢量 391" d="M1.5 7.5C1.5 4.46939 3.96939 2 7 2C10.0306 2 12.5 4.46939 12.5 7.5C12.5 10.5306 10.0306 13 7 13L7 13C3.96939 13 1.5 10.5306 1.5 7.5ZM3.18367 7.44388C3.18367 9.57653 4.92347 11.2602 7 11.2602C9.13265 11.2602 10.8163 9.52041 10.8163 7.44388C10.8163 5.36735 9.13265 3.62755 7 3.62755C4.86735 3.62755 3.18367 5.36735 3.18367 7.44388Z" fill-rule="nonzero" stroke="rgb(242,48,48)" stroke-linecap="round" stroke-linejoin="round" stroke-width="2" />
</svg>
