<svg width="26.773560" height="12.000000" viewBox="0 0 26.7736 12" fill="none" xmlns="http://www.w3.org/2000/svg" xmlns:xlink="http://www.w3.org/1999/xlink">
	<desc>
			Created with Pixso.
	</desc>
	<defs/>
	<path id="path" d="M7.42 6.24C7.42 6.24 8.76 5.96 8.95 6.13L9.6 11L8.51 11.14L7.42 6.24ZM7.94 3.55L8.7 3.55L8.92 5.44L8.21 5.44L7.94 3.55ZM7.07 3.75L7.78 3.68L7.99 5.53L7.38 5.64L7.07 3.75ZM8.92 1.44C8.92 1.44 10.47 1.28 10.52 1.44L11.29 10.64L10.1 10.64L8.92 1.44ZM11.64 6.29L13.14 6.29L13.14 11.25L12.05 11.25L11.64 6.29ZM12.39 3.77L13.14 3.77L13.14 5.64L12.39 5.64L12.39 3.77ZM11.48 3.77L12.13 3.77L12.13 5.64L11.48 5.64L11.48 3.77ZM2.47 7.52L2.06 0C1.82 0.21 0 0.82 0 0.82C0.62 2.98 1.46 11.99 1.46 11.99C5.75 12.13 7.53 10.24 7.64 9.8C7.67 9.67 7.69 9.53 7.69 9.4C7.69 9.27 7.67 9.13 7.64 9C6.61 7.28 2.47 7.52 2.47 7.52ZM3.76 10.78L3.5 8.64L5.48 9.48L3.76 10.78ZM21.27 9C20.24 7.28 16.1 7.52 16.1 7.52L15.69 0C15.45 0.21 13.63 0.82 13.63 0.82C14.25 2.98 15.1 11.99 15.1 11.99C19.38 12.13 21.17 10.24 21.27 9.8C21.31 9.67 21.32 9.53 21.32 9.4C21.32 9.27 21.31 9.13 21.27 9ZM17.4 10.78L17.13 8.64L19.11 9.48L17.4 10.78ZM21.05 6.24C21.05 6.24 22.39 5.96 22.58 6.13L23.23 11L22.14 11.14L21.05 6.24ZM21.57 3.55L22.33 3.55L22.55 5.44L21.84 5.44L21.57 3.55ZM20.7 3.75L21.41 3.68L21.63 5.53L21.01 5.64L20.7 3.75ZM22.55 1.44C22.55 1.44 24.1 1.28 24.16 1.44L24.92 10.64L23.73 10.64L22.55 1.44ZM25.27 6.29L26.77 6.29L26.77 11.25L25.68 11.25L25.27 6.29ZM26.02 3.77L26.77 3.77L26.77 5.64L26.02 5.64L26.02 3.77ZM25.11 3.77L25.76 3.77L25.76 5.64L25.11 5.64L25.11 3.77Z" fill="#03A7FD" fill-opacity="1.000000" fill-rule="nonzero"/>
</svg>
