<svg width="59.000000" height="12.000000" viewBox="0 0 59 12" fill="none" xmlns="http://www.w3.org/2000/svg" xmlns:xlink="http://www.w3.org/1999/xlink">
	<desc>
			Created with Pixso.
	</desc>
	<defs>
		<clipPath id="clip166_51346">
			<rect id="稀土掘金" width="59.000000" height="12.000000" fill="white" fill-opacity="0"/>
		</clipPath>
	</defs>
	<g clip-path="url(#clip166_51346)">
		<path id="path" d="M7.57 7.45L7.57 7.45L12.27 3.76L10.99 2.74L7.57 5.43L7.57 5.43L7.56 5.43L4.14 2.74L2.86 3.76L7.56 7.45L7.57 7.45Z" fill="#1E80FF" fill-opacity="1.000000" fill-rule="nonzero"/>
		<path id="path" d="M7.57 2.9L9.39 1.45L7.57 0L7.56 0L5.74 1.45L7.56 2.9L7.57 2.9ZM7.57 9.97L7.56 9.98L1.27 5.03L0 6.05L0.12 6.15L7.57 12L12.27 8.3L15.14 6.05L13.86 5.03L7.57 9.97Z" fill="#1E80FF" fill-opacity="1.000000" fill-rule="nonzero"/>
		<path id="path" d="M57.37 7.89L56.46 7.89L55.92 9.88L54.59 9.88L54.59 7.18L58.26 7.18L58.26 6.31L54.59 6.31L54.59 4.77L57.28 4.77L57.28 3.9L50.99 3.9L50.99 4.77L53.68 4.77L53.68 6.31L50 6.31L50 7.18L53.68 7.18L53.68 9.88L52.34 9.88L51.81 7.89L50.89 7.89L51.43 9.88L49.73 9.88L49.73 10.75L58.53 10.75L58.53 9.88L56.83 9.88L57.37 7.89Z" fill="#323232" fill-opacity="1.000000" fill-rule="nonzero"/>
		<path id="path" d="M56.18 1.42L56.04 1.26L52.22 1.26L52.08 1.42C51.35 2.25 50.53 2.98 49.62 3.62L49.62 4.69C50.02 4.43 51.73 3.31 52.65 2.13L55.63 2.13C56.55 3.31 58.26 4.43 58.66 4.69L58.66 3.62C57.75 2.98 56.92 2.25 56.18 1.42ZM40.85 3.65L41.53 3.65L41.53 2.78L40.85 2.78L40.85 1.23L39.99 1.23L39.99 2.78L39.31 2.78L39.31 3.65L39.99 3.65L39.99 6.33L39.31 6.57L39.31 7.53L39.99 7.3L39.99 8.88C39.96 9.53 39.84 10.16 39.63 10.77L40.53 10.77C40.72 10.16 40.83 9.52 40.85 8.88L40.85 7L41.54 6.76L41.54 5.79L40.85 6.03L40.85 3.65ZM42.69 1.23L42.03 1.23L42.03 8.89C42.04 9.53 41.96 10.16 41.79 10.78L42.69 10.78C42.84 10.16 42.91 9.52 42.9 8.89L42.9 4.18L48.35 4.18L48.35 1.23L42.69 1.23ZM47.48 3.32L42.91 3.32L42.91 2.1L47.48 2.1L47.48 3.32Z" fill="#323232" fill-opacity="1.000000" fill-rule="nonzero"/>
		<path id="path" d="M47.48 10.03L46.3 10.03L46.3 7.57L48.17 7.57L48.17 5.06L47.36 5.06L47.36 6.83L46.3 6.83L46.3 4.77L45.49 4.77L45.49 6.82L44.45 6.82L44.45 5.06L43.64 5.06L43.64 7.57L45.49 7.57L45.49 10.03L44.32 10.03L44.32 8.21L43.5 8.21L43.5 10.77L48.29 10.77L48.29 8.21L47.48 8.21L47.48 10.03ZM22.81 1.25L22.81 2.07L24.36 2.62L22.81 3.16L22.81 3.98L25.52 3.03L28.22 3.98L28.22 3.16L26.68 2.62L28.22 2.07L28.22 1.25L25.52 2.2L22.81 1.25ZM34.41 5.01L38.13 5.01L38.13 4.06L34.41 4.06L34.41 1.2L33.37 1.2L33.37 4.06L29.65 4.06L29.65 5.01L33.37 5.01L33.37 9.84L29.16 9.84L29.16 10.8L38.62 10.8L38.62 9.84L34.41 9.84L34.41 5.01ZM21.06 2.31L22.5 2.22L22.5 1.38L18.8 1.62L18.8 2.45L20.24 2.36L20.24 3.64L18.75 3.64L18.75 4.46L20.24 4.46L20.24 10.78L21.07 10.78L21.07 4.46L22.55 4.46L22.55 3.64L21.06 3.64L21.06 2.31Z" fill="#323232" fill-opacity="1.000000" fill-rule="nonzero"/>
		<path id="path" d="M24.81 3.86L23.95 3.86L23.75 4.44L22.81 4.44L22.81 5.24L23.46 5.24L22.62 7.61L23.19 7.61L23.19 10.35L23.97 10.35L23.97 7.21L25.25 7.21L25.25 10.79L26.07 10.79L26.07 7.21L27.31 7.21L27.31 9.02C27.31 9.25 27.28 9.48 27.22 9.7C27.17 9.93 27.08 10.14 26.97 10.34L27.85 10.34C27.94 10.13 28.01 9.92 28.06 9.7C28.11 9.47 28.13 9.25 28.13 9.02L28.13 6.48L26.07 6.48L26.07 5.68L25.25 5.68L25.25 6.48L23.88 6.48L24.33 5.23L28.23 5.23L28.23 4.43L24.61 4.43L24.81 3.86ZM18.75 10.55L19.56 10.55L19.92 4.89L19.1 4.89L18.75 10.55ZM21.43 4.89L21.67 9.98L22.49 9.98L22.24 4.89L21.43 4.89Z" fill="#323232" fill-opacity="1.000000" fill-rule="nonzero"/>
	</g>
</svg>
