<svg width="16.000000" height="16.000000" viewBox="0 0 16 16" fill="none" xmlns="http://www.w3.org/2000/svg" xmlns:xlink="http://www.w3.org/1999/xlink">
	<desc>
			Created with Pixso.
	</desc>
	<defs>
		<clipPath id="clip382_19086">
			<rect id="图标/复制" width="16.000000" height="16.000000" fill="white" fill-opacity="0"/>
		</clipPath>
	</defs>
	<g clip-path="url(#clip382_19086)">
		<mask id="mask382_19082" mask-type="alpha" maskUnits="userSpaceOnUse" x="0.000000" y="0.000000" width="16.000000" height="16.000000">
			<rect id="复制-copy" width="16.000000" height="16.000000" fill="#000000" fill-opacity="1.000000"/>
		</mask>
		<g mask="url(#mask382_19082)">
			<path id="形状结合" d="M9.5 4C10.88 4 12 5.11 12 6.5L12 12.5C12 13.87 10.88 15 9.5 15L3.5 15C2.1 15 1 13.87 1 12.5L1 6.5C1 5.11 2.1 4 3.5 4L9.5 4ZM9.5 5L3.5 5C2.66 5 2 5.66 2 6.5L2 12.5C2 13.32 2.66 14 3.5 14L9.5 14C10.32 14 11 13.32 11 12.5L11 6.5C11 5.66 10.32 5 9.5 5ZM12.5 1C13.88 1 15 2.12 15 3.5L15 8.5C15 8.77 14.76 9 14.5 9C14.22 9 14 8.77 14 8.5L14 3.5C14 2.66 13.32 2 12.5 2L7.5 2C7.22 2 7 1.77 7 1.5C7 1.21 7.22 1 7.5 1L12.5 1Z" fill="#191919" fill-opacity="1.000000" fill-rule="nonzero"/>
		</g>
	</g>
</svg>
