<svg width="660.000000" height="192.000000" viewBox="0 0 660 192" fill="none" xmlns="http://www.w3.org/2000/svg" xmlns:xlink="http://www.w3.org/1999/xlink">
	<desc>
			Created with Pixso.
	</desc>
	<defs>
		<linearGradient x1="0.000153" y1="0.000000" x2="660.000000" y2="192.000000" id="paint_linear_633_34127_0" gradientUnits="userSpaceOnUse">
			<stop stop-color="#FFD9D6"/>
			<stop offset="1.000000" stop-color="#FFECD6"/>
		</linearGradient>
		<linearGradient x1="0.000153" y1="0.000000" x2="660.000000" y2="192.000000" id="paint_linear_633_34128_0" gradientUnits="userSpaceOnUse">
			<stop stop-color="#FFD9D6"/>
			<stop offset="0.996046" stop-color="#FFECD6"/>
		</linearGradient>
		<radialGradient gradientTransform="translate(330 126.53) rotate(-28.0724) scale(322.003 701.252)" cx="0.000000" cy="0.000000" r="1.000000" id="paint_radial_633_34170_0" gradientUnits="userSpaceOnUse">
			<stop stop-color="#FF722B"/>
			<stop offset="1.000000" stop-color="#FFCF6F"/>
		</radialGradient>
	</defs>
	<rect id="矩形 746" width="660.000000" height="192.000000" fill="url(#paint_linear_633_34127_0)" fill-opacity="1.000000"/>
	<mask id="mask633_34128" mask-type="alpha" maskUnits="userSpaceOnUse" x="0.000000" y="0.000000" width="660.000000" height="192.000000">
		<rect id="矩形 746" width="660.000000" height="192.000000" fill="url(#paint_linear_633_34128_0)" fill-opacity="1.000000"/>
	</mask>
	<g mask="url(#mask633_34128)">
		<g opacity="0.340000">
			<line id="直线 22" x1="0.000000" y1="24.000000" x2="660.000000" y2="24.000000" stroke="#FF6132" stroke-opacity="1.000000" stroke-width="0.300000"/>
			<line id="直线 27" x1="0.000000" y1="144.000000" x2="660.000000" y2="144.000000" stroke="#FF6132" stroke-opacity="1.000000" stroke-width="0.300000"/>
			<line id="直线 23" x1="0.000000" y1="48.000000" x2="660.000000" y2="48.000000" stroke="#FF6132" stroke-opacity="1.000000" stroke-width="0.300000"/>
			<line id="直线 24" x1="0.000000" y1="72.000000" x2="660.000000" y2="72.000000" stroke="#FF6132" stroke-opacity="1.000000" stroke-width="0.300000"/>
			<line id="直线 25" x1="0.000000" y1="96.000000" x2="660.000000" y2="96.000000" stroke="#FF6132" stroke-opacity="1.000000" stroke-width="0.300000"/>
			<line id="直线 26" x1="0.000000" y1="120.000000" x2="660.000000" y2="120.000000" stroke="#FF6132" stroke-opacity="1.000000" stroke-width="0.300000"/>
			<line id="直线 28" x1="0.000000" y1="168.000000" x2="660.000000" y2="168.000000" stroke="#FF6132" stroke-opacity="1.000000" stroke-width="0.300000"/>
			<line id="直线 29" x1="0.000000" y1="202.041016" x2="660.000000" y2="202.041016" stroke="#FF6132" stroke-opacity="1.000000" stroke-width="0.300000"/>
			<line id="直线 30" x1="0.000000" y1="227.295898" x2="660.000000" y2="227.295898" stroke="#FF6132" stroke-opacity="1.000000" stroke-width="0.300000"/>
			<line id="直线 31" x1="0.000000" y1="252.550781" x2="660.000000" y2="252.550781" stroke="#FF6132" stroke-opacity="1.000000" stroke-width="0.300000"/>
			<line id="直线 32" x1="0.000000" y1="277.806152" x2="660.000000" y2="277.806152" stroke="#FF6132" stroke-opacity="1.000000" stroke-width="0.300000"/>
			<line id="直线 33" x1="18.000000" y1="0.000000" x2="18.000000" y2="303.061035" stroke="#FF6132" stroke-opacity="1.000000" stroke-width="0.300000"/>
			<line id="直线 34" x1="42.000000" y1="0.000000" x2="42.000000" y2="303.061035" stroke="#FF6132" stroke-opacity="1.000000" stroke-width="0.300000"/>
			<line id="直线 35" x1="66.000000" y1="0.000000" x2="66.000000" y2="303.061035" stroke="#FF6132" stroke-opacity="1.000000" stroke-width="0.300000"/>
			<line id="直线 36" x1="90.000000" y1="0.000000" x2="90.000000" y2="303.061035" stroke="#FF6132" stroke-opacity="1.000000" stroke-width="0.300000"/>
			<line id="直线 37" x1="114.000000" y1="0.000000" x2="114.000000" y2="303.061035" stroke="#FF6132" stroke-opacity="1.000000" stroke-width="0.300000"/>
			<line id="直线 38" x1="138.000000" y1="0.000000" x2="138.000000" y2="303.061035" stroke="#FF6132" stroke-opacity="1.000000" stroke-width="0.300000"/>
			<line id="直线 39" x1="162.000000" y1="0.000000" x2="162.000000" y2="303.061035" stroke="#FF6132" stroke-opacity="1.000000" stroke-width="0.300000"/>
			<line id="直线 40" x1="186.000000" y1="0.000000" x2="186.000000" y2="303.061035" stroke="#FF6132" stroke-opacity="1.000000" stroke-width="0.300000"/>
			<line id="直线 41" x1="210.000000" y1="0.000000" x2="210.000000" y2="303.061035" stroke="#FF6132" stroke-opacity="1.000000" stroke-width="0.300000"/>
			<line id="直线 42" x1="234.000000" y1="0.000000" x2="234.000000" y2="303.061035" stroke="#FF6132" stroke-opacity="1.000000" stroke-width="0.300000"/>
			<line id="直线 43" x1="258.000000" y1="0.000000" x2="258.000000" y2="303.061035" stroke="#FF6132" stroke-opacity="1.000000" stroke-width="0.300000"/>
			<line id="直线 44" x1="282.000000" y1="0.000000" x2="282.000000" y2="303.061035" stroke="#FF6132" stroke-opacity="1.000000" stroke-width="0.300000"/>
			<line id="直线 45" x1="306.000000" y1="0.000000" x2="306.000000" y2="303.061035" stroke="#FF6132" stroke-opacity="1.000000" stroke-width="0.300000"/>
			<line id="直线 46" x1="330.000000" y1="0.000000" x2="330.000000" y2="303.061035" stroke="#FF6132" stroke-opacity="1.000000" stroke-width="0.300000"/>
			<line id="直线 47" x1="354.000000" y1="0.000000" x2="354.000000" y2="303.061035" stroke="#FF6132" stroke-opacity="1.000000" stroke-width="0.300000"/>
			<line id="直线 48" x1="378.000000" y1="0.000000" x2="378.000000" y2="303.061035" stroke="#FF6132" stroke-opacity="1.000000" stroke-width="0.300000"/>
			<line id="直线 49" x1="402.000000" y1="0.000000" x2="402.000000" y2="303.061035" stroke="#FF6132" stroke-opacity="1.000000" stroke-width="0.300000"/>
			<line id="直线 50" x1="426.000000" y1="0.000000" x2="426.000000" y2="303.061035" stroke="#FF6132" stroke-opacity="1.000000" stroke-width="0.300000"/>
			<line id="直线 51" x1="450.000000" y1="0.000000" x2="450.000000" y2="303.061035" stroke="#FF6132" stroke-opacity="1.000000" stroke-width="0.300000"/>
			<line id="直线 52" x1="474.000000" y1="0.000000" x2="474.000000" y2="303.061035" stroke="#FF6132" stroke-opacity="1.000000" stroke-width="0.300000"/>
			<line id="直线 53" x1="498.000000" y1="0.000000" x2="498.000000" y2="303.061035" stroke="#FF6132" stroke-opacity="1.000000" stroke-width="0.300000"/>
			<line id="直线 54" x1="522.000000" y1="0.000000" x2="522.000000" y2="303.061035" stroke="#FF6132" stroke-opacity="1.000000" stroke-width="0.300000"/>
			<line id="直线 55" x1="546.000000" y1="0.000000" x2="546.000000" y2="303.061035" stroke="#FF6132" stroke-opacity="1.000000" stroke-width="0.300000"/>
			<line id="直线 56" x1="570.000000" y1="0.000000" x2="570.000000" y2="303.061035" stroke="#FF6132" stroke-opacity="1.000000" stroke-width="0.300000"/>
			<line id="直线 57" x1="594.000000" y1="0.000000" x2="594.000000" y2="303.061035" stroke="#FF6132" stroke-opacity="1.000000" stroke-width="0.300000"/>
			<line id="直线 209" x1="618.000000" y1="0.000000" x2="618.000000" y2="303.061035" stroke="#FF6132" stroke-opacity="1.000000" stroke-width="0.300000"/>
			<line id="直线 210" x1="642.000000" y1="0.000000" x2="642.000000" y2="303.061035" stroke="#FF6132" stroke-opacity="1.000000" stroke-width="0.300000"/>
		</g>
		<g opacity="0.260000" style="mix-blend-mode:normal">
			<mask id="mask633_34170" mask-type="alpha" maskUnits="userSpaceOnUse" x="0.000000" y="-25.000488" width="660.000000" height="303.061218">
				<path id="矩形 746" d="M13.46 -25.01L646.53 -25.01C653.96 -25.01 660 -18.97 660 -11.54L660 278.06L0 278.06L0 -11.54C0 -18.97 6.03 -25.01 13.46 -25.01Z" fill="url(#paint_radial_633_34170_0)" fill-opacity="1.000000" fill-rule="evenodd"/>
			</mask>
			<g mask="url(#mask633_34170)">
				<path id="路径 9" d="" fill="#D8D8D8" fill-opacity="0" fill-rule="nonzero"/>
				<path id="路径 9" d="M330 -50.01L330 253.06" stroke="#FF6132" stroke-opacity="1.000000" stroke-width="0.600000"/>
				<path id="路径 8" d="" fill="#D8D8D8" fill-opacity="0" fill-rule="nonzero"/>
				<path id="路径 8" d="M0 96L660 96" stroke="#FF6132" stroke-opacity="1.000000" stroke-width="0.600000"/>
				<path id="路径 9" d="" fill="#D8D8D8" fill-opacity="0" fill-rule="nonzero"/>
				<path id="路径 9" d="M163.31 -70.68L496.66 262.67" stroke="#FF6132" stroke-opacity="1.000000" stroke-width="0.600000"/>
				<path id="路径 8" d="" fill="#D8D8D8" fill-opacity="0" fill-rule="nonzero"/>
				<path id="路径 8" d="M163.31 262.67L496.66 -70.68" stroke="#FF6132" stroke-opacity="1.000000" stroke-width="0.600000"/>
			</g>
			<g mask="url(#mask633_34170)">
				<path id="路径 48" d="" fill="#D8D8D8" fill-opacity="0" fill-rule="nonzero"/>
				<path id="路径 48" d="M282 -25.01L282 278.06" stroke="#FF6132" stroke-opacity="1.000000" stroke-width="0.640000" stroke-dasharray="1.68367 1.68367"/>
				<path id="路径 50" d="" fill="#D8D8D8" fill-opacity="0" fill-rule="nonzero"/>
				<path id="路径 50" d="M402 -25.01L402 278.06" stroke="#FF6132" stroke-opacity="1.000000" stroke-width="0.640000" stroke-dasharray="1.68367 1.68367"/>
				<path id="路径 49" d="" fill="#D8D8D8" fill-opacity="0" fill-rule="nonzero"/>
				<path id="路径 49" d="M258 -25.01L258 278.06" stroke="#FF6132" stroke-opacity="1.000000" stroke-width="0.640000" stroke-dasharray="1.68367 1.68367"/>
				<path id="路径 51" d="" fill="#D8D8D8" fill-opacity="0" fill-rule="nonzero"/>
				<path id="路径 51" d="M378 -25.01L378 278.06" stroke="#FF6132" stroke-opacity="1.000000" stroke-width="0.640000" stroke-dasharray="1.68367 1.68367"/>
				<path id="路径 44" d="" fill="#D8D8D8" fill-opacity="0" fill-rule="nonzero"/>
				<path id="路径 44" d="M0 48L660 48" stroke="#FF6132" stroke-opacity="1.000000" stroke-width="0.640000" stroke-linejoin="round" stroke-dasharray="1.68367 1.68367"/>
				<path id="路径 46" d="" fill="#D8D8D8" fill-opacity="0" fill-rule="nonzero"/>
				<path id="路径 46" d="M0 168L660 168" stroke="#FF6132" stroke-opacity="1.000000" stroke-width="0.640000" stroke-linejoin="round" stroke-dasharray="1.68367 1.68367"/>
				<path id="路径 45" d="" fill="#D8D8D8" fill-opacity="0" fill-rule="nonzero"/>
				<path id="路径 45" d="M0 24L660 24" stroke="#FF6132" stroke-opacity="1.000000" stroke-width="0.640000" stroke-linejoin="round" stroke-dasharray="1.68367 1.68367"/>
				<path id="路径 47" d="" fill="#D8D8D8" fill-opacity="0" fill-rule="nonzero"/>
				<path id="路径 47" d="M0 144L660 144" stroke="#FF6132" stroke-opacity="1.000000" stroke-width="0.640000" stroke-linejoin="round" stroke-dasharray="1.68367 1.68367"/>
				<rect id="矩形" x="258.000000" y="24.000000" rx="30.000000" width="144.000000" height="144.000000" fill="#FF2956" fill-opacity="0"/>
				<rect id="矩形" x="258.000000" y="24.000000" rx="30.000000" width="144.000000" height="144.000000" stroke="#FF6132" stroke-opacity="1.000000" stroke-width="1.000000"/>
				<circle id="椭圆形" cx="330.000000" cy="96.000000" r="48.000000" fill="#D8D8D8" fill-opacity="0"/>
				<circle id="椭圆形" cx="330.000000" cy="96.000000" r="48.000000" stroke="#FF6132" stroke-opacity="1.000000" stroke-width="0.800000" stroke-linejoin="round" stroke-dasharray="1.13333 1.13333"/>
			</g>
		</g>
		<rect id="矩形 753" x="296.570312" y="103.856689" width="12.571256" height="12.571255" stroke="#FF6132" stroke-opacity="1.000000" stroke-width="6.285715" stroke-linejoin="round"/>
		<rect id="矩形 758" x="343.714844" y="63.000000" width="12.571256" height="12.571255" stroke="#FF6132" stroke-opacity="1.000000" stroke-width="6.285715" stroke-linejoin="round"/>
		<path id="椭圆 3" d="M302.85 103.85C302.85 84.76 321.14 69.28 343.71 69.28" stroke="#FF6132" stroke-opacity="1.000000" stroke-width="6.285715"/>
		<path id="直线 19" d="M295 69.28L342.14 69.28" stroke="#FF6132" stroke-opacity="1.000000" stroke-width="6.285715" stroke-linecap="round"/>
		<path id="矩形 754" d="M350 75.57L366.11 100.24L365.6 100.66C362.03 103.54 359.96 107.89 359.96 112.48L359.95 131.61L340.03 131.61L340.04 112.5C340.04 107.9 337.96 103.54 334.39 100.65L333.88 100.24L350 75.57Z" stroke="#FF6132" stroke-opacity="1.000000" stroke-width="6.285715" stroke-linejoin="round"/>
	</g>
</svg>
