<svg viewBox="0 0 64 64" xmlns="http://www.w3.org/2000/svg" xmlns:xlink="http://www.w3.org/1999/xlink" width="64.000000" height="64.000000" fill="none" customFrame="#000000">
	<defs>
		<linearGradient id="paint_linear_9" x1="0" x2="63.9999962" y1="0" y2="63.9999962" gradientUnits="userSpaceOnUse">
			<stop stop-color="rgb(255,115,45)" offset="0.00499924878" stop-opacity="1" />
			<stop stop-color="rgb(232,53,17)" offset="0.501534343" stop-opacity="1" />
			<stop stop-color="rgb(246,66,30)" offset="1" stop-opacity="1" />
		</linearGradient>
		<clipPath id="clipPath_6">
			<rect width="36.000000" height="36.000000" x="14.000000" y="14.000000" fill="rgb(255,255,255)" />
		</clipPath>
	</defs>
	<g id="icon_3">
		<rect id="矩形 24" width="64.000000" height="64.000000" x="0.000000" y="0.000000" rx="12.000000" fill="url(#paint_linear_9)" />
		<g id="cc-structured.svg" clip-path="url(#clipPath_6)" customFrame="url(#clipPath_6)">
			<rect id="cc-structured.svg" width="36.000000" height="36.000000" x="14.000000" y="14.000000" />
			<g id="组合 215">
				<path id="path" d="M46.3824 38.6054L42.5166 36.8833L41.6989 36.5195L40.4851 37.0601L33.5321 40.1524C33.1986 40.2999 32.8511 40.3968 32.4894 40.4431C32.1277 40.4894 31.767 40.4832 31.4071 40.4244C31.0864 40.3755 30.777 40.2871 30.4789 40.1592L23.5242 37.0686L22.3104 36.5348L21.491 36.8986L17.6286 38.6224C17.4668 38.673 17.3183 38.7495 17.1832 38.8519C17.0775 38.9307 16.9863 39.0236 16.9095 39.1307C16.8325 39.2366 16.7702 39.3505 16.7225 39.4724C16.6683 39.6131 16.6388 39.7587 16.6341 39.9093C16.6308 39.9865 16.6339 40.0634 16.6433 40.1401C16.6527 40.2167 16.6684 40.2921 16.6902 40.3661C16.7121 40.4402 16.7399 40.512 16.7737 40.5814C16.8075 40.6509 16.8467 40.7171 16.8914 40.7801C16.9361 40.8431 16.9857 40.9019 17.0401 40.9567C17.0946 41.0115 17.1532 41.0614 17.2159 41.1065C17.2786 41.1516 17.3445 41.1912 17.4138 41.2254C17.4831 41.2596 17.5547 41.2878 17.6286 41.3101L31.0654 47.2771C31.159 47.3151 31.2542 47.3485 31.351 47.3774C31.6455 47.4636 31.9452 47.4902 32.2503 47.4573C32.3107 47.4512 32.3708 47.4427 32.4305 47.4318L32.49 47.4199C32.5882 47.3987 32.6851 47.3726 32.7807 47.3417C32.819 47.3285 32.857 47.3143 32.8946 47.2992L32.9507 47.2754L46.3807 41.2727C46.4498 41.2484 46.5172 41.22 46.583 41.1877C46.7143 41.1206 46.831 41.034 46.9332 40.9276C47.0576 40.8032 47.1548 40.6602 47.2247 40.4987C47.2946 40.3372 47.3323 40.1685 47.3378 39.9926C47.343 39.8083 47.3147 39.6292 47.2528 39.4554C47.2038 39.3167 47.1335 39.1898 47.042 39.0746C46.8694 38.8509 46.6506 38.6945 46.3824 38.6054Z" fill="rgb(254.745,254.847,255)" fill-rule="nonzero" />
				<path id="path" d="M46.4585 30.1687L42.8188 28.5605L40.5 29.6281L36.2041 31.5202L33.5453 32.7034L33.2597 32.8258L33.2206 32.8258C32.9306 32.9236 32.6331 32.9842 32.3281 33.0077C31.8148 33.0491 31.3139 32.9885 30.8253 32.8258L30.7794 32.8258L30.4547 32.7034L27.8197 31.5287L23.5153 29.6196L21.1812 28.569L17.5432 30.167C17.4709 30.1887 17.4007 30.216 17.3328 30.2489C17.2649 30.2818 17.2 30.3199 17.1382 30.3633C17.0764 30.4066 17.0184 30.4545 16.9643 30.5071C16.9102 30.5597 16.8606 30.6163 16.8155 30.6769C16.7705 30.7374 16.7305 30.8012 16.6957 30.8681C16.6608 30.9351 16.6315 31.0044 16.6078 31.076C16.5841 31.1477 16.5662 31.2207 16.5542 31.2953C16.5421 31.3698 16.5361 31.4448 16.5361 31.5202C16.5361 31.5957 16.5421 31.6707 16.5542 31.7452C16.5662 31.8197 16.5841 31.8928 16.6078 31.9645C16.6315 32.0361 16.6608 32.1054 16.6957 32.1724C16.7305 32.2393 16.7705 32.3031 16.8155 32.3636C16.8606 32.4242 16.9102 32.4808 16.9643 32.5334C17.0184 32.586 17.0764 32.6339 17.1382 32.6772C17.2 32.7205 17.2649 32.7587 17.3328 32.7916C17.4007 32.8245 17.4709 32.8518 17.5432 32.8734L21.4532 34.604L24.0338 35.7549L24.1018 35.7549L31.0582 38.8455C31.1511 38.8841 31.2458 38.9181 31.3421 38.9475C31.6371 39.0339 31.9374 39.0605 32.2431 39.0274C32.4861 39.0036 32.7195 38.9429 32.9435 38.8455L39.8965 35.7549L39.9679 35.7549L42.5485 34.604L46.4585 32.8734C46.5309 32.8525 46.6006 32.8247 46.6676 32.7901C46.8923 32.6806 47.0742 32.5219 47.2133 32.3141C47.2783 32.222 47.3299 32.1228 47.368 32.0166C47.3933 31.946 47.4143 31.874 47.4309 31.8007C47.4558 31.6709 47.4637 31.54 47.4547 31.408C47.4427 31.2763 47.4144 31.1483 47.3697 31.0238C47.2585 30.7341 47.0732 30.504 46.8138 30.3336C46.702 30.2631 46.5847 30.2081 46.4585 30.1687Z" fill="rgb(254.745,254.847,255)" fill-rule="nonzero" />
				<path id="path" d="M17.5417 25.4404L21.1814 27.0469L21.4687 27.171L22.0399 27.426L22.8899 27.8051L24.119 28.3542L28.4217 30.2548L31.0652 31.4363C31.1762 31.486 31.2907 31.5257 31.4086 31.5553C31.5652 31.5967 31.7245 31.6205 31.8863 31.6267C32.0286 31.6354 32.1702 31.6297 32.3113 31.6097C32.4513 31.5935 32.5885 31.5641 32.7227 31.5213C32.8004 31.4977 32.8764 31.4693 32.9505 31.4363L35.594 30.2548L39.8967 28.3542L41.1258 27.8051L41.9758 27.426L42.547 27.171L42.8411 27.0401L46.4587 25.4404C46.6037 25.3976 46.7375 25.3319 46.8599 25.2432C46.9537 25.1788 47.0375 25.1034 47.1115 25.0171C47.2219 24.8873 47.3075 24.7428 47.3682 24.5836C47.3961 24.5136 47.417 24.4417 47.4311 24.3677C47.451 24.2752 47.4601 24.1817 47.4583 24.0872C47.4566 23.9557 47.4385 23.8265 47.4039 23.6996C47.3447 23.4987 47.2473 23.3185 47.1115 23.159C46.9725 23.0025 46.8076 22.8813 46.6168 22.7952C46.5653 22.7722 46.5126 22.7524 46.4587 22.7357L32.9437 16.7398C32.7186 16.6448 32.4846 16.5842 32.2416 16.5579C31.8739 16.5191 31.5169 16.5645 31.1706 16.6939C31.1323 16.7082 31.0943 16.7235 31.0567 16.7398L17.5417 22.7272C17.3778 22.7776 17.227 22.8541 17.0895 22.9567C16.8579 23.1338 16.6952 23.3605 16.6016 23.6367C16.504 23.9348 16.504 24.2328 16.6016 24.5309C16.6795 24.7701 16.8126 24.9729 17.0011 25.1395C17.1142 25.2422 17.2412 25.3232 17.3819 25.3826C17.434 25.4051 17.4873 25.4244 17.5417 25.4404Z" fill="rgb(254.745,254.847,255)" fill-rule="nonzero" />
			</g>
		</g>
	</g>
</svg>
