<svg width="18.000000" height="18.000000" viewBox="0 0 18 18" fill="none" xmlns="http://www.w3.org/2000/svg" xmlns:xlink="http://www.w3.org/1999/xlink">
	<desc>
			Created with Pixso.
	</desc>
	<defs/>
	<path id="矢量 1" d="M18 9C18 4.02 13.97 0 9 0C4.02 0 0 4.02 0 9C0 13.97 4.02 18 9 18C13.97 18 18 13.97 18 9ZM17 9C17 4.58 13.41 1 9 1C4.58 1 1 4.58 1 9C1 13.41 4.58 17 9 17C13.41 17 17 13.41 17 9ZM8.44 11.57L12.73 9.25C13.08 9.06 13.08 8.69 12.73 8.49L8.44 6.1C8.14 5.94 7.7 5.97 7.44 6.17C7.28 6.36 7.27 6.7 7.54 6.85L10.23 8.36L4.84 8.36C4.44 8.36 4.13 8.57 4.13 8.84C4.13 9.11 4.44 9.33 4.84 9.33L10.3 9.33L7.56 10.82C7.24 10.98 7.18 11.29 7.44 11.5C7.68 11.71 8.13 11.75 8.44 11.57Z" fill="#2F5BEA" fill-opacity="1.000000" fill-rule="evenodd"/>
</svg>
