<svg width="68.000000" height="68.000000" viewBox="0 0 68 68" fill="none" xmlns="http://www.w3.org/2000/svg" xmlns:xlink="http://www.w3.org/1999/xlink">
	<desc>
			Created with Pixso.
	</desc>
	<defs/>
	<rect id="矩形备份" rx="8.000000" width="68.000000" height="68.000000" fill="#F0F0F0" fill-opacity="1.000000"/>
	<path id="path" d="M27.88 23.77C28.46 22.19 29.27 20.65 30.42 19.31L35.88 28.8L34.39 30.29L27.88 23.77ZM12.95 28.66C13.48 34.7 17.69 40.07 23.91 41.75C30.13 43.43 36.45 40.89 39.94 35.9L12.95 28.66Z" fill="#96ADFA" fill-opacity="1.000000" fill-rule="nonzero"/>
	<path id="path" d="M27.74 32.64C26.83 29.71 26.88 26.6 27.88 23.77L34.39 30.29L31.14 33.55L27.74 32.64Z" fill="#5E7CE0" fill-opacity="1.000000" fill-rule="nonzero"/>
	<g opacity="0.400000">
		<path id="path" d="M27.74 32.64L25.06 31.92C23.96 28.56 24.2 24.87 25.68 21.61L27.88 23.82C26.88 26.6 26.83 29.66 27.74 32.64ZM23.15 41.51L20.13 44.53C16.35 42.95 13.38 39.78 12 35.9L15.63 35.9C17.35 38.49 19.99 40.45 23.15 41.51Z" fill="#7693F5" fill-opacity="1.000000" fill-rule="nonzero"/>
	</g>
	<path id="path" d="M39.89 36C37.79 41.7 32.33 45.73 25.97 45.73C23.91 45.73 21.95 45.3 20.13 44.53L23.15 41.51C23.38 41.61 23.67 41.65 23.91 41.75C30.08 43.38 36.4 40.89 39.89 36Z" fill="#5E7CE0" fill-opacity="1.000000" fill-rule="nonzero"/>
	<path id="path" d="M44.44 29.67C45.06 29.67 45.54 29.19 45.54 28.56C45.54 27.94 45.06 27.46 44.44 27.46C43.82 27.46 43.34 27.94 43.34 28.56C43.34 29.19 43.82 29.67 44.44 29.67ZM39.89 36L39.94 35.9L31.14 33.55L38.08 26.6C39.41 25.26 41.02 24.59 42.91 24.58C44.3 24.58 45.59 25.01 46.64 25.69C46.69 25.73 46.79 25.78 46.83 25.83C47.17 26.07 47.46 26.31 47.7 26.55C48.7 27.56 50.14 28.18 51.72 28.18L59.76 28.42C59.9 28.42 60 28.51 60 28.66C60 28.8 59.9 28.9 59.76 28.9L54.4 29.23C50.18 29.47 46.55 31.92 45.21 35.71C44.87 36.57 44.54 37.39 44.11 38.2C40.23 45.68 32.38 50.81 23.39 50.81C20.56 50.81 17.83 50.33 15.35 49.37L20.18 44.53C21.95 45.3 23.91 45.68 25.97 45.68C32.33 45.73 37.79 41.65 39.89 36Z" fill="#7693F5" fill-opacity="1.000000" fill-rule="nonzero"/>
	<path id="path" d="M44.44 29.67C45.06 29.67 45.54 29.19 45.54 28.56C45.54 27.94 45.06 27.46 44.44 27.46C43.82 27.46 43.34 27.94 43.34 28.56C43.34 29.19 43.82 29.67 44.44 29.67Z" fill="#FFFFFF" fill-opacity="1.000000" fill-rule="nonzero"/>
</svg>
