<svg width="12.000000" height="12.000000" viewBox="0 0 12 12" fill="none" xmlns="http://www.w3.org/2000/svg" xmlns:xlink="http://www.w3.org/1999/xlink">
	<desc>
			Created with Pixso.
	</desc>
	<defs/>
	<path id="形状" d="M10.652 4L8.14246 4L8.13599 1.35199C8.1344 0.604797 7.52795 0 6.78162 0L5.22559 0C4.47754 0 3.87122 0.606384 3.87195 1.35522L3.87195 5.85199L5.03198 5.85199L5.03198 1.35522C5.03198 1.24829 5.11865 1.16162 5.22559 1.16162L6.78162 1.16162C6.88818 1.16162 6.97473 1.2478 6.97522 1.35437L6.98083 4L6 4L6 5.09119L10.6528 5.09119C10.7559 5.0885 10.8418 5.16974 10.8448 5.27283L10.8448 6.72717C10.8448 6.828 10.7584 6.90881 10.652 6.90881L9.15356 6.90881L9.15356 8L10.652 8C11.3969 8 12 7.43042 12 6.72803L12 5.27197C12 4.56958 11.396 4 10.652 4ZM6 8L6 6.90881L1.35522 6.90881C1.24878 6.90881 1.16162 6.828 1.16162 6.72717L1.16162 5.27283C1.16162 5.172 1.24878 5.09119 1.35522 5.09119L2.95044 5.09119L2.95044 4L1.35522 4C0.607178 4 0 4.57037 0 5.27197L0 6.72803C0 7.43042 0.608032 8 1.35522 8L6 8ZM6.98401 5.98322L8.14478 5.9856L8.13599 10.648C8.13428 11.3952 7.52795 12 6.78076 12L5.22559 12C4.47742 11.9996 3.87122 11.3929 3.87122 10.6448L3.87122 9.11517L5.03198 9.11517L5.03198 10.6448C5.03198 10.752 5.11914 10.8384 5.22559 10.8384L6.78076 10.8384C6.88745 10.8384 6.974 10.7522 6.97437 10.6456L6.98401 5.98322Z" clip-rule="evenodd" fill="#FFFFFF" fill-opacity="1.000000" fill-rule="evenodd"/>
</svg>
