<svg width="68.000000" height="68.000000" viewBox="0 0 68 68" fill="none" xmlns="http://www.w3.org/2000/svg" xmlns:xlink="http://www.w3.org/1999/xlink">
	<desc>
			Created with Pixso.
	</desc>
	<defs>
		<clipPath id="clip244_68">
			<rect id="new-logo" width="44.000000" height="44.000000" transform="translate(12.000000 12.000000)" fill="white" fill-opacity="0"/>
		</clipPath>
		<linearGradient x1="24.618155" y1="39.967533" x2="23.816177" y2="36.468666" id="paint_linear_244_72_0" gradientUnits="userSpaceOnUse">
			<stop stop-color="#61BDEE"/>
			<stop offset="1.000000" stop-color="#9984ED"/>
		</linearGradient>
		<radialGradient gradientTransform="translate(25.3776 45.6064) rotate(0) scale(29.0541 16.4039)" cx="0.000000" cy="0.000000" r="1.000000" id="paint_radial_244_72_1" gradientUnits="userSpaceOnUse">
			<stop stop-color="#FFFFFF" stop-opacity="0.698039"/>
			<stop offset="1.000000" stop-color="#FFFFFF" stop-opacity="0.000000"/>
		</radialGradient>
		<linearGradient x1="46.516846" y1="37.855957" x2="46.516846" y2="53.174339" id="paint_linear_244_73_0" gradientUnits="userSpaceOnUse">
			<stop stop-color="#1CDEE5"/>
			<stop offset="1.000000" stop-color="#2263EE"/>
		</linearGradient>
		<linearGradient x1="33.973862" y1="42.892174" x2="33.973862" y2="28.132751" id="paint_linear_244_75_0" gradientUnits="userSpaceOnUse">
			<stop stop-color="#8082F3"/>
			<stop offset="1.000000" stop-color="#C291E8" stop-opacity="0.800000"/>
		</linearGradient>
		<radialGradient gradientTransform="translate(34.7333 43.7928) rotate(0) scale(29.0541 16.4039)" cx="0.000000" cy="0.000000" r="1.000000" id="paint_radial_244_75_1" gradientUnits="userSpaceOnUse">
			<stop stop-color="#FFFFFF" stop-opacity="0.698039"/>
			<stop offset="1.000000" stop-color="#FFFFFF" stop-opacity="0.000000"/>
		</radialGradient>
		<linearGradient x1="53.250000" y1="34.563171" x2="53.250000" y2="49.881554" id="paint_linear_244_76_0" gradientUnits="userSpaceOnUse">
			<stop stop-color="#1CDEE5"/>
			<stop offset="1.000000" stop-color="#2263EE"/>
		</linearGradient>
		<linearGradient x1="24.618149" y1="30.276939" x2="24.618149" y2="15.517517" id="paint_linear_244_78_0" gradientUnits="userSpaceOnUse">
			<stop stop-color="#DEB6FF" stop-opacity="0.800000"/>
			<stop offset="1.000000" stop-color="#B37FEB"/>
		</linearGradient>
		<radialGradient gradientTransform="translate(25.3776 31.1776) rotate(0) scale(29.0541 16.4039)" cx="0.000000" cy="0.000000" r="1.000000" id="paint_radial_244_78_1" gradientUnits="userSpaceOnUse">
			<stop stop-color="#FFFFFF" stop-opacity="0.698039"/>
			<stop offset="1.000000" stop-color="#FFFFFF" stop-opacity="0.000000"/>
		</radialGradient>
		<linearGradient x1="27.361942" y1="32.493824" x2="43.155830" y2="29.176605" id="paint_linear_244_79_0" gradientUnits="userSpaceOnUse">
			<stop stop-color="#722ED1" stop-opacity="0.949020"/>
			<stop offset="1.000000" stop-color="#8A4DE0" stop-opacity="0.949020"/>
		</linearGradient>
		<linearGradient x1="33.973862" y1="28.463280" x2="33.973862" y2="13.703857" id="paint_linear_244_81_0" gradientUnits="userSpaceOnUse">
			<stop stop-color="#DEB6FF" stop-opacity="0.800000"/>
			<stop offset="1.000000" stop-color="#B37FEB"/>
		</linearGradient>
		<radialGradient gradientTransform="translate(34.7333 29.3639) rotate(0) scale(29.0541 16.4039)" cx="0.000000" cy="0.000000" r="1.000000" id="paint_radial_244_81_1" gradientUnits="userSpaceOnUse">
			<stop stop-color="#FFFFFF" stop-opacity="0.698039"/>
			<stop offset="1.000000" stop-color="#FFFFFF" stop-opacity="0.000000"/>
		</radialGradient>
		<linearGradient x1="36.717411" y1="30.680225" x2="52.511299" y2="27.363007" id="paint_linear_244_82_0" gradientUnits="userSpaceOnUse">
			<stop stop-color="#722ED1" stop-opacity="0.949020"/>
			<stop offset="1.000000" stop-color="#B087E8" stop-opacity="0.949020"/>
		</linearGradient>
		<linearGradient x1="30.297497" y1="32.172279" x2="20.089453" y2="50.167751" id="paint_linear_244_83_0" gradientUnits="userSpaceOnUse">
			<stop stop-color="#BC44FF" stop-opacity="0.921569"/>
			<stop offset="1.000000" stop-color="#02D2E2" stop-opacity="0.917647"/>
		</linearGradient>
		<radialGradient gradientTransform="translate(41.2762 22.712) rotate(0) scale(36.6869 54.6315)" cx="0.000000" cy="0.000000" r="1.000000" id="paint_radial_244_83_1" gradientUnits="userSpaceOnUse">
			<stop stop-color="#FFFFFF"/>
			<stop offset="1.000000" stop-color="#FFFFFF" stop-opacity="0.000000"/>
		</radialGradient>
	</defs>
	<rect id="矩形备份" rx="8.000000" width="68.000000" height="68.000000" fill="#F0F0F0" fill-opacity="1.000000"/>
	<g clip-path="url(#clip244_68)">
		<path id="Fill-10" d="M32.11 29.94C32.11 29.94 35.81 32.09 43.19 36.37L26.82 45.6L15.45 38.96C26.15 33.24 31.75 30.14 32.11 29.94Z" fill="url(#paint_linear_244_72_0)" fill-opacity="1.000000" fill-rule="evenodd"/>
		<path id="Fill-10" d="M43.19 36.37L26.82 45.6L15.45 38.96C26.15 33.24 31.75 30.14 32.11 29.94C32.11 29.94 35.81 32.09 43.19 36.37Z" stroke="url(#paint_radial_244_72_1)" stroke-opacity="1.000000" stroke-width="0.503762"/>
		<path id="Fill-10" d="M29.44 54.62L29.44 47.48L46.51 37.85C46.51 42.68 46.51 45.1 46.51 45.1C46.51 45.1 40.82 48.27 29.44 54.62Z" fill="url(#paint_linear_244_73_0)" fill-opacity="1.000000" fill-rule="evenodd"/>
		<path id="Fill-10" d="M29.44 47.48L46.51 37.85C46.51 42.68 46.51 45.1 46.51 45.1C46.51 45.1 40.82 48.27 29.44 54.62L29.44 47.48Z" stroke="#000000" stroke-opacity="0" stroke-width="1.000000"/>
		<path id="Fill-10" d="M41.47 28.13C41.47 28.13 45.16 30.27 52.55 34.55L36.18 43.79L24.81 37.15C35.51 31.43 41.1 28.33 41.47 28.13Z" fill="url(#paint_linear_244_75_0)" fill-opacity="1.000000" fill-rule="evenodd"/>
		<path id="Fill-10" d="M52.55 34.55L36.18 43.79L24.81 37.15C35.51 31.43 41.1 28.33 41.47 28.13C41.47 28.13 45.16 30.27 52.55 34.55Z" stroke="url(#paint_radial_244_75_1)" stroke-opacity="1.000000" stroke-width="0.503762"/>
		<path id="Fill-10" d="M36.18 51.33L36.18 44.19L53.24 34.56C53.25 39.39 53.25 41.81 53.24 41.81C53.24 41.81 47.55 44.98 36.18 51.33Z" fill="url(#paint_linear_244_76_0)" fill-opacity="1.000000" fill-rule="evenodd"/>
		<path id="Fill-10" d="M36.18 44.19L53.24 34.56C53.25 39.39 53.25 41.81 53.24 41.81C53.24 41.81 47.55 44.98 36.18 51.33L36.18 44.19Z" stroke="#000000" stroke-opacity="0" stroke-width="1.000000"/>
		<path id="Fill-10" d="M32.11 15.51C32.11 15.51 35.81 17.66 43.19 21.94L26.82 31.17L15.45 24.53C26.15 18.81 31.75 15.72 32.11 15.51Z" fill="url(#paint_linear_244_78_0)" fill-opacity="1.000000" fill-rule="evenodd"/>
		<path id="Fill-10" d="M43.19 21.94L26.82 31.17L15.45 24.53C26.15 18.81 31.75 15.72 32.11 15.51C32.11 15.51 35.81 17.66 43.19 21.94Z" stroke="url(#paint_radial_244_78_1)" stroke-opacity="1.000000" stroke-width="0.503762"/>
		<path id="Fill-10" d="M26.82 38.71L26.82 31.57L43.89 21.94C43.89 26.78 43.89 29.19 43.89 29.19C43.89 29.19 38.2 32.37 26.82 38.71Z" fill="url(#paint_linear_244_79_0)" fill-opacity="1.000000" fill-rule="evenodd"/>
		<path id="Fill-10" d="M26.82 31.57L43.89 21.94C43.89 26.78 43.89 29.19 43.89 29.19C43.89 29.19 38.2 32.37 26.82 38.71L26.82 31.57Z" stroke="#000000" stroke-opacity="0" stroke-width="1.000000"/>
		<path id="Fill-10" d="M41.47 13.7C41.47 13.7 45.16 15.85 52.55 20.13L36.18 29.36L24.81 22.72C35.51 17 41.1 13.9 41.47 13.7Z" fill="url(#paint_linear_244_81_0)" fill-opacity="1.000000" fill-rule="evenodd"/>
		<path id="Fill-10" d="M52.55 20.13L36.18 29.36L24.81 22.72C35.51 17 41.1 13.9 41.47 13.7C41.47 13.7 45.16 15.85 52.55 20.13Z" stroke="url(#paint_radial_244_81_1)" stroke-opacity="1.000000" stroke-width="0.503762"/>
		<path id="Fill-10" d="M36.18 36.9L36.18 29.76L53.24 20.13C53.25 24.96 53.25 27.38 53.24 27.38C53.24 27.38 47.55 30.55 36.18 36.9Z" fill="url(#paint_linear_244_82_0)" fill-opacity="1.000000" fill-rule="evenodd"/>
		<path id="Fill-10" d="M36.18 29.76L53.24 20.13C53.25 24.96 53.25 27.38 53.24 27.38C53.24 27.38 47.55 30.55 36.18 36.9L36.18 29.76Z" stroke="#000000" stroke-opacity="0" stroke-width="1.000000"/>
		<path id="形状结合" d="M24.1 22.71L36.18 29.76L36.18 36.9C33.88 35.59 31.9 34.46 30.26 33.53L29.58 33.14C28.5 32.52 27.58 32 26.82 31.57L26.82 38.73L36.18 44.19L36.18 51.33C33.62 49.87 31.37 48.6 29.44 47.5L29.44 54.62C19.64 49.05 14.75 46.26 14.75 46.26L14.75 38.95L20.52 42.3L20.52 35.13L19.9 34.78C17.75 33.55 16.27 32.71 15.47 32.25L15.25 32.12C14.91 31.93 14.75 31.83 14.75 31.83L14.75 24.52L24.1 29.99L24.1 23.62C24.1 23.33 24.1 23.02 24.1 22.71Z" fill="url(#paint_linear_244_83_0)" fill-opacity="1.000000" fill-rule="evenodd"/>
		<path id="形状结合" d="M36.18 29.76L36.18 36.9C33.88 35.59 31.9 34.46 30.26 33.53L29.58 33.14C28.5 32.52 27.58 32 26.82 31.57L26.82 38.73L36.18 44.19L36.18 51.33C33.62 49.87 31.37 48.6 29.44 47.5L29.44 54.62C19.64 49.05 14.75 46.26 14.75 46.26L14.75 38.95L20.52 42.3L20.52 35.13L19.9 34.78C17.75 33.55 16.27 32.71 15.47 32.25L15.25 32.12C14.91 31.93 14.75 31.83 14.75 31.83L14.75 24.52L24.1 29.99L24.1 23.62C24.1 23.33 24.1 23.02 24.1 22.71L36.18 29.76Z" stroke="url(#paint_radial_244_83_1)" stroke-opacity="1.000000" stroke-width="0.503762"/>
	</g>
</svg>
