<svg width="52.000000" height="52.000000" viewBox="0 0 52 52" fill="none" xmlns="http://www.w3.org/2000/svg" xmlns:xlink="http://www.w3.org/1999/xlink">
	<desc>
			Created with Pixso.
	</desc>
	<defs/>
	<path id="形状" d="M39.5739 14.0447L44.1014 14.0447C45.1483 14.0447 46 14.897 46 15.9443L46 21.9783C46 23.0256 45.1484 23.8777 44.1016 23.8777L43.9886 23.8777L43.9886 42.0879C43.9886 44.2449 42.2343 46 40.078 46L11.9214 46C9.76514 46 8.01074 44.2449 8.01074 42.0879L8.01074 23.8777L7.89905 23.8777C6.85193 23.8777 6 23.0256 6 21.9783L6 15.9443C6 14.897 6.85193 14.0447 7.89905 14.0447L12.4264 14.0447C12.1681 13.3704 12.0334 12.6484 12.0334 11.9216C12.0334 8.65649 14.6899 6 17.955 6C21.103 6 23.6688 8.40796 24.9178 9.84326C25.2992 10.282 25.6663 10.7534 25.9991 11.2312C26.3331 10.7507 26.7009 10.2791 27.0828 9.84253C28.3291 8.40796 30.8921 6 34.0443 6C35.625 6 37.1112 6.61719 38.2295 7.73755C39.3492 8.85645 39.9663 10.3425 39.9663 11.9216C39.9663 12.6492 39.8319 13.3711 39.5739 14.0447ZM27.3744 16.7339L27.3744 43.4602L24.6267 43.4602L24.6267 16.7339L27.3744 16.7339ZM22.0895 23.8752L22.0895 43.46L11.9213 43.46C11.1638 43.46 10.5475 42.8445 10.5475 42.0879L10.5475 23.8765L22.0895 23.8752ZM29.9098 16.5757L34.749 16.5757L34.7427 16.5837L43.4634 16.5837L43.4634 21.3394L29.9098 21.3394L29.9098 16.5757ZM34.0443 8.53931C35.9113 8.53931 37.4303 10.0566 37.4303 11.9216C37.4303 12.6599 37.1964 13.3608 36.754 13.9485L36.6815 14.0447L27.2515 14.0447L27.4354 13.7139C27.8528 12.9626 28.3922 12.2007 28.9962 11.5093C31.2402 8.92505 33.1222 8.53931 34.0443 8.53931ZM17.9548 8.53931C18.8748 8.53931 20.7539 8.92505 23.0044 11.5088C23.6117 12.2075 24.1511 12.97 24.5643 13.7139L24.7482 14.0447L15.3186 14.0447L15.2472 13.949C14.804 13.3606 14.5696 12.6597 14.5696 11.9216C14.5696 10.0566 16.0883 8.53931 17.9548 8.53931ZM17.2842 16.5757L22.0894 16.5757L22.0894 21.3232L8.94092 21.3379L8.5365 21.3379L8.5365 16.5833L17.2904 16.5833L17.2842 16.5757ZM40.0779 43.4602L29.9098 43.4602L29.9098 23.8777L41.4518 23.8777L41.4518 42.0879C41.4518 42.8445 40.8356 43.4602 40.0779 43.4602Z" clip-rule="evenodd" fill="#FFFFFF" fill-opacity="1.000000" fill-rule="evenodd"/>
	<rect id="矩形备份 15" width="52.000000" height="52.000000" fill="#FFFFFF" fill-opacity="0"/>
	<rect id="矩形备份 15" x="0.500000" y="0.500000" width="51.000000" height="51.000000" stroke="#979797" stroke-opacity="0" stroke-width="1.000000"/>
</svg>
