<svg width="52.000000" height="52.000000" viewBox="0 0 52 52" fill="none" xmlns="http://www.w3.org/2000/svg" xmlns:xlink="http://www.w3.org/1999/xlink">
	<desc>
			Created with Pixso.
	</desc>
	<defs/>
	<rect id="画板 5" width="52.000000" height="52.000000" fill="#FFFFFF" fill-opacity="0"/>
	<path id="形状" d="M39.5737 14.0447L44.1016 14.0447C45.1484 14.0447 46 14.897 46 15.9443L46 21.9783C46 23.0256 45.1484 23.8777 44.1016 23.8777L43.9888 23.8777L43.9888 42.0879C43.9888 44.2449 42.2344 46 40.0781 46L11.9214 46C9.76514 46 8.01074 44.2449 8.01074 42.0879L8.01074 23.8777L7.89893 23.8777C6.85205 23.8777 6 23.0256 6 21.9783L6 15.9443C6 14.897 6.85205 14.0447 7.89893 14.0447L12.4263 14.0447C12.168 13.3704 12.0337 12.6484 12.0337 11.9216C12.0337 8.65649 14.6899 6 17.9551 6C21.103 6 23.6689 8.40796 24.918 9.84326C25.2993 10.282 25.666 10.7534 25.999 11.2312C26.333 10.7507 26.7007 10.2791 27.0825 9.84253C28.3291 8.40796 30.8921 6 34.0444 6C35.625 6 37.1113 6.61719 38.2295 7.73755C39.3491 8.85645 39.9663 10.3425 39.9663 11.9216C39.9663 12.6492 39.832 13.3711 39.5737 14.0447ZM27.3745 16.7339L27.3745 43.4602L24.627 43.4602L24.627 16.7339L27.3745 16.7339ZM22.0894 23.8752L22.0894 43.46L11.9214 43.46C11.1636 43.46 10.5474 42.8445 10.5474 42.0879L10.5474 23.8765L22.0894 23.8752ZM29.9097 16.5757L34.749 16.5757L34.7427 16.5837L43.4634 16.5837L43.4634 21.3394L29.9097 21.3394L29.9097 16.5757ZM34.0444 8.53931C35.9111 8.53931 37.4302 10.0566 37.4302 11.9216C37.4302 12.6599 37.1963 13.3608 36.7539 13.9485L36.6816 14.0447L27.2515 14.0447L27.4355 13.7139C27.853 12.9626 28.3921 12.2007 28.9961 11.5093C31.2402 8.92505 33.1221 8.53931 34.0444 8.53931ZM17.9551 8.53931C18.8745 8.53931 20.7539 8.92505 23.0044 11.5088C23.6118 12.2075 24.1509 12.97 24.5645 13.7139L24.748 14.0447L15.3188 14.0447L15.2471 13.949C14.8037 13.3606 14.5698 12.6597 14.5698 11.9216C14.5698 10.0566 16.0884 8.53931 17.9551 8.53931ZM17.2842 16.5757L22.0894 16.5757L22.0894 21.3232L8.94092 21.3379L8.53662 21.3379L8.53662 16.5833L17.2905 16.5833L17.2842 16.5757ZM40.0781 43.4602L29.9097 43.4602L29.9097 23.8777L41.4517 23.8777L41.4517 42.0879C41.4517 42.8445 40.8354 43.4602 40.0781 43.4602Z" clip-rule="evenodd" fill="#191919" fill-opacity="1.000000" fill-rule="evenodd"/>
	<rect id="矩形备份 15" width="52.000000" height="52.000000" fill="#FFFFFF" fill-opacity="0"/>
	<rect id="矩形备份 15" x="0.500000" y="0.500000" width="51.000000" height="51.000000" stroke="#979797" stroke-opacity="0" stroke-width="1.000000"/>
</svg>
