<svg width="18.000000" height="18.000000" viewBox="0 0 18 18" fill="none" xmlns="http://www.w3.org/2000/svg" xmlns:xlink="http://www.w3.org/1999/xlink">
	<desc>
			Created with Pixso.
	</desc>
	<defs/>
	<mask id="mask71_26466" mask-type="alpha" maskUnits="userSpaceOnUse" x="0.000000" y="0.000000" width="18.000000" height="18.000000">
		<rect id="短信-message" width="18.000000" height="18.000000" fill="#C4C4C4" fill-opacity="1.000000"/>
	</mask>
	<g mask="url(#mask71_26466)">
		<path id="形状结合" d="M14.0625 2.8125C15.615 2.8125 16.875 4.06128 16.875 5.625L16.875 12.375C16.875 13.9275 15.615 15.1875 14.0625 15.1875L3.9375 15.1875C2.37378 15.1875 1.125 13.9275 1.125 12.375L1.125 5.625C1.125 4.06128 2.37378 2.8125 3.9375 2.8125L14.0625 2.8125ZM3.9375 3.9375L14.0625 3.9375C14.3438 3.9375 14.6025 4.00488 14.8389 4.12866L9.36011 8.68506C9.14624 8.85376 8.84253 8.85376 8.62866 8.68506L3.1499 4.12866C3.38623 4.00488 3.64502 3.9375 3.9375 3.9375ZM15.6038 4.94995L10.0688 9.55127C9.44995 10.0688 8.53882 10.0688 7.91992 9.55127L2.38501 4.94995C2.29492 5.15259 2.25 5.37744 2.25 5.625L2.25 12.375C2.25 13.2976 3.00366 14.0625 3.9375 14.0625L14.0625 14.0625C14.9851 14.0625 15.75 13.2976 15.75 12.375L15.75 5.625C15.75 5.37744 15.6938 5.15259 15.6038 4.94995Z" clip-rule="evenodd" fill="#191919" fill-opacity="1.000000" fill-rule="evenodd"/>
	</g>
</svg>
