<svg width="52.000000" height="52.000000" viewBox="0 0 52 52" fill="none" xmlns="http://www.w3.org/2000/svg" xmlns:xlink="http://www.w3.org/1999/xlink">
	<desc>
			Created with Pixso.
	</desc>
	<defs/>
	<rect id="画板 2" width="52.000000" height="52.000000" fill="#FFFFFF" fill-opacity="0"/>
	<rect id="矩形" width="52.000000" height="52.000000" fill="#FFFFFF" fill-opacity="0"/>
	<rect id="矩形" x="0.500000" y="0.500000" width="51.000000" height="51.000000" stroke="#979797" stroke-opacity="0" stroke-width="1.000000"/>
	<path id="形状结合" d="M25.9956 14.7446L25.6885 14.7446C22.3691 14.584 19.9189 11.9968 20.002 8.72656C19.9995 7.13745 20.6816 5.61914 21.8853 4.5354C23.0889 3.4519 24.7051 2.90088 26.3467 3.01465C29.5991 3.23657 32.0918 5.89526 31.9976 9.04224C31.9033 12.1892 29.2559 14.7046 25.9956 14.7446ZM23.6753 6.35791C24.3115 5.80273 25.1431 5.50195 26.0005 5.51636L26.2114 5.51636C28.0811 5.62451 29.5356 7.12646 29.5229 8.93506C29.4409 10.8328 27.7842 12.3091 25.8184 12.2354C23.9116 12.1426 22.5591 10.6931 22.606 8.78418C22.606 7.86865 22.9917 6.99268 23.6753 6.35791ZM40.7725 12.9043C41.6733 11.3169 43.0347 8.91699 40.7285 7.4939C39.811 6.93188 38.6895 6.76978 37.6411 7.04785C36.5498 7.33569 35.6362 8.05444 35.1255 9.02661C32.5918 13.8689 29.8618 15.9421 26.0186 15.9421L25.9253 15.9421C22.1235 15.9075 19.5332 13.9287 16.9712 9.11646C16.4375 8.11548 15.4854 7.38184 14.3545 7.10034C13.2734 6.8291 12.1235 7.01587 11.1948 7.61353C9.10889 8.96436 10.1597 10.8359 11.293 12.8196C12.9683 15.7192 14.8784 18.4873 17.0044 21.0984C18.9019 23.4685 19.2822 25.3125 18.3608 27.6726C16.6968 31.9365 15.167 36.3201 13.6895 40.5566C13.1841 42.0071 12.6768 43.4551 12.1675 44.9004L12.1675 44.928C11.8506 45.8296 11.9897 46.8223 12.5439 47.6104C13.0986 48.3987 14.0039 48.8916 14.9912 48.9426C18.7827 49.1296 19.3906 47.719 20.832 44.3123L20.9463 44.0432C21.5698 42.5779 22.2144 41.0527 22.9829 39.6721C23.4692 38.7898 23.9976 37.9126 24.4839 37.1177L27.6646 37.2224C28.8911 39.5574 30.1514 41.9573 31.2617 44.3721L31.3936 44.6562C32.7319 47.562 33.394 49 36.3525 49C36.5801 49 36.8218 48.9917 37.0771 48.9751C38.0684 48.9121 38.9736 48.4094 39.5264 47.6145C40.0791 46.8193 40.2173 45.8223 39.9004 44.9155C39.4985 43.7659 39.0981 42.616 38.6997 41.4663C37.165 37.0479 35.5786 32.4773 33.8604 28.0364C32.8247 25.3499 33.2544 23.2417 35.3584 20.7644C37.4102 18.3103 39.2227 15.6792 40.7725 12.9043ZM36.2334 42.2563C34.7065 37.8552 33.125 33.3071 31.4224 28.9062C30.0508 25.3623 30.6431 22.3645 33.3477 19.1919C35.3022 16.8579 37.0288 14.3552 38.5054 11.7156C39.3076 10.2976 39.4141 9.81177 39.4141 9.6521C39.3887 9.63208 39.3618 9.61377 39.3335 9.59741C39.0327 9.41553 38.6655 9.36572 38.3242 9.46021C37.9395 9.56152 37.6167 9.81494 37.4365 10.158C35.3999 14.0483 32.2402 18.4966 25.8892 18.4443C19.7764 18.3845 16.6812 14.0408 14.6704 10.2627C14.4766 9.89233 14.127 9.62012 13.71 9.51514C13.3457 9.41943 12.9556 9.48022 12.6411 9.68213L12.6128 9.69946C12.7061 10.1108 13.2778 11.125 13.5654 11.6235C15.1763 14.4053 17.0112 17.0608 19.0542 19.5657C20.6899 21.6094 22.3667 24.4778 20.7832 28.5374C19.1372 32.7615 17.6152 37.1226 16.1431 41.3394C15.6426 42.793 15.1333 44.2451 14.6157 45.6956L14.6157 45.7205C14.5601 45.8809 14.5859 46.0574 14.686 46.1963C14.7837 46.3435 14.9497 46.4363 15.1309 46.4456C16.5205 46.5203 16.8052 46.3708 16.9941 46.1963C17.4111 45.8225 17.8174 44.8457 18.4463 43.3652L18.5601 43.0986C19.1948 41.5325 19.9106 39.9978 20.7056 38.5007C21.3652 37.3296 22.0562 36.1807 22.6592 35.2087L23.0503 34.5781L29.2896 34.78L29.8149 35.7917C31.1064 38.249 32.4443 40.7886 33.6299 43.3604L33.7617 43.647C35.1245 46.6079 35.1284 46.6077 36.897 46.4907L36.9009 46.4905C37.0898 46.4768 37.2617 46.3801 37.3667 46.228C37.4712 46.0759 37.4971 45.8857 37.4365 45.7129C37.0347 44.5598 36.6338 43.4077 36.2334 42.2563Z" clip-rule="evenodd" fill="#191919" fill-opacity="1.000000" fill-rule="evenodd"/>
</svg>
