<svg width="52.000000" height="52.000000" viewBox="0 0 52 52" fill="none" xmlns="http://www.w3.org/2000/svg" xmlns:xlink="http://www.w3.org/1999/xlink">
	<desc>
			Created with Pixso.
	</desc>
	<defs/>
	<rect id="画板 4" width="52.000000" height="52.000000" fill="#FFFFFF" fill-opacity="0"/>
	<path id="形状" d="M40.958 29.667L38.4707 29.667L38.4707 26.5527C38.4707 25.9299 38.1597 25.3071 37.5376 25.3071L27.5884 25.3071L27.5884 22.1931L30.6973 22.1931C33.4956 21.8818 34.7393 20.3247 34.7393 17.8335L34.7393 10.0483C34.4287 7.86841 32.874 6.31152 30.6973 6L22.6133 6C20.437 6 18.2607 7.86841 18.2607 10.0483L18.2607 18.7676C18.2607 20.636 19.5044 22.5046 22.3027 22.5046L25.4116 22.5046L25.4116 25.6187L15.7729 25.6187C15.1514 25.6187 14.8403 25.9299 14.8403 26.8643L14.8403 29.9783L12.353 29.9783C10.1763 29.667 8 31.8467 8 34.0266L8 42.4346C8 43.6802 8.31104 44.6145 9.24365 45.2373C10.1763 45.8601 11.1094 46.1714 12.042 46.1714L19.8149 46.1714C22.3027 46.1714 23.8569 44.303 24.168 42.123L24.168 34.0266C24.168 31.8467 22.6133 29.9783 20.437 29.667L16.7061 29.667L16.7061 27.7983L36.2939 27.7983L36.2939 29.667L32.874 29.667C30.6973 29.667 28.832 31.5354 28.832 33.7151L28.832 42.123C28.832 43.3687 29.1431 44.303 30.0757 44.9258C30.6973 45.5486 31.9414 45.8601 32.874 45.8601L41.5801 45.8601C42.5127 45.8601 43.4453 45.5486 44.0674 44.6145C44.689 43.6802 45 42.7458 45 41.8118L45 34.0266C45 31.8467 43.1343 29.9783 40.958 29.667ZM20.437 18.7676C20.437 19.3904 20.748 19.7019 21.0586 20.0132C21.6807 20.636 21.9917 20.636 22.6133 20.636L30.3867 20.636C31.3193 20.3247 32.252 19.7019 32.252 18.4563L32.252 10.6711C32.252 9.42554 31.3193 8.49121 30.3867 8.49121L22.3027 8.49121C21.3696 8.49121 20.437 9.11401 20.437 10.3596L20.437 18.7676ZM22.3027 34.0266L22.3027 41.8118C22.3027 43.0574 21.3696 43.6802 20.126 43.6802L12.353 43.6802C12.042 43.6802 11.4204 43.6802 11.1094 43.3687C10.7983 43.0574 10.4873 42.4346 10.4873 41.8118L10.4873 34.0266C10.4873 32.781 11.4204 32.1582 12.353 32.1582L20.437 32.1582C21.3696 31.8467 22.3027 32.781 22.3027 34.0266ZM41.269 43.6802C41.5801 43.6802 42.2017 43.3687 42.5127 43.0574C42.8237 42.7458 42.8237 42.123 42.8237 41.8118L42.8237 34.0266C42.8237 33.0923 41.8906 32.1582 40.958 32.1582L32.874 32.1582C31.9414 32.1582 31.0083 32.781 31.0083 34.0266L31.0083 41.8118C31.0083 42.4346 31.3193 43.0574 31.6304 43.3687C31.9414 43.6802 32.563 43.6802 32.874 43.6802L41.269 43.6802Z" clip-rule="evenodd" fill="#191919" fill-opacity="1.000000" fill-rule="evenodd"/>
	<rect id="矩形备份 15" width="52.000000" height="52.000000" fill="#FFFFFF" fill-opacity="0"/>
	<rect id="矩形备份 15" x="0.500000" y="0.500000" width="51.000000" height="51.000000" stroke="#979797" stroke-opacity="0" stroke-width="1.000000"/>
</svg>
