<svg width="52.000000" height="52.000000" viewBox="0 0 52 52" fill="none" xmlns="http://www.w3.org/2000/svg" xmlns:xlink="http://www.w3.org/1999/xlink">
	<desc>
			Created with Pixso.
	</desc>
	<defs/>
	<path id="形状" d="M40.958 29.667L38.4706 29.667L38.4706 26.5527C38.4706 25.9299 38.1597 25.3071 37.5378 25.3071L27.5883 25.3071L27.5883 22.1931L30.6975 22.1931C33.4958 21.8818 34.7395 20.3247 34.7395 17.8335L34.7395 10.0483C34.4286 7.86841 32.8739 6.31152 30.6975 6L22.6134 6C20.437 6 18.2605 7.86841 18.2605 10.0483L18.2605 18.7676C18.2605 20.636 19.5042 22.5046 22.3025 22.5046L25.4117 22.5046L25.4117 25.6187L15.7731 25.6187C15.1512 25.6187 14.8403 25.9299 14.8403 26.8643L14.8403 29.9783L12.3529 29.9783C10.1765 29.667 8 31.8467 8 34.0266L8 42.4346C8 43.6802 8.31091 44.6145 9.24365 45.2373C10.1765 45.8601 11.1093 46.1714 12.042 46.1714L19.8152 46.1714C22.3025 46.1714 23.8572 44.303 24.1681 42.123L24.1681 34.0266C24.1681 31.8467 22.6134 29.9783 20.437 29.667L16.7059 29.667L16.7059 27.7983L36.2941 27.7983L36.2941 29.667L32.8739 29.667C30.6975 29.667 28.8319 31.5354 28.8319 33.7151L28.8319 42.123C28.8319 43.3687 29.1428 44.303 30.0757 44.9258C30.6975 45.5486 31.9412 45.8601 32.8739 45.8601L41.5798 45.8601C42.5126 45.8601 43.4454 45.5486 44.0673 44.6145C44.6891 43.6802 45 42.7458 45 41.8118L45 34.0266C45 31.8467 43.1344 29.9783 40.958 29.667ZM20.437 18.7676C20.437 19.3904 20.7479 19.7019 21.0588 20.0132C21.6807 20.636 21.9916 20.636 22.6134 20.636L30.3866 20.636C31.3193 20.3247 32.2521 19.7019 32.2521 18.4563L32.2521 10.6711C32.2521 9.42554 31.3193 8.49121 30.3866 8.49121L22.3025 8.49121C21.3698 8.49121 20.437 9.11401 20.437 10.3596L20.437 18.7676ZM22.3025 34.0266L22.3025 41.8118C22.3025 43.0574 21.3698 43.6802 20.1261 43.6802L12.3529 43.6802C12.042 43.6802 11.4202 43.6802 11.1093 43.3687C10.7983 43.0574 10.4874 42.4346 10.4874 41.8118L10.4874 34.0266C10.4874 32.781 11.4202 32.1582 12.3529 32.1582L20.437 32.1582C21.3698 31.8467 22.3025 32.781 22.3025 34.0266ZM41.2689 43.6802C41.5798 43.6802 42.2017 43.3687 42.5126 43.0574C42.8235 42.7458 42.8235 42.123 42.8235 41.8118L42.8235 34.0266C42.8235 33.0923 41.8907 32.1582 40.958 32.1582L32.8739 32.1582C31.9412 32.1582 31.0084 32.781 31.0084 34.0266L31.0084 41.8118C31.0084 42.4346 31.3193 43.0574 31.6302 43.3687C31.9412 43.6802 32.563 43.6802 32.8739 43.6802L41.2689 43.6802Z" clip-rule="evenodd" fill="#FFFFFF" fill-opacity="1.000000" fill-rule="evenodd"/>
	<rect id="矩形备份 15" width="52.000000" height="52.000000" fill="#FFFFFF" fill-opacity="0"/>
	<rect id="矩形备份 15" x="0.500000" y="0.500000" width="51.000000" height="51.000000" stroke="#979797" stroke-opacity="0" stroke-width="1.000000"/>
</svg>
