<svg width="52.000000" height="52.000000" viewBox="0 0 52 52" fill="none" xmlns="http://www.w3.org/2000/svg" xmlns:xlink="http://www.w3.org/1999/xlink">
	<desc>
			Created with Pixso.
	</desc>
	<defs/>
	<rect id="画板 3" width="52.000000" height="52.000000" fill="#FFFFFF" fill-opacity="0"/>
	<path id="形状结合" d="M26.0366 46C16.5044 45.9941 8.29395 39.2859 6.40137 29.9563C4.5083 20.6267 9.45654 11.2563 18.2349 7.54614C28.4194 3.30688 40.1201 8.08325 44.4146 18.2329C48.7085 28.3826 43.9819 40.0894 33.8389 44.4263C31.3706 45.4697 28.7168 46.0049 26.0366 46ZM8.58105 25.9863C8.58105 16.3745 16.4116 8.55518 26.0366 8.55518C35.6621 8.55518 43.4927 16.3745 43.4927 25.9863C43.4927 35.5979 35.6621 43.4172 26.0366 43.4172C16.4116 43.4172 8.58105 35.5979 8.58105 25.9863ZM22.27 23.825C21.5864 23.8245 21.0254 23.2756 21 22.5825C20.9575 21.8579 20.3652 21.2922 19.6494 21.2922C18.9336 21.2922 18.3418 21.8579 18.2988 22.5825C18.2847 23.0447 18.0273 23.4634 17.6245 23.6804C17.2222 23.8972 16.7358 23.8792 16.3501 23.6328C15.9644 23.3865 15.7383 22.9497 15.7573 22.4878C15.834 20.3643 17.5537 18.6829 19.6494 18.6829C21.7446 18.6829 23.4648 20.3643 23.5415 22.4878C23.5674 23.1987 23.0205 23.7966 22.3193 23.824L22.27 23.825ZM33.7017 22.5825C33.7266 23.2756 34.2876 23.8245 34.9717 23.825L35.021 23.824C35.7222 23.7966 36.269 23.1987 36.2432 22.4878C36.166 20.3643 34.4463 18.6829 32.3511 18.6829C30.2554 18.6829 28.5356 20.3643 28.459 22.4878C28.4399 22.9497 28.666 23.3865 29.0518 23.6328C29.4375 23.8792 29.9238 23.8972 30.3262 23.6804C30.729 23.4634 30.9858 23.0447 31.0005 22.5825C31.043 21.8579 31.6353 21.2922 32.3511 21.2922C33.0669 21.2922 33.6592 21.8579 33.7017 22.5825ZM26.4409 34.2927C22.938 34.2942 19.689 32.4395 17.873 29.4016C17.6284 29.0076 17.6123 28.5103 17.8306 28.1008C18.0493 27.6912 18.4683 27.4329 18.9277 27.425C19.3867 27.417 19.8145 27.6606 20.0464 28.0623C21.4023 30.3286 23.8262 31.7126 26.4404 31.7126C29.0542 31.7126 31.4785 30.3286 32.834 28.0623C33.0664 27.6606 33.4941 27.417 33.9531 27.425C34.4121 27.4329 34.8311 27.6912 35.0498 28.1008C35.2681 28.5103 35.252 29.0076 35.0073 29.4016C33.1919 32.439 29.9434 34.2937 26.4409 34.2927Z" clip-rule="evenodd" fill="#191919" fill-opacity="1.000000" fill-rule="evenodd"/>
	<rect id="矩形备份 2" width="52.000000" height="52.000000" fill="#FFFFFF" fill-opacity="0"/>
	<rect id="矩形备份 2" x="0.500000" y="0.500000" width="51.000000" height="51.000000" stroke="#979797" stroke-opacity="0" stroke-width="1.000000"/>
</svg>
