<svg width="52.000000" height="52.000000" viewBox="0 0 52 52" fill="none" xmlns="http://www.w3.org/2000/svg" xmlns:xlink="http://www.w3.org/1999/xlink">
	<desc>
			Created with Pixso.
	</desc>
	<defs/>
	<path id="形状结合" d="M26.0369 46C16.5042 45.9941 8.29407 39.2859 6.40112 29.9563C4.5083 20.6267 9.45642 11.2563 18.235 7.54614C28.4197 3.30688 40.1202 8.08325 44.4144 18.2329C48.7086 28.3826 43.9819 40.0894 33.8386 44.4263C31.3705 45.4697 28.7169 46.0049 26.0369 46ZM8.58093 25.9863C8.58093 16.3745 16.4116 8.55518 26.0369 8.55518C35.6621 8.55518 43.4927 16.3745 43.4927 25.9863C43.4927 35.5979 35.6621 43.4172 26.0369 43.4172C16.4116 43.4172 8.58093 35.5979 8.58093 25.9863ZM22.2701 23.825C21.5863 23.8245 21.0251 23.2756 21.0001 22.5825C20.9575 21.8579 20.3655 21.2922 19.6495 21.2922C18.9336 21.2922 18.3417 21.8579 18.299 22.5825C18.2845 23.0447 18.0272 23.4634 17.6248 23.6804C17.2222 23.8972 16.736 23.8792 16.3502 23.6328C15.9645 23.3865 15.7383 22.9497 15.7572 22.4878C15.834 20.3643 17.5538 18.6829 19.6493 18.6829C21.7448 18.6829 23.4646 20.3643 23.5415 22.4878C23.5673 23.1987 23.0205 23.7966 22.3195 23.824L22.2701 23.825ZM33.7017 22.5825C33.7268 23.2756 34.2878 23.8245 34.9717 23.825L35.021 23.824C35.722 23.7966 36.2688 23.1987 36.243 22.4878C36.1663 20.3643 34.4463 18.6829 32.351 18.6829C30.2555 18.6829 28.5356 20.3643 28.4587 22.4878C28.4398 22.9497 28.666 23.3865 29.0518 23.6328C29.4375 23.8792 29.9237 23.8972 30.3263 23.6804C30.7288 23.4634 30.9861 23.0447 31.0006 22.5825C31.0432 21.8579 31.6353 21.2922 32.3511 21.2922C33.067 21.2922 33.6591 21.8579 33.7017 22.5825ZM26.4412 34.2927C22.9381 34.2942 19.6888 32.4395 17.873 29.4016C17.6284 29.0076 17.6123 28.5103 17.8307 28.1008C18.0492 27.6912 18.4684 27.4329 18.9275 27.425C19.3866 27.417 19.8143 27.6606 20.0465 28.0623C21.4022 30.3286 23.8264 31.7126 26.4403 31.7126C29.0541 31.7126 31.4783 30.3286 32.834 28.0623C33.0663 27.6606 33.4939 27.417 33.953 27.425C34.4121 27.4329 34.8313 27.6912 35.0498 28.1008C35.2683 28.5103 35.2521 29.0076 35.0074 29.4016C33.1919 32.439 29.9435 34.2937 26.4412 34.2927Z" clip-rule="evenodd" fill="#FFFFFF" fill-opacity="1.000000" fill-rule="evenodd"/>
	<rect id="矩形备份 2" width="52.000000" height="52.000000" fill="#FFFFFF" fill-opacity="0"/>
	<rect id="矩形备份 2" x="0.500000" y="0.500000" width="51.000000" height="51.000000" stroke="#979797" stroke-opacity="0" stroke-width="1.000000"/>
</svg>
