<svg width="52.000000" height="52.000000" viewBox="0 0 52 52" fill="none" xmlns="http://www.w3.org/2000/svg" xmlns:xlink="http://www.w3.org/1999/xlink">
	<desc>
			Created with Pixso.
	</desc>
	<defs/>
	<mask id="mask_71_26743" fill="white">
		<path id="形状" d="M13.1521 13.3318C13.8113 12.73 14.8477 12.73 15.5068 13.3318C15.8352 13.6394 16.0203 14.0605 16.0203 14.5005C16.0203 14.9402 15.8352 15.3613 15.5068 15.6689C14.8477 16.2708 13.8113 16.2708 13.1521 15.6689C12.8237 15.3613 12.6387 14.9402 12.6387 14.5005C12.6387 14.0605 12.8237 13.6394 13.1521 13.3318ZM16.906 17.0581C16.2344 17.7212 15.311 18.0952 14.3464 18.0952C13.3821 18.0952 12.4587 17.7212 11.7871 17.0581C10.3743 15.6277 10.3743 13.3894 11.7871 11.959C12.4587 11.2959 13.3821 10.9219 14.3464 10.9219C15.311 10.9219 16.2344 11.2959 16.906 11.959C18.3188 13.3894 18.3188 15.6277 16.906 17.0581ZM19.4629 19.0254C19.2937 19.3906 18.9099 19.6208 18.4929 19.6077C18.2261 19.6033 17.9717 19.4976 17.7861 19.3137C17.6045 19.1338 17.5032 18.8933 17.5032 18.6436C17.5032 18.6379 17.5032 18.6326 17.5034 18.627C17.5037 18.2275 17.7568 17.8679 18.1436 17.7183C18.5305 17.5686 18.9734 17.6587 19.2632 17.946C19.4517 18.1328 19.551 18.3784 19.551 18.6277C19.551 18.7622 19.5222 18.8977 19.4629 19.0254ZM21.8337 20.9368C21.803 21.4751 21.3247 21.8887 20.7625 21.863L20.7625 21.7976C20.2192 21.78 19.7898 21.3528 19.7898 20.8342L19.7898 20.8169C19.8281 20.2793 20.3123 19.8718 20.8738 19.9048C21.4167 19.9365 21.8352 20.3679 21.8352 20.8826C21.8352 20.9006 21.8347 20.9187 21.8337 20.9368ZM38.7305 38.6636C38.0713 39.2654 37.0349 39.2654 36.3757 38.6636C36.0474 38.3562 35.8623 37.9348 35.8623 37.4951C35.8623 37.0554 36.0474 36.634 36.3757 36.3267C37.0349 35.7249 38.0713 35.7249 38.7305 36.3267C39.0588 36.634 39.2439 37.0554 39.2439 37.4951C39.2439 37.9348 39.0588 38.3562 38.7305 38.6636ZM34.9766 34.9375C35.6528 34.2827 36.5745 33.9143 37.5361 33.9143C38.4976 33.9143 39.4194 34.2827 40.0957 34.9375C41.5083 36.3677 41.5083 38.6062 40.0957 40.0364C39.4241 40.6995 38.5005 41.0737 37.5361 41.0737C36.5715 41.0737 35.6482 40.6995 34.9766 40.0364C33.5637 38.6062 33.5637 36.3677 34.9766 34.9375ZM30.1262 31.1213C30.1262 30.8706 30.2244 30.6201 30.4204 30.4268C30.5981 30.2415 30.8489 30.136 31.1116 30.136C31.3743 30.136 31.625 30.2415 31.8027 30.4268C31.9988 30.6201 32.0969 30.8706 32.0969 31.1213C32.0969 31.3718 31.9988 31.6226 31.8027 31.8159C31.6223 31.9968 31.3726 32.0991 31.1116 32.0991C30.8506 32.0991 30.6008 31.9968 30.4204 31.8159C30.2244 31.6226 30.1262 31.3718 30.1262 31.1213ZM34.3594 33.7668C34.1902 34.1321 33.8064 34.3623 33.3896 34.3491C33.1226 34.3447 32.8682 34.239 32.6826 34.0552C32.501 33.8752 32.3997 33.6348 32.3997 33.385L32.3999 33.3684C32.4001 32.969 32.6533 32.6094 33.0403 32.4597C33.427 32.3101 33.8699 32.4001 34.1599 32.6875C34.3481 32.8743 34.4475 33.1199 34.4475 33.3691C34.4475 33.5037 34.4187 33.6392 34.3594 33.7668ZM36.3757 13.3318C37.0349 12.73 38.0713 12.73 38.7305 13.3318C39.0588 13.6394 39.2439 14.0605 39.2439 14.5005C39.2439 14.9402 39.0588 15.3613 38.7305 15.6689C38.0713 16.2708 37.0349 16.2708 36.3757 15.6689C36.0474 15.3613 35.8623 14.9402 35.8623 14.5005C35.8623 14.0605 36.0474 13.6394 36.3757 13.3318ZM40.1296 17.0581C39.458 17.7212 38.5347 18.0952 37.5701 18.0952C36.6057 18.0952 35.6824 17.7212 35.0107 17.0581C33.5979 15.6277 33.5979 13.3894 35.0107 11.959C35.6824 11.2959 36.6057 10.9219 37.5701 10.9219C38.5347 10.9219 39.458 11.2959 40.1296 11.959C41.5425 13.3894 41.5425 15.6277 40.1296 17.0581ZM31.1201 21.863C30.5547 21.863 30.0962 21.4238 30.0962 20.8823C30.0962 20.3408 30.5547 19.9019 31.1201 19.9019C31.6855 19.9019 32.144 20.3408 32.144 20.8823C32.144 21.4238 31.6855 21.863 31.1201 21.863ZM34.3594 19.0254C34.1902 19.3906 33.8064 19.6208 33.3896 19.6077C33.1226 19.6033 32.8682 19.4976 32.6826 19.3137C32.501 19.1338 32.3997 18.8933 32.3997 18.6436L32.3999 18.627C32.4001 18.2275 32.6533 17.8679 33.0403 17.7183C33.427 17.5686 33.8699 17.6587 34.1599 17.946C34.3481 18.1328 34.4475 18.3784 34.4475 18.6277C34.4475 18.7622 34.4187 18.8977 34.3594 19.0254ZM15.5068 38.6636C14.8477 39.2654 13.8113 39.2654 13.1521 38.6636C12.8237 38.3562 12.6387 37.9348 12.6387 37.4951C12.6387 37.0554 12.8237 36.634 13.1521 36.3267C13.8113 35.7249 14.8477 35.7249 15.5068 36.3267C15.8352 36.634 16.0203 37.0554 16.0203 37.4951C16.0203 37.9348 15.8352 38.3562 15.5068 38.6636ZM11.7529 34.9375C12.4292 34.2827 13.3508 33.9143 14.3125 33.9143C15.2739 33.9143 16.1958 34.2827 16.8721 34.9375C18.3022 36.3611 18.3022 38.6128 16.8721 40.0364C16.2004 40.6995 15.2769 41.0737 14.3125 41.0737C13.3479 41.0737 12.4246 40.6995 11.7529 40.0364C10.3401 38.6062 10.3401 36.3677 11.7529 34.9375ZM19.5481 33.7668C19.3789 34.1321 18.9954 34.3623 18.5784 34.3491C18.3113 34.3447 18.0571 34.239 17.8713 34.0552C17.6897 33.8752 17.5884 33.6348 17.5884 33.385C17.5884 33.3794 17.5886 33.374 17.5886 33.3684C17.5889 32.969 17.8423 32.6094 18.229 32.4597C18.6157 32.3101 19.0586 32.4001 19.3486 32.6875C19.5371 32.8743 19.6362 33.1199 19.6362 33.3691C19.6362 33.5037 19.6074 33.6392 19.5481 33.7668ZM19.8711 31.1213C19.8711 30.8706 19.9692 30.6201 20.1653 30.4268C20.3486 30.2449 20.6011 30.1423 20.865 30.1423C21.1287 30.1423 21.3811 30.2449 21.5645 30.4268C21.7607 30.6201 21.8586 30.8706 21.8586 31.1213C21.8586 31.3718 21.7607 31.6226 21.5645 31.8159C21.3811 31.9976 21.1287 32.1003 20.865 32.1003C20.6011 32.1003 20.3486 31.9976 20.1653 31.8159C19.9692 31.6226 19.8711 31.3718 19.8711 31.1213ZM25.9329 8.10205C26.8752 8.10205 27.6392 8.83374 27.6392 9.73633C27.6392 10.6389 26.8752 11.3706 25.9329 11.3706C24.9905 11.3706 24.2263 10.6389 24.2263 9.73633C24.2263 8.83374 24.9905 8.10205 25.9329 8.10205ZM29.5847 9.78687C29.5847 11.7256 27.9629 13.3127 25.9329 13.3481L25.9329 13.3318C23.9121 13.2964 22.2979 11.7166 22.2979 9.78687C22.2979 9.77002 22.2979 9.75317 22.2981 9.73633C22.2925 9.65625 22.2896 9.57642 22.2896 9.49683C22.2896 8.28198 22.95 7.14648 24.0439 6.50928C25.2095 5.83032 26.6731 5.83032 27.8386 6.50928C28.9326 7.14648 29.593 8.28198 29.593 9.49683C29.593 9.57642 29.5901 9.65625 29.5845 9.73633C29.5847 9.75317 29.5847 9.77002 29.5847 9.78687ZM26.9143 16.0303C26.7397 16.3948 26.3508 16.6206 25.9329 16.6003C25.3894 16.583 24.96 16.1558 24.96 15.6372C24.96 15.6313 24.96 15.6257 24.9602 15.6199C24.9607 15.219 25.2161 14.8586 25.605 14.7102C25.9939 14.5618 26.438 14.655 26.7263 14.9458C26.9109 15.1318 27.0078 15.375 27.0078 15.6213C27.0078 15.7598 26.9773 15.8992 26.9143 16.0303ZM26.9143 19.2991C26.7397 19.6633 26.3508 19.8892 25.9329 19.8691C25.3894 19.8516 24.96 19.4243 24.96 18.9058C24.96 18.8999 24.96 18.8943 24.9602 18.8884C24.9607 18.4875 25.2161 18.1272 25.605 17.9788C25.9939 17.8303 26.438 17.9236 26.7263 18.2144C26.9109 18.4004 27.0078 18.6436 27.0078 18.8899C27.0078 19.0283 26.9773 19.168 26.9143 19.2991ZM25.9329 44.0242C24.9905 44.0242 24.2263 43.2925 24.2263 42.3899C24.2263 41.4873 24.9905 40.7556 25.9329 40.7556C26.8752 40.7556 27.6392 41.4873 27.6392 42.3899C27.6392 43.2925 26.8752 44.0242 25.9329 44.0242ZM22.363 40.9304C22.9836 39.583 24.396 38.7314 25.9329 38.7781C27.9619 38.8137 29.5845 40.3999 29.5845 42.3396C29.5845 42.3508 29.5845 42.3623 29.5845 42.3735L29.5845 42.3882C29.5845 43.855 28.658 45.1768 27.2395 45.7317C25.8162 46.2886 24.1824 45.9619 23.1101 44.9065C22.4111 44.218 22.0422 43.3096 22.0422 42.3872C22.0422 41.895 22.1472 41.3992 22.363 40.9304ZM24.9612 36.177C25.1296 35.8098 25.5144 35.5779 25.9329 35.5911C26.4822 35.6001 26.9224 36.0291 26.9224 36.5552L26.9224 36.5554C26.9226 36.5608 26.9226 36.5659 26.9226 36.5713C26.9226 36.9661 26.6753 37.323 26.2942 37.4756C25.908 37.6306 25.4622 37.5447 25.1687 37.2585C24.9766 37.0713 24.875 36.8232 24.875 36.571C24.875 36.438 24.9031 36.304 24.9612 36.177ZM24.9629 32.9045C25.1321 32.5396 25.5159 32.3091 25.9329 32.3225C26.1997 32.3269 26.4541 32.4326 26.6396 32.6165C26.8213 32.7964 26.9226 33.0369 26.9226 33.2866L26.9224 33.3032C26.9221 33.7026 26.6689 34.062 26.2822 34.2117C25.8953 34.3613 25.4524 34.2712 25.1626 33.9841C24.9741 33.7974 24.8748 33.5518 24.8748 33.3022C24.8748 33.168 24.9036 33.0325 24.9629 32.9045ZM42.365 27.7139C41.4226 27.7139 40.6587 26.9822 40.6587 26.0793C40.6587 25.1768 41.4226 24.4451 42.365 24.4451C43.3074 24.4451 44.0715 25.1768 44.0715 26.0793C44.0715 26.9822 43.3074 27.7139 42.365 27.7139ZM38.7834 24.6079C39.4094 23.2615 40.8271 22.4143 42.365 22.4675L42.365 22.4512C44.3884 22.4956 46 24.0801 46 26.0122C46 26.0291 45.9998 26.0461 45.9995 26.0632L45.9998 26.0771C45.9998 27.5457 45.0713 28.8684 43.6504 29.4224C42.2249 29.978 40.5898 29.6484 39.5193 28.5894C38.824 27.9016 38.4575 26.9956 38.4575 26.0762C38.4575 25.5801 38.5642 25.0801 38.7834 24.6079ZM34.1548 26.3962C33.9854 26.7615 33.6018 26.9917 33.1848 26.9783C32.9177 26.9741 32.6636 26.8684 32.4778 26.6843C32.2964 26.5044 32.1951 26.2642 32.1951 26.0142L32.1951 25.9978C32.1953 25.5981 32.4487 25.2388 32.8354 25.0891C33.2222 24.9395 33.665 25.0295 33.9551 25.3167C34.1436 25.5034 34.2427 25.749 34.2427 25.9985C34.2427 26.1328 34.2139 26.2683 34.1548 26.3962ZM37.3796 26.3962C37.2104 26.7615 36.8267 26.9917 36.4099 26.9783C36.1428 26.9741 35.8884 26.8684 35.7029 26.6843C35.5212 26.5044 35.4199 26.2642 35.4199 26.0142L35.4202 25.9978C35.4204 25.5981 35.6736 25.2388 36.0605 25.0891C36.4473 24.9395 36.8901 25.0295 37.1802 25.3167C37.3684 25.5034 37.4678 25.749 37.4678 25.9985C37.4678 26.1328 37.439 26.2683 37.3796 26.3962ZM9.44922 27.6484C8.50684 27.6484 7.74292 26.9167 7.74292 26.0142C7.74292 25.1116 8.50684 24.3799 9.44922 24.3799C10.3916 24.3799 11.1558 25.1116 11.1558 26.0142C11.1558 26.9167 10.3916 27.6484 9.44922 27.6484ZM13.084 25.9949L13.0837 26.0142L13.1521 26.0469C13.1526 26.0688 13.1528 26.0908 13.1528 26.1128C13.1528 27.0298 12.7817 27.9124 12.116 28.5737C11.4343 29.2512 10.4998 29.6414 9.51758 29.6587C7.53784 29.5308 6 27.9556 6 26.0549C6 24.1545 7.53784 22.5791 9.51758 22.4512C11.509 22.5217 13.084 24.0886 13.084 25.9949ZM15.4265 26.9617C14.8845 26.9736 14.4336 26.5657 14.4148 26.0469C14.4148 26.0413 14.4146 26.0359 14.4146 26.0303C14.4146 25.7805 14.5159 25.54 14.6975 25.3601C14.8833 25.1763 15.1375 25.0706 15.4045 25.0662C15.9465 25.0664 16.3875 25.4844 16.3936 26.0037L16.3936 26.0144C16.3936 26.5286 15.9646 26.95 15.4265 26.9617ZM17.6597 25.6484C17.8289 25.2832 18.2126 25.053 18.6296 25.0662C18.8965 25.0706 19.1509 25.1763 19.3364 25.3601C19.5181 25.54 19.6194 25.7805 19.6194 26.0303L19.6191 26.0469C19.6189 26.4463 19.3657 26.8057 18.979 26.9553C18.592 27.105 18.1492 27.0151 17.8594 26.7278C17.6709 26.541 17.5715 26.2954 17.5715 26.0459C17.5715 25.9116 17.6003 25.7761 17.6597 25.6484ZM25.9329 28.9885C24.6418 29.0217 23.4587 28.3025 22.9404 27.1697C22.7607 26.7773 22.6736 26.3623 22.6736 25.9504C22.6736 25.1738 22.9844 24.4092 23.5728 23.8298C24.4734 22.9434 25.845 22.668 27.0415 23.1333C28.238 23.5986 29.0208 24.7119 29.0212 25.9487C29.0215 25.9651 29.0217 25.9817 29.0217 25.998C29.0217 26.7764 28.7048 27.5249 28.137 28.0837C27.5574 28.6543 26.7639 28.98 25.9329 28.9885ZM25.866 21.1443C28.6794 21.1086 30.9956 23.2544 31.0518 25.9487C31.0525 25.9814 31.053 26.0142 31.053 26.0469C31.053 27.3291 30.5283 28.5618 29.5891 29.4792C28.6262 30.4199 27.3083 30.95 25.9329 30.9497C23.1191 30.9492 20.8333 28.7737 20.8147 26.0789C20.8147 26.0679 20.8147 26.0569 20.8147 26.0461C20.8147 23.3662 23.0637 21.1799 25.866 21.1443Z" clip-rule="evenodd" fill="" fill-opacity="1.000000" fill-rule="evenodd"/>
	</mask>
	<path id="形状" d="M13.1521 13.3318C13.8113 12.73 14.8477 12.73 15.5068 13.3318C15.8352 13.6394 16.0203 14.0605 16.0203 14.5005C16.0203 14.9402 15.8352 15.3613 15.5068 15.6689C14.8477 16.2708 13.8113 16.2708 13.1521 15.6689C12.8237 15.3613 12.6387 14.9402 12.6387 14.5005C12.6387 14.0605 12.8237 13.6394 13.1521 13.3318ZM16.906 17.0581C16.2344 17.7212 15.311 18.0952 14.3464 18.0952C13.3821 18.0952 12.4587 17.7212 11.7871 17.0581C10.3743 15.6277 10.3743 13.3894 11.7871 11.959C12.4587 11.2959 13.3821 10.9219 14.3464 10.9219C15.311 10.9219 16.2344 11.2959 16.906 11.959C18.3188 13.3894 18.3188 15.6277 16.906 17.0581ZM19.4629 19.0254C19.2937 19.3906 18.9099 19.6208 18.4929 19.6077C18.2261 19.6033 17.9717 19.4976 17.7861 19.3137C17.6045 19.1338 17.5032 18.8933 17.5032 18.6436C17.5032 18.6379 17.5032 18.6326 17.5034 18.627C17.5037 18.2275 17.7568 17.8679 18.1436 17.7183C18.5305 17.5686 18.9734 17.6587 19.2632 17.946C19.4517 18.1328 19.551 18.3784 19.551 18.6277C19.551 18.7622 19.5222 18.8977 19.4629 19.0254ZM21.8337 20.9368C21.803 21.4751 21.3247 21.8887 20.7625 21.863L20.7625 21.7976C20.2192 21.78 19.7898 21.3528 19.7898 20.8342L19.7898 20.8169C19.8281 20.2793 20.3123 19.8718 20.8738 19.9048C21.4167 19.9365 21.8352 20.3679 21.8352 20.8826C21.8352 20.9006 21.8347 20.9187 21.8337 20.9368ZM38.7305 38.6636C38.0713 39.2654 37.0349 39.2654 36.3757 38.6636C36.0474 38.3562 35.8623 37.9348 35.8623 37.4951C35.8623 37.0554 36.0474 36.634 36.3757 36.3267C37.0349 35.7249 38.0713 35.7249 38.7305 36.3267C39.0588 36.634 39.2439 37.0554 39.2439 37.4951C39.2439 37.9348 39.0588 38.3562 38.7305 38.6636ZM34.9766 34.9375C35.6528 34.2827 36.5745 33.9143 37.5361 33.9143C38.4976 33.9143 39.4194 34.2827 40.0957 34.9375C41.5083 36.3677 41.5083 38.6062 40.0957 40.0364C39.4241 40.6995 38.5005 41.0737 37.5361 41.0737C36.5715 41.0737 35.6482 40.6995 34.9766 40.0364C33.5637 38.6062 33.5637 36.3677 34.9766 34.9375ZM30.1262 31.1213C30.1262 30.8706 30.2244 30.6201 30.4204 30.4268C30.5981 30.2415 30.8489 30.136 31.1116 30.136C31.3743 30.136 31.625 30.2415 31.8027 30.4268C31.9988 30.6201 32.0969 30.8706 32.0969 31.1213C32.0969 31.3718 31.9988 31.6226 31.8027 31.8159C31.6223 31.9968 31.3726 32.0991 31.1116 32.0991C30.8506 32.0991 30.6008 31.9968 30.4204 31.8159C30.2244 31.6226 30.1262 31.3718 30.1262 31.1213ZM34.3594 33.7668C34.1902 34.1321 33.8064 34.3623 33.3896 34.3491C33.1226 34.3447 32.8682 34.239 32.6826 34.0552C32.501 33.8752 32.3997 33.6348 32.3997 33.385L32.3999 33.3684C32.4001 32.969 32.6533 32.6094 33.0403 32.4597C33.427 32.3101 33.8699 32.4001 34.1599 32.6875C34.3481 32.8743 34.4475 33.1199 34.4475 33.3691C34.4475 33.5037 34.4187 33.6392 34.3594 33.7668ZM36.3757 13.3318C37.0349 12.73 38.0713 12.73 38.7305 13.3318C39.0588 13.6394 39.2439 14.0605 39.2439 14.5005C39.2439 14.9402 39.0588 15.3613 38.7305 15.6689C38.0713 16.2708 37.0349 16.2708 36.3757 15.6689C36.0474 15.3613 35.8623 14.9402 35.8623 14.5005C35.8623 14.0605 36.0474 13.6394 36.3757 13.3318ZM40.1296 17.0581C39.458 17.7212 38.5347 18.0952 37.5701 18.0952C36.6057 18.0952 35.6824 17.7212 35.0107 17.0581C33.5979 15.6277 33.5979 13.3894 35.0107 11.959C35.6824 11.2959 36.6057 10.9219 37.5701 10.9219C38.5347 10.9219 39.458 11.2959 40.1296 11.959C41.5425 13.3894 41.5425 15.6277 40.1296 17.0581ZM31.1201 21.863C30.5547 21.863 30.0962 21.4238 30.0962 20.8823C30.0962 20.3408 30.5547 19.9019 31.1201 19.9019C31.6855 19.9019 32.144 20.3408 32.144 20.8823C32.144 21.4238 31.6855 21.863 31.1201 21.863ZM34.3594 19.0254C34.1902 19.3906 33.8064 19.6208 33.3896 19.6077C33.1226 19.6033 32.8682 19.4976 32.6826 19.3137C32.501 19.1338 32.3997 18.8933 32.3997 18.6436L32.3999 18.627C32.4001 18.2275 32.6533 17.8679 33.0403 17.7183C33.427 17.5686 33.8699 17.6587 34.1599 17.946C34.3481 18.1328 34.4475 18.3784 34.4475 18.6277C34.4475 18.7622 34.4187 18.8977 34.3594 19.0254ZM15.5068 38.6636C14.8477 39.2654 13.8113 39.2654 13.1521 38.6636C12.8237 38.3562 12.6387 37.9348 12.6387 37.4951C12.6387 37.0554 12.8237 36.634 13.1521 36.3267C13.8113 35.7249 14.8477 35.7249 15.5068 36.3267C15.8352 36.634 16.0203 37.0554 16.0203 37.4951C16.0203 37.9348 15.8352 38.3562 15.5068 38.6636ZM11.7529 34.9375C12.4292 34.2827 13.3508 33.9143 14.3125 33.9143C15.2739 33.9143 16.1958 34.2827 16.8721 34.9375C18.3022 36.3611 18.3022 38.6128 16.8721 40.0364C16.2004 40.6995 15.2769 41.0737 14.3125 41.0737C13.3479 41.0737 12.4246 40.6995 11.7529 40.0364C10.3401 38.6062 10.3401 36.3677 11.7529 34.9375ZM19.5481 33.7668C19.3789 34.1321 18.9954 34.3623 18.5784 34.3491C18.3113 34.3447 18.0571 34.239 17.8713 34.0552C17.6897 33.8752 17.5884 33.6348 17.5884 33.385C17.5884 33.3794 17.5886 33.374 17.5886 33.3684C17.5889 32.969 17.8423 32.6094 18.229 32.4597C18.6157 32.3101 19.0586 32.4001 19.3486 32.6875C19.5371 32.8743 19.6362 33.1199 19.6362 33.3691C19.6362 33.5037 19.6074 33.6392 19.5481 33.7668ZM19.8711 31.1213C19.8711 30.8706 19.9692 30.6201 20.1653 30.4268C20.3486 30.2449 20.6011 30.1423 20.865 30.1423C21.1287 30.1423 21.3811 30.2449 21.5645 30.4268C21.7607 30.6201 21.8586 30.8706 21.8586 31.1213C21.8586 31.3718 21.7607 31.6226 21.5645 31.8159C21.3811 31.9976 21.1287 32.1003 20.865 32.1003C20.6011 32.1003 20.3486 31.9976 20.1653 31.8159C19.9692 31.6226 19.8711 31.3718 19.8711 31.1213ZM25.9329 8.10205C26.8752 8.10205 27.6392 8.83374 27.6392 9.73633C27.6392 10.6389 26.8752 11.3706 25.9329 11.3706C24.9905 11.3706 24.2263 10.6389 24.2263 9.73633C24.2263 8.83374 24.9905 8.10205 25.9329 8.10205ZM29.5847 9.78687C29.5847 11.7256 27.9629 13.3127 25.9329 13.3481L25.9329 13.3318C23.9121 13.2964 22.2979 11.7166 22.2979 9.78687C22.2979 9.77002 22.2979 9.75317 22.2981 9.73633C22.2925 9.65625 22.2896 9.57642 22.2896 9.49683C22.2896 8.28198 22.95 7.14648 24.0439 6.50928C25.2095 5.83032 26.6731 5.83032 27.8386 6.50928C28.9326 7.14648 29.593 8.28198 29.593 9.49683C29.593 9.57642 29.5901 9.65625 29.5845 9.73633C29.5847 9.75317 29.5847 9.77002 29.5847 9.78687ZM26.9143 16.0303C26.7397 16.3948 26.3508 16.6206 25.9329 16.6003C25.3894 16.583 24.96 16.1558 24.96 15.6372C24.96 15.6313 24.96 15.6257 24.9602 15.6199C24.9607 15.219 25.2161 14.8586 25.605 14.7102C25.9939 14.5618 26.438 14.655 26.7263 14.9458C26.9109 15.1318 27.0078 15.375 27.0078 15.6213C27.0078 15.7598 26.9773 15.8992 26.9143 16.0303ZM26.9143 19.2991C26.7397 19.6633 26.3508 19.8892 25.9329 19.8691C25.3894 19.8516 24.96 19.4243 24.96 18.9058C24.96 18.8999 24.96 18.8943 24.9602 18.8884C24.9607 18.4875 25.2161 18.1272 25.605 17.9788C25.9939 17.8303 26.438 17.9236 26.7263 18.2144C26.9109 18.4004 27.0078 18.6436 27.0078 18.8899C27.0078 19.0283 26.9773 19.168 26.9143 19.2991ZM25.9329 44.0242C24.9905 44.0242 24.2263 43.2925 24.2263 42.3899C24.2263 41.4873 24.9905 40.7556 25.9329 40.7556C26.8752 40.7556 27.6392 41.4873 27.6392 42.3899C27.6392 43.2925 26.8752 44.0242 25.9329 44.0242ZM22.363 40.9304C22.9836 39.583 24.396 38.7314 25.9329 38.7781C27.9619 38.8137 29.5845 40.3999 29.5845 42.3396C29.5845 42.3508 29.5845 42.3623 29.5845 42.3735L29.5845 42.3882C29.5845 43.855 28.658 45.1768 27.2395 45.7317C25.8162 46.2886 24.1824 45.9619 23.1101 44.9065C22.4111 44.218 22.0422 43.3096 22.0422 42.3872C22.0422 41.895 22.1472 41.3992 22.363 40.9304ZM24.9612 36.177C25.1296 35.8098 25.5144 35.5779 25.9329 35.5911C26.4822 35.6001 26.9224 36.0291 26.9224 36.5552L26.9224 36.5554C26.9226 36.5608 26.9226 36.5659 26.9226 36.5713C26.9226 36.9661 26.6753 37.323 26.2942 37.4756C25.908 37.6306 25.4622 37.5447 25.1687 37.2585C24.9766 37.0713 24.875 36.8232 24.875 36.571C24.875 36.438 24.9031 36.304 24.9612 36.177ZM24.9629 32.9045C25.1321 32.5396 25.5159 32.3091 25.9329 32.3225C26.1997 32.3269 26.4541 32.4326 26.6396 32.6165C26.8213 32.7964 26.9226 33.0369 26.9226 33.2866L26.9224 33.3032C26.9221 33.7026 26.6689 34.062 26.2822 34.2117C25.8953 34.3613 25.4524 34.2712 25.1626 33.9841C24.9741 33.7974 24.8748 33.5518 24.8748 33.3022C24.8748 33.168 24.9036 33.0325 24.9629 32.9045ZM42.365 27.7139C41.4226 27.7139 40.6587 26.9822 40.6587 26.0793C40.6587 25.1768 41.4226 24.4451 42.365 24.4451C43.3074 24.4451 44.0715 25.1768 44.0715 26.0793C44.0715 26.9822 43.3074 27.7139 42.365 27.7139ZM38.7834 24.6079C39.4094 23.2615 40.8271 22.4143 42.365 22.4675L42.365 22.4512C44.3884 22.4956 46 24.0801 46 26.0122C46 26.0291 45.9998 26.0461 45.9995 26.0632L45.9998 26.0771C45.9998 27.5457 45.0713 28.8684 43.6504 29.4224C42.2249 29.978 40.5898 29.6484 39.5193 28.5894C38.824 27.9016 38.4575 26.9956 38.4575 26.0762C38.4575 25.5801 38.5642 25.0801 38.7834 24.6079ZM34.1548 26.3962C33.9854 26.7615 33.6018 26.9917 33.1848 26.9783C32.9177 26.9741 32.6636 26.8684 32.4778 26.6843C32.2964 26.5044 32.1951 26.2642 32.1951 26.0142L32.1951 25.9978C32.1953 25.5981 32.4487 25.2388 32.8354 25.0891C33.2222 24.9395 33.665 25.0295 33.9551 25.3167C34.1436 25.5034 34.2427 25.749 34.2427 25.9985C34.2427 26.1328 34.2139 26.2683 34.1548 26.3962ZM37.3796 26.3962C37.2104 26.7615 36.8267 26.9917 36.4099 26.9783C36.1428 26.9741 35.8884 26.8684 35.7029 26.6843C35.5212 26.5044 35.4199 26.2642 35.4199 26.0142L35.4202 25.9978C35.4204 25.5981 35.6736 25.2388 36.0605 25.0891C36.4473 24.9395 36.8901 25.0295 37.1802 25.3167C37.3684 25.5034 37.4678 25.749 37.4678 25.9985C37.4678 26.1328 37.439 26.2683 37.3796 26.3962ZM9.44922 27.6484C8.50684 27.6484 7.74292 26.9167 7.74292 26.0142C7.74292 25.1116 8.50684 24.3799 9.44922 24.3799C10.3916 24.3799 11.1558 25.1116 11.1558 26.0142C11.1558 26.9167 10.3916 27.6484 9.44922 27.6484ZM13.084 25.9949L13.0837 26.0142L13.1521 26.0469C13.1526 26.0688 13.1528 26.0908 13.1528 26.1128C13.1528 27.0298 12.7817 27.9124 12.116 28.5737C11.4343 29.2512 10.4998 29.6414 9.51758 29.6587C7.53784 29.5308 6 27.9556 6 26.0549C6 24.1545 7.53784 22.5791 9.51758 22.4512C11.509 22.5217 13.084 24.0886 13.084 25.9949ZM15.4265 26.9617C14.8845 26.9736 14.4336 26.5657 14.4148 26.0469C14.4148 26.0413 14.4146 26.0359 14.4146 26.0303C14.4146 25.7805 14.5159 25.54 14.6975 25.3601C14.8833 25.1763 15.1375 25.0706 15.4045 25.0662C15.9465 25.0664 16.3875 25.4844 16.3936 26.0037L16.3936 26.0144C16.3936 26.5286 15.9646 26.95 15.4265 26.9617ZM17.6597 25.6484C17.8289 25.2832 18.2126 25.053 18.6296 25.0662C18.8965 25.0706 19.1509 25.1763 19.3364 25.3601C19.5181 25.54 19.6194 25.7805 19.6194 26.0303L19.6191 26.0469C19.6189 26.4463 19.3657 26.8057 18.979 26.9553C18.592 27.105 18.1492 27.0151 17.8594 26.7278C17.6709 26.541 17.5715 26.2954 17.5715 26.0459C17.5715 25.9116 17.6003 25.7761 17.6597 25.6484ZM25.9329 28.9885C24.6418 29.0217 23.4587 28.3025 22.9404 27.1697C22.7607 26.7773 22.6736 26.3623 22.6736 25.9504C22.6736 25.1738 22.9844 24.4092 23.5728 23.8298C24.4734 22.9434 25.845 22.668 27.0415 23.1333C28.238 23.5986 29.0208 24.7119 29.0212 25.9487C29.0215 25.9651 29.0217 25.9817 29.0217 25.998C29.0217 26.7764 28.7048 27.5249 28.137 28.0837C27.5574 28.6543 26.7639 28.98 25.9329 28.9885ZM25.866 21.1443C28.6794 21.1086 30.9956 23.2544 31.0518 25.9487C31.0525 25.9814 31.053 26.0142 31.053 26.0469C31.053 27.3291 30.5283 28.5618 29.5891 29.4792C28.6262 30.4199 27.3083 30.95 25.9329 30.9497C23.1191 30.9492 20.8333 28.7737 20.8147 26.0789C20.8147 26.0679 20.8147 26.0569 20.8147 26.0461C20.8147 23.3662 23.0637 21.1799 25.866 21.1443Z" clip-rule="evenodd" fill="#FFFFFF" fill-opacity="1.000000" fill-rule="evenodd" mask="url(#mask_71_26743)"/>
	<path id="形状" d="" clip-rule="evenodd" fill="#595959" fill-opacity="0.000000" fill-rule="evenodd"/>
	<rect id="矩形备份 17" width="52.000000" height="52.000000" fill="#FFFFFF" fill-opacity="0"/>
	<rect id="矩形备份 17" x="0.500000" y="0.500000" width="51.000000" height="51.000000" stroke="#979797" stroke-opacity="0" stroke-width="1.000000"/>
</svg>
