<svg width="52.000000" height="52.000000" viewBox="0 0 52 52" fill="none" xmlns="http://www.w3.org/2000/svg" xmlns:xlink="http://www.w3.org/1999/xlink">
	<desc>
			Created with Pixso.
	</desc>
	<defs>
		<clipPath id="clip49_181">
			<rect id="编组 50" width="52.000000" height="52.000000" fill="white" fill-opacity="0"/>
		</clipPath>
	</defs>
	<g clip-path="url(#clip49_181)">
		<mask id="mask_49_32" fill="white">
			<path id="形状" d="M13.1519 13.3318C13.811 12.73 14.8477 12.73 15.5068 13.3318C15.8354 13.6394 16.0205 14.0605 16.0205 14.5005C16.0205 14.9402 15.8354 15.3613 15.5068 15.6689C14.8477 16.2708 13.811 16.2708 13.1519 15.6689C12.8237 15.3613 12.6387 14.9402 12.6387 14.5005C12.6387 14.0605 12.8237 13.6394 13.1519 13.3318ZM16.9062 17.0581C16.2344 17.7212 15.311 18.0952 14.3467 18.0952C13.3818 18.0952 12.4585 17.7212 11.7871 17.0581C10.374 15.6277 10.374 13.3894 11.7871 11.959C12.4585 11.2959 13.3818 10.9219 14.3467 10.9219C15.311 10.9219 16.2344 11.2959 16.9062 11.959C18.3188 13.3894 18.3188 15.6277 16.9062 17.0581ZM19.4629 19.0254C19.2935 19.3906 18.9102 19.6208 18.4932 19.6077C18.2261 19.6033 17.9717 19.4976 17.7861 19.3137C17.6045 19.1338 17.5034 18.8933 17.5034 18.6436C17.5034 18.6379 17.5034 18.6326 17.5034 18.627C17.5034 18.2275 17.7568 17.8679 18.1436 17.7183C18.5303 17.5686 18.9731 17.6587 19.2632 17.946C19.4517 18.1328 19.5508 18.3784 19.5508 18.6277C19.5508 18.7622 19.522 18.8977 19.4629 19.0254ZM21.8335 20.9368C21.8032 21.4751 21.3247 21.8887 20.7627 21.863L20.7627 21.7976C20.2192 21.78 19.7896 21.3528 19.7896 20.8342L19.79 20.8169C19.8281 20.2793 20.312 19.8718 20.874 19.9048C21.4165 19.9365 21.835 20.3679 21.835 20.8826C21.835 20.9006 21.8345 20.9187 21.8335 20.9368ZM38.7305 38.6636C38.0713 39.2654 37.0347 39.2654 36.3755 38.6636C36.0474 38.3562 35.8623 37.9348 35.8623 37.4951C35.8623 37.0554 36.0474 36.634 36.3755 36.3267C37.0347 35.7249 38.0713 35.7249 38.7305 36.3267C39.0586 36.634 39.2441 37.0554 39.2441 37.4951C39.2441 37.9348 39.0586 38.3562 38.7305 38.6636ZM34.9766 34.9375C35.6528 34.2827 36.5742 33.9143 37.5361 33.9143C38.4976 33.9143 39.4194 34.2827 40.0957 34.9375C41.5083 36.3677 41.5083 38.6062 40.0957 40.0364C39.4238 40.6995 38.5005 41.0737 37.5361 41.0737C36.5718 41.0737 35.6479 40.6995 34.9766 40.0364C33.5635 38.6062 33.5635 36.3677 34.9766 34.9375ZM30.1265 31.1213C30.1265 30.8706 30.2246 30.6201 30.4204 30.4268C30.5981 30.2415 30.8491 30.136 31.1118 30.136C31.3745 30.136 31.625 30.2415 31.8027 30.4268C31.999 30.6201 32.0967 30.8706 32.0967 31.1213C32.0967 31.3718 31.999 31.6226 31.8027 31.8159C31.6226 31.9968 31.3726 32.0991 31.1118 32.0991C30.8506 32.0991 30.6006 31.9968 30.4204 31.8159C30.2246 31.6226 30.1265 31.3718 30.1265 31.1213ZM34.3594 33.7668C34.1899 34.1321 33.8066 34.3623 33.3896 34.3491C33.1226 34.3447 32.8682 34.239 32.6826 34.0552C32.501 33.8752 32.3999 33.6348 32.3999 33.385L32.3999 33.3684C32.3999 32.969 32.6533 32.6094 33.04 32.4597C33.4268 32.3101 33.8701 32.4001 34.1597 32.6875C34.3481 32.8743 34.4478 33.1199 34.4478 33.3691C34.4478 33.5037 34.4189 33.6392 34.3594 33.7668ZM36.3755 13.3318C37.0347 12.73 38.0713 12.73 38.7305 13.3318C39.0586 13.6394 39.2441 14.0605 39.2441 14.5005C39.2441 14.9402 39.0586 15.3613 38.7305 15.6689C38.0713 16.2708 37.0347 16.2708 36.3755 15.6689C36.0474 15.3613 35.8623 14.9402 35.8623 14.5005C35.8623 14.0605 36.0474 13.6394 36.3755 13.3318ZM40.1299 17.0581C39.458 17.7212 38.5347 18.0952 37.5703 18.0952C36.6055 18.0952 35.6821 17.7212 35.0107 17.0581C33.5977 15.6277 33.5977 13.3894 35.0107 11.959C35.6821 11.2959 36.6055 10.9219 37.5703 10.9219C38.5347 10.9219 39.458 11.2959 40.1299 11.959C41.5425 13.3894 41.5425 15.6277 40.1299 17.0581ZM31.1201 21.863C30.5547 21.863 30.0962 21.4238 30.0962 20.8823C30.0962 20.3408 30.5547 19.9019 31.1201 19.9019C31.6855 19.9019 32.144 20.3408 32.144 20.8823C32.144 21.4238 31.6855 21.863 31.1201 21.863ZM34.3594 19.0254C34.1899 19.3906 33.8066 19.6208 33.3896 19.6077C33.1226 19.6033 32.8682 19.4976 32.6826 19.3137C32.501 19.1338 32.3999 18.8933 32.3999 18.6436L32.3999 18.627C32.3999 18.2275 32.6533 17.8679 33.04 17.7183C33.4268 17.5686 33.8701 17.6587 34.1597 17.946C34.3481 18.1328 34.4478 18.3784 34.4478 18.6277C34.4478 18.7622 34.4189 18.8977 34.3594 19.0254ZM15.5068 38.6636C14.8477 39.2654 13.811 39.2654 13.1519 38.6636C12.8237 38.3562 12.6387 37.9348 12.6387 37.4951C12.6387 37.0554 12.8237 36.634 13.1519 36.3267C13.811 35.7249 14.8477 35.7249 15.5068 36.3267C15.8354 36.634 16.0205 37.0554 16.0205 37.4951C16.0205 37.9348 15.8354 38.3562 15.5068 38.6636ZM11.7529 34.9375C12.4292 34.2827 13.3506 33.9143 14.3125 33.9143C15.2739 33.9143 16.1958 34.2827 16.8721 34.9375C18.3022 36.3611 18.3022 38.6128 16.8721 40.0364C16.2002 40.6995 15.2769 41.0737 14.3125 41.0737C13.3481 41.0737 12.4243 40.6995 11.7529 40.0364C10.3398 38.6062 10.3398 36.3677 11.7529 34.9375ZM19.5483 33.7668C19.3789 34.1321 18.9951 34.3623 18.5781 34.3491C18.3115 34.3447 18.0571 34.239 17.8716 34.0552C17.6899 33.8752 17.5884 33.6348 17.5884 33.385C17.5884 33.3794 17.5884 33.374 17.5889 33.3684C17.5889 32.969 17.8423 32.6094 18.229 32.4597C18.6157 32.3101 19.0586 32.4001 19.3486 32.6875C19.5371 32.8743 19.6362 33.1199 19.6362 33.3691C19.6362 33.5037 19.6074 33.6392 19.5483 33.7668ZM19.8711 31.1213C19.8711 30.8706 19.9692 30.6201 20.165 30.4268C20.3486 30.2449 20.6011 30.1423 20.8647 30.1423C21.1289 30.1423 21.3813 30.2449 21.5645 30.4268C21.7607 30.6201 21.8589 30.8706 21.8589 31.1213C21.8589 31.3718 21.7607 31.6226 21.5645 31.8159C21.3813 31.9976 21.1289 32.1003 20.8647 32.1003C20.6011 32.1003 20.3486 31.9976 20.165 31.8159C19.9692 31.6226 19.8711 31.3718 19.8711 31.1213ZM25.9326 8.10205C26.875 8.10205 27.6392 8.83374 27.6392 9.73633C27.6392 10.6389 26.875 11.3706 25.9326 11.3706C24.9902 11.3706 24.2266 10.6389 24.2266 9.73633C24.2266 8.83374 24.9902 8.10205 25.9326 8.10205ZM29.585 9.78687C29.585 11.7256 27.9629 13.3127 25.9326 13.3481L25.9326 13.3318C23.9121 13.2964 22.2979 11.7166 22.2979 9.78687C22.2979 9.77002 22.2979 9.75317 22.2983 9.73633C22.2925 9.65625 22.2896 9.57642 22.2896 9.49683C22.2896 8.28198 22.9497 7.14648 24.0439 6.50928C25.2095 5.83032 26.6729 5.83032 27.8389 6.50928C28.9326 7.14648 29.5928 8.28198 29.5928 9.49683C29.5928 9.57642 29.5903 9.65625 29.5845 9.73633C29.5845 9.75317 29.585 9.77002 29.585 9.78687ZM26.9146 16.0303C26.7397 16.3948 26.3511 16.6206 25.9326 16.6003C25.3896 16.583 24.96 16.1558 24.96 15.6372C24.96 15.6313 24.96 15.6257 24.96 15.6199C24.9604 15.219 25.2158 14.8586 25.605 14.7102C25.9937 14.5618 26.438 14.655 26.7261 14.9458C26.9106 15.1318 27.0078 15.375 27.0078 15.6213C27.0078 15.7598 26.9771 15.8992 26.9146 16.0303ZM26.9146 19.2991C26.7397 19.6633 26.3511 19.8892 25.9326 19.8691C25.3896 19.8516 24.96 19.4243 24.96 18.9058C24.96 18.8999 24.96 18.8943 24.96 18.8884C24.9604 18.4875 25.2158 18.1272 25.605 17.9788C25.9937 17.8303 26.438 17.9236 26.7261 18.2144C26.9106 18.4004 27.0078 18.6436 27.0078 18.8899C27.0078 19.0283 26.9771 19.168 26.9146 19.2991ZM25.9326 44.0242C24.9902 44.0242 24.2266 43.2925 24.2266 42.3899C24.2266 41.4873 24.9902 40.7556 25.9326 40.7556C26.875 40.7556 27.6392 41.4873 27.6392 42.3899C27.6392 43.2925 26.875 44.0242 25.9326 44.0242ZM22.3633 40.9304C22.9834 39.583 24.396 38.7314 25.9326 38.7781C27.9619 38.8137 29.5845 40.3999 29.5845 42.3396C29.5845 42.3508 29.5845 42.3623 29.5845 42.3735L29.5845 42.3882C29.5845 43.855 28.6582 45.1768 27.2393 45.7317C25.8159 46.2886 24.1821 45.9619 23.1104 44.9065C22.4111 44.218 22.042 43.3096 22.042 42.3872C22.042 41.895 22.147 41.3992 22.3633 40.9304ZM24.9614 36.177C25.1294 35.8098 25.5142 35.5779 25.9326 35.5911C26.4819 35.6001 26.9224 36.0291 26.9224 36.5552L26.9224 36.5554C26.9224 36.5608 26.9224 36.5659 26.9224 36.5713C26.9224 36.9661 26.6753 37.323 26.2939 37.4756C25.9077 37.6306 25.4624 37.5447 25.1685 37.2585C24.9766 37.0713 24.875 36.8232 24.875 36.571C24.875 36.438 24.9033 36.304 24.9614 36.177ZM24.9629 32.9045C25.1323 32.5396 25.5156 32.3091 25.9326 32.3225C26.1997 32.3269 26.4541 32.4326 26.6396 32.6165C26.8213 32.7964 26.9229 33.0369 26.9229 33.2866L26.9224 33.3032C26.9224 33.7026 26.6689 34.062 26.2822 34.2117C25.8955 34.3613 25.4526 34.2712 25.1626 33.9841C24.9741 33.7974 24.875 33.5518 24.875 33.3022C24.875 33.168 24.9038 33.0325 24.9629 32.9045ZM42.3652 27.7139C41.4229 27.7139 40.6587 26.9822 40.6587 26.0793C40.6587 25.1768 41.4229 24.4451 42.3652 24.4451C43.3076 24.4451 44.0713 25.1768 44.0713 26.0793C44.0713 26.9822 43.3076 27.7139 42.3652 27.7139ZM38.7837 24.6079C39.4097 23.2615 40.8271 22.4143 42.3652 22.4675L42.3652 22.4512C44.3882 22.4956 46 24.0801 46 26.0122C46 26.0291 46 26.0461 45.9995 26.0632L45.9995 26.0771C45.9995 27.5457 45.0713 28.8684 43.6504 29.4224C42.2246 29.978 40.5898 29.6484 39.5195 28.5894C38.8237 27.9016 38.4575 26.9956 38.4575 26.0762C38.4575 25.5801 38.564 25.0801 38.7837 24.6079ZM34.1548 26.3962C33.9854 26.7615 33.6016 26.9917 33.1851 26.9783C32.918 26.9741 32.6636 26.8684 32.478 26.6843C32.2964 26.5044 32.1948 26.2642 32.1948 26.0142L32.1953 25.9978C32.1953 25.5981 32.4487 25.2388 32.8354 25.0891C33.2222 24.9395 33.665 25.0295 33.9551 25.3167C34.1436 25.5034 34.2427 25.749 34.2427 25.9985C34.2427 26.1328 34.2139 26.2683 34.1548 26.3962ZM37.3799 26.3962C37.2104 26.7615 36.8267 26.9917 36.4097 26.9783C36.1431 26.9741 35.8887 26.8684 35.7031 26.6843C35.5215 26.5044 35.4199 26.2642 35.4199 26.0142L35.4199 25.9978C35.4204 25.5981 35.6738 25.2388 36.0605 25.0891C36.4473 24.9395 36.8901 25.0295 37.1802 25.3167C37.3687 25.5034 37.4678 25.749 37.4678 25.9985C37.4678 26.1328 37.439 26.2683 37.3799 26.3962ZM9.44922 27.6484C8.50684 27.6484 7.74316 26.9167 7.74316 26.0142C7.74316 25.1116 8.50684 24.3799 9.44922 24.3799C10.3916 24.3799 11.1558 25.1116 11.1558 26.0142C11.1558 26.9167 10.3916 27.6484 9.44922 27.6484ZM13.084 25.9949L13.084 26.0142L13.1519 26.0469C13.1523 26.0688 13.1528 26.0908 13.1528 26.1128C13.1528 27.0298 12.7817 27.9124 12.1162 28.5737C11.4346 29.2512 10.4995 29.6414 9.51758 29.6587C7.5376 29.5308 6 27.9556 6 26.0549C6 24.1545 7.5376 22.5791 9.51758 22.4512C11.5088 22.5217 13.084 24.0886 13.084 25.9949ZM15.4263 26.9617C14.8848 26.9736 14.4336 26.5657 14.415 26.0469C14.4146 26.0413 14.4146 26.0359 14.4146 26.0303C14.4146 25.7805 14.5161 25.54 14.6978 25.3601C14.8833 25.1763 15.1377 25.0706 15.4043 25.0662C15.9468 25.0664 16.3877 25.4844 16.3936 26.0037L16.3936 26.0144C16.3936 26.5286 15.9648 26.95 15.4263 26.9617ZM17.6597 25.6484C17.8291 25.2832 18.2124 25.053 18.6294 25.0662C18.8965 25.0706 19.1509 25.1763 19.3364 25.3601C19.5181 25.54 19.6191 25.7805 19.6191 26.0303L19.6191 26.0469C19.6191 26.4463 19.3657 26.8057 18.979 26.9553C18.5923 27.105 18.1494 27.0151 17.8594 26.7278C17.6709 26.541 17.5718 26.2954 17.5718 26.0459C17.5718 25.9116 17.6006 25.7761 17.6597 25.6484ZM25.9326 28.9885C24.6421 29.0217 23.4585 28.3025 22.9404 27.1697C22.7607 26.7773 22.6733 26.3623 22.6733 25.9504C22.6733 25.1738 22.9844 24.4092 23.5728 23.8298C24.4736 22.9434 25.8452 22.668 27.0415 23.1333C28.2378 23.5986 29.021 24.7119 29.0215 25.9487C29.0215 25.9651 29.0215 25.9817 29.0215 25.998C29.0215 26.7764 28.7046 27.5249 28.1372 28.0837C27.5571 28.6543 26.7642 28.98 25.9326 28.9885ZM25.8657 21.1443C28.6792 21.1086 30.9956 23.2544 31.0518 25.9487C31.0527 25.9814 31.0527 26.0142 31.0527 26.0469C31.0527 27.3291 30.5283 28.5618 29.5894 29.4792C28.626 30.4199 27.3086 30.95 25.9326 30.9497C23.1191 30.9492 20.833 28.7737 20.8149 26.0789C20.8149 26.0679 20.8149 26.0569 20.8149 26.0461C20.8149 23.3662 23.064 21.1799 25.8657 21.1443Z" clip-rule="evenodd" fill="" fill-opacity="1.000000" fill-rule="evenodd"/>
		</mask>
		<path id="形状" d="M13.1519 13.3318C13.811 12.73 14.8477 12.73 15.5068 13.3318C15.8354 13.6394 16.0205 14.0605 16.0205 14.5005C16.0205 14.9402 15.8354 15.3613 15.5068 15.6689C14.8477 16.2708 13.811 16.2708 13.1519 15.6689C12.8237 15.3613 12.6387 14.9402 12.6387 14.5005C12.6387 14.0605 12.8237 13.6394 13.1519 13.3318ZM16.9062 17.0581C16.2344 17.7212 15.311 18.0952 14.3467 18.0952C13.3818 18.0952 12.4585 17.7212 11.7871 17.0581C10.374 15.6277 10.374 13.3894 11.7871 11.959C12.4585 11.2959 13.3818 10.9219 14.3467 10.9219C15.311 10.9219 16.2344 11.2959 16.9062 11.959C18.3188 13.3894 18.3188 15.6277 16.9062 17.0581ZM19.4629 19.0254C19.2935 19.3906 18.9102 19.6208 18.4932 19.6077C18.2261 19.6033 17.9717 19.4976 17.7861 19.3137C17.6045 19.1338 17.5034 18.8933 17.5034 18.6436C17.5034 18.6379 17.5034 18.6326 17.5034 18.627C17.5034 18.2275 17.7568 17.8679 18.1436 17.7183C18.5303 17.5686 18.9731 17.6587 19.2632 17.946C19.4517 18.1328 19.5508 18.3784 19.5508 18.6277C19.5508 18.7622 19.522 18.8977 19.4629 19.0254ZM21.8335 20.9368C21.8032 21.4751 21.3247 21.8887 20.7627 21.863L20.7627 21.7976C20.2192 21.78 19.7896 21.3528 19.7896 20.8342L19.79 20.8169C19.8281 20.2793 20.312 19.8718 20.874 19.9048C21.4165 19.9365 21.835 20.3679 21.835 20.8826C21.835 20.9006 21.8345 20.9187 21.8335 20.9368ZM38.7305 38.6636C38.0713 39.2654 37.0347 39.2654 36.3755 38.6636C36.0474 38.3562 35.8623 37.9348 35.8623 37.4951C35.8623 37.0554 36.0474 36.634 36.3755 36.3267C37.0347 35.7249 38.0713 35.7249 38.7305 36.3267C39.0586 36.634 39.2441 37.0554 39.2441 37.4951C39.2441 37.9348 39.0586 38.3562 38.7305 38.6636ZM34.9766 34.9375C35.6528 34.2827 36.5742 33.9143 37.5361 33.9143C38.4976 33.9143 39.4194 34.2827 40.0957 34.9375C41.5083 36.3677 41.5083 38.6062 40.0957 40.0364C39.4238 40.6995 38.5005 41.0737 37.5361 41.0737C36.5718 41.0737 35.6479 40.6995 34.9766 40.0364C33.5635 38.6062 33.5635 36.3677 34.9766 34.9375ZM30.1265 31.1213C30.1265 30.8706 30.2246 30.6201 30.4204 30.4268C30.5981 30.2415 30.8491 30.136 31.1118 30.136C31.3745 30.136 31.625 30.2415 31.8027 30.4268C31.999 30.6201 32.0967 30.8706 32.0967 31.1213C32.0967 31.3718 31.999 31.6226 31.8027 31.8159C31.6226 31.9968 31.3726 32.0991 31.1118 32.0991C30.8506 32.0991 30.6006 31.9968 30.4204 31.8159C30.2246 31.6226 30.1265 31.3718 30.1265 31.1213ZM34.3594 33.7668C34.1899 34.1321 33.8066 34.3623 33.3896 34.3491C33.1226 34.3447 32.8682 34.239 32.6826 34.0552C32.501 33.8752 32.3999 33.6348 32.3999 33.385L32.3999 33.3684C32.3999 32.969 32.6533 32.6094 33.04 32.4597C33.4268 32.3101 33.8701 32.4001 34.1597 32.6875C34.3481 32.8743 34.4478 33.1199 34.4478 33.3691C34.4478 33.5037 34.4189 33.6392 34.3594 33.7668ZM36.3755 13.3318C37.0347 12.73 38.0713 12.73 38.7305 13.3318C39.0586 13.6394 39.2441 14.0605 39.2441 14.5005C39.2441 14.9402 39.0586 15.3613 38.7305 15.6689C38.0713 16.2708 37.0347 16.2708 36.3755 15.6689C36.0474 15.3613 35.8623 14.9402 35.8623 14.5005C35.8623 14.0605 36.0474 13.6394 36.3755 13.3318ZM40.1299 17.0581C39.458 17.7212 38.5347 18.0952 37.5703 18.0952C36.6055 18.0952 35.6821 17.7212 35.0107 17.0581C33.5977 15.6277 33.5977 13.3894 35.0107 11.959C35.6821 11.2959 36.6055 10.9219 37.5703 10.9219C38.5347 10.9219 39.458 11.2959 40.1299 11.959C41.5425 13.3894 41.5425 15.6277 40.1299 17.0581ZM31.1201 21.863C30.5547 21.863 30.0962 21.4238 30.0962 20.8823C30.0962 20.3408 30.5547 19.9019 31.1201 19.9019C31.6855 19.9019 32.144 20.3408 32.144 20.8823C32.144 21.4238 31.6855 21.863 31.1201 21.863ZM34.3594 19.0254C34.1899 19.3906 33.8066 19.6208 33.3896 19.6077C33.1226 19.6033 32.8682 19.4976 32.6826 19.3137C32.501 19.1338 32.3999 18.8933 32.3999 18.6436L32.3999 18.627C32.3999 18.2275 32.6533 17.8679 33.04 17.7183C33.4268 17.5686 33.8701 17.6587 34.1597 17.946C34.3481 18.1328 34.4478 18.3784 34.4478 18.6277C34.4478 18.7622 34.4189 18.8977 34.3594 19.0254ZM15.5068 38.6636C14.8477 39.2654 13.811 39.2654 13.1519 38.6636C12.8237 38.3562 12.6387 37.9348 12.6387 37.4951C12.6387 37.0554 12.8237 36.634 13.1519 36.3267C13.811 35.7249 14.8477 35.7249 15.5068 36.3267C15.8354 36.634 16.0205 37.0554 16.0205 37.4951C16.0205 37.9348 15.8354 38.3562 15.5068 38.6636ZM11.7529 34.9375C12.4292 34.2827 13.3506 33.9143 14.3125 33.9143C15.2739 33.9143 16.1958 34.2827 16.8721 34.9375C18.3022 36.3611 18.3022 38.6128 16.8721 40.0364C16.2002 40.6995 15.2769 41.0737 14.3125 41.0737C13.3481 41.0737 12.4243 40.6995 11.7529 40.0364C10.3398 38.6062 10.3398 36.3677 11.7529 34.9375ZM19.5483 33.7668C19.3789 34.1321 18.9951 34.3623 18.5781 34.3491C18.3115 34.3447 18.0571 34.239 17.8716 34.0552C17.6899 33.8752 17.5884 33.6348 17.5884 33.385C17.5884 33.3794 17.5884 33.374 17.5889 33.3684C17.5889 32.969 17.8423 32.6094 18.229 32.4597C18.6157 32.3101 19.0586 32.4001 19.3486 32.6875C19.5371 32.8743 19.6362 33.1199 19.6362 33.3691C19.6362 33.5037 19.6074 33.6392 19.5483 33.7668ZM19.8711 31.1213C19.8711 30.8706 19.9692 30.6201 20.165 30.4268C20.3486 30.2449 20.6011 30.1423 20.8647 30.1423C21.1289 30.1423 21.3813 30.2449 21.5645 30.4268C21.7607 30.6201 21.8589 30.8706 21.8589 31.1213C21.8589 31.3718 21.7607 31.6226 21.5645 31.8159C21.3813 31.9976 21.1289 32.1003 20.8647 32.1003C20.6011 32.1003 20.3486 31.9976 20.165 31.8159C19.9692 31.6226 19.8711 31.3718 19.8711 31.1213ZM25.9326 8.10205C26.875 8.10205 27.6392 8.83374 27.6392 9.73633C27.6392 10.6389 26.875 11.3706 25.9326 11.3706C24.9902 11.3706 24.2266 10.6389 24.2266 9.73633C24.2266 8.83374 24.9902 8.10205 25.9326 8.10205ZM29.585 9.78687C29.585 11.7256 27.9629 13.3127 25.9326 13.3481L25.9326 13.3318C23.9121 13.2964 22.2979 11.7166 22.2979 9.78687C22.2979 9.77002 22.2979 9.75317 22.2983 9.73633C22.2925 9.65625 22.2896 9.57642 22.2896 9.49683C22.2896 8.28198 22.9497 7.14648 24.0439 6.50928C25.2095 5.83032 26.6729 5.83032 27.8389 6.50928C28.9326 7.14648 29.5928 8.28198 29.5928 9.49683C29.5928 9.57642 29.5903 9.65625 29.5845 9.73633C29.5845 9.75317 29.585 9.77002 29.585 9.78687ZM26.9146 16.0303C26.7397 16.3948 26.3511 16.6206 25.9326 16.6003C25.3896 16.583 24.96 16.1558 24.96 15.6372C24.96 15.6313 24.96 15.6257 24.96 15.6199C24.9604 15.219 25.2158 14.8586 25.605 14.7102C25.9937 14.5618 26.438 14.655 26.7261 14.9458C26.9106 15.1318 27.0078 15.375 27.0078 15.6213C27.0078 15.7598 26.9771 15.8992 26.9146 16.0303ZM26.9146 19.2991C26.7397 19.6633 26.3511 19.8892 25.9326 19.8691C25.3896 19.8516 24.96 19.4243 24.96 18.9058C24.96 18.8999 24.96 18.8943 24.96 18.8884C24.9604 18.4875 25.2158 18.1272 25.605 17.9788C25.9937 17.8303 26.438 17.9236 26.7261 18.2144C26.9106 18.4004 27.0078 18.6436 27.0078 18.8899C27.0078 19.0283 26.9771 19.168 26.9146 19.2991ZM25.9326 44.0242C24.9902 44.0242 24.2266 43.2925 24.2266 42.3899C24.2266 41.4873 24.9902 40.7556 25.9326 40.7556C26.875 40.7556 27.6392 41.4873 27.6392 42.3899C27.6392 43.2925 26.875 44.0242 25.9326 44.0242ZM22.3633 40.9304C22.9834 39.583 24.396 38.7314 25.9326 38.7781C27.9619 38.8137 29.5845 40.3999 29.5845 42.3396C29.5845 42.3508 29.5845 42.3623 29.5845 42.3735L29.5845 42.3882C29.5845 43.855 28.6582 45.1768 27.2393 45.7317C25.8159 46.2886 24.1821 45.9619 23.1104 44.9065C22.4111 44.218 22.042 43.3096 22.042 42.3872C22.042 41.895 22.147 41.3992 22.3633 40.9304ZM24.9614 36.177C25.1294 35.8098 25.5142 35.5779 25.9326 35.5911C26.4819 35.6001 26.9224 36.0291 26.9224 36.5552L26.9224 36.5554C26.9224 36.5608 26.9224 36.5659 26.9224 36.5713C26.9224 36.9661 26.6753 37.323 26.2939 37.4756C25.9077 37.6306 25.4624 37.5447 25.1685 37.2585C24.9766 37.0713 24.875 36.8232 24.875 36.571C24.875 36.438 24.9033 36.304 24.9614 36.177ZM24.9629 32.9045C25.1323 32.5396 25.5156 32.3091 25.9326 32.3225C26.1997 32.3269 26.4541 32.4326 26.6396 32.6165C26.8213 32.7964 26.9229 33.0369 26.9229 33.2866L26.9224 33.3032C26.9224 33.7026 26.6689 34.062 26.2822 34.2117C25.8955 34.3613 25.4526 34.2712 25.1626 33.9841C24.9741 33.7974 24.875 33.5518 24.875 33.3022C24.875 33.168 24.9038 33.0325 24.9629 32.9045ZM42.3652 27.7139C41.4229 27.7139 40.6587 26.9822 40.6587 26.0793C40.6587 25.1768 41.4229 24.4451 42.3652 24.4451C43.3076 24.4451 44.0713 25.1768 44.0713 26.0793C44.0713 26.9822 43.3076 27.7139 42.3652 27.7139ZM38.7837 24.6079C39.4097 23.2615 40.8271 22.4143 42.3652 22.4675L42.3652 22.4512C44.3882 22.4956 46 24.0801 46 26.0122C46 26.0291 46 26.0461 45.9995 26.0632L45.9995 26.0771C45.9995 27.5457 45.0713 28.8684 43.6504 29.4224C42.2246 29.978 40.5898 29.6484 39.5195 28.5894C38.8237 27.9016 38.4575 26.9956 38.4575 26.0762C38.4575 25.5801 38.564 25.0801 38.7837 24.6079ZM34.1548 26.3962C33.9854 26.7615 33.6016 26.9917 33.1851 26.9783C32.918 26.9741 32.6636 26.8684 32.478 26.6843C32.2964 26.5044 32.1948 26.2642 32.1948 26.0142L32.1953 25.9978C32.1953 25.5981 32.4487 25.2388 32.8354 25.0891C33.2222 24.9395 33.665 25.0295 33.9551 25.3167C34.1436 25.5034 34.2427 25.749 34.2427 25.9985C34.2427 26.1328 34.2139 26.2683 34.1548 26.3962ZM37.3799 26.3962C37.2104 26.7615 36.8267 26.9917 36.4097 26.9783C36.1431 26.9741 35.8887 26.8684 35.7031 26.6843C35.5215 26.5044 35.4199 26.2642 35.4199 26.0142L35.4199 25.9978C35.4204 25.5981 35.6738 25.2388 36.0605 25.0891C36.4473 24.9395 36.8901 25.0295 37.1802 25.3167C37.3687 25.5034 37.4678 25.749 37.4678 25.9985C37.4678 26.1328 37.439 26.2683 37.3799 26.3962ZM9.44922 27.6484C8.50684 27.6484 7.74316 26.9167 7.74316 26.0142C7.74316 25.1116 8.50684 24.3799 9.44922 24.3799C10.3916 24.3799 11.1558 25.1116 11.1558 26.0142C11.1558 26.9167 10.3916 27.6484 9.44922 27.6484ZM13.084 25.9949L13.084 26.0142L13.1519 26.0469C13.1523 26.0688 13.1528 26.0908 13.1528 26.1128C13.1528 27.0298 12.7817 27.9124 12.1162 28.5737C11.4346 29.2512 10.4995 29.6414 9.51758 29.6587C7.5376 29.5308 6 27.9556 6 26.0549C6 24.1545 7.5376 22.5791 9.51758 22.4512C11.5088 22.5217 13.084 24.0886 13.084 25.9949ZM15.4263 26.9617C14.8848 26.9736 14.4336 26.5657 14.415 26.0469C14.4146 26.0413 14.4146 26.0359 14.4146 26.0303C14.4146 25.7805 14.5161 25.54 14.6978 25.3601C14.8833 25.1763 15.1377 25.0706 15.4043 25.0662C15.9468 25.0664 16.3877 25.4844 16.3936 26.0037L16.3936 26.0144C16.3936 26.5286 15.9648 26.95 15.4263 26.9617ZM17.6597 25.6484C17.8291 25.2832 18.2124 25.053 18.6294 25.0662C18.8965 25.0706 19.1509 25.1763 19.3364 25.3601C19.5181 25.54 19.6191 25.7805 19.6191 26.0303L19.6191 26.0469C19.6191 26.4463 19.3657 26.8057 18.979 26.9553C18.5923 27.105 18.1494 27.0151 17.8594 26.7278C17.6709 26.541 17.5718 26.2954 17.5718 26.0459C17.5718 25.9116 17.6006 25.7761 17.6597 25.6484ZM25.9326 28.9885C24.6421 29.0217 23.4585 28.3025 22.9404 27.1697C22.7607 26.7773 22.6733 26.3623 22.6733 25.9504C22.6733 25.1738 22.9844 24.4092 23.5728 23.8298C24.4736 22.9434 25.8452 22.668 27.0415 23.1333C28.2378 23.5986 29.021 24.7119 29.0215 25.9487C29.0215 25.9651 29.0215 25.9817 29.0215 25.998C29.0215 26.7764 28.7046 27.5249 28.1372 28.0837C27.5571 28.6543 26.7642 28.98 25.9326 28.9885ZM25.8657 21.1443C28.6792 21.1086 30.9956 23.2544 31.0518 25.9487C31.0527 25.9814 31.0527 26.0142 31.0527 26.0469C31.0527 27.3291 30.5283 28.5618 29.5894 29.4792C28.626 30.4199 27.3086 30.95 25.9326 30.9497C23.1191 30.9492 20.833 28.7737 20.8149 26.0789C20.8149 26.0679 20.8149 26.0569 20.8149 26.0461C20.8149 23.3662 23.064 21.1799 25.8657 21.1443Z" clip-rule="evenodd" fill="#191919" fill-opacity="1.000000" fill-rule="evenodd" mask="url(#mask_49_32)"/>
		<path id="形状" d="" clip-rule="evenodd" fill="#595959" fill-opacity="0.000000" fill-rule="evenodd"/>
		<rect id="矩形备份 17" width="52.000000" height="52.000000" fill="#FFFFFF" fill-opacity="0"/>
		<rect id="矩形备份 17" x="0.500000" y="0.500000" width="51.000000" height="51.000000" stroke="#979797" stroke-opacity="0" stroke-width="1.000000"/>
	</g>
</svg>
