<svg width="68.000000" height="68.000000" viewBox="0 0 68 68" fill="none" xmlns="http://www.w3.org/2000/svg" xmlns:xlink="http://www.w3.org/1999/xlink">
	<desc>
			Created with Pixso.
	</desc>
	<defs>
		<linearGradient x1="13.600002" y1="34.000099" x2="46.932461" y2="32.035679" id="paint_linear_40_91_0" gradientUnits="userSpaceOnUse">
			<stop stop-color="#FFFFFF" stop-opacity="0.858824"/>
			<stop offset="0.251694" stop-color="#FFFFFF" stop-opacity="0.800000"/>
			<stop offset="1.000000" stop-color="#FFFFFF"/>
		</linearGradient>
		<linearGradient x1="28.985046" y1="48.247715" x2="25.384647" y2="35.584129" id="paint_linear_40_93_0" gradientUnits="userSpaceOnUse">
			<stop stop-color="#000000" stop-opacity="0.000000"/>
			<stop offset="1.000000" stop-color="#000000"/>
		</linearGradient>
	</defs>
	<rect id="矩形备份 5" rx="8.000000" width="68.000000" height="68.000000" fill="#5F5AF8" fill-opacity="1.000000"/>
	<path id="路径" d="M49.3 13.6L49.3 23.8L34 23.8C28.36 23.8 23.8 28.36 23.8 34C23.8 39.63 28.36 44.2 34 44.2L49.3 44.2L49.3 54.4L34 54.4C22.73 54.4 13.6 45.26 13.6 34C13.6 22.73 22.73 13.6 34 13.6L49.3 13.6Z" fill="url(#paint_linear_40_91_0)" fill-opacity="1.000000" fill-rule="evenodd"/>
	<path id="矩形备份 6" d="M33.59 28.89L44.2 28.89L44.2 39.09L33.59 39.09C31.94 39.09 30.6 37.75 30.6 36.09L30.6 31.89C30.6 30.24 31.94 28.89 33.59 28.89Z" fill="#FFFFFF" fill-opacity="1.000000" fill-rule="evenodd"/>
	<g style="mix-blend-mode:soft-light">
		<path id="路径 42" d="M34 23.8C14.58 23.8 12.03 41.21 19.47 48.28C26.91 55.34 33.16 54.34 37.47 54.4C41.78 54.45 40.35 44.2 34 44.2C27.64 44.2 23.75 38.53 23.75 34C23.75 29.46 27.4 23.8 34 23.8Z" fill="url(#paint_linear_40_93_0)" fill-opacity="1.000000" fill-rule="evenodd"/>
	</g>
</svg>
