<svg width="68.000000" height="68.000000" viewBox="0 0 68 68" fill="none" xmlns="http://www.w3.org/2000/svg" xmlns:xlink="http://www.w3.org/1999/xlink">
	<desc>
			Created with Pixso.
	</desc>
	<defs>
		<linearGradient x1="31.147346" y1="14.388683" x2="39.715958" y2="45.999359" id="paint_linear_40_100_0" gradientUnits="userSpaceOnUse">
			<stop stop-color="#FFFFFF" stop-opacity="0.964706"/>
			<stop offset="0.406184" stop-color="#FFFFFF" stop-opacity="0.800000"/>
			<stop offset="1.000000" stop-color="#FFFFFF"/>
		</linearGradient>
		<linearGradient x1="37.602200" y1="33.513607" x2="46.505852" y2="26.322863" id="paint_linear_40_101_0" gradientUnits="userSpaceOnUse">
			<stop stop-color="#000000" stop-opacity="0.000000"/>
			<stop offset="1.000000" stop-color="#000000"/>
		</linearGradient>
	</defs>
	<rect id="矩形备份" rx="8.000000" width="68.000000" height="68.000000" fill="#5F5AF8" fill-opacity="1.000000"/>
	<path id="路径" d="M40.8 13.6C48.31 13.6 54.4 19.68 54.4 27.2C54.4 34.71 48.31 40.8 40.8 40.8L30.97 40.8C30.76 40.8 30.6 40.96 30.6 41.17L30.6 56.1L20.4 56.1L20.4 35.6C20.4 32.83 22.63 30.6 25.4 30.6L40.8 30.6C42.67 30.6 44.2 29.07 44.2 27.2C44.2 25.32 42.67 23.8 40.8 23.8L20.4 23.8L20.4 13.6L40.8 13.6Z" fill="url(#paint_linear_40_100_0)" fill-opacity="1.000000" fill-rule="evenodd"/>
	<g style="mix-blend-mode:soft-light">
		<path id="路径 43" d="M40.79 23.8C53.47 23.8 55.32 34.83 48.47 39.22C45.67 41.02 42.44 40.8 39.1 40.8C35.77 40.81 31.88 30.6 40.79 30.6C42.82 30.6 44.18 28.87 44.2 27.2C44.22 25.52 42.84 23.78 40.79 23.8Z" fill="url(#paint_linear_40_101_0)" fill-opacity="1.000000" fill-rule="evenodd"/>
	</g>
</svg>
