<svg width="68.000000" height="68.000000" viewBox="0 0 68 68" fill="none" xmlns="http://www.w3.org/2000/svg" xmlns:xlink="http://www.w3.org/1999/xlink">
	<desc>
			Created with Pixso.
	</desc>
	<defs>
		<linearGradient x1="48.789276" y1="29.898880" x2="33.806408" y2="40.631443" id="paint_linear_40_58_0" gradientUnits="userSpaceOnUse">
			<stop stop-color="#000000" stop-opacity="0.000000"/>
			<stop offset="1.000000" stop-color="#000000"/>
		</linearGradient>
		<linearGradient x1="56.681087" y1="54.983368" x2="20.126205" y2="48.781448" id="paint_linear_40_59_0" gradientUnits="userSpaceOnUse">
			<stop stop-color="#FFFFFF" stop-opacity="0.905882"/>
			<stop offset="0.583061" stop-color="#FFFFFF" stop-opacity="0.800000"/>
			<stop offset="1.000000" stop-color="#FFFFFF"/>
		</linearGradient>
	</defs>
	<rect id="矩形备份" rx="8.000000" width="68.000000" height="68.000000" fill="#5F5AF8" fill-opacity="1.000000"/>
	<g style="mix-blend-mode:soft-light">
		<path id="路径 41" d="M31.82 39.14C34.37 44.4 40.01 52.21 45.29 41.46C45.97 40.07 49.94 32.37 50.88 30.42C59.23 13.13 44.55 20.07 40.2 28.75C39.42 30.32 35.67 38.08 34.99 39.27C34.06 40.89 32.38 40.33 31.82 39.14Z" fill="url(#paint_linear_40_58_0)" fill-opacity="1.000000" fill-rule="evenodd"/>
	</g>
	<path id="减去顶层" d="M10.2 18.6995L28.9684 56.2363C30.811 59.9215 36.07 59.9215 37.9127 56.2363L56.6811 18.6995L45.2772 18.6995L34.335 40.5841C33.9664 41.3212 32.9146 41.3212 32.5461 40.5841L21.6039 18.6995L10.2 18.6995Z" clip-rule="evenodd" fill="url(#paint_linear_40_59_0)" fill-opacity="1.000000" fill-rule="evenodd"/>
</svg>
