<svg width="68.000000" height="68.000000" viewBox="0 0 68 68" fill="none" xmlns="http://www.w3.org/2000/svg" xmlns:xlink="http://www.w3.org/1999/xlink">
	<desc>
			Created with Pixso.
	</desc>
	<defs>
		<linearGradient x1="53.417221" y1="40.924957" x2="25.626863" y2="34.229961" id="paint_linear_40_83_0" gradientUnits="userSpaceOnUse">
			<stop stop-color="#FFFFFF" stop-opacity="0.905882"/>
			<stop offset="0.708703" stop-color="#FFFFFF" stop-opacity="0.800000"/>
			<stop offset="1.000000" stop-color="#FFFFFF"/>
		</linearGradient>
		<linearGradient x1="48.383568" y1="48.457321" x2="15.588461" y2="33.332123" id="paint_linear_40_85_0" gradientUnits="userSpaceOnUse">
			<stop stop-color="#FFFFFF" stop-opacity="0.905882"/>
			<stop offset="0.727615" stop-color="#FFFFFF" stop-opacity="0.800000"/>
			<stop offset="1.000000" stop-color="#FFFFFF"/>
		</linearGradient>
		<linearGradient x1="43.538765" y1="32.809372" x2="36.771786" y2="31.496706" id="paint_linear_40_87_0" gradientUnits="userSpaceOnUse">
			<stop stop-color="#000000" stop-opacity="0.000000"/>
			<stop offset="1.000000" stop-color="#000000"/>
		</linearGradient>
		<linearGradient x1="34.433800" y1="49.248573" x2="25.080206" y2="47.146717" id="paint_linear_40_88_0" gradientUnits="userSpaceOnUse">
			<stop stop-color="#000000" stop-opacity="0.000000"/>
			<stop offset="1.000000" stop-color="#000000"/>
		</linearGradient>
	</defs>
	<rect id="矩形备份 11" rx="8.000000" width="68.000000" height="68.000000" fill="#5F5AF8" fill-opacity="1.000000"/>
	<path id="路径" d="M19.05 38.99L31.91 21.12C33.24 19.27 36.05 19.51 37.04 21.56L41.15 30C41.49 30.68 42.43 30.76 42.87 30.14L51.87 17.33L57.43 21.24L43.75 40.7C42.44 42.57 39.6 42.35 38.6 40.29L34.45 31.76C34.11 31.08 33.18 31 32.74 31.61L24.57 42.96L19.05 38.99Z" fill="url(#paint_linear_40_83_0)" fill-opacity="1.000000" fill-rule="evenodd"/>
	<rect id="矩形备份 10" x="18.699951" y="28.899902" width="6.800000" height="15.300000" fill="#5F5AF8" fill-opacity="1.000000"/>
	<rect id="矩形备份 10" x="19.199951" y="29.399902" width="5.800000" height="14.300000" stroke="#979797" stroke-opacity="0" stroke-width="1.000000"/>
	<path id="路径" d="M20.4 15.3L20.4 44.9C20.4 45.45 20.84 45.9 21.4 45.9L54.4 45.9L54.4 52.7L18.6 52.7C15.83 52.7 13.6 50.46 13.6 47.7L13.6 15.3L20.4 15.3Z" fill="url(#paint_linear_40_85_0)" fill-opacity="1.000000" fill-rule="evenodd"/>
	<rect id="矩形备份 13" x="51.000000" y="15.300049" width="6.800000" height="17.000000" fill="#5F5AF8" fill-opacity="1.000000"/>
	<rect id="矩形备份 13" x="51.500000" y="15.800049" width="5.800000" height="16.000000" stroke="#979797" stroke-opacity="0" stroke-width="1.000000"/>
	<g style="mix-blend-mode:soft-light">
		<path id="路径 45" d="M32.07 32.53C35.7 27.7 39.88 27.69 41 29.44C41.29 29.91 42.74 30.36 43.66 29.03C45 27.08 48.61 34.38 45.29 38.48C43.22 41.02 38.78 40.77 37.28 37.58C36.52 35.98 35.34 33.52 34.95 32.8C34.14 31.31 32.43 31.9 32.07 32.53Z" fill="url(#paint_linear_40_87_0)" fill-opacity="1.000000" fill-rule="evenodd"/>
	</g>
	<g style="mix-blend-mode:soft-light">
		<path id="路径 46" d="M20.41 44.2C20.41 45.3 21.33 45.9 22.1 45.9C22.86 45.9 31.04 45.9 33.12 45.9C35.19 45.9 38.23 52.7 33.12 52.7C28.01 52.7 34.23 52.7 28.16 52.7C22.1 52.7 20.41 47.55 20.41 44.2Z" fill="url(#paint_linear_40_88_0)" fill-opacity="1.000000" fill-rule="evenodd"/>
	</g>
</svg>
