<svg width="68.000000" height="68.000000" viewBox="0 0 68 68" fill="none" xmlns="http://www.w3.org/2000/svg" xmlns:xlink="http://www.w3.org/1999/xlink">
	<desc>
			Created with Pixso.
	</desc>
	<defs>
		<linearGradient x1="49.348724" y1="29.049271" x2="34.365856" y2="39.781834" id="paint_linear_40_112_0" gradientUnits="userSpaceOnUse">
			<stop stop-color="#000000" stop-opacity="0.000000"/>
			<stop offset="1.000000" stop-color="#000000"/>
		</linearGradient>
		<linearGradient x1="57.240566" y1="54.133759" x2="20.685684" y2="47.931839" id="paint_linear_40_113_0" gradientUnits="userSpaceOnUse">
			<stop stop-color="#FFFFFF" stop-opacity="0.905882"/>
			<stop offset="0.583061" stop-color="#FFFFFF" stop-opacity="0.800000"/>
			<stop offset="1.000000" stop-color="#FFFFFF"/>
		</linearGradient>
		<linearGradient x1="55.250027" y1="56.949951" x2="45.108307" y2="45.069050" id="paint_linear_40_118_0" gradientUnits="userSpaceOnUse">
			<stop stop-color="#FFFFFF" stop-opacity="0.800000"/>
			<stop offset="1.000000" stop-color="#FFFFFF"/>
		</linearGradient>
	</defs>
	<rect id="矩形备份" rx="8.000000" width="68.000000" height="68.000000" fill="#5F5AF8" fill-opacity="1.000000"/>
	<g style="mix-blend-mode:soft-light">
		<path id="路径 41" d="M32.38 38.29C34.93 43.55 40.57 51.36 45.85 40.61C46.53 39.22 50.5 31.52 51.44 29.57C59.79 12.28 45.11 19.22 40.76 27.9C39.98 29.47 36.23 37.23 35.55 38.42C34.62 40.04 32.94 39.48 32.38 38.29Z" fill="url(#paint_linear_40_112_0)" fill-opacity="1.000000" fill-rule="evenodd"/>
	</g>
	<path id="减去顶层" d="M10.7595 17.8499L29.5279 55.3867C31.3705 59.0719 36.6295 59.0719 38.4722 55.3867L57.2405 17.8499L45.8366 17.8499L34.8944 39.7345C34.5259 40.4716 33.4741 40.4716 33.1056 39.7345L22.1634 17.8499L10.7595 17.8499Z" clip-rule="evenodd" fill="url(#paint_linear_40_113_0)" fill-opacity="1.000000" fill-rule="evenodd"/>
	<rect id="矩形" x="39.099976" y="37.399902" rx="2.000000" width="20.400002" height="23.800001" fill="#5F5AF8" fill-opacity="1.000000"/>
	<rect id="矩形" x="39.599976" y="37.899902" rx="2.000000" width="19.400002" height="22.800001" stroke="#979797" stroke-opacity="0" stroke-width="1.000000"/>
	<rect id="矩形" x="41.650024" y="39.949951" rx="1.402597" width="13.600000" height="17.000000" fill="url(#paint_linear_40_118_0)" fill-opacity="1.000000"/>
	<ellipse id="椭圆形" cx="48.449951" cy="54.217896" rx="0.927273" ry="0.910714" fill="#5F5AF8" fill-opacity="1.000000"/>
	<ellipse id="椭圆形" cx="48.449951" cy="54.217896" rx="0.427273" ry="0.410714" stroke="#979797" stroke-opacity="0" stroke-width="1.000000"/>
	<path id="直线 4 (边框)" d="M46.59 42.38C46.26 42.38 45.99 42.65 45.99 42.98C45.99 43.31 46.26 43.58 46.59 43.58L50.3 43.58C50.63 43.58 50.9 43.31 50.9 42.98C50.9 42.65 50.63 42.38 50.3 42.38L46.59 42.38Z" fill="#5F5AF8" fill-opacity="1.000000" fill-rule="evenodd"/>
</svg>
