<svg width="68.000000" height="68.000000" viewBox="0 0 68 68" fill="none" xmlns="http://www.w3.org/2000/svg" xmlns:xlink="http://www.w3.org/1999/xlink">
	<desc>
			Created with Pixso.
	</desc>
	<defs>
		<linearGradient x1="13.599972" y1="34.000099" x2="46.932430" y2="32.035679" id="paint_linear_40_96_0" gradientUnits="userSpaceOnUse">
			<stop stop-color="#FFFFFF" stop-opacity="0.858824"/>
			<stop offset="0.251694" stop-color="#FFFFFF" stop-opacity="0.800000"/>
			<stop offset="1.000000" stop-color="#FFFFFF"/>
		</linearGradient>
		<linearGradient x1="28.985077" y1="48.247715" x2="25.384678" y2="35.584129" id="paint_linear_40_97_0" gradientUnits="userSpaceOnUse">
			<stop stop-color="#000000" stop-opacity="0.000000"/>
			<stop offset="1.000000" stop-color="#000000"/>
		</linearGradient>
	</defs>
	<rect id="矩形备份 7" rx="8.000000" width="68.000000" height="68.000000" fill="#5F5AF8" fill-opacity="1.000000"/>
	<path id="路径备份 2" d="M49.3 13.6L49.3 23.8L34 23.8C28.36 23.8 23.8 28.36 23.8 34C23.8 39.63 28.36 44.2 34 44.2L49.3 44.2L49.3 54.4L34 54.4C22.73 54.4 13.6 45.26 13.6 34C13.6 22.73 22.73 13.6 34 13.6L49.3 13.6Z" fill="url(#paint_linear_40_96_0)" fill-opacity="1.000000" fill-rule="evenodd"/>
	<g style="mix-blend-mode:soft-light">
		<path id="路径 42备份" d="M34 23.8C14.58 23.8 12.03 41.21 19.47 48.28C26.91 55.34 33.16 54.34 37.47 54.4C41.78 54.45 40.35 44.2 34 44.2C27.64 44.2 23.75 38.53 23.75 34C23.75 29.46 27.4 23.8 34 23.8Z" fill="url(#paint_linear_40_97_0)" fill-opacity="1.000000" fill-rule="evenodd"/>
	</g>
</svg>
