<svg width="17.500000" height="17.500000" viewBox="0 0 17.5 17.5" fill="none" xmlns="http://www.w3.org/2000/svg" xmlns:xlink="http://www.w3.org/1999/xlink">
	<desc>
			Created with Pixso.
	</desc>
	<defs>
		<clipPath id="clip727_39358">
			<rect id="next_step_border" width="17.500000" height="17.500000" fill="white" fill-opacity="0"/>
		</clipPath>
	</defs>
	<g clip-path="url(#clip727_39358)">
		<path id="path1" d="M0.54 8.74C0.54 7.46 0.54 6.18 0.54 4.89C0.54 4.27 0.62 3.66 0.77 3.05C1.11 1.78 1.94 1.03 3.21 0.74C3.84 0.6 4.49 0.53 5.15 0.54C7.6 0.54 10.06 0.54 12.52 0.54C13.14 0.54 13.76 0.61 14.36 0.75C15.67 1.07 16.46 1.9 16.76 3.21C16.89 3.83 16.95 4.45 16.95 5.09C16.95 7.57 16.95 10.05 16.95 12.54C16.95 13.15 16.88 13.77 16.74 14.36C16.42 15.67 15.58 16.46 14.28 16.75C13.64 16.89 12.99 16.96 12.34 16.95C9.89 16.95 7.45 16.95 5 16.95C4.37 16.95 3.75 16.88 3.14 16.74C1.83 16.42 1.04 15.59 0.74 14.27C0.58 13.61 0.54 12.94 0.54 12.27C0.54 11.09 0.54 9.91 0.54 8.74Z" fill="#FFFFFF" fill-opacity="0" fill-rule="nonzero"/>
		<path id="path1" d="M0.54 4.89C0.54 4.27 0.62 3.66 0.77 3.05C1.11 1.78 1.94 1.03 3.21 0.74C3.84 0.6 4.49 0.53 5.15 0.54C7.6 0.54 10.06 0.54 12.52 0.54C13.14 0.54 13.76 0.61 14.36 0.75C15.67 1.07 16.46 1.9 16.76 3.21C16.89 3.83 16.95 4.45 16.95 5.09C16.95 7.57 16.95 10.05 16.95 12.54C16.95 13.15 16.88 13.77 16.74 14.36C16.42 15.67 15.58 16.46 14.28 16.75C13.64 16.89 12.99 16.96 12.34 16.95C9.89 16.95 7.45 16.95 5 16.95C4.37 16.95 3.75 16.88 3.14 16.74C1.83 16.42 1.04 15.59 0.74 14.27C0.58 13.61 0.54 12.94 0.54 12.27C0.54 11.09 0.54 9.91 0.54 8.74C0.54 7.46 0.54 6.18 0.54 4.89Z" stroke="#FFFFFF" stroke-opacity="0" stroke-width="1.093750"/>
		<g opacity="0.200000">
			<path id="path2" d="M0.54 8.74C0.54 7.46 0.54 6.18 0.54 4.89C0.54 4.27 0.62 3.66 0.77 3.05C1.11 1.78 1.94 1.03 3.21 0.74C3.84 0.6 4.49 0.53 5.15 0.54C7.6 0.54 10.06 0.54 12.52 0.54C13.14 0.54 13.76 0.61 14.36 0.75C15.67 1.07 16.46 1.9 16.76 3.21C16.89 3.83 16.95 4.45 16.95 5.09C16.95 7.57 16.95 10.05 16.95 12.54C16.95 13.15 16.88 13.77 16.74 14.36C16.42 15.67 15.58 16.46 14.28 16.75C13.64 16.89 12.99 16.96 12.34 16.95C9.89 16.95 7.45 16.95 5 16.95C4.37 16.95 3.75 16.88 3.14 16.74C1.83 16.42 1.04 15.59 0.74 14.27C0.58 13.61 0.54 12.94 0.54 12.27C0.54 11.09 0.54 9.91 0.54 8.74Z" fill="#000000" fill-opacity="0" fill-rule="nonzero"/>
			<path id="path2" d="M0.54 4.89C0.54 4.27 0.62 3.66 0.77 3.05C1.11 1.78 1.94 1.03 3.21 0.74C3.84 0.6 4.49 0.53 5.15 0.54C7.6 0.54 10.06 0.54 12.52 0.54C13.14 0.54 13.76 0.61 14.36 0.75C15.67 1.07 16.46 1.9 16.76 3.21C16.89 3.83 16.95 4.45 16.95 5.09C16.95 7.57 16.95 10.05 16.95 12.54C16.95 13.15 16.88 13.77 16.74 14.36C16.42 15.67 15.58 16.46 14.28 16.75C13.64 16.89 12.99 16.96 12.34 16.95C9.89 16.95 7.45 16.95 5 16.95C4.37 16.95 3.75 16.88 3.14 16.74C1.83 16.42 1.04 15.59 0.74 14.27C0.58 13.61 0.54 12.94 0.54 12.27C0.54 11.09 0.54 9.91 0.54 8.74C0.54 7.46 0.54 6.18 0.54 4.89Z" stroke="#FFFFFF" stroke-opacity="0" stroke-width="1.093750"/>
		</g>
		<circle id="path3" cx="8.750000" cy="8.750000" r="8.750000" fill="#FFFFFF" fill-opacity="0"/>
		<circle id="path3" cx="8.750000" cy="8.750000" r="8.750000" stroke="#000000" stroke-opacity="0" stroke-width="1.093750"/>
		<circle id="path4" cx="8.750000" cy="8.750000" r="8.203125" fill="#FFFFFF" fill-opacity="0"/>
		<circle id="path4" cx="8.750000" cy="8.750000" r="8.203125" stroke="#FFFFFF" stroke-opacity="0" stroke-width="1.093750" stroke-linejoin="round"/>
		<path id="path5" d="M14.33 2.04L14.36 2.03C14.59 2.23 14.62 2.57 14.43 2.8C14.23 3.04 13.89 3.07 13.66 2.87L13.65 2.84L14.33 2.04ZM14.65 3.84L14.62 3.83C14.42 3.6 14.45 3.26 14.69 3.06C14.92 2.87 15.26 2.9 15.46 3.13L15.46 3.16L14.65 3.84Z" fill="#000000" fill-opacity="0" fill-rule="nonzero"/>
		<path id="path5" d="M14.01 2.45C12.58 1.26 10.75 0.54 8.75 0.54C4.21 0.54 0.54 4.21 0.54 8.75C0.54 13.28 4.21 16.95 8.75 16.95C13.28 16.95 16.95 13.28 16.95 8.75C16.95 6.74 16.23 4.91 15.04 3.48" stroke="#FFFFFF" stroke-opacity="1.000000" stroke-width="1.093750" stroke-linejoin="round" stroke-linecap="round"/>
		<path id="path6" d="M5.12 9.27L5.1 9.29C4.79 9.29 4.55 9.05 4.55 8.75C4.55 8.44 4.79 8.2 5.1 8.2L5.12 8.22L5.12 9.27ZM9.77 12.2L9.77 12.23C9.55 12.44 9.21 12.45 8.99 12.24C8.77 12.02 8.77 11.68 8.98 11.46L9.01 11.46L9.77 12.2ZM9.01 6.03L8.98 6.03C8.77 5.81 8.77 5.47 8.99 5.25C9.21 5.04 9.55 5.04 9.77 5.26L9.77 5.29L9.01 6.03Z" fill="#000000" fill-opacity="0" fill-rule="nonzero"/>
		<path id="path6" d="M5.1 8.75L12.39 8.75M9.37 11.84L12.39 8.75L9.37 5.65" stroke="#FFFFFF" stroke-opacity="1.000000" stroke-width="1.093750" stroke-linejoin="round" stroke-linecap="round"/>
	</g>
</svg>
