<svg viewBox="0 0 24 24" xmlns="http://www.w3.org/2000/svg" xmlns:xlink="http://www.w3.org/1999/xlink" width="24.000000" height="24.000000" fill="none" customFrame="url(#clipPath_0)">
	<defs>
		<linearGradient id="paint_linear_0" x1="12" x2="12" y1="0" y2="24" gradientUnits="userSpaceOnUse">
			<stop stop-color="rgb(20,118,255)" offset="0" stop-opacity="1" />
			<stop stop-color="rgb(65,145,250)" offset="1" stop-opacity="1" />
		</linearGradient>
		<clipPath id="clipPath_0">
			<rect width="24.000000" height="24.000000" x="0.000000" y="0.000000" rx="4.800000" fill="rgb(255,255,255)" />
		</clipPath>
		<clipPath id="clipPath_1">
			<rect width="14.400001" height="14.400001" x="4.800781" y="4.799805" fill="rgb(255,255,255)" />
		</clipPath>
	</defs>
	<rect id="组合 3267" width="24.000000" height="24.000000" x="0.000000" y="0.000000" rx="4.800000" fill="url(#paint_linear_0)" />
	<rect id="组合 3267" width="23.400000" height="23.400000" x="0.300000" y="0.300000" rx="4.800000" stroke="rgb(219,219,219)" stroke-opacity="0" stroke-width="0.600000024" />
	<g id="svg 2" clip-path="url(#clipPath_1)" customFrame="url(#clipPath_1)">
		<rect id="svg 2" width="14.400001" height="14.400001" x="4.800781" y="4.799805" />
		<path id="矢量 105" d="M17.8811 10.8001C17.972 11.2459 18.0116 11.6963 18 12.1511C17.9884 12.606 17.9258 13.0537 17.8124 13.4944C17.6989 13.935 17.5374 14.3573 17.3279 14.7612C17.1183 15.165 16.8661 15.5402 16.5712 15.8867C16.2763 16.2333 15.9463 16.5422 15.5811 16.8136C15.2159 17.0851 14.8249 17.312 14.4081 17.4945C13.9912 17.6769 13.5592 17.8103 13.1121 17.8945C12.6649 17.9786 12.214 18.0115 11.7594 17.9931C11.3048 17.9748 10.858 17.9055 10.4191 17.7855C9.98023 17.6655 9.56043 17.4977 9.15971 17.2821C8.75899 17.0666 8.3876 16.8088 8.04553 16.5088C7.70346 16.2087 7.39945 15.8741 7.13351 15.5049C6.86757 15.1357 6.64648 14.7414 6.47025 14.3219C6.29402 13.9024 6.16715 13.4685 6.08965 13.0201C6.01214 12.5718 5.98597 12.1204 6.01114 11.6661C6.03631 11.2118 6.11218 10.7661 6.23875 10.3291C6.36532 9.89202 6.53935 9.47476 6.76084 9.07731C6.98233 8.67985 7.24563 8.31234 7.55073 7.97478C7.85584 7.63723 8.19495 7.33824 8.56807 7.07784C8.94119 6.81743 9.33879 6.60225 9.76087 6.4323C10.1829 6.26235 10.6187 6.14196 11.0682 6.07115C11.5176 6.00034 11.9693 5.98091 12.4232 6.01285C12.8771 6.0448 13.3216 6.12731 13.7567 6.26038C14.1918 6.39345 14.6064 6.57368 15.0005 6.80108" fill-rule="nonzero" stroke="rgb(255,255,255)" stroke-linecap="round" stroke-linejoin="round" stroke-width="1.20000005" />
		<path id="矢量 106" d="M10.1992 11.4002L11.9992 13.2002L17.9992 7.2002" fill-rule="nonzero" stroke="rgb(255,255,255)" stroke-linecap="round" stroke-linejoin="round" stroke-width="1.20000005" />
	</g>
	<circle id="椭圆 1" cx="15" cy="15" r="9" opacity="0" fill="rgb(20,118,255)" />
</svg>
