<svg viewBox="0 0 87.3442 68.9053" xmlns="http://www.w3.org/2000/svg" xmlns:xlink="http://www.w3.org/1999/xlink" width="87.344238" height="68.905273" fill="none" customFrame="#000000">
	<defs>
		<g id="pixso_custom_effect_1">
			<effect visibility="visible" effectType="gaussianBlur" stdDeviation="14.5573788" />
		</g>
		<filter id="filter_1" width="87.344238" height="40.760742" x="0.000000" y="28.144531" filterUnits="userSpaceOnUse" customEffect="url(#pixso_custom_effect_1)" color-interpolation-filters="sRGB">
			<feFlood flood-opacity="0" result="BackgroundImageFix" />
			<feBlend result="shape" in="SourceGraphic" in2="BackgroundImageFix" mode="normal" />
			<feGaussianBlur stdDeviation="4.85245943" result="effect_layerBlur_1" />
		</filter>
	</defs>
	<g id="组合 1564">
		<rect id="矩形 761" width="58.229511" height="46.633499" x="13.586914" y="0.000000" rx="23.316750" fill="rgb(20,118,255)" />
		<g filter="url(#filter_1)">
			<rect id="矩形 841" width="58.229511" height="11.645899" x="0.000000" y="0.000000" rx="5.822949" opacity="0.469999999" fill="rgb(20,118,255)" transform="matrix(1,0,0,-1,14.5574,54.3477)" />
		</g>
		<rect id="矩形 762" width="42.815815" height="21.407902" x="21.350830" y="12.616211" rx="10.703951" fill="rgb(255,255,255)" />
		<rect id="矩形 840" width="4.354112" height="8.708223" x="51.436035" y="19.409180" rx="2.177056" fill="rgb(20,118,255)" />
		<path id="合并(边框)" d="M31.8176 20.415C31.8927 20.2594 31.9861 20.12 32.0976 19.997L32.0976 19.997C32.2156 19.8667 32.3539 19.7547 32.5126 19.661C32.6669 19.5697 32.8276 19.5033 32.9944 19.4617C33.1488 19.4231 33.3084 19.4058 33.4734 19.4097C33.6373 19.4066 33.7958 19.4245 33.949 19.4632L33.949 19.4632C34.1154 19.5053 34.2754 19.572 34.4292 19.6633C34.5862 19.7565 34.7232 19.8677 34.8402 19.9967C34.952 20.1199 35.0456 20.2595 35.121 20.4154L37.6508 25.6564C37.7107 25.7805 37.7549 25.9079 37.7835 26.0388L37.7835 26.0388C37.8041 26.1332 37.8166 26.2294 37.821 26.3273C37.826 26.4391 37.8202 26.5493 37.8037 26.6579L37.8037 26.6579C37.7868 26.7689 37.7587 26.8782 37.7194 26.9858C37.68 27.0937 37.6308 27.1957 37.5719 27.2917L37.5719 27.2917L37.5719 27.2918C37.5145 27.3853 37.4479 27.4732 37.3721 27.5555C37.3056 27.6276 37.234 27.6933 37.1573 27.7523C37.0508 27.8344 36.9345 27.9038 36.8084 27.9606C36.7002 28.0094 36.5894 28.0468 36.4759 28.0728L36.4758 28.0728C36.3627 28.0987 36.247 28.1133 36.1287 28.1167C36.0244 28.1196 35.9213 28.1137 35.8196 28.099C35.6988 28.0815 35.5799 28.0515 35.4629 28.0091C35.3455 27.9666 35.2348 27.9133 35.1308 27.8493L35.1308 27.8493C35.0436 27.7956 34.9611 27.7344 34.8833 27.6656C34.7943 27.5869 34.7147 27.5012 34.6445 27.4084L34.6445 27.4084C34.5749 27.3163 34.5145 27.2173 34.4634 27.1114L33.4686 25.0507L32.4737 27.111C32.4221 27.2179 32.361 27.3178 32.2905 27.4105C32.2207 27.5023 32.1418 27.5872 32.0536 27.6651C31.9754 27.7342 31.8925 27.7956 31.8049 27.8495C31.7012 27.9132 31.591 27.9661 31.4741 28.0085C31.357 28.0509 31.238 28.0808 31.1172 28.0983C31.0156 28.113 30.9126 28.1189 30.8084 28.116C30.6906 28.1127 30.5755 28.0981 30.4629 28.0724C30.3489 28.0464 30.2375 28.0089 30.1288 27.96C30.0027 27.9032 29.8864 27.8337 29.7799 27.7517L29.7799 27.7517C29.7032 27.6926 29.6316 27.627 29.5651 27.5548C29.4893 27.4725 29.4227 27.3846 29.3653 27.2911C29.3064 27.195 29.2573 27.0931 29.2178 26.9852C29.1785 26.8775 29.1504 26.7682 29.1335 26.6572C29.117 26.5486 29.1113 26.4384 29.1162 26.3266C29.1206 26.2295 29.1329 26.134 29.1533 26.0403L29.1533 26.0403C29.1819 25.9086 29.2263 25.7804 29.2865 25.6556L31.8176 20.4151L31.8176 20.415Z" fill="rgb(20,118,255)" fill-rule="evenodd" />
	</g>
</svg>
