<svg width="20.000000" height="20.000000" viewBox="0 0 20 20" fill="none"
	xmlns="http://www.w3.org/2000/svg" xmlns:xlink="http://www.w3.org/1999/xlink">
	<circle id="椭圆" cx="10.000000" cy="10.000000" r="10.000000" fill="#FFFFFF"
		fill-opacity="1.000000" />
	<path id="形状结合"
		d="M10 15C10.27 15 10.5 15.22 10.5 15.5L10.5 16.5C10.5 16.77 10.27 17 10 17C9.71 17 9.5 16.77 9.5 16.5L9.5 15.5C9.5 15.22 9.71 15 10 15ZM6.46 13.53C6.65 13.73 6.65 14.04 6.46 14.24L5.75 14.94C5.56 15.14 5.23 15.14 5.04 14.94C4.84 14.75 4.84 14.43 5.04 14.24L5.75 13.53C5.95 13.33 6.26 13.33 6.46 13.53ZM14.24 13.53L14.94 14.24C15.14 14.43 15.14 14.75 14.94 14.94C14.75 15.14 14.43 15.14 14.24 14.94L13.53 14.24C13.33 14.04 13.33 13.73 13.53 13.53C13.73 13.33 14.04 13.33 14.24 13.53ZM10 6C12.2 6 14 7.79 14 10C14 12.2 12.2 14 10 14C7.78 14 6 12.2 6 10C6 7.79 7.78 6 10 6ZM4.5 9.5C4.77 9.5 5 9.71 5 10C5 10.27 4.77 10.5 4.5 10.5L3.5 10.5C3.21 10.5 3 10.27 3 10C3 9.71 3.21 9.5 3.5 9.5L4.5 9.5ZM16.5 9.5C16.77 9.5 17 9.71 17 10C17 10.27 16.77 10.5 16.5 10.5L15.5 10.5C15.22 10.5 15 10.27 15 10C15 9.71 15.22 9.5 15.5 9.5L16.5 9.5ZM14.94 5.05C15.14 5.23 15.14 5.56 14.94 5.75L14.24 6.45C14.04 6.66 13.73 6.66 13.53 6.45C13.33 6.26 13.33 5.94 13.53 5.75L14.24 5.05C14.43 4.84 14.75 4.84 14.94 5.05ZM5.75 5.05L6.46 5.75C6.65 5.94 6.65 6.26 6.46 6.45C6.26 6.66 5.95 6.66 5.75 6.45L5.04 5.75C4.84 5.56 4.84 5.23 5.04 5.05C5.23 4.84 5.56 4.84 5.75 5.05ZM10 3C10.27 3 10.5 3.21 10.5 3.5L10.5 4.5C10.5 4.77 10.27 5 10 5C9.71 5 9.5 4.77 9.5 4.5L9.5 3.5C9.5 3.21 9.71 3 10 3Z"
		fill="#FFB700" fill-opacity="1.000000" fill-rule="evenodd" />
</svg>